G04 ================== begin FILE IDENTIFICATION RECORD ==================*
G04 Layout Name:  H:/07_Auto_Car/01_HW/Main/Layout/Auto_Car_17_4.brd*
G04 Film Name:    03-PASTTOP*
G04 File Format:  Gerber RS274X*
G04 File Origin:  Cadence Allegro 17.4-S027*
G04 Origin Date:  Sun Mar 20 00:14:51 2022*
G04 *
G04 Layer:  BOARD GEOMETRY/DESIGN_OUTLINE*
G04 Layer:  BOARD GEOMETRY/CUTOUT*
G04 Layer:  PIN/PASTEMASK_TOP*
G04 Layer:  PACKAGE GEOMETRY/PASTEMASK_TOP*
G04 *
G04 Offset:    (0.000 0.000)*
G04 Mirror:    No*
G04 Mode:      Positive*
G04 Rotation:  0*
G04 FullContactRelief:  No*
G04 UndefLineWidth:     6.000*
G04 ================== end FILE IDENTIFICATION RECORD ====================*
%FSLAX25Y25*MOIN*%
%IR0*IPPOS*OFA0.00000B0.00000*MIA0B0*SFA1.00000B1.00000*%
%ADD18R,.025598X.023598*%
%ADD30R,.069882X.031496*%
%ADD25R,.023598X.025598*%
%ADD15R,.011799X.059098*%
%ADD14R,.023598X.059098*%
%ADD17R,.038598X.036598*%
%ADD16R,.036598X.038598*%
%ADD38R,.034X.008*%
%ADD37R,.008X.034*%
%ADD36R,.001X.001*%
%ADD20R,.110236X.070866*%
%ADD40R,.023622X.009843*%
%ADD39R,.009843X.023622*%
%ADD27O,.011X.034*%
%ADD28R,.011X.034*%
%ADD29R,.034X.011*%
%ADD43R,.011X.027*%
%ADD42R,.027X.011*%
%ADD34R,.07X.05*%
%ADD11R,.05X.07*%
%ADD24R,.041X.028*%
%ADD44R,.028X.041*%
%ADD31R,.066X.015*%
%ADD13O,.039402X.082701*%
%ADD12O,.039402X.070902*%
%ADD35R,.063X.056098*%
%ADD26R,.031496X.05315*%
%ADD23R,.05315X.031496*%
%ADD41R,.04626X.029528*%
%ADD10R,.07874X.07874*%
%ADD32R,.038402X.062598*%
%ADD19R,.015748X.086614*%
%ADD33R,.066929X.021654*%
%ADD22R,.098425X.059055*%
%ADD21R,.0295X.075799*%
%ADD45C,.006*%
G75*
%LPD*%
G75*
G36*
G01X100201Y72201D02*
X105319D01*
Y77319D01*
X100201D01*
Y72201D01*
G37*
G36*
G01Y79681D02*
X105319D01*
Y84799D01*
X100201D01*
Y79681D01*
G37*
G36*
G01X107681Y72201D02*
X112799D01*
Y77319D01*
X107681D01*
Y72201D01*
G37*
G36*
G01Y79681D02*
X112799D01*
Y84799D01*
X107681D01*
Y79681D01*
G37*
G36*
G01X211756Y53544D02*
Y58456D01*
X206844D01*
Y53544D01*
X211756D01*
G37*
G36*
G01Y47844D02*
Y52756D01*
X206844D01*
Y47844D01*
X211756D01*
G37*
G36*
G01X217456Y53544D02*
Y58456D01*
X212544D01*
Y53544D01*
X217456D01*
G37*
G36*
G01Y47844D02*
Y52756D01*
X212544D01*
Y47844D01*
X217456D01*
G37*
G36*
G01X211756Y59244D02*
Y64156D01*
X206844D01*
Y59244D01*
X211756D01*
G37*
G36*
G01X217456D02*
Y64156D01*
X212544D01*
Y59244D01*
X217456D01*
G37*
G36*
G01X223156Y53544D02*
Y58456D01*
X218244D01*
Y53544D01*
X223156D01*
G37*
G36*
G01Y47844D02*
Y52756D01*
X218244D01*
Y47844D01*
X223156D01*
G37*
G36*
G01Y59244D02*
Y64156D01*
X218244D01*
Y59244D01*
X223156D01*
G37*
G36*
G01X217606Y123415D02*
Y119546D01*
X217603Y119508D01*
X217592Y119472D01*
X217574Y119439D01*
X217550Y119410D01*
X217521Y119387D01*
X217488Y119369D01*
X217452Y119358D01*
X217415Y119354D01*
X213546D01*
X213508Y119358D01*
X213472Y119369D01*
X213439Y119387D01*
X213410Y119410D01*
X213387Y119439D01*
X213369Y119472D01*
X213358Y119508D01*
X213354Y119546D01*
Y123415D01*
X213358Y123452D01*
X213369Y123488D01*
X213387Y123521D01*
X213410Y123550D01*
X213439Y123574D01*
X213472Y123592D01*
X213508Y123603D01*
X213546Y123606D01*
X217415D01*
X217452Y123603D01*
X217488Y123592D01*
X217521Y123574D01*
X217550Y123550D01*
X217574Y123521D01*
X217592Y123488D01*
X217603Y123452D01*
X217606Y123415D01*
G37*
G36*
G01X218394Y119546D02*
Y123415D01*
X218397Y123452D01*
X218408Y123488D01*
X218426Y123521D01*
X218450Y123550D01*
X218479Y123574D01*
X218512Y123592D01*
X218548Y123603D01*
X218585Y123606D01*
X222454D01*
X222492Y123603D01*
X222528Y123592D01*
X222561Y123574D01*
X222590Y123550D01*
X222613Y123521D01*
X222631Y123488D01*
X222642Y123452D01*
X222646Y123415D01*
Y119546D01*
X222642Y119508D01*
X222631Y119472D01*
X222613Y119439D01*
X222590Y119410D01*
X222561Y119387D01*
X222528Y119369D01*
X222492Y119358D01*
X222454Y119354D01*
X218585D01*
X218548Y119358D01*
X218512Y119369D01*
X218479Y119387D01*
X218450Y119410D01*
X218426Y119439D01*
X218408Y119472D01*
X218397Y119508D01*
X218394Y119546D01*
G37*
G36*
G01Y124585D02*
Y128454D01*
X218397Y128492D01*
X218408Y128528D01*
X218426Y128561D01*
X218450Y128590D01*
X218479Y128613D01*
X218512Y128631D01*
X218548Y128642D01*
X218585Y128646D01*
X222454D01*
X222492Y128642D01*
X222528Y128631D01*
X222561Y128613D01*
X222590Y128590D01*
X222613Y128561D01*
X222631Y128528D01*
X222642Y128492D01*
X222646Y128454D01*
Y124585D01*
X222642Y124548D01*
X222631Y124512D01*
X222613Y124479D01*
X222590Y124450D01*
X222561Y124426D01*
X222528Y124408D01*
X222492Y124397D01*
X222454Y124394D01*
X218585D01*
X218548Y124397D01*
X218512Y124408D01*
X218479Y124426D01*
X218450Y124450D01*
X218426Y124479D01*
X218408Y124512D01*
X218397Y124548D01*
X218394Y124585D01*
G37*
G36*
G01X217606Y128454D02*
Y124585D01*
X217603Y124548D01*
X217592Y124512D01*
X217574Y124479D01*
X217550Y124450D01*
X217521Y124426D01*
X217488Y124408D01*
X217452Y124397D01*
X217415Y124394D01*
X213546D01*
X213508Y124397D01*
X213472Y124408D01*
X213439Y124426D01*
X213410Y124450D01*
X213387Y124479D01*
X213369Y124512D01*
X213358Y124548D01*
X213354Y124585D01*
Y128454D01*
X213358Y128492D01*
X213369Y128528D01*
X213387Y128561D01*
X213410Y128590D01*
X213439Y128613D01*
X213472Y128631D01*
X213508Y128642D01*
X213546Y128646D01*
X217415D01*
X217452Y128642D01*
X217488Y128631D01*
X217521Y128613D01*
X217550Y128590D01*
X217574Y128561D01*
X217592Y128528D01*
X217603Y128492D01*
X217606Y128454D01*
G37*
G54D10*
X8500Y36732D03*
Y53268D03*
G54D11*
X6339Y139000D03*
X23661D03*
X131339Y60000D03*
X148661D03*
X206839Y169000D03*
X206339Y200500D03*
X224161Y169000D03*
X223661Y200500D03*
X276839Y82000D03*
X294161D03*
G54D20*
X32500Y75500D03*
G54D21*
X40000Y64496D03*
X35000D03*
X30000D03*
X25000D03*
Y86504D03*
X30000D03*
X35000D03*
X40000D03*
G54D12*
X11072Y6979D03*
X45128D03*
G54D30*
X148006Y73500D03*
Y78500D03*
Y83500D03*
Y88500D03*
X179994Y73500D03*
Y88500D03*
Y83500D03*
Y78500D03*
G54D22*
X30500Y96716D03*
Y111284D03*
X81000Y89216D03*
Y103784D03*
G54D13*
X11072Y22727D03*
X45128D03*
G54D31*
X145900Y173543D03*
Y176102D03*
Y178661D03*
Y181220D03*
Y183780D03*
Y186339D03*
Y188898D03*
Y191457D03*
X170100Y183780D03*
Y181220D03*
Y178661D03*
Y176102D03*
Y173543D03*
Y191457D03*
Y188898D03*
Y186339D03*
G54D40*
X210520Y119079D03*
Y121047D03*
Y123016D03*
Y124984D03*
Y126953D03*
Y128921D03*
X225480Y121047D03*
Y119079D03*
Y128921D03*
Y126953D03*
Y124984D03*
Y123016D03*
G54D32*
X147075Y200500D03*
X153925D03*
G54D41*
X246525Y96718D03*
Y100458D03*
Y104198D03*
X256859D03*
Y96718D03*
X277833Y129260D03*
Y133000D03*
Y136740D03*
X289676Y103718D03*
X279341D03*
X289676Y111198D03*
X279341Y107458D03*
Y111198D03*
X288167Y136740D03*
Y129260D03*
G54D23*
X29465Y119760D03*
X31465Y134760D03*
X37535Y123500D03*
X29465Y127240D03*
X39535Y138500D03*
X31465Y142240D03*
X70465Y129000D03*
X78535Y132740D03*
Y125260D03*
X134035Y146000D03*
X125965Y142260D03*
Y149740D03*
X140465Y146000D03*
X148535Y149740D03*
Y142260D03*
X178535Y148500D03*
X170465Y144760D03*
Y152240D03*
X184965Y148500D03*
X193035Y152240D03*
Y144760D03*
X249965Y198260D03*
X258035Y202000D03*
X249965Y205740D03*
X273035Y198260D03*
X264965Y202000D03*
X273035Y205740D03*
G54D14*
X15502Y26821D03*
X18651D03*
X37549D03*
X40698D03*
G54D33*
X159042Y40063D03*
Y42032D03*
Y44000D03*
Y45968D03*
Y47937D03*
X176758Y42032D03*
Y40063D03*
Y47937D03*
Y45968D03*
Y44000D03*
G54D24*
X57203Y17059D03*
Y11941D03*
X63797Y14500D03*
G54D42*
X261972Y166500D03*
X277028D03*
G54D15*
X23179Y26821D03*
X21210D03*
X34990D03*
X33021D03*
X31053D03*
X29084D03*
X27116D03*
X25147D03*
G54D34*
X196500Y177339D03*
Y194661D03*
X233500Y177339D03*
Y194661D03*
G54D43*
X263595Y161925D03*
X265563D03*
X267532D03*
X269500D03*
X271468D03*
X273437D03*
X275405D03*
Y171075D03*
X273437D03*
X271468D03*
X269500D03*
X267532D03*
X265563D03*
X263595D03*
G54D16*
X18968Y48500D03*
Y56000D03*
X25032Y48500D03*
Y56000D03*
X52968Y94000D03*
X56468Y117500D03*
X56968Y34500D03*
X63032D03*
Y41500D03*
X56968D03*
Y48500D03*
X63032D03*
Y55500D03*
X56968D03*
X59032Y94000D03*
X62532Y117500D03*
X136968Y212000D03*
X143032D03*
X171468Y109000D03*
X177532D03*
X171468Y115500D03*
X177532D03*
X171468Y122000D03*
X177532D03*
X171468Y128500D03*
X177532D03*
X180398Y210587D03*
X174335D03*
X242469Y48500D03*
X248532D03*
X277968Y122000D03*
X287532Y97000D03*
X281468D03*
X284032Y122000D03*
X314468Y91000D03*
X320532D03*
X314468Y98000D03*
X320532D03*
X314468Y110000D03*
X320532D03*
G54D25*
X54827Y86500D03*
X58173D03*
X79173Y118500D03*
X75827D03*
X105327Y61000D03*
X108673D03*
X117673Y98000D03*
X114327D03*
X128173Y136500D03*
X124827D03*
X132327D03*
X128327Y212000D03*
X131673D03*
X136827Y88500D03*
X140173D03*
X136827Y83500D03*
X140173D03*
X136827Y78500D03*
X140173D03*
X143173Y136500D03*
X139827D03*
X135673D03*
X147327D03*
X150673D03*
X176673Y54000D03*
X173327D03*
X173173Y139000D03*
X169827D03*
X178827D03*
X182173D03*
X179827Y183500D03*
X196673Y36000D03*
X193327D03*
X193173Y65500D03*
X189827D03*
X186827Y73000D03*
X190173D03*
X189673Y88500D03*
X186327D03*
X186827Y83500D03*
X190173D03*
X186827Y78500D03*
X190173D03*
X189173Y118500D03*
X185827D03*
X189173Y113500D03*
X185827D03*
X189173Y108500D03*
X185827D03*
X189173Y123500D03*
X185827D03*
X191173Y139000D03*
X187827D03*
X183173Y183500D03*
X190173Y210500D03*
X186827D03*
X242327Y62500D03*
X245673D03*
Y67000D03*
X242327D03*
X242173Y90500D03*
X238827D03*
X261173D03*
X257827D03*
X248327D03*
X251673D03*
Y192000D03*
X248327D03*
X257327D03*
X260673D03*
X271327Y97000D03*
X274673D03*
X266327Y155500D03*
X269673D03*
X275327D03*
X264827Y178500D03*
X268173D03*
X270827Y192000D03*
X274173D03*
X293827Y97500D03*
X290827Y122000D03*
X278673Y155500D03*
X297173Y97500D03*
X309827Y104000D03*
X294173Y122000D03*
X321173Y104000D03*
X317827D03*
X313173D03*
G54D26*
X55760Y124965D03*
X59500Y133035D03*
X63240Y124965D03*
G54D35*
X209768Y18809D03*
Y26191D03*
X218232Y18809D03*
Y26191D03*
G54D44*
X279941Y197203D03*
X285059D03*
X282500Y203797D03*
G54D17*
X17000Y70032D03*
Y63968D03*
X10500Y78468D03*
Y84532D03*
X17500Y78468D03*
Y84532D03*
Y98032D03*
Y91968D03*
X10500Y98032D03*
Y91968D03*
X44500Y101968D03*
X52500D03*
X44500Y108032D03*
X52500D03*
X59500Y101968D03*
Y108032D03*
X82500Y74968D03*
Y81032D03*
X76000Y74968D03*
Y81032D03*
X101000Y98468D03*
Y104532D03*
X107500Y98468D03*
Y104532D03*
Y116532D03*
Y110468D03*
X164500Y199968D03*
Y206032D03*
X239500Y98968D03*
Y105032D03*
X251500Y57968D03*
Y69968D03*
Y64032D03*
Y76032D03*
X272000Y104968D03*
X264000Y97468D03*
Y103532D03*
X272000Y111032D03*
X270500Y130968D03*
Y137032D03*
X296500Y104468D03*
Y110532D03*
X295000Y129468D03*
Y135532D03*
X341000Y119532D03*
Y113468D03*
G54D45*
G01X0Y228350D02*
X295280D01*
Y157480D01*
X346460D01*
Y70870D01*
X295280D01*
Y0D01*
X0D01*
Y228350D01*
G01X165350Y161420D02*
G03I-3933J-3D01*
G01X250000Y118110D02*
G03I-5906J0D01*
G54D27*
X99610Y68756D03*
G54D36*
X215000Y56000D03*
G54D18*
X23000Y120827D03*
X17500D03*
X23000Y124173D03*
X17500D03*
X47000Y120673D03*
Y117327D03*
Y126827D03*
Y130173D03*
X85500Y118827D03*
Y122173D03*
X88000Y76827D03*
Y80173D03*
X95000Y100327D03*
Y103673D03*
X123500Y78673D03*
Y75327D03*
X132500Y175673D03*
Y172327D03*
X137000Y175673D03*
Y172327D03*
X154500Y56827D03*
Y60173D03*
X159000Y200327D03*
Y203673D03*
X179500Y175673D03*
Y172327D03*
X184000Y175673D03*
Y172327D03*
X202500Y20327D03*
Y23673D03*
X213000Y36173D03*
Y32827D03*
Y88173D03*
Y84827D03*
X208500Y88173D03*
Y84827D03*
X199500Y88173D03*
Y84827D03*
X204000Y88173D03*
Y84827D03*
X209000Y102827D03*
X214000D03*
X202500Y117673D03*
Y114327D03*
X209000Y106173D03*
X214000D03*
X214500Y145173D03*
Y141827D03*
X209500Y145173D03*
Y141827D03*
X204500Y145173D03*
Y141827D03*
X225500Y24173D03*
Y20827D03*
X223500Y36173D03*
Y32827D03*
X219000Y36173D03*
Y32827D03*
X228000D03*
Y36173D03*
X217500Y84827D03*
Y88173D03*
X226500D03*
Y84827D03*
X222000Y88173D03*
Y84827D03*
X220500Y102827D03*
X225000D03*
X220500Y106173D03*
X225000D03*
X219500Y145173D03*
Y141827D03*
X232500Y24173D03*
Y20827D03*
Y32827D03*
Y36173D03*
X237000D03*
Y32827D03*
X237500Y48673D03*
Y45327D03*
X246000Y54827D03*
Y58173D03*
X241500Y54827D03*
Y58173D03*
X254500Y48673D03*
Y45327D03*
X271000Y120827D03*
Y124173D03*
X266000Y192173D03*
Y188827D03*
X283500Y161327D03*
Y164673D03*
X286000Y189173D03*
Y185827D03*
X280000Y189173D03*
Y185827D03*
X341000Y105673D03*
Y102327D03*
Y93327D03*
Y96673D03*
G54D19*
X23201Y171300D03*
X20445D03*
X17689D03*
X36981D03*
X34225D03*
X31469D03*
X28713D03*
X25957D03*
X53516D03*
X50760D03*
X48004D03*
X45248D03*
X42492D03*
X39737D03*
X70052D03*
X67296D03*
X64540D03*
X61784D03*
X59028D03*
X56272D03*
X86587D03*
X83831D03*
X81075D03*
X78319D03*
X75563D03*
X72808D03*
X97611D03*
X94855D03*
X92099D03*
X89343D03*
G54D28*
X101579Y68756D03*
Y88244D03*
X99610D03*
X103547Y68756D03*
X105516D03*
X107484D03*
X109453D03*
X111421D03*
X113390D03*
Y88244D03*
X111421D03*
X109453D03*
X107484D03*
X105516D03*
X103547D03*
G54D37*
X212638Y44191D03*
X211063D03*
X209488D03*
X207913D03*
X206339D03*
Y67809D03*
X207913D03*
X209488D03*
X211063D03*
X212638D03*
X223661Y44191D03*
X222087D03*
X220512D03*
X218937D03*
X217362D03*
X215787D03*
X214213D03*
Y67809D03*
X215787D03*
X217362D03*
X218937D03*
X220512D03*
X222087D03*
X223661D03*
G54D29*
X96756Y73579D03*
Y71610D03*
Y85390D03*
Y83421D03*
Y81453D03*
Y79484D03*
Y77516D03*
Y75547D03*
X116244Y71610D03*
Y73579D03*
Y75547D03*
Y77516D03*
Y79484D03*
Y81453D03*
Y83421D03*
Y85390D03*
G54D38*
X203191Y47339D03*
Y48913D03*
Y50488D03*
Y52063D03*
Y53638D03*
Y55213D03*
Y56787D03*
Y58362D03*
Y59937D03*
Y61512D03*
Y63087D03*
Y64661D03*
X226809Y56787D03*
Y55213D03*
Y53638D03*
Y52063D03*
Y50488D03*
Y48913D03*
Y47339D03*
Y64661D03*
Y63087D03*
Y61512D03*
Y59937D03*
Y58362D03*
G54D39*
X213079Y116520D03*
Y131480D03*
X222921Y116520D03*
X220953D03*
X218984D03*
X217016D03*
X215047D03*
Y131480D03*
X217016D03*
X218984D03*
X220953D03*
X222921D03*
M02*
