G04 ================== begin FILE IDENTIFICATION RECORD ==================*
G04 Layout Name:  H:/07_Auto_Car/01_HW/Main/Layout/Auto_Car_17_4.brd*
G04 Film Name:    04-TOP*
G04 File Format:  Gerber RS274X*
G04 File Origin:  Cadence Allegro 17.4-S027*
G04 Origin Date:  Sun Mar 20 00:14:51 2022*
G04 *
G04 Layer:  BOARD GEOMETRY/DESIGN_OUTLINE*
G04 Layer:  BOARD GEOMETRY/CUTOUT*
G04 Layer:  VIA CLASS/TOP*
G04 Layer:  PIN/TOP*
G04 Layer:  ETCH/TOP*
G04 *
G04 Offset:    (0.000 0.000)*
G04 Mirror:    No*
G04 Mode:      Positive*
G04 Rotation:  0*
G04 FullContactRelief:  Yes*
G04 UndefLineWidth:     0.000*
G04 ================== end FILE IDENTIFICATION RECORD ====================*
%FSLAX25Y25*MOIN*%
%IR0*IPPOS*OFA0.00000B0.00000*MIA0B0*SFA1.00000B1.00000*%
%ADD23R,.025598X.023598*%
%ADD30R,.023598X.025598*%
%ADD19R,.011799X.059098*%
%ADD18R,.023598X.059098*%
%ADD22R,.038598X.036598*%
%ADD21R,.036598X.038598*%
%ADD45R,.034X.008*%
%ADD44R,.008X.034*%
%ADD43R,.171X.171*%
%ADD25R,.110236X.070866*%
%ADD47R,.023622X.009843*%
%ADD46R,.009843X.023622*%
%ADD32O,.011X.034*%
%ADD33R,.011X.034*%
%ADD34R,.034X.011*%
%ADD52R,.011X.027*%
%ADD50R,.027X.011*%
%ADD41R,.07X.05*%
%ADD14R,.05X.07*%
%ADD29R,.041X.028*%
%ADD53R,.028X.041*%
%ADD36C,.02*%
%ADD38R,.066X.015*%
%ADD35R,.138X.138*%
%ADD20C,.05*%
%ADD10C,.024*%
%ADD51R,.011811X.011811*%
%ADD39R,.0305X.054701*%
%ADD16C,.0295*%
%ADD37R,.062008X.023622*%
%ADD17O,.039402X.082701*%
%ADD15O,.039402X.070902*%
%ADD54C,.033465*%
%ADD26R,.021701X.067902*%
%ADD31R,.023622X.045276*%
%ADD28R,.045276X.023622*%
%ADD42R,.055098X.048201*%
%ADD48C,.019685*%
%ADD40R,.059055X.01378*%
%ADD12C,.059098*%
%ADD49R,.038386X.021654*%
%ADD11R,.07874X.07874*%
%ADD24R,.015748X.086614*%
%ADD27R,.098425X.059055*%
%ADD13R,.059098X.059098*%
%ADD55C,.005*%
%ADD56C,.008*%
%ADD57C,.00513*%
%ADD58C,.00498*%
%ADD59C,.01*%
%ADD60C,.015*%
%ADD64C,.034004*%
%ADD63C,.069102*%
%ADD62C,.04347*%
%ADD65C,.02969*%
%ADD61O,.049406X.080906*%
G75*
%LPD*%
G75*
G36*
G01X222530Y143378D02*
X221280Y144628D01*
Y146353D01*
G03X220780Y146853I-500J0D01*
G01X219750D01*
Y189689D01*
X223972Y193911D01*
X229500D01*
Y192161D01*
G03X230000Y191661I500J0D01*
G01X237000D01*
G03X237500Y192161I0J500D01*
G01Y197161D01*
G03X237000Y197662I-500J0D01*
G01X230000D01*
G03X229500Y197161I0J-500D01*
G01Y195412D01*
X223661D01*
G03X223131Y195192I0J-750D01*
G01X218470Y190530D01*
G03X218250Y190000I531J-530D01*
G01Y146876D01*
X218098Y146838D01*
G03X217720Y146353I122J-485D01*
G01Y143993D01*
G03X217865Y143641I500J0D01*
G01X217923Y143500D01*
X217865Y143359D01*
G03X217853Y143347I355J-352D01*
G02X217558Y143349I-147J136D01*
G03X217530Y143378I-559J-501D01*
G01X216280Y144628D01*
Y145892D01*
X217530Y147143D01*
G03X217750Y147673I-531J530D01*
G01Y193500D01*
G03X217530Y194031I-750J0D01*
G01X210530Y201031D01*
G03X210000Y201250I-530J-531D01*
G01X209339D01*
Y204000D01*
G03X208839Y204500I-500J0D01*
G01X203839D01*
G03X203338Y204000I0J-500D01*
G01Y197000D01*
G03X203839Y196500I500J0D01*
G01X208839D01*
G03X209339Y197000I0J500D01*
G01Y199750D01*
X209689D01*
X216250Y193189D01*
Y147984D01*
X215119Y146853D01*
X213220D01*
G03X212720Y146353I0J-500D01*
G01Y143993D01*
G03X212865Y143641I500J0D01*
G01X212923Y143500D01*
X212865Y143359D01*
G03X212853Y143347I355J-352D01*
G02X212558Y143349I-147J136D01*
G03X212530Y143378I-559J-501D01*
G01X211280Y144628D01*
Y146353D01*
G03X210780Y146853I-500J0D01*
G01X208881D01*
X207589Y148145D01*
Y165000D01*
X209339D01*
G03X209839Y165500I0J500D01*
G01Y172500D01*
G03X209339Y173000I-500J0D01*
G01X204339D01*
G03X203838Y172500I0J-500D01*
G01Y165500D01*
G03X204339Y165000I500J0D01*
G01X206088D01*
Y163438D01*
G02X205406Y163155I-400J0D01*
G01X202750Y165811D01*
Y171839D01*
G03X202530Y172369I-750J0D01*
G01X200500Y174399D01*
Y179839D01*
G03X200000Y180339I-500J0D01*
G01X193000D01*
G03X192500Y179839I0J-500D01*
G01Y174839D01*
G03X193000Y174338I500J0D01*
G01X198439D01*
X201250Y171528D01*
Y165500D01*
G03X201470Y164970I750J0D01*
G01X204250Y162189D01*
Y146853D01*
X203220D01*
G03X202720Y146353I0J-500D01*
G01Y143993D01*
G03X202865Y143641I500J0D01*
G01X202923Y143500D01*
X202865Y143359D01*
G03X202720Y143007I355J-352D01*
G01Y140647D01*
G03X202960Y140220I500J0D01*
G03X202800Y139500I1540J-720D01*
G03X204500Y137800I1700J0D01*
G03X205593Y138198I0J1700D01*
G02X206250Y137891I257J-306D01*
G01Y130000D01*
G03X206470Y129470I750J0D01*
G01X207470Y128469D01*
G03X208000Y128250I530J531D01*
G01X208859D01*
X208918Y128158D01*
G03X208983Y128078I421J271D01*
G02Y127796I-142J-141D01*
G03X208960Y127772I356J-352D01*
G01X208901Y127703D01*
X192626D01*
G03X192096Y127483I0J-750D01*
G01X189892Y125280D01*
X184647D01*
G03X184147Y124780I0J-500D01*
G01Y124250D01*
X182842D01*
X179862Y127231D01*
Y130430D01*
G03X179361Y130930I-500J0D01*
G01X175702D01*
G03X175201Y130430I0J-500D01*
G01Y126570D01*
G03X175702Y126070I500J0D01*
G01X178901D01*
X182001Y122970D01*
G03X182532Y122750I530J531D01*
G01X184147D01*
Y122220D01*
G03X184647Y121720I500J0D01*
G01X190353D01*
G03X190853Y122220I0J500D01*
G01Y124119D01*
X192937Y126203D01*
X208901D01*
X208960Y126133D01*
G03X208983Y126109I378J328D01*
G02Y125828I-142J-141D01*
G03X208960Y125804I356J-352D01*
G01X208901Y125735D01*
X195658D01*
G03X195127Y125515I0J-750D01*
G01X189892Y120280D01*
X184647D01*
G03X184147Y119780I0J-500D01*
G01Y119250D01*
X181342D01*
X179862Y120731D01*
Y123930D01*
G03X179361Y124430I-500J0D01*
G01X175702D01*
G03X175201Y123930I0J-500D01*
G01Y120070D01*
G03X175702Y119570I500J0D01*
G01X178901D01*
X180501Y117970D01*
G03X181032Y117750I531J531D01*
G01X184147D01*
Y117220D01*
G03X184647Y116720I500J0D01*
G01X190353D01*
G03X190853Y117220I0J500D01*
G01Y119119D01*
X195968Y124234D01*
X208901D01*
X208960Y124165D01*
G03X208983Y124141I378J328D01*
G02Y123859I-142J-141D01*
G03X208960Y123835I356J-352D01*
G01X208901Y123766D01*
X198689D01*
G03X198158Y123546I0J-750D01*
G01X189892Y115280D01*
X184647D01*
G03X184147Y114780I0J-500D01*
G01Y114250D01*
X179862D01*
Y117430D01*
G03X179361Y117930I-500J0D01*
G01X175702D01*
G03X175201Y117430I0J-500D01*
G01Y113570D01*
G03X175702Y113070I500J0D01*
G01X178901D01*
X179001Y112969D01*
G03X179532Y112750I530J531D01*
G01X184147D01*
Y112220D01*
G03X184647Y111720I500J0D01*
G01X190353D01*
G03X190853Y112220I0J500D01*
G01Y114119D01*
X199000Y122266D01*
X208901D01*
X208960Y122196D01*
G03X208983Y122172I378J328D01*
G02Y121891I-142J-141D01*
G03X208960Y121867I356J-352D01*
G01X208901Y121797D01*
X201720D01*
G03X201190Y121578I0J-750D01*
G01X189892Y110280D01*
X184647D01*
G03X184147Y109780I0J-500D01*
G01Y109250D01*
X179862D01*
Y110930D01*
G03X179361Y111430I-500J0D01*
G01X175702D01*
G03X175201Y110930I0J-500D01*
G01Y107070D01*
G03X175702Y106570I500J0D01*
G01X179361D01*
G03X179862Y107070I0J500D01*
G01Y107750D01*
X184147D01*
Y107220D01*
G03X184647Y106720I500J0D01*
G01X190353D01*
G03X190853Y107220I0J500D01*
G01Y109119D01*
X197149Y115415D01*
G02X197826Y115202I283J-283D01*
G03X199500Y113800I1674J298D01*
G03X201200Y115500I0J1700D01*
G03X201191Y115673I-1700J0D01*
G01X201182Y115767D01*
X201408Y115993D01*
X203780D01*
G03X204280Y116493I0J500D01*
G01Y118329D01*
X208901D01*
X208960Y118259D01*
G03X209338Y118086I378J327D01*
G01X212086D01*
Y115339D01*
G03X212259Y114960I500J0D01*
G01X212328Y114900D01*
Y110889D01*
X212051Y110612D01*
X211940Y110642D01*
G03X211500Y110700I-440J-1642D01*
G03X209974Y109750I0J-1700D01*
G03X209470Y109531I26J-750D01*
G01X208470Y108531D01*
G03X208251Y108042I531J-530D01*
G01X208240Y107853D01*
X207720D01*
G03X207220Y107353I0J-500D01*
G01Y105750D01*
X169811D01*
X169674Y105887D01*
G02X169957Y106570I283J283D01*
G01X173298D01*
G03X173799Y107070I0J500D01*
G01Y110930D01*
G03X173298Y111430I-500J0D01*
G01X172469D01*
Y113070D01*
X173298D01*
G03X173799Y113570I0J500D01*
G01Y117430D01*
G03X173298Y117930I-500J0D01*
G01X172469D01*
Y119570D01*
X173298D01*
G03X173799Y120070I0J500D01*
G01Y123930D01*
G03X173298Y124430I-500J0D01*
G01X172469D01*
Y126070D01*
X173298D01*
G03X173799Y126570I0J500D01*
G01Y130430D01*
G03X173391Y130922I-500J0D01*
G02X173084Y131439I74J393D01*
G03X173169Y131968I-1616J529D01*
G03X172901Y132884I-1700J0D01*
G02X173238Y133500I337J216D01*
G01X177500D01*
G03X178207Y133793I0J1000D01*
G01X179534Y135120D01*
G03X179827Y135827I-707J707D01*
G01Y137220D01*
X183353D01*
G03X183853Y137720I0J500D01*
G01Y140280D01*
G03X183368Y140780I-500J0D01*
G01X183173Y140980D01*
Y141759D01*
X185672Y144257D01*
G03X185965Y144965I-707J707D01*
G01Y146819D01*
X187228D01*
G03X187729Y147319I0J500D01*
G01Y149681D01*
G03X187228Y150181I-500J0D01*
G01X183967D01*
G02X183592Y150722I0J400D01*
G03X183700Y151318I-1592J596D01*
G03X182000Y153018I-1700J0D01*
G03X180501Y152120I0J-1700D01*
G02X179841Y152053I-353J189D01*
G03X178535Y152665I-1306J-1089D01*
G03X177277Y152108I0J-1700D01*
G02X176699Y152094I-296J269D01*
G03X175500Y152589I-1199J-1205D01*
G03X173800Y150889I0J-1700D01*
G03X175396Y149192I1700J0D01*
G02X175771Y148792I-25J-399D01*
G01Y147609D01*
G02X175089Y147326I-400J0D01*
G01X172197Y150218D01*
G02X172338Y150559I141J141D01*
G01X172728D01*
G03X173229Y151059I0J500D01*
G01Y153421D01*
G03X172728Y153922I-500J0D01*
G01X168201D01*
G03X167701Y153421I0J-500D01*
G01Y151059D01*
G03X168201Y150559I500J0D01*
G01X169450D01*
X169475Y150388D01*
G03X169757Y149828I989J147D01*
G01X172462Y147124D01*
G02X172179Y146441I-283J-283D01*
G01X168201D01*
G03X167701Y145954I0J-500D01*
G01X167696Y145760D01*
X166260D01*
G03X165553Y145467I0J-1000D01*
G01X163767Y143682D01*
X163673Y143691D01*
G03X163500Y143700I-173J-1691D01*
G03X162812Y143555I0J-1700D01*
G02X162250Y143921I-162J366D01*
G01Y151189D01*
X169031Y157970D01*
G03X169250Y158500I-531J530D01*
G01Y166474D01*
G03X170200Y168000I-750J1526D01*
G03X166800I-1700J0D01*
G03X167750Y166474I1700J0D01*
G01Y158811D01*
X161200Y152261D01*
G02X160859Y152403I-141J141D01*
G01Y152624D01*
G03X161809Y154149I-750J1526D01*
G03X161608Y154951I-1700J0D01*
G02X161926Y155538I353J189D01*
G03X156016Y163795I-509J5879D01*
G02X155250Y163957I-366J161D01*
G01Y168189D01*
X162413Y175352D01*
X166278D01*
X166321Y175209D01*
G03X166800Y174852I479J143D01*
G01X173400D01*
G03X173879Y175209I0J500D01*
G01X173922Y175352D01*
X177720D01*
Y174493D01*
G03X178220Y173993I500J0D01*
G01X180780D01*
G03X181280Y174493I0J500D01*
G01Y176366D01*
G02X181963Y176649I400J0D01*
G01X182220Y176392D01*
Y174493D01*
G03X182720Y173993I500J0D01*
G01X185280D01*
G03X185780Y174493I0J500D01*
G01Y176853D01*
G03X185280Y177353I-500J0D01*
G01X183381D01*
X181667Y179067D01*
G02X181950Y179750I283J283D01*
G01X184189D01*
X186750Y177189D01*
Y168811D01*
X186189Y168250D01*
X175095D01*
G02X174696Y168622I0J400D01*
G03X173000Y170200I-1696J-122D01*
G03Y166800I0J-1700D01*
G03X173558Y166894I0J1700D01*
G03X174000Y166750I442J606D01*
G01X186500D01*
G03X187030Y166970I0J750D01*
G01X188030Y167970D01*
G03X188250Y168500I-531J531D01*
G01Y177500D01*
G03X188030Y178030I-750J0D01*
G01X185030Y181030D01*
G03X184500Y181250I-531J-531D01*
G01X177311D01*
X176810Y181751D01*
G03X176280Y181971I-530J-531D01*
G01X173922D01*
X173879Y182114D01*
G03X173727Y182349I-479J-143D01*
G01X173658Y182500D01*
X173727Y182651D01*
G03X173783Y182708I-327J378D01*
G01X173843Y182779D01*
X178147D01*
Y182220D01*
G03X178647Y181720I500J0D01*
G01X181007D01*
G03X181507Y182220I0J500D01*
G01Y184293D01*
X181993Y184780D01*
X182280D01*
G03X182987Y185073I0J1000D01*
G01X184233Y186318D01*
X184327Y186309D01*
G03X184500Y186300I173J1691D01*
G03Y189700I0J1700D01*
G03X183478Y189359I0J-1700D01*
G02X182907Y189454I-240J320D01*
G03X181918Y190148I-1407J-954D01*
G02X181733Y190819I98J388D01*
G01X184207Y193293D01*
G03X184500Y194000I-707J707D01*
G01Y202885D01*
X190335Y208720D01*
X191353D01*
G03X191853Y209220I0J500D01*
G01Y211780D01*
G03X191368Y212280I-500J0D01*
G01X191173Y212480D01*
Y216584D01*
X191254Y216644D01*
G03X191455Y217045I-299J401D01*
G01Y222955D01*
G03X190955Y223455I-500J0D01*
G01X185045D01*
G03X184545Y222955I0J-500D01*
G01Y217045D01*
G03X185045Y216545I500J0D01*
G01X189173D01*
Y212280D01*
X185647D01*
G03X185147Y211785I0J-500D01*
G01X185145Y211588D01*
X182728D01*
Y212517D01*
G03X182228Y213018I-500J0D01*
G01X178568D01*
G03X178068Y212517I0J-500D01*
G01Y208657D01*
G03X178568Y208157I500J0D01*
G01X182228D01*
G03X182728Y208657I0J500D01*
G01Y209587D01*
X185147D01*
Y209220D01*
G03X185647Y208720I500J0D01*
G01X186541D01*
G02X186824Y208037I0J-400D01*
G01X182793Y204006D01*
G03X182500Y203299I707J-707D01*
G01Y194414D01*
X175424Y187339D01*
X173843D01*
X173783Y187410D01*
G03X173727Y187467I-383J-321D01*
G01X173658Y187618D01*
X173727Y187769D01*
G03X173783Y187826I-327J378D01*
G01X173843Y187897D01*
X174779D01*
G03X175486Y188190I0J1000D01*
G01X181648Y194353D01*
G03X181941Y195060I-707J707D01*
G01Y203059D01*
G03X181648Y203766I-1000J0D01*
G01X176665Y208750D01*
Y212517D01*
G03X176164Y213018I-500J0D01*
G01X175335D01*
Y215920D01*
X176369Y216954D01*
G03X178000Y216545I1631J3046D01*
G03X174545Y220000I0J3455D01*
G03X174954Y218369I3455J0D01*
G01X173627Y217042D01*
G03X173334Y216335I707J-707D01*
G01Y213018D01*
X172505D01*
G03X172004Y212517I0J-500D01*
G01Y208657D01*
G03X172505Y208157I500J0D01*
G01X174428D01*
X179941Y202645D01*
Y195474D01*
X174364Y189898D01*
X173843D01*
X173783Y189969D01*
G03X173400Y190148I-383J-322D01*
G01X166800D01*
G03X166300Y189648I0J-500D01*
G01Y188148D01*
G03X166395Y187853I500J0D01*
G02Y187383I-324J-235D01*
G03X166300Y187089I404J-294D01*
G01Y185589D01*
G03X166473Y185210I500J0D01*
G01X166542Y185059D01*
X166473Y184908D01*
G03X166417Y184851I327J-378D01*
G01X166357Y184780D01*
X149643D01*
X149583Y184851D01*
G03X149527Y184908I-383J-321D01*
G01X149458Y185059D01*
X149527Y185210D01*
G03X149700Y185589I-327J378D01*
G01Y187089D01*
G03X149604Y187383I-500J0D01*
G02Y187853I324J235D01*
G03X149700Y188148I-404J294D01*
G01Y190000D01*
X161707D01*
X168500Y196793D01*
Y199707D01*
X166930Y201277D01*
Y201798D01*
G03X166430Y202299I-500J0D01*
G01X162570D01*
G03X162160Y202085I0J-500D01*
G01X162101Y202000D01*
X160363D01*
X160349Y202002D01*
G03X160280Y202007I-69J-495D01*
G01X157720D01*
G03X157651Y202002I0J-500D01*
G01X157637Y202000D01*
X157207D01*
X155954Y203253D01*
X155944Y203317D01*
G03X155532Y203729I-494J-82D01*
G01X155468Y203739D01*
X155207Y204000D01*
X152293D01*
X151000Y202707D01*
Y197207D01*
X150793Y197000D01*
X143793D01*
X141000Y194207D01*
Y191793D01*
X142096Y190697D01*
X142105Y190632D01*
G03X142273Y190328I495J75D01*
G01X142342Y190177D01*
X142273Y190026D01*
G03X142217Y189969I327J-378D01*
G01X142157Y189898D01*
X141136D01*
X136500Y194533D01*
Y202586D01*
X143484Y209570D01*
X144861D01*
G03X145362Y210070I0J500D01*
G01Y213930D01*
G03X144861Y214430I-500J0D01*
G01X144032D01*
Y216968D01*
G03X143739Y217676I-1000J0D01*
G01X143046Y218369D01*
G03X143455Y220000I-3046J1631D01*
G03X140000Y216545I-3455J0D01*
G03X141631Y216954I0J3455D01*
G01X142031Y216554D01*
Y214430D01*
X141202D01*
G03X140701Y213930I0J-500D01*
G01Y209616D01*
X134793Y203707D01*
G03X134500Y203000I707J-707D01*
G01Y194119D01*
G03X134793Y193412I1000J0D01*
G01X140014Y188190D01*
G03X140721Y187897I707J707D01*
G01X142157D01*
X142217Y187826D01*
G03X142273Y187769I383J321D01*
G01X142342Y187618D01*
X142273Y187467D01*
G03X142217Y187410I327J-378D01*
G01X142157Y187339D01*
X140076D01*
X134000Y193414D01*
Y203000D01*
G03X133707Y203707I-1000J0D01*
G01X129327Y208088D01*
Y210220D01*
X132853D01*
G03X133353Y210720I0J500D01*
G01Y211000D01*
X134638D01*
Y210070D01*
G03X135139Y209570I500J0D01*
G01X138798D01*
G03X139299Y210070I0J500D01*
G01Y213930D01*
G03X138798Y214430I-500J0D01*
G01X135139D01*
G03X134638Y213930I0J-500D01*
G01Y213000D01*
X133353D01*
Y213280D01*
G03X132853Y213780I-500J0D01*
G01X129327D01*
Y216545D01*
X132955D01*
G03X133455Y217045I0J500D01*
G01Y222955D01*
G03X132955Y223455I-500J0D01*
G01X127045D01*
G03X126545Y222955I0J-500D01*
G01Y217045D01*
G03X127045Y216545I500J0D01*
G01X127327D01*
Y213980D01*
X127132Y213780D01*
G03X126647Y213280I15J-500D01*
G01Y210720D01*
G03X127132Y210220I500J0D01*
G01X127327Y210020D01*
Y207673D01*
G03X127620Y206966I1000J0D01*
G01X132000Y202586D01*
Y193000D01*
G03X132293Y192293I1000J0D01*
G01X138954Y185631D01*
G03X139661Y185338I707J707D01*
G01X142157D01*
X142217Y185267D01*
G03X142273Y185210I383J321D01*
G01X142342Y185059D01*
X142273Y184908D01*
G03X142100Y184530I327J-378D01*
G01Y183030D01*
G03X142196Y182735I500J0D01*
G02Y182265I-324J-235D01*
G03X142121Y182114I405J-294D01*
G01X142078Y181971D01*
X131720D01*
G03X131190Y181751I0J-750D01*
G01X128469Y179030D01*
G03X128250Y178500I531J-530D01*
G01Y170500D01*
G03X128469Y169970I750J0D01*
G01X143303Y155136D01*
X143300Y155050D01*
G03X143300Y155000I1700J-49D01*
G03X145000Y156700I1700J0D01*
G03X144111Y156450I0J-1700D01*
G01X129750Y170811D01*
Y178189D01*
X132031Y180470D01*
X142078D01*
X142121Y180328D01*
G03X142196Y180176I479J143D01*
G02Y179706I-323J-235D01*
G03X142121Y179554I405J-294D01*
G01X142078Y179412D01*
X135488D01*
G03X134958Y179192I0J-750D01*
G01X133119Y177353D01*
X131220D01*
G03X130720Y176853I0J-500D01*
G01Y174493D01*
G03X131220Y173993I500J0D01*
G01X133446D01*
X133772Y173667D01*
G03X133780Y173638I728J180D01*
G01Y170470D01*
G03X133999Y169940I750J0D01*
G01X153250Y150689D01*
Y130609D01*
G02X152593Y130303I-400J0D01*
G03X151500Y130700I-1093J-1302D01*
G03X149974Y129750I0J-1700D01*
G01X148811D01*
X148077Y130484D01*
Y134720D01*
X151853D01*
G03X152353Y135220I0J500D01*
G01Y137780D01*
G03X151868Y138280I-500J0D01*
G01X151673Y138480D01*
Y140122D01*
G03X151380Y140829I-1000J0D01*
G01X151285Y140925D01*
X151296Y141021D01*
G03X151299Y141079I-497J57D01*
G01Y143441D01*
G03X150799Y143941I-500J0D01*
G01X146272D01*
G03X145771Y143441I0J-500D01*
G01Y141079D01*
G03X146272Y140578I500J0D01*
G01X148802D01*
X149673Y139708D01*
Y138280D01*
X146147D01*
G03X145647Y137780I0J-500D01*
G01Y137500D01*
X144853D01*
Y137780D01*
G03X144353Y138280I-500J0D01*
G01X141993D01*
G03X141493Y137780I0J-500D01*
G01Y135220D01*
G03X141993Y134720I500J0D01*
G01X144353D01*
G03X144853Y135220I0J500D01*
G01Y135500D01*
X145647D01*
Y135220D01*
G03X146147Y134720I500J0D01*
G01X146577D01*
Y130173D01*
G03X146796Y129643I750J0D01*
G01X147970Y128469D01*
G03X148500Y128250I531J531D01*
G01X149974D01*
G03X150310Y127786I1526J750D01*
G02Y127214I-280J-286D01*
G03X149800Y126000I1190J-1214D01*
G03X149858Y125560I1700J0D01*
G01X149888Y125448D01*
X148689Y124250D01*
X130811D01*
X108030Y147031D01*
G03X107500Y147250I-531J-531D01*
G01X74811D01*
X72750Y149311D01*
Y155500D01*
G03X72530Y156030I-750J0D01*
G01X70530Y158030D01*
G03X70000Y158250I-530J-531D01*
G01X68250D01*
Y161405D01*
G02X68621Y161804I400J0D01*
G03X70200Y163500I-121J1696D01*
G03X68500Y165200I-1700J0D01*
G01X68496D01*
G02X68296Y165400I0J200D01*
G01Y166469D01*
X70839D01*
G03X71339Y166969I0J500D01*
G01Y171400D01*
X71750Y171811D01*
Y173689D01*
X71339Y174100D01*
Y175631D01*
G03X71134Y176035I-500J0D01*
G01X71052Y176095D01*
Y178948D01*
G03X70759Y179656I-1000J0D01*
G01X69707Y180707D01*
G03X69000Y181000I-707J-707D01*
G01X65500D01*
G03X64793Y180707I0J-1000D01*
G01X63793Y179707D01*
G03X63500Y179000I707J-707D01*
G01Y176072D01*
X63429Y176012D01*
G03X63252Y175631I323J-382D01*
G01Y166969D01*
G03X63458Y166565I500J0D01*
G01X63540Y166505D01*
Y165893D01*
G02X63357Y165694I-200J0D01*
G03X61800Y164000I143J-1694D01*
G03X65200I1700J0D01*
G03X65180Y164265I-1700J0D01*
G01X65247Y164333D01*
G03X65390Y164513I-707J707D01*
G01X65441Y164592D01*
X65750D01*
Y158250D01*
X56311D01*
X54266Y160294D01*
Y162490D01*
G03X55216Y164016I-750J1526D01*
G03X54516Y165391I-1700J0D01*
G01Y166469D01*
X57059D01*
G03X57560Y166969I0J500D01*
G01Y175631D01*
G03X57354Y176035I-500J0D01*
G01X57272Y176095D01*
Y178397D01*
G03X57972Y179772I-1000J1375D01*
G03X54572I-1700J0D01*
G03X55272Y178397I1700J0D01*
G01Y176131D01*
X52729D01*
G03X52228Y175631I0J-500D01*
G01Y166969D01*
G03X52434Y166565I500J0D01*
G01X52516Y166505D01*
Y165391D01*
G03X51816Y164016I1000J-1375D01*
G03X52766Y162490I1700J0D01*
G01Y159984D01*
G03X52986Y159453I750J0D01*
G01X55469Y156970D01*
G03X56000Y156750I531J531D01*
G01X65750D01*
Y154609D01*
G02X65093Y154302I-400J0D01*
G03X64000Y154700I-1093J-1302D01*
G03Y151300I0J-1700D01*
G03X64440Y151358I0J1700D01*
G01X64551Y151388D01*
X64750Y151189D01*
Y149500D01*
G03X64970Y148970I750J0D01*
G01X71970Y141970D01*
G03X72500Y141750I530J531D01*
G01X104825D01*
X127606Y118970D01*
G03X128136Y118750I530J531D01*
G01X145905D01*
G02X146304Y118378I0J-400D01*
G03X146316Y118262I1696J121D01*
G02X145638Y117923I-396J-56D01*
G01X145530Y118031D01*
G03X145000Y118250I-531J-531D01*
G01X127311D01*
X120031Y125531D01*
G03X119500Y125750I-531J-531D01*
G01X97500D01*
G03X96970Y125531I0J-750D01*
G01X91016Y119577D01*
X87280D01*
Y120007D01*
G03X86780Y120507I-500J0D01*
G01X84220D01*
G03X83720Y120007I0J-500D01*
G01Y119500D01*
X80853D01*
Y119780D01*
G03X80353Y120280I-500J0D01*
G01X78160D01*
G02X77877Y120963I0J400D01*
G01X79243Y122328D01*
G03X79536Y123036I-707J707D01*
G01Y123579D01*
X80799D01*
G03X81299Y124079I0J500D01*
G01Y126441D01*
G03X80799Y126941I-500J0D01*
G01X76272D01*
G03X75771Y126441I0J-500D01*
G01Y124079D01*
G03X76272Y123579I500J0D01*
G01X76698D01*
G02X76981Y122896I0J-400D01*
G01X75120Y121034D01*
G03X74835Y120455I707J-707D01*
G02X74639Y120280I-198J25D01*
G03X74147Y119780I7J-500D01*
G01Y117220D01*
G03X74647Y116720I500J0D01*
G01X80353D01*
G03X80853Y117220I0J500D01*
G01Y117500D01*
X83728D01*
X83786Y117399D01*
G03X84220Y117147I434J248D01*
G01X86780D01*
G03X87280Y117647I0J500D01*
G01Y118077D01*
X91327D01*
G03X91857Y118296I0J750D01*
G01X97811Y124250D01*
X119189D01*
X126469Y116970D01*
G03X127000Y116750I531J531D01*
G01X144689D01*
X147970Y113470D01*
G03X148500Y113250I531J531D01*
G01X148974D01*
G03X149462Y112653I1526J750D01*
G02Y112020I-244J-317D01*
G03X149279Y111856I1038J-1346D01*
G02X148709Y111852I-287J278D01*
G01X144530Y116031D01*
G03X144000Y116250I-531J-531D01*
G01X125811D01*
X119030Y123030D01*
G03X118500Y123250I-530J-531D01*
G01X98998D01*
G03X98467Y123030I0J-750D01*
G01X91187Y115750D01*
X70500D01*
G03X69970Y115530I0J-750D01*
G01X66970Y112530D01*
G03X66750Y112000I531J-530D01*
G01Y89811D01*
X64189Y87250D01*
X59853D01*
Y87780D01*
G03X59353Y88280I-500J0D01*
G01X53647D01*
G03X53147Y87780I0J-500D01*
G01Y87250D01*
X49311D01*
X48250Y88310D01*
Y90000D01*
G03X48031Y90530I-750J0D01*
G01X46744Y91817D01*
G02X47027Y92500I283J283D01*
G01X49293D01*
X51293Y90500D01*
X54207D01*
X55500Y91793D01*
Y97793D01*
X56207Y98500D01*
X61707D01*
X62500Y99293D01*
Y103707D01*
X61707Y104500D01*
X50293D01*
X49000Y103207D01*
Y100207D01*
X47293Y98500D01*
X42293D01*
X34192Y90399D01*
X33915D01*
G03X33415Y89899I0J-500D01*
G01Y89622D01*
X32500Y88707D01*
Y83293D01*
X33793Y82000D01*
X36207D01*
X37000Y82793D01*
Y89293D01*
X40207Y92500D01*
X40456D01*
G02X40597Y92158I0J-200D01*
G01X39470Y91030D01*
G03X39254Y90578I531J-530D01*
G01X39235Y90399D01*
X38915D01*
G03X38415Y89899I0J-500D01*
G01Y83109D01*
G03X38915Y82609I500J0D01*
G01X41085D01*
G03X41585Y83109I0J500D01*
G01Y89899D01*
G03X41295Y90353I-500J0D01*
G01X41262Y90368D01*
X41096Y90535D01*
X41311Y90750D01*
X45689D01*
X46750Y89689D01*
Y88000D01*
G03X46970Y87469I750J0D01*
G01X48470Y85970D01*
G03X49000Y85750I531J531D01*
G01X53147D01*
Y85220D01*
G03X53647Y84720I500J0D01*
G01X59353D01*
G03X59853Y85220I0J500D01*
G01Y85750D01*
X64500D01*
G03X65030Y85970I0J750D01*
G01X68030Y88970D01*
G03X68250Y89500I-531J531D01*
G01Y111689D01*
X70811Y114250D01*
X91498D01*
G03X92028Y114470I0J750D01*
G01X99308Y121750D01*
X118189D01*
X124969Y114969D01*
G03X125500Y114750I530J531D01*
G01X143689D01*
X148296Y110143D01*
G03X148827Y109923I531J531D01*
G01X148970D01*
X149028Y109823D01*
G03X150500Y108973I1472J850D01*
G03X152200Y110673I0J1700D01*
G03X151538Y112020I-1700J0D01*
G02Y112653I244J317D01*
G03X152200Y114000I-1038J1347D01*
G03X150500Y115700I-1700J0D01*
G03X149156Y115042I0J-1700D01*
G02X148557Y115004I-316J245D01*
G01X147423Y116138D01*
G02X147762Y116816I283J283D01*
G03X148000Y116800I238J1684D01*
G03X149700Y118500I0J1700D01*
G03X149077Y119816I-1700J0D01*
G02X149164Y120167I127J155D01*
G02X149478Y120200I336J-1667D01*
G01X149654Y120311D01*
G02X149832Y120421I179J-90D01*
G01X149903Y120408D01*
G03X150500Y120300I597J1592D01*
G03X152200Y122000I0J1700D01*
G03X151010Y123622I-1700J0D01*
G02X150990Y124378I120J382D01*
G03X151500Y124300I510J1622D01*
G03X152593Y124698I0J1700D01*
G02X153250Y124391I257J-306D01*
G01Y101000D01*
G03X153470Y100470I750J0D01*
G01X162970Y90970D01*
G03X163500Y90750I530J531D01*
G01X198189D01*
X198750Y90189D01*
Y89853D01*
X198220D01*
G03X197720Y89353I0J-500D01*
G01Y86993D01*
G03X197865Y86641I500J0D01*
G01X197923Y86500D01*
X197865Y86359D01*
G03X197720Y86007I355J-352D01*
G01Y85019D01*
G02X197037Y84736I-400J0D01*
G01X195136Y86636D01*
G03X194500Y86900I-637J-636D01*
G01X188373D01*
X188007Y87266D01*
Y89780D01*
G03X187507Y90280I-500J0D01*
G01X185147D01*
G03X184647Y89780I0J-500D01*
G01Y89250D01*
X183595D01*
Y89681D01*
G03X183094Y90181I-500J0D01*
G01X176894D01*
G03X176394Y89681I0J-500D01*
G01Y87319D01*
G03X176894Y86819I500J0D01*
G01X183094D01*
G03X183595Y87319I0J500D01*
G01Y87750D01*
X184647D01*
Y87220D01*
G03X185147Y86720I500J0D01*
G01X186007D01*
X186764Y85963D01*
G02X186481Y85280I-283J-283D01*
G01X185647D01*
G03X185147Y84780I0J-500D01*
G01Y84250D01*
X183595D01*
Y84681D01*
G03X183094Y85181I-500J0D01*
G01X176894D01*
G03X176394Y84681I0J-500D01*
G01Y82319D01*
G03X176894Y81819I500J0D01*
G01X183094D01*
G03X183595Y82319I0J500D01*
G01Y82750D01*
X185147D01*
Y82220D01*
G03X185647Y81720I500J0D01*
G01X191353D01*
G03X191733Y81894I0J500D01*
G02X192220Y81989I304J-260D01*
G03X193000Y81800I780J1511D01*
G03X194700Y83500I0J1700D01*
G03X194700Y83550I-1700J1D01*
G02X195382Y83845I400J12D01*
G01X195600Y83627D01*
Y73734D01*
G02X194876Y73499I-400J0D01*
G03X194454Y73907I-1376J-999D01*
G02X194359Y74478I225J331D01*
G03X194700Y75500I-1359J1021D01*
G03X194211Y76693I-1700J0D01*
G02X194221Y77265I285J281D01*
G03X194753Y78500I-1168J1235D01*
G03X193053Y80200I-1700J0D01*
G03X192243Y79995I0J-1700D01*
G02X191742Y80095I-191J352D01*
G03X191353Y80280I-389J-315D01*
G01X185647D01*
G03X185147Y79780I0J-500D01*
G01Y79250D01*
X183595D01*
Y79681D01*
G03X183094Y80181I-500J0D01*
G01X176894D01*
G03X176394Y79681I0J-500D01*
G01Y77319D01*
G03X176894Y76819I500J0D01*
G01X183094D01*
G03X183595Y77319I0J500D01*
G01Y77750D01*
X185147D01*
Y77220D01*
G03X185647Y76720I500J0D01*
G01X191397D01*
G02X191566Y76413I0J-200D01*
G03X191474Y76250I1434J-913D01*
G03X190970Y76030I26J-750D01*
G01X189719Y74780D01*
X185647D01*
G03X185162Y74402I0J-500D01*
G01X185124Y74250D01*
X183595D01*
Y74681D01*
G03X183094Y75181I-500J0D01*
G01X176894D01*
G03X176394Y74681I0J-500D01*
G01Y72319D01*
G03X176894Y71819I500J0D01*
G01X183094D01*
G03X183595Y72319I0J500D01*
G01Y72750D01*
X185147D01*
Y71720D01*
G03X185647Y71220I500J0D01*
G01X190000D01*
G02X190282Y70537I0J-400D01*
G01X189496Y69750D01*
X181000D01*
G03X180470Y69530I0J-750D01*
G01X171862Y60923D01*
X156280D01*
Y61353D01*
G03X155780Y61853I-500J0D01*
G01X153220D01*
G03X152720Y61353I0J-500D01*
G01Y60923D01*
X151662D01*
Y63500D01*
G03X151161Y64000I-500J0D01*
G01X146161D01*
G03X145661Y63500I0J-500D01*
G01Y56500D01*
G03X146161Y56000I500J0D01*
G01X151161D01*
G03X151662Y56500I0J500D01*
G01Y59423D01*
X152720D01*
Y58993D01*
G03X152865Y58641I500J0D01*
G01X152923Y58500D01*
X152865Y58359D01*
G03X152720Y58007I355J-352D01*
G01Y55647D01*
G03X153220Y55147I500J0D01*
G01X155780D01*
G03X156203Y55380I0J500D01*
G02X156786Y55482I338J-214D01*
G03X157827Y55127I1041J1344D01*
G03Y58527I0J1700D01*
G03X156786Y58171I0J-1700D01*
G02X156203Y58274I-245J316D01*
G03X156135Y58359I-423J-267D01*
G01X156077Y58500D01*
X156135Y58641D01*
G03X156280Y58993I-355J352D01*
G01Y59423D01*
X172173D01*
G03X172704Y59643I0J750D01*
G01X181311Y68250D01*
X189806D01*
G03X190337Y68470I0J750D01*
G01X192809Y70942D01*
X192928Y70899D01*
G03X193176Y70831I572J1601D01*
G02X193382Y70156I-76J-393D01*
G01X192537Y69310D01*
G03X192273Y68673I636J-637D01*
G01Y67280D01*
X191993D01*
G03X191493Y66780I0J-500D01*
G01Y64220D01*
G03X191993Y63720I500J0D01*
G01X194353D01*
G03X194853Y64220I0J500D01*
G01Y64600D01*
X196127D01*
X196345Y64382D01*
G02X196050Y63700I-283J-283D01*
G03X196000Y63700I-49J-1700D01*
G03X194300Y62000I0J-1700D01*
G03X194469Y61261I1700J0D01*
G02X194109Y60687I-360J-174D01*
G01X183891D01*
G02X183531Y61261I0J400D01*
G03X183700Y62000I-1531J739D01*
G03X182000Y63700I-1700J0D01*
G03X180301Y62050I0J-1700D01*
G02X179824Y61669I-400J12D01*
G03X179500Y61700I-324J-1669D01*
G03X179500Y58300I0J-1700D01*
G03X180049Y58391I0J1700D01*
G03X180318Y58228I514J546D01*
G02X180533Y57647I-130J-378D01*
G03X180300Y56787I1467J-860D01*
G03X180724Y55664I1700J0D01*
G02X180423Y55000I-300J-264D01*
G01X178353D01*
Y55280D01*
G03X177853Y55780I-500J0D01*
G01X175493D01*
G03X174993Y55280I0J-500D01*
G01Y52720D01*
G03X175127Y52380I500J0D01*
G03X174973Y51673I1546J-707D01*
G03X178373I1700J0D01*
G03X178220Y52380I-1700J0D01*
G03X178353Y52720I-366J340D01*
G01Y53000D01*
X181086D01*
X181500Y52586D01*
Y49414D01*
X181023Y48937D01*
X180110D01*
X180053Y48991D01*
G03X179711Y49126I-342J-365D01*
G01X173806D01*
G03X173305Y48626I0J-500D01*
G01Y47248D01*
G03X173402Y46953I500J0D01*
G03X173342Y46844I404J-295D01*
G01X173291Y46719D01*
X171468D01*
G03X170938Y46499I0J-750D01*
G01X168470Y44030D01*
G03X168250Y43500I531J-531D01*
G01Y31000D01*
G03X168470Y30470I750J0D01*
G01X173470Y25470D01*
G03X174000Y25250I531J531D01*
G01X187579D01*
G02X187945Y24688I0J-400D01*
G03X187800Y24000I1555J-688D01*
G03X189500Y22300I1700J0D01*
G03X191140Y23552I0J1700D01*
G01X191180Y23700D01*
X197450D01*
G03X197980Y23920I0J750D01*
G01X205638Y31577D01*
G02X206316Y31238I283J-283D01*
G03X206300Y31000I1684J-238D01*
G03X209700Y31000I1700J0D01*
G03X209680Y31265I-1700J0D01*
G01X209707Y31293D01*
G03X210000Y32014I-707J707D01*
G01Y32586D01*
X211908Y34493D01*
X214280D01*
G03X214780Y34993I0J500D01*
G01Y36892D01*
X214908Y37021D01*
G02X215250Y36879I141J-141D01*
G01Y31311D01*
X213470Y29531D01*
G03X213250Y29000I531J-531D01*
G01Y23352D01*
X211617Y21719D01*
X207013D01*
G03X206514Y21260I0J-500D01*
G01X206499Y21077D01*
X204280D01*
Y21507D01*
G03X203780Y22007I-500J0D01*
G01X201220D01*
G03X200720Y21507I0J-500D01*
G01Y19147D01*
G03X201220Y18647I500J0D01*
G01X203780D01*
G03X204280Y19147I0J500D01*
G01Y19577D01*
X206513D01*
Y16399D01*
G03X207013Y15899I500J0D01*
G01X212523D01*
G03X213023Y16399I0J500D01*
G01Y21003D01*
X214530Y22511D01*
G03X214750Y23041I-531J530D01*
G01Y23281D01*
X220987D01*
G03X221487Y23781I0J500D01*
G01Y25441D01*
X223172D01*
X223720Y24892D01*
Y22993D01*
G03X224220Y22493I500J0D01*
G01X226780D01*
G03X227280Y22993I0J500D01*
G01Y25353D01*
G03X226780Y25853I-500J0D01*
G01X224881D01*
X224310Y26424D01*
G02X224385Y27048I283J283D01*
G03X225200Y28500I-885J1452D01*
G03X223500Y30200I-1700J0D01*
G03X223060Y30142I0J-1700D01*
G01X222949Y30112D01*
X221780Y31281D01*
Y33567D01*
X222707Y34493D01*
X225233D01*
X225286Y34375D01*
G03X225440Y34152I684J307D01*
G01X226220Y33372D01*
Y31647D01*
G03X226720Y31147I500J0D01*
G01X229280D01*
G03X229780Y31647I0J500D01*
G01Y32077D01*
X230720D01*
Y31647D01*
G03X231220Y31147I500J0D01*
G01X232314D01*
G02X232597Y30464I0J-400D01*
G01X231970Y29837D01*
G03X231750Y29306I531J-531D01*
G01Y25853D01*
X231220D01*
G03X230720Y25353I0J-500D01*
G01Y22993D01*
G03X231220Y22493I500J0D01*
G01X233780D01*
G03X234280Y22993I0J500D01*
G01Y25353D01*
G03X233780Y25853I-500J0D01*
G01X233250D01*
Y28996D01*
X235060Y30806D01*
G03X235280Y31336I-531J531D01*
G01Y34317D01*
G03X235280Y34332I-750J2D01*
G01Y34336D01*
G02X235480Y34536I200J0D01*
G01X235549Y34523D01*
G03X235720Y34493I171J470D01*
G01X238280D01*
G03X238671Y34682I0J500D01*
G02X238933Y34727I156J-125D01*
G03X239827Y34473I894J1446D01*
G03Y37873I0J1700D01*
G03X238933Y37619I0J-1700D01*
G02X238671Y37665I-105J170D01*
G03X238280Y37853I-391J-312D01*
G01X236381D01*
X233250Y40984D01*
Y44500D01*
G03X233030Y45030I-750J0D01*
G01X230587Y47474D01*
G02X230870Y48157I283J283D01*
G01X235720D01*
Y47493D01*
G03X236220Y46993I500J0D01*
G01X238780D01*
G03X239280Y47493I0J500D01*
G01Y47916D01*
X240138D01*
Y46570D01*
G03X240639Y46070I500J0D01*
G01X244298D01*
G03X244799Y46570I0J500D01*
G01Y50430D01*
G03X244298Y50930I-500J0D01*
G01X240639D01*
G03X240138Y50430I0J-500D01*
G01Y49430D01*
X239280D01*
Y49853D01*
G03X238780Y50353I-500J0D01*
G01X236220D01*
G03X235720Y49865I0J-500D01*
G01X235715Y49670D01*
X231197D01*
G02X230914Y50353I0J400D01*
G01X231240Y50679D01*
G03X231456Y51133I-531J530D01*
G01X231474Y51313D01*
X237063D01*
G03X237594Y51532I0J750D01*
G01X239328Y53267D01*
G02X239882Y53279I283J-283D01*
G03X240220Y53147I339J368D01*
G01X242780D01*
G03X243280Y53647I0J500D01*
G01Y54077D01*
X244220D01*
Y53647D01*
G03X244720Y53147I500J0D01*
G01X247280D01*
G03X247780Y53647I0J500D01*
G01Y54077D01*
X248358D01*
G03X248889Y54296I0J750D01*
G01X250231Y55638D01*
X253430D01*
G03X253930Y56139I0J500D01*
G01Y59798D01*
G03X253430Y60299I-500J0D01*
G01X249570D01*
G03X249070Y59798I0J-500D01*
G01Y56599D01*
X248431Y55961D01*
G02X247763Y56138I-283J283D01*
G03X247280Y56507I-483J-132D01*
G01X244720D01*
G03X244220Y56007I0J-500D01*
G01Y55577D01*
X243280D01*
Y56007D01*
G03X242780Y56507I-500J0D01*
G01X240220D01*
G03X239720Y56007I0J-500D01*
G01Y55583D01*
X239584Y55537D01*
G03X239296Y55357I242J-710D01*
G01X238786Y54847D01*
G02X238122Y55010I-283J283D01*
G03X237440Y55917I-1622J-510D01*
G02Y56583I221J333D01*
G03X238200Y58000I-940J1417D01*
G03X236550Y59700I-1700J0D01*
G02X236169Y60176I12J400D01*
G03X236200Y60500I-1669J324D01*
G03X236055Y61188I-1700J0D01*
G02X236421Y61750I366J162D01*
G01X240647D01*
Y61220D01*
G03X241147Y60720I500J0D01*
G01X243507D01*
G03X244007Y61220I0J500D01*
G01Y63780D01*
G03X243507Y64280I-500J0D01*
G01X243077D01*
Y65220D01*
X246853D01*
G03X247353Y65720I0J500D01*
G01Y66000D01*
X248117D01*
X249070Y65047D01*
Y62202D01*
G03X249570Y61701I500J0D01*
G01X253430D01*
G03X253930Y62202I0J500D01*
G01Y62835D01*
G02X254114Y63035I200J0D01*
G03X254739Y63324I-82J997D01*
G01X256728Y65314D01*
X256791Y65325D01*
G03X258200Y67000I-291J1675D01*
G03X254800I-1700J0D01*
G03X254888Y66459I1700J0D01*
G01X254927Y66342D01*
X254534Y65948D01*
G02X253886Y66067I-283J283D01*
G03X253430Y66362I-456J-205D01*
G01X250584D01*
X249946Y67000D01*
X250584Y67638D01*
X253430D01*
G03X253930Y68139I0J500D01*
G01Y68968D01*
X255468D01*
G03X256176Y69261I0J1000D01*
G01X256235Y69321D01*
G03X256500Y69300I265J1679D01*
G03Y72700I0J1700D01*
G03X254807Y71151I0J-1700D01*
G01X254790Y70969D01*
X253930D01*
Y71798D01*
G03X253430Y72299I-500J0D01*
G01X249570D01*
G03X249070Y71798I0J-500D01*
G01Y68953D01*
X248117Y68000D01*
X247353D01*
Y68280D01*
G03X246853Y68780I-500J0D01*
G01X243077D01*
Y79016D01*
X244811Y80750D01*
X268500D01*
G03X269030Y80970I0J750D01*
G01X269311Y81250D01*
X273838D01*
Y78500D01*
G03X274339Y78000I500J0D01*
G01X279339D01*
G03X279839Y78500I0J500D01*
G01Y85500D01*
G03X279339Y86000I-500J0D01*
G01X274339D01*
G03X273838Y85500I0J-500D01*
G01Y82750D01*
X269000D01*
G03X268470Y82530I0J-750D01*
G01X268189Y82250D01*
X244500D01*
G03X243970Y82030I0J-750D01*
G01X241796Y79857D01*
G03X241577Y79327I531J-530D01*
G01Y68780D01*
X241147D01*
G03X240647Y68280I0J-500D01*
G01Y65720D01*
G03X241147Y65220I500J0D01*
G01X241577D01*
Y64280D01*
X241147D01*
G03X240647Y63780I0J-500D01*
G01Y63250D01*
X238109D01*
G02X237802Y63907I0J400D01*
G03X238200Y65000I-1302J1093D01*
G03X236911Y66650I-1700J0D01*
G02X236720Y67316I97J388D01*
G03X237200Y68500I-1220J1184D01*
G03X233800I-1700J0D01*
G03X233858Y68060I1700J0D01*
G01X233888Y67948D01*
X232933Y66994D01*
G02X232250Y67277I-283J283D01*
G01Y89916D01*
G02X232450Y90116I200J0D01*
G01X232561Y90083D01*
G03X232750Y89974I939J1417D01*
G01Y88000D01*
G03X232970Y87470I750J0D01*
G01X236470Y83970D01*
G03X237000Y83750I530J531D01*
G01X268000D01*
G03X268530Y83970I0J750D01*
G01X272811Y88250D01*
X299000D01*
G03X299530Y88470I0J750D01*
G01X302530Y91470D01*
G03X302750Y92000I-531J531D01*
G01Y100189D01*
X303120Y100559D01*
X303332Y100347D01*
X303318Y100247D01*
G03X303300Y100000I1682J-247D01*
G03X306700I1700J0D01*
G03X305175Y101691I-1700J0D01*
G02X304933Y102372I41J398D01*
G01X305811Y103250D01*
X308147D01*
Y102720D01*
G03X308647Y102220I500J0D01*
G01X314353D01*
G03X314853Y102720I0J500D01*
G01Y103250D01*
X316147D01*
Y102720D01*
G03X316647Y102220I500J0D01*
G01X317219D01*
X318480Y100959D01*
G02X318422Y100344I-283J-283D01*
G03X318201Y99930I280J-414D01*
G01Y96070D01*
G03X318702Y95570I500J0D01*
G01X322361D01*
G03X322862Y96070I0J500D01*
G01Y97000D01*
X326927D01*
G03X328500Y96326I1573J1500D01*
G03Y100674I0J2173D01*
G03X326423Y99141I0J-2174D01*
G01X326380Y99000D01*
X322862D01*
Y99930D01*
G03X322361Y100430I-500J0D01*
G01X321131D01*
X320024Y101537D01*
G02X320307Y102220I283J283D01*
G01X322353D01*
G03X322853Y102720I0J500D01*
G01Y103250D01*
X324000D01*
G03X324530Y103469I0J750D01*
G01X326311Y105250D01*
X326902D01*
Y104976D01*
X326854Y104919D01*
G03X326326Y103500I1646J-1419D01*
G03X330674I2174J0D01*
G03X330351Y104640I-2173J0D01*
G02X330691Y105250I341J210D01*
G01X331309D01*
G02X331650Y104640I0J-400D01*
G03X331326Y103500I1850J-1140D01*
G03X335674I2174J0D01*
G03X335350Y104640I-2173J0D01*
G02X335691Y105250I341J210D01*
G01X339220D01*
Y104493D01*
G03X339365Y104141I500J0D01*
G01X339423Y104000D01*
X339365Y103859D01*
G03X339220Y103507I355J-352D01*
G01Y103333D01*
X339071Y103294D01*
G03X338620Y103034I256J-967D01*
G01X335612Y100027D01*
G02X335045Y100029I-283J283D01*
G03X333500Y100674I-1545J-1528D01*
G03Y96326I0J-2173D01*
G03X335430Y97500I0J2173D01*
G01X335500D01*
G03X336220Y97806I0J1000D01*
G01X339274Y100860D01*
X339414Y100752D01*
G03X339720Y100647I307J395D01*
G01X342750D01*
Y98353D01*
X339720D01*
G03X339220Y97853I0J-500D01*
G01Y97571D01*
X339129Y97512D01*
G03X338966Y97380I544J-839D01*
G01X336086Y94500D01*
X335430D01*
G03X333500Y95674I-1930J-1000D01*
G03Y91326I0J-2173D01*
G03X335430Y92500I0J2174D01*
G01X336500D01*
G03X337207Y92793I0J1000D01*
G01X338537Y94123D01*
G02X339220Y93840I283J-283D01*
G01Y92147D01*
G03X339720Y91647I500J0D01*
G01X342295D01*
X342301Y91452D01*
G03X342750Y90348I1700J48D01*
G01Y89652D01*
G03Y87348I1250J-1152D01*
G01Y86652D01*
G03X342300Y85500I1250J-1152D01*
G03X344000Y83800I1700J0D01*
G03X345030Y84147I0J1700D01*
G02X345672Y83829I242J-318D01*
G01Y71658D01*
X294492D01*
Y71000D01*
X271000D01*
Y49717D01*
X256295D01*
X256278Y49899D01*
G03X255780Y50353I-498J-46D01*
G01X253220D01*
G03X252720Y49853I0J-500D01*
G01Y49430D01*
X250862D01*
Y50430D01*
G03X250361Y50930I-500J0D01*
G01X246702D01*
G03X246201Y50430I0J-500D01*
G01Y46570D01*
G03X246702Y46070I500J0D01*
G01X250361D01*
G03X250862Y46570I0J500D01*
G01Y47916D01*
X252720D01*
Y47493D01*
G03X253220Y46993I500J0D01*
G01X255780D01*
G03X256280Y47493I0J500D01*
G01Y48204D01*
X271000D01*
Y788D01*
X788D01*
Y227563D01*
X294492D01*
Y156692D01*
X345672D01*
Y92701D01*
G02X345317Y92575I-200J0D01*
G03X345250Y92652I-1318J-1074D01*
G01Y110468D01*
G03X344884Y111353I-1250J0D01*
G01X343430Y112806D01*
Y115298D01*
G03X342930Y115799I-500J0D01*
G01X339070D01*
G03X338570Y115298I0J-500D01*
G01Y114719D01*
X335300D01*
G03X333500Y115673I-1800J-1219D01*
G03Y111327I0J-2173D01*
G03X335255Y112218I0J2174D01*
G01X338570D01*
Y111639D01*
G03X339070Y111138I500J0D01*
G01X341562D01*
X342750Y109951D01*
Y107353D01*
X339720D01*
G03X339225Y106922I0J-500D01*
G01X339201Y106750D01*
X335691D01*
G02X335350Y107360I0J400D01*
G03X335674Y108500I-1850J1140D01*
G03X331326I-2174J0D01*
G03X331650Y107360I2173J0D01*
G02X331309Y106750I-341J-210D01*
G01X330691D01*
G02X330351Y107360I0J400D01*
G03X330674Y108500I-1850J1140D01*
G03X328500Y110674I-2174J0D01*
G03X327951Y110603I0J-2174D01*
G01X327840Y110574D01*
X327707Y110707D01*
G03X327000Y111000I-707J-707D01*
G01X322862D01*
Y111930D01*
G03X322361Y112430I-500J0D01*
G01X318702D01*
G03X318201Y111930I0J-500D01*
G01Y108070D01*
G03X318702Y107570I500J0D01*
G01X322361D01*
G03X322862Y108070I0J500D01*
G01Y109000D01*
X325928D01*
G02X326328Y108584I0J-400D01*
G03X326326Y108500I2172J-83D01*
G03X326650Y107360I2173J0D01*
G02X326309Y106750I-341J-210D01*
G01X326000D01*
G03X325470Y106531I0J-750D01*
G01X323689Y104750D01*
X322853D01*
Y105280D01*
G03X322353Y105780I-500J0D01*
G01X316647D01*
G03X316147Y105280I0J-500D01*
G01Y104750D01*
X314853D01*
Y105280D01*
G03X314353Y105780I-500J0D01*
G01X308647D01*
G03X308147Y105280I0J-500D01*
G01Y104750D01*
X305500D01*
G03X304970Y104531I0J-750D01*
G01X301470Y101030D01*
G03X301250Y100500I531J-530D01*
G01Y92311D01*
X298689Y89750D01*
X272500D01*
G03X271969Y89530I0J-750D01*
G01X267689Y85250D01*
X237311D01*
X234250Y88311D01*
Y89974D01*
G03X234593Y90198I-750J1526D01*
G02X235250Y89891I257J-306D01*
G01Y88500D01*
G03X235470Y87969I750J0D01*
G01X236969Y86470D01*
G03X237500Y86250I530J531D01*
G01X240000D01*
G03X240530Y86470I0J750D01*
G01X242781Y88720D01*
X243353D01*
G03X243853Y89220I0J500D01*
G01Y89500D01*
X246647D01*
Y89220D01*
G03X247147Y88720I500J0D01*
G01X249507D01*
G03X250007Y89220I0J500D01*
G01Y91780D01*
G03X249507Y92280I-500J0D01*
G01X247147D01*
G03X246647Y91780I0J-500D01*
G01Y91500D01*
X243853D01*
Y91780D01*
G03X243353Y92280I-500J0D01*
G01X241660D01*
G02X241377Y92963I0J400D01*
G01X243691Y95277D01*
G02X244255Y95279I283J-283D01*
G03X244606Y95135I351J357D01*
G01X248444D01*
G03X248944Y95635I0J500D01*
G01Y97801D01*
G03X248444Y98301I-500J0D01*
G01X244606D01*
G03X244112Y97885I0J-500D01*
G01X244084Y97718D01*
X243718D01*
G03X243011Y97425I0J-1000D01*
G01X238120Y92534D01*
G03X237988Y92371I707J-708D01*
G01X237929Y92280D01*
X237647D01*
G03X237149Y91830I0J-500D01*
G01X237131Y91650D01*
X236750D01*
Y92474D01*
G03X237700Y94000I-750J1526D01*
G03X234300I-1700J0D01*
G03X234339Y93637I1700J0D01*
G02X233863Y93161I-391J-85D01*
G03X233500Y93200I-363J-1661D01*
G03X232812Y93055I0J-1700D01*
G02X232250Y93421I-162J366D01*
G01Y109689D01*
X235030Y112470D01*
G03X235250Y113000I-531J531D01*
G01Y120689D01*
X236201Y121640D01*
G02X236852Y121201I283J-283D01*
G03X241004Y125353I7242J-3090D01*
G02X240564Y126004I-157J368D01*
G01X243530Y128970D01*
G03X243750Y129500I-531J530D01*
G01Y177689D01*
X246311Y180250D01*
X266493D01*
Y177220D01*
G03X266520Y177057I500J0D01*
G01X266531Y177026D01*
Y172646D01*
X266517Y172610D01*
G03X266481Y172425I465J-186D01*
G01Y169725D01*
G03X266982Y169225I500J0D01*
G01X268082D01*
G03X268582Y169725I0J500D01*
G01Y172425D01*
G03X268546Y172610I-500J0D01*
G01X268532Y172646D01*
Y176720D01*
X269353D01*
G03X269838Y177098I0J500D01*
G01X269876Y177250D01*
X274405D01*
Y172646D01*
X274391Y172610D01*
G03X274355Y172425I465J-186D01*
G01Y169725D01*
G03X274856Y169225I500J0D01*
G01X275956D01*
G03X276456Y169725I0J500D01*
G01Y172425D01*
G03X276420Y172610I-500J0D01*
G01X276406Y172646D01*
Y177250D01*
X285982D01*
X288250Y174982D01*
Y151018D01*
X284982Y147750D01*
X271750D01*
Y154673D01*
G03X271408Y155532I-1250J0D01*
G01X271353Y155590D01*
Y155766D01*
X272176Y156588D01*
G03X272469Y157295I-707J707D01*
G01Y160354D01*
X272483Y160390D01*
G03X272519Y160575I-465J186D01*
G01Y163275D01*
G03X272018Y163775I-500J0D01*
G01X265013D01*
G03X264513Y163275I0J-500D01*
G01Y160575D01*
G03X265013Y160075I500J0D01*
G01X270468D01*
Y157710D01*
X270039Y157280D01*
X268493D01*
G03X267993Y156780I0J-500D01*
G01Y154220D01*
G03X268493Y153720I500J0D01*
G01X269250D01*
Y142000D01*
X257293D01*
X254000Y138707D01*
Y102793D01*
X255793Y101000D01*
X267207D01*
X268500Y102293D01*
Y107293D01*
X269707Y108500D01*
X276207D01*
X277207Y109500D01*
X281707D01*
X282500Y110293D01*
Y114207D01*
X281707Y115000D01*
X266707D01*
X265500Y116207D01*
Y123173D01*
X269214D01*
X269220Y122979D01*
G03X269365Y122641I500J14D01*
G01X269423Y122500D01*
X269365Y122359D01*
G03X269220Y122007I355J-352D01*
G01Y119647D01*
G03X269720Y119147I500J0D01*
G01X272280D01*
G03X272780Y119632I0J500D01*
G01X272786Y119827D01*
X275692D01*
X275752Y119753D01*
G03X276139Y119570I387J317D01*
G01X279798D01*
G03X280299Y120070I0J500D01*
G01Y123930D01*
G03X279798Y124430I-500J0D01*
G01X278833D01*
Y127677D01*
X279752D01*
G03X280252Y128177I0J500D01*
G01Y130342D01*
G03X279752Y130843I-500J0D01*
G01X275913D01*
G03X275413Y130342I0J-500D01*
G01Y128177D01*
G03X275913Y127677I500J0D01*
G01X276832D01*
Y124430D01*
X276139D01*
G03X275638Y123930I0J-500D01*
G01Y121827D01*
X272786D01*
X272780Y122021D01*
G03X272635Y122359I-500J-14D01*
G01X272577Y122500D01*
X272635Y122641D01*
G03X272780Y122993I-355J352D01*
G01Y125353D01*
G03X272280Y125853I-500J0D01*
G01X269720D01*
G03X269220Y125368I0J-500D01*
G01X269214Y125173D01*
X265500D01*
Y132793D01*
X266707Y134000D01*
X274207D01*
X275207Y135000D01*
X279707D01*
X279879Y135172D01*
X279921Y135187D01*
G03X280223Y135488I-169J471D01*
G01X280238Y135530D01*
X281000Y136293D01*
Y139207D01*
X279707Y140500D01*
X274207D01*
X272707Y142000D01*
X271750D01*
Y145250D01*
X285500D01*
G03X286384Y145616I0J1250D01*
G01X290384Y149616D01*
G03X290750Y150500I-884J884D01*
G01Y175500D01*
G03X290384Y176384I-1250J0D01*
G01X287384Y179384D01*
G03X286500Y179750I-884J-884D01*
G01X269876D01*
X269838Y179902D01*
G03X269815Y179973I-485J-122D01*
G01X269799Y180010D01*
Y180250D01*
X285500D01*
G03X285942Y180394I0J750D01*
G03X286500Y180300I558J1606D01*
G03X286500Y183700I0J1700D01*
G03X284804Y182122I0J-1700D01*
G02X284405Y181750I-399J29D01*
G01X245880D01*
G02X245738Y182092I0J200D01*
G01X245896Y182250D01*
X283173D01*
G03X283704Y182470I0J750D01*
G01X285381Y184147D01*
X287280D01*
G03X287780Y184647I0J500D01*
G01Y187007D01*
G03X287635Y187359I-500J0D01*
G01X287577Y187500D01*
X287635Y187641D01*
G03X287780Y187993I-355J352D01*
G01Y190353D01*
G03X287280Y190853I-500J0D01*
G01X285734D01*
X285000Y191588D01*
Y194653D01*
X286459D01*
G03X286959Y195153I0J500D01*
G01Y199253D01*
G03X286459Y199753I-500J0D01*
G01X286059D01*
Y215941D01*
G03X285766Y216648I-1000J0D01*
G01X284455Y217959D01*
Y222955D01*
G03X283955Y223455I-500J0D01*
G01X278045D01*
G03X277545Y222955I0J-500D01*
G01Y217045D01*
G03X278045Y216545I500J0D01*
G01X283041D01*
X284059Y215527D01*
Y199753D01*
X283659D01*
G03X283159Y199253I0J-500D01*
G01Y196688D01*
X283132Y196641D01*
G03X283030Y196386I868J-498D01*
G02X282359Y196200I-388J97D01*
G01X281841Y196717D01*
Y199253D01*
G03X281341Y199753I-500J0D01*
G01X280941D01*
Y211059D01*
G03X280648Y211766I-1000J0D01*
G01X274048Y218367D01*
X274110Y218495D01*
G03X274455Y220000I-3110J1505D01*
G03X271000Y216545I-3455J0D01*
G03X272631Y216954I0J3455D01*
G01X278941Y210645D01*
Y199753D01*
X278541D01*
G03X278041Y199253I0J-500D01*
G01Y195153D01*
G03X278541Y194653I500J0D01*
G01X281000D01*
Y191588D01*
X280266Y190853D01*
X278720D01*
G03X278220Y190353I0J-500D01*
G01Y187993D01*
G03X278365Y187641I500J0D01*
G01X278423Y187500D01*
X278365Y187359D01*
G03X278297Y187274I355J-352D01*
G02X277714Y187171I-338J214D01*
G03X276673Y187527I-1041J-1344D01*
G03X274973Y185827I0J-1700D01*
G03X275649Y184470I1700J0D01*
G02X275408Y183750I-241J-319D01*
G01X245586D01*
G03X245055Y183531I0J-750D01*
G01X240470Y178945D01*
G03X240250Y178414I531J-531D01*
G01Y130811D01*
X232470Y123030D01*
G03X232250Y122500I531J-531D01*
G01Y114311D01*
X228970Y111030D01*
G03X228750Y110500I531J-531D01*
G01Y76811D01*
X227933Y75994D01*
G02X227250Y76277I-283J283D01*
G01Y77474D01*
G03X228200Y79000I-750J1526D01*
G03X226500Y80700I-1700J0D01*
G03X225407Y80302I0J-1700D01*
G02X224750Y80609I-257J306D01*
G01Y82016D01*
X225881Y83147D01*
X227780D01*
G03X228280Y83647I0J500D01*
G01Y86007D01*
G03X228135Y86359I-500J0D01*
G01X228077Y86500D01*
X228135Y86641D01*
G03X228280Y86993I-355J352D01*
G01Y89353D01*
G03X227780Y89853I-500J0D01*
G01X227250D01*
Y92500D01*
G03X227030Y93030I-750J0D01*
G01X220530Y99530D01*
G03X220000Y99750I-530J-531D01*
G01X211777D01*
G02X211494Y100433I0J400D01*
G01X212345Y101284D01*
X212476Y101210D01*
G03X212720Y101147I244J437D01*
G01X215280D01*
G03X215636Y101295I0J500D01*
G02X216122Y101359I284J-281D01*
G03X216980Y101127I858J1468D01*
G03X218298Y101753I0J1700D01*
G01X218358Y101827D01*
X218714D01*
X218720Y101632D01*
G03X219220Y101147I500J15D01*
G01X221780D01*
G03X222280Y101632I0J500D01*
G01X222286Y101827D01*
X223214D01*
X223220Y101632D01*
G03X223720Y101147I500J15D01*
G01X226280D01*
G03X226780Y101647I0J500D01*
G01Y104007D01*
G03X226635Y104359I-500J0D01*
G01X226577Y104500D01*
X226635Y104641D01*
G03X226780Y104993I-355J352D01*
G01Y107353D01*
G03X226280Y107853I-500J0D01*
G01X224381D01*
X224062Y108173D01*
G02X224073Y108750I283J283D01*
G03X224622Y110000I-1152J1250D01*
G03X223672Y111526I-1700J0D01*
G01Y114900D01*
X223741Y114960D01*
G03X223914Y115339I-327J378D01*
G01Y118086D01*
X226408D01*
G02X226806Y117651I0J-400D01*
G03X226800Y117500I1694J-151D01*
G03X230200Y117500I1700J0D01*
G03X229682Y118722I-1700J0D01*
G02X229726Y119335I278J288D01*
G03X230434Y120715I-992J1381D01*
G03X230157Y121646I-1700J0D01*
G02X230491Y122266I335J219D01*
G01X230500D01*
G03X231030Y122485I0J750D01*
G01X239530Y130985D01*
G03X239750Y131516I-531J530D01*
G01Y179189D01*
X244811Y184250D01*
X257500D01*
G03X258030Y184470I0J750D01*
G01X264271Y190710D01*
X264411Y190600D01*
G03X264720Y190493I309J393D01*
G01X267280D01*
G03X267780Y190979I0J500D01*
G01X267786Y191173D01*
X269147D01*
Y190720D01*
G03X269647Y190220I500J0D01*
G01X275353D01*
G03X275853Y190720I0J500D01*
G01Y193280D01*
G03X275368Y193780I-500J0D01*
G01X275173Y193980D01*
Y194827D01*
G03X274880Y195534I-1000J0D01*
G01X274519Y195896D01*
G02X274802Y196578I283J283D01*
G01X275299D01*
G03X275799Y197079I0J500D01*
G01Y199441D01*
G03X275299Y199941I-500J0D01*
G01X270772D01*
G03X270271Y199441I0J-500D01*
G01Y197079D01*
G03X270772Y196578I500J0D01*
G01X272035D01*
Y195965D01*
G03X272328Y195257I1000J0D01*
G01X273173Y194412D01*
Y193780D01*
X269647D01*
G03X269151Y193347I0J-500D01*
G01X269128Y193173D01*
X267786D01*
X267780Y193368D01*
G03X267606Y193733I-500J-15D01*
G02X267511Y194220I260J304D01*
G03X267700Y195000I-1511J780D01*
G03X264300I-1700J0D01*
G03X264489Y194220I1700J0D01*
G02X264394Y193733I-355J-184D01*
G03X264220Y193353I326J-380D01*
G01Y192781D01*
X263036Y191597D01*
G02X262353Y191880I-283J283D01*
G01Y193280D01*
G03X261868Y193780I-500J0D01*
G01X261673Y193980D01*
Y194759D01*
X265672Y198757D01*
G03X265965Y199465I-707J707D01*
G01Y200319D01*
X267228D01*
G03X267729Y200819I0J500D01*
G01Y203181D01*
G03X267228Y203681I-500J0D01*
G01X262701D01*
G03X262201Y203181I0J-500D01*
G01Y200819D01*
G03X262701Y200319I500J0D01*
G01X263964D01*
Y199879D01*
X259966Y195880D01*
G03X259673Y195173I707J-707D01*
G01Y193780D01*
X258327D01*
Y196673D01*
G03X258034Y197380I-1000J0D01*
G01X256098Y199317D01*
G02X256380Y200000I283J283D01*
G01X260707D01*
X261500Y200793D01*
Y211207D01*
X257000Y215707D01*
Y222707D01*
X254207Y225500D01*
X247793D01*
X245000Y222707D01*
Y216293D01*
X254500Y206793D01*
Y201880D01*
G02X253817Y201598I-400J0D01*
G01X251697Y203718D01*
G02X251838Y204059I141J141D01*
G01X252228D01*
G03X252729Y204559I0J500D01*
G01Y206921D01*
G03X252228Y207422I-500J0D01*
G01X247701D01*
G03X247201Y206921I0J-500D01*
G01Y204559D01*
G03X247701Y204059I500J0D01*
G01X248950D01*
X248975Y203888D01*
G03X249257Y203328I989J147D01*
G01X251962Y200624D01*
G02X251679Y199941I-283J-283D01*
G01X248327D01*
X247200Y201068D01*
X247194Y201141D01*
G03X245500Y202700I-1694J-141D01*
G03X243800Y201000I0J-1700D01*
G03X244866Y199422I1700J0D01*
G02X245008Y198776I-149J-371D01*
G01X244932Y198700D01*
X244859Y198694D01*
G03X243300Y197000I141J-1694D01*
G03X245000Y195300I1700J0D01*
G03X246692Y196830I0J1700D01*
G01X246702Y196934D01*
X246778Y197010D01*
X247188D01*
X247239Y196886D01*
G03X247701Y196578I462J192D01*
G01X248257D01*
X248266Y196388D01*
G03X249824Y194770I1698J77D01*
G01X249897Y194764D01*
X250423Y194238D01*
Y193780D01*
X247147D01*
G03X246647Y193280I0J-500D01*
G01Y190720D01*
G03X247132Y190220I500J0D01*
G01X247327Y190020D01*
Y189500D01*
G03X247620Y188793I1000J0D01*
G01X248620Y187793D01*
G03X249327Y187500I707J707D01*
G01X256327D01*
G03X257034Y187793I0J1000D01*
G01X258034Y188793D01*
G03X258327Y189500I-707J707D01*
G01Y190220D01*
X260693D01*
G02X260976Y189537I0J-400D01*
G01X257189Y185750D01*
X244500D01*
G03X243970Y185531I0J-750D01*
G01X238470Y180030D01*
G03X238250Y179500I531J-531D01*
G01Y131826D01*
X232933Y126510D01*
G02X232250Y126792I-283J283D01*
G01Y127974D01*
G03X233200Y129500I-750J1526D01*
G03X231500Y131200I-1700J0D01*
G03X230812Y131055I0J-1700D01*
G02X230250Y131421I-162J366D01*
G01Y132474D01*
G03X231200Y134000I-750J1526D01*
G03X227800I-1700J0D01*
G03X228750Y132474I1700J0D01*
G01Y130311D01*
X228111Y129671D01*
X227100D01*
X227040Y129741D01*
G03X226661Y129914I-378J-327D01*
G01X223914D01*
Y132662D01*
G03X223741Y133040I-500J0D01*
G01X223672Y133100D01*
Y135301D01*
X223832Y135333D01*
G03X225200Y137000I-332J1667D01*
G03X223500Y138700I-1700J0D01*
G01X223499D01*
G03X223217Y138676I0J-1700D01*
G02X222750Y139071I-67J394D01*
G01Y142847D01*
G03X222530Y143378I-750J0D01*
G37*
G36*
G01X49500Y103000D02*
X50500Y104000D01*
X61500D01*
X62000Y103500D01*
Y99500D01*
X61500Y99000D01*
X56000D01*
X55000Y98000D01*
Y92000D01*
X54000Y91000D01*
X51500D01*
X49500Y93000D01*
X40000D01*
X36500Y89500D01*
Y83000D01*
X36000Y82500D01*
X34000D01*
X33000Y83500D01*
Y88500D01*
X42500Y98000D01*
X47500D01*
X49500Y100000D01*
Y103000D01*
G37*
G36*
G01X68050Y151011D02*
X68191Y151153D01*
G03X68225Y151198I-141J142D01*
G02X68411Y151302I176J-96D01*
G03X68500Y151300I88J1698D01*
G03X70200Y153000I0J1700D01*
G03X68621Y154696I-1700J0D01*
G02X68250Y155095I28J399D01*
G01Y156750D01*
X69689D01*
X71250Y155189D01*
Y149000D01*
G03X71470Y148470I750J0D01*
G01X73668Y146271D01*
G02X73658Y145696I-283J-283D01*
G03X73653Y145691I137J-145D01*
G01X73511Y145550D01*
X68050Y151011D01*
G37*
G36*
G01X135280Y173817D02*
G03X135280Y173832I-750J2D01*
G02X135548Y174023I200J4D01*
G03X135720Y173993I171J470D01*
G01X137946D01*
X139750Y172189D01*
Y168000D01*
G03X139970Y167470I750J0D01*
G01X146638Y160802D01*
X146608Y160690D01*
G03X146559Y160425I1642J-440D01*
G02X145878Y160183I-398J41D01*
G01X135280Y170781D01*
Y173817D01*
G37*
G36*
G01X168000Y197000D02*
X161500Y190500D01*
X143000D01*
X141500Y192000D01*
Y194000D01*
X144000Y196500D01*
X151000D01*
X151500Y197000D01*
Y202500D01*
X152500Y203500D01*
X155000D01*
X157000Y201500D01*
X166000D01*
X168000Y199500D01*
Y197000D01*
G37*
G36*
G01X186750Y33571D02*
G02X186283Y33176I-400J0D01*
G03X186001Y33200I-283J-1677D01*
G01X186000D01*
G03Y29800I0J-1700D01*
G03X186440Y29858I0J1700D01*
G01X186552Y29888D01*
X187945Y28494D01*
G02X187662Y27811I-283J-283D01*
G01X175750D01*
X171311Y32250D01*
Y42189D01*
X172371Y43250D01*
X173291D01*
X173342Y43124D01*
G03X173402Y43016I464J187D01*
G03X173305Y42721I404J-295D01*
G01Y41342D01*
G03X173402Y41047I500J0D01*
G03X173305Y40752I404J-295D01*
G01Y39374D01*
G03X173806Y38874I500J0D01*
G01X179711D01*
G03X180211Y39374I0J500D01*
G01Y41031D01*
X181032D01*
G03X181739Y41324I0J1000D01*
G01X183207Y42793D01*
G03X183500Y43500I-707J707D01*
G01Y53000D01*
G03X183207Y53707I-1000J0D01*
G01X182397Y54518D01*
G02X182550Y55179I283J283D01*
G03X183526Y56037I-550J1609D01*
G01X187011D01*
G02X187293Y55354I0J-400D01*
G01X187052Y55112D01*
X186940Y55142D01*
G03X186500Y55200I-440J-1642D01*
G03X184800Y53500I0J-1700D01*
G03X186192Y51828I1700J0D01*
G02X186477Y51257I-72J-393D01*
G03X186300Y50500I1523J-757D01*
G03X188000Y48800I1700J0D01*
G03X188363Y48839I0J1700D01*
G02X188839Y48363I85J-391D01*
G03X188800Y48000I1661J-363D01*
G03X192200I1700J0D01*
G03X192142Y48440I-1700J0D01*
G01X192112Y48552D01*
X194874Y51313D01*
X195269D01*
G02X195410Y50971I0J-200D01*
G01X192970Y48531D01*
G03X192750Y48000I531J-531D01*
G01Y42000D01*
G03X192970Y41470I750J0D01*
G01X193388Y41052D01*
X193358Y40940D01*
G03X193300Y40500I1642J-440D01*
G03X195000Y38800I1700J0D01*
G03X196642Y40058I0J1700D01*
G02X197118Y40343I386J-104D01*
G03X197500Y40300I382J1657D01*
G03X198522Y40641I0J1700D01*
G02X199093Y40546I240J-320D01*
G03X200500Y39800I1407J954D01*
G03X202200Y41500I0J1700D01*
G03X200960Y43137I-1700J0D01*
G01X200910Y43151D01*
X198250Y45811D01*
Y46528D01*
X198311Y46588D01*
X201127D01*
X201181Y46546D01*
G03X201491Y46438I309J393D01*
G01X204891D01*
G03X205391Y46939I0J500D01*
G01Y47739D01*
G03X205307Y48015I-500J0D01*
G01X205274Y48126D01*
X205307Y48237D01*
G03X205391Y48513I-417J277D01*
G01Y49313D01*
G03X205307Y49590I-500J0D01*
G01X205274Y49701D01*
X205307Y49812D01*
G03X205391Y50088I-417J277D01*
G01Y50888D01*
G03X205307Y51165I-500J0D01*
G01X205274Y51276D01*
X205307Y51386D01*
G03X205391Y51663I-417J277D01*
G01Y52463D01*
G03X205307Y52740I-500J0D01*
G01X205274Y52850D01*
X205307Y52961D01*
G03X205391Y53238I-417J277D01*
G01Y54038D01*
G03X205307Y54314I-500J0D01*
G01X205274Y54425D01*
X205307Y54536D01*
G03X205391Y54813I-417J277D01*
G01Y55613D01*
G03X205307Y55889I-500J0D01*
G01X205274Y56000D01*
X205307Y56111D01*
G03X205391Y56387I-417J277D01*
G01Y57187D01*
G03X205307Y57464I-500J0D01*
G01X205274Y57575D01*
X205307Y57686D01*
G03X205391Y57962I-417J277D01*
G01Y58762D01*
G03X205307Y59039I-500J0D01*
G01X205274Y59150D01*
X205307Y59260D01*
G03X205391Y59537I-417J277D01*
G01Y60337D01*
G03X205307Y60614I-500J0D01*
G01X205274Y60724D01*
X205307Y60835D01*
G03X205391Y61112I-417J277D01*
G01Y61912D01*
G03X205307Y62188I-500J0D01*
G01X205274Y62299D01*
X205307Y62410D01*
G03X205391Y62687I-417J277D01*
G01Y63487D01*
G03X205307Y63763I-500J0D01*
G01X205274Y63874D01*
X205307Y63985D01*
G03X205391Y64261I-417J277D01*
G01Y65061D01*
G03X204891Y65562I-500J0D01*
G01X201491D01*
G03X201181Y65454I0J-500D01*
G01X201127Y65412D01*
X200649D01*
X200250Y65811D01*
Y83147D01*
X200780D01*
G03X201280Y83647I0J500D01*
G01Y86007D01*
G03X201135Y86359I-500J0D01*
G01X201077Y86500D01*
X201135Y86641D01*
G03X201280Y86993I-355J352D01*
G01Y89353D01*
G03X200780Y89853I-500J0D01*
G01X200250D01*
Y90500D01*
G03X200030Y91030I-750J0D01*
G01X199494Y91567D01*
G02X199777Y92250I283J283D01*
G01X202189D01*
X203250Y91189D01*
Y89853D01*
X202720D01*
G03X202220Y89353I0J-500D01*
G01Y86993D01*
G03X202365Y86641I500J0D01*
G01X202423Y86500D01*
X202365Y86359D01*
G03X202220Y86007I355J-352D01*
G01Y83647D01*
G03X202720Y83147I500J0D01*
G01X203250D01*
Y82512D01*
G03X203470Y81970I750J-12D01*
G01X203513Y81926D01*
G02X203459Y81344I-299J-265D01*
G03X202800Y80000I1041J-1344D01*
G03X204500Y78300I1700J0D01*
G03X204940Y78358I0J1700D01*
G01X205052Y78388D01*
X207163Y76276D01*
Y72363D01*
G02X206480Y72081I-400J0D01*
G01X205264Y73297D01*
G02X205252Y73850I283J283D01*
G03X205700Y75000I-1253J1150D01*
G03X202300I-1700J0D01*
G03X203250Y73474I1700J0D01*
G03X203470Y72970I750J26D01*
G01X205588Y70851D01*
Y69873D01*
X205546Y69819D01*
G03X205438Y69509I393J-309D01*
G01Y66109D01*
G03X205939Y65609I500J0D01*
G01X224061D01*
G03X224562Y66109I0J500D01*
G01Y69509D01*
G03X224454Y69819I-500J0D01*
G01X224412Y69873D01*
Y70351D01*
X230030Y75970D01*
G03X230250Y76500I-531J530D01*
G01Y110189D01*
X230408Y110347D01*
G02X230750Y110206I141J-141D01*
G01Y66811D01*
X229351Y65412D01*
X228873D01*
X228819Y65454D01*
G03X228509Y65562I-309J-393D01*
G01X225109D01*
G03X224609Y65061I0J-500D01*
G01Y64261D01*
G03X224693Y63985I500J0D01*
G01X224726Y63874D01*
X224693Y63763D01*
G03X224609Y63487I417J-277D01*
G01Y62687D01*
G03X224693Y62410I500J0D01*
G01X224726Y62299D01*
X224693Y62188D01*
G03X224609Y61912I417J-277D01*
G01Y61112D01*
G03X224693Y60835I500J0D01*
G01X224726Y60724D01*
X224693Y60614D01*
G03X224609Y60337I417J-277D01*
G01Y59537D01*
G03X224693Y59260I500J0D01*
G01X224726Y59150D01*
X224693Y59039D01*
G03X224609Y58762I417J-277D01*
G01Y57962D01*
G03X224693Y57686I500J0D01*
G01X224726Y57575D01*
X224693Y57464D01*
G03X224609Y57187I417J-277D01*
G01Y56387D01*
G03X224693Y56111I500J0D01*
G01X224726Y56000D01*
X224693Y55889D01*
G03X224609Y55613I417J-277D01*
G01Y54813D01*
G03X224693Y54536I500J0D01*
G01X224726Y54425D01*
X224693Y54314D01*
G03X224609Y54038I417J-277D01*
G01Y53238D01*
G03X224693Y52961I500J0D01*
G01X224726Y52850D01*
X224693Y52740D01*
G03X224609Y52463I417J-277D01*
G01Y51663D01*
G03X224693Y51386I500J0D01*
G01X224726Y51276D01*
X224693Y51165D01*
G03X224609Y50888I417J-277D01*
G01Y50088D01*
G03X224693Y49812I500J0D01*
G01X224726Y49701D01*
X224693Y49590D01*
G03X224609Y49313I417J-277D01*
G01Y48513D01*
G03X224693Y48237I500J0D01*
G01X224726Y48126D01*
X224693Y48015D01*
G03X224609Y47739I417J-277D01*
G01Y46939D01*
G03X225109Y46438I500J0D01*
G01X228509D01*
G03X228819Y46546I0J500D01*
G01X228873Y46588D01*
X229351D01*
X231750Y44189D01*
Y40673D01*
G03X231970Y40143I750J0D01*
G01X233576Y38536D01*
G02X233293Y37853I-283J-283D01*
G01X231220D01*
G03X230720Y37353I0J-500D01*
G01Y36923D01*
X229780D01*
Y37353D01*
G03X229280Y37853I-500J0D01*
G01X228750D01*
Y39000D01*
G03X228530Y39530I-750J0D01*
G01X226530Y41530D01*
G03X226000Y41750I-530J-531D01*
G01X224811D01*
X224435Y42126D01*
X224504Y42257D01*
G03X224562Y42491I-442J234D01*
G01Y45891D01*
G03X224061Y46391I-500J0D01*
G01X205939D01*
G03X205438Y45891I0J-500D01*
G01Y42491D01*
G03X205546Y42181I500J0D01*
G01X205588Y42127D01*
Y41811D01*
X200528Y36750D01*
X198353D01*
Y37280D01*
G03X197853Y37780I-500J0D01*
G01X195493D01*
G03X194993Y37280I0J-500D01*
G01Y34720D01*
G03X195187Y34325I500J0D01*
G03X194973Y33500I1487J-825D01*
G03X196376Y31826I1700J0D01*
G02X196588Y31149I-70J-394D01*
G01X195689Y30250D01*
X191811D01*
X188250Y33811D01*
Y34974D01*
G03X189200Y36500I-750J1526D01*
G03X185800I-1700J0D01*
G03X186750Y34974I1700J0D01*
G01Y33571D01*
G37*
G36*
G01X210777Y96750D02*
X215689D01*
X221250Y91189D01*
Y89853D01*
X220720D01*
G03X220220Y89353I0J-500D01*
G01Y86993D01*
G03X220365Y86641I500J0D01*
G02Y86359I-142J-141D01*
G03X220220Y86007I355J-352D01*
G01Y83647D01*
G03X220315Y83353I500J0D01*
G02X220274Y82835I-324J-235D01*
G01X216970Y79530D01*
G03X216750Y79000I531J-530D01*
G01Y76311D01*
X216592Y76153D01*
G02X216250Y76294I-141J141D01*
G01Y80189D01*
X218030Y81970D01*
G03X218250Y82500I-531J531D01*
G01Y83147D01*
X218780D01*
G03X219280Y83647I0J500D01*
G01Y86007D01*
G03X218780Y86507I-500J0D01*
G01X216220D01*
G03X215720Y86007I0J-500D01*
G01Y84461D01*
X215463Y84204D01*
G02X214780Y84487I-283J283D01*
G01Y86007D01*
G03X214635Y86359I-500J0D01*
G02Y86641I142J141D01*
G03X214780Y86993I-355J352D01*
G01Y89353D01*
G03X214280Y89853I-500J0D01*
G01X213750D01*
Y92500D01*
G03X213530Y93030I-750J0D01*
G01X210494Y96067D01*
G02X210777Y96750I283J283D01*
G37*
G36*
G01X222171Y135940D02*
Y133162D01*
X220461D01*
G03X219960Y132661I0J-500D01*
G01Y130299D01*
G03X220461Y129799I500J0D01*
G01X223799D01*
Y128429D01*
G03X223943Y128078I500J0D01*
G02Y127796I-142J-141D01*
G03X223799Y127445I356J-352D01*
G01Y126461D01*
G03X223943Y126109I500J0D01*
G02Y125828I-142J-141D01*
G03X223799Y125477I356J-352D01*
G01Y124492D01*
G03X223943Y124141I500J0D01*
G02Y123859I-142J-141D01*
G03X223799Y123508I356J-352D01*
G01Y122523D01*
G03X223943Y122172I500J0D01*
G02Y121891I-142J-141D01*
G03X223799Y121539I356J-352D01*
G01Y120555D01*
G03X223943Y120204I500J0D01*
G02Y119922I-142J-141D01*
G03X223799Y119571I356J-352D01*
G01Y118201D01*
X212201D01*
Y119571D01*
G03X212057Y119922I-500J0D01*
G02Y120204I142J141D01*
G03X212201Y120555I-356J352D01*
G01Y121539D01*
G03X212057Y121891I-500J0D01*
G02Y122172I142J141D01*
G03X212201Y122523I-356J352D01*
G01Y123508D01*
G03X212057Y123859I-500J0D01*
G02Y124141I142J141D01*
G03X212201Y124492I-356J352D01*
G01Y125477D01*
G03X212057Y125828I-500J0D01*
G02Y126109I142J141D01*
G03X212201Y126461I-356J352D01*
G01Y127445D01*
G03X212057Y127796I-500J0D01*
G02Y128078I142J141D01*
G03X212201Y128429I-356J352D01*
G01Y129799D01*
X217508D01*
G03X218008Y130299I0J500D01*
G01Y132661D01*
G03X217861Y133016I-500J0D01*
G01X217766Y133111D01*
Y133205D01*
X219080Y134520D01*
G03X219300Y135050I-531J531D01*
G01Y135739D01*
X219808Y136247D01*
X220308D01*
G03X220838Y136466I0J750D01*
G01X221173Y136801D01*
G02X221845Y136610I283J-283D01*
G03X222171Y135940I1655J390D01*
G37*
G36*
G01X257500Y141500D02*
X272500D01*
X274000Y140000D01*
X279500D01*
X280500Y139000D01*
Y136500D01*
X279500Y135500D01*
X275000D01*
X274169Y134669D01*
X274113Y134656D01*
G03X273700Y134500I387J-1656D01*
G01X266500D01*
X265000Y133000D01*
Y116000D01*
X266500Y114500D01*
X281500D01*
X282000Y114000D01*
Y110500D01*
X281500Y110000D01*
X277000D01*
X276000Y109000D01*
X269500D01*
X268000Y107500D01*
Y102500D01*
X267000Y101500D01*
X256000D01*
X254500Y103000D01*
Y138500D01*
X257500Y141500D01*
G37*
G36*
G01X256500Y215500D02*
X261000Y211000D01*
Y201000D01*
X260500Y200500D01*
X256000D01*
X255000Y201500D01*
Y207000D01*
X245500Y216500D01*
Y222500D01*
X248000Y225000D01*
X254000D01*
X256500Y222500D01*
Y215500D01*
G37*
G36*
G01X271500Y49945D02*
Y47976D01*
X290831D01*
Y41284D01*
X280201D01*
Y29472D01*
X290831D01*
Y22386D01*
X280201D01*
Y10575D01*
X290831D01*
Y3882D01*
X274413D01*
Y1913D01*
X292799D01*
Y12543D01*
X282150D01*
Y20417D01*
X292799D01*
Y31441D01*
X282150D01*
Y39315D01*
X292799D01*
Y59000D01*
X271500D01*
Y56520D01*
X290831D01*
Y49945D01*
X271500D01*
G37*
%LPC*%
G75*
G36*
G01X135647Y90287D02*
X138007D01*
G02X138092Y90280I0J-507D01*
G01X141353D01*
G02X141853Y89780I0J-500D01*
G01Y89250D01*
X144405D01*
Y89681D01*
G02X144906Y90181I500J0D01*
G01X151106D01*
G02X151606Y89681I0J-500D01*
G01Y87319D01*
G02X151106Y86819I-500J0D01*
G01X144906D01*
G02X144405Y87319I0J500D01*
G01Y87750D01*
X141853D01*
Y87220D01*
G02X141353Y86720I-500J0D01*
G01X138092D01*
G02X138007Y86713I-85J500D01*
G01X135647D01*
G02X135140Y87220I0J507D01*
G01Y87310D01*
G03X134752Y86650I-92J-389D01*
G02X135200Y85500I-1253J-1150D01*
G02X135200Y85482I-1700J1D01*
G01Y85280D01*
X141353D01*
G02X141853Y84780I0J-500D01*
G01Y84250D01*
X144405D01*
Y84681D01*
G02X144906Y85181I500J0D01*
G01X151106D01*
G02X151606Y84681I0J-500D01*
G01Y82319D01*
G02X151106Y81819I-500J0D01*
G01X144906D01*
G02X144405Y82319I0J500D01*
G01Y82750D01*
X141853D01*
Y82220D01*
G02X141353Y81720I-500J0D01*
G01X135647D01*
G02X135607Y81722I0J500D01*
G03X135180Y81261I-32J-399D01*
G02Y80739I-1680J-261D01*
G03X135607Y80278I395J-61D01*
G02X135647Y80280I40J-499D01*
G01X141353D01*
G02X141853Y79780I0J-500D01*
G01Y79250D01*
X144405D01*
Y79681D01*
G02X144906Y80181I500J0D01*
G01X151106D01*
G02X151606Y79681I0J-500D01*
G01Y77319D01*
G02X151106Y76819I-500J0D01*
G01X144906D01*
G02X144405Y77319I0J500D01*
G01Y77750D01*
X141853D01*
Y77220D01*
G02X141353Y76720I-500J0D01*
G01X135647D01*
G02X135147Y77220I0J500D01*
G01Y77750D01*
X132500D01*
G02X131970Y77970I0J750D01*
G01X129970Y79970D01*
G02X129750Y80500I531J530D01*
G01Y88500D01*
G02X129970Y89030I750J0D01*
G01X131849Y90910D01*
X131863Y90960D01*
G02X133500Y92200I1637J-460D01*
G02X135200Y90500I0J-1700D01*
G02X135200Y90482I-1700J1D01*
G01Y90280D01*
X135562D01*
G02X135647Y90287I85J-500D01*
G37*
G36*
G01X65914Y199000D02*
X68586D01*
X69051Y198534D01*
Y196131D01*
X65500D01*
Y198586D01*
X65914Y199000D01*
G37*
G36*
G01X262544Y169725D02*
Y172425D01*
G02X263045Y172925I500J0D01*
G01X264144D01*
G02X264645Y172425I0J-500D01*
G01Y169725D01*
G02X264144Y169225I-500J0D01*
G01X263045D01*
G02X262544Y169725I0J500D01*
G37*
G36*
G01X270418D02*
Y172425D01*
G02X270918Y172925I500J0D01*
G01X272018D01*
G02X272519Y172425I0J-500D01*
G01Y169725D01*
G02X272018Y169225I-500J0D01*
G01X270918D01*
G02X270418Y169725I0J500D01*
G37*
G36*
G01X260122Y165950D02*
Y167050D01*
G02X260622Y167550I500J0D01*
G01X263322D01*
G02X263823Y167050I0J-500D01*
G01Y165950D01*
G02X263322Y165450I-500J0D01*
G01X260622D01*
G02X260122Y165950I0J500D01*
G37*
G36*
G01X26488Y71957D02*
Y79043D01*
G02X26988Y79544I500J0D01*
G01X38012D01*
G02X38512Y79043I0J-500D01*
G01Y71957D01*
G02X38012Y71457I-500J0D01*
G01X26988D01*
G02X26488Y71957I0J500D01*
G37*
G36*
G01X42657Y20562D02*
Y24892D01*
G02X47598I2470J0D01*
G01Y20562D01*
G02X42657I-2470J0D01*
G37*
G36*
G01X8602D02*
Y24892D01*
G02X13543I2470J0D01*
G01Y20562D01*
G02X8602I-2470J0D01*
G37*
G36*
G01X285000Y134293D02*
Y138707D01*
X286293Y140000D01*
X303207D01*
X304500Y138707D01*
Y134293D01*
X303207Y133000D01*
X286293D01*
X285000Y134293D01*
G37*
G36*
G01X28793Y82500D02*
X28000Y83293D01*
Y89293D01*
X24500Y92793D01*
Y99707D01*
X25793Y101000D01*
X35707D01*
X36500Y100207D01*
Y93793D01*
X32000Y89293D01*
Y83293D01*
X31207Y82500D01*
X28793D01*
G37*
G36*
G01X155589Y42720D02*
G02X156089Y43221I500J0D01*
G01X161994D01*
G02X162495Y42720I0J-500D01*
G01Y41342D01*
G02X162398Y41047I-500J0D01*
G02X162495Y40752I-404J-295D01*
G01Y39374D01*
G02X161994Y38874I-500J0D01*
G01X156089D01*
G02X155589Y39374I0J500D01*
G01Y40752D01*
G02X155685Y41047I500J0D01*
G02X155589Y41342I404J295D01*
G01Y42720D01*
G37*
G36*
G01X20845Y53572D02*
X20773Y53565D01*
X20707Y53500D01*
X17293D01*
X17223Y53570D01*
X17139D01*
G02X16638Y54070I0J500D01*
G01Y54154D01*
X16500Y54293D01*
Y57793D01*
X13500Y60793D01*
Y65707D01*
X14793Y67000D01*
X20207D01*
X21500Y65707D01*
Y54293D01*
X21303Y54096D01*
X21296Y54024D01*
G02X20845Y53572I-498J46D01*
G37*
G36*
G01X33415Y61101D02*
Y67891D01*
G02X33915Y68391I500J0D01*
G01X36085D01*
G02X36585Y67891I0J-500D01*
G01Y61101D01*
G02X36167Y60608I-500J0D01*
G01X36000Y60580D01*
Y58914D01*
X45414Y49500D01*
X54638D01*
Y50430D01*
G02X55139Y50930I500J0D01*
G01X55968D01*
Y53070D01*
X55139D01*
G02X54638Y53570I0J500D01*
G01Y57430D01*
G02X55139Y57930I500J0D01*
G01X58798D01*
G02X59299Y57430I0J-500D01*
G01Y53570D01*
G02X58798Y53070I-500J0D01*
G01X57969D01*
Y50930D01*
X58798D01*
G02X59299Y50430I0J-500D01*
G01Y46570D01*
G02X58798Y46070I-500J0D01*
G01X55139D01*
G02X54638Y46570I0J500D01*
G01Y47500D01*
X45000D01*
G02X44293Y47793I0J1000D01*
G01X34293Y57793D01*
G02X34000Y58500I707J707D01*
G01Y60580D01*
X33833Y60608D01*
G02X33415Y61101I82J493D01*
G37*
G36*
G01X38415D02*
Y67891D01*
G02X38915Y68391I500J0D01*
G01X41085D01*
G02X41585Y67891I0J-500D01*
G01Y61101D01*
G02X41167Y60608I-500J0D01*
G01X41000Y60580D01*
Y59414D01*
X44914Y55500D01*
X46586D01*
X51793Y60707D01*
G02X52500Y61000I707J-707D01*
G01X61000D01*
G02X61707Y60707I0J-1000D01*
G01X63739Y58676D01*
G02X64023Y58103I-707J-707D01*
G01X64046Y57930D01*
X64861D01*
G02X65362Y57430I0J-500D01*
G01Y53570D01*
G02X64861Y53070I-500J0D01*
G01X64032D01*
Y50930D01*
X64861D01*
G02X65362Y50430I0J-500D01*
G01Y46570D01*
G02X64861Y46070I-500J0D01*
G01X64032D01*
Y43930D01*
X64861D01*
G02X65362Y43430I0J-500D01*
G01Y39570D01*
G02X64861Y39070I-500J0D01*
G01X64032D01*
Y36930D01*
X64861D01*
G02X65362Y36430I0J-500D01*
G01Y32570D01*
G02X64861Y32070I-500J0D01*
G01X61202D01*
G02X60701Y32570I0J500D01*
G01Y36430D01*
G02X61202Y36930I500J0D01*
G01X62031D01*
Y39070D01*
X61202D01*
G02X60701Y39570I0J500D01*
G01Y43430D01*
G02X61202Y43930I500J0D01*
G01X62031D01*
Y46070D01*
X61202D01*
G02X60701Y46570I0J500D01*
G01Y50430D01*
G02X61202Y50930I500J0D01*
G01X62031D01*
Y53070D01*
X61202D01*
G02X60701Y53570I0J500D01*
G01Y57430D01*
G02X60973Y57875I500J0D01*
G03X61072Y58513I-183J356D01*
G01X60586Y59000D01*
X52914D01*
X47707Y53793D01*
G02X47000Y53500I-707J707D01*
G01X44500D01*
G02X43793Y53793I0J1000D01*
G01X39293Y58293D01*
G02X39000Y59000I707J707D01*
G01Y60580D01*
X38833Y60608D01*
G02X38415Y61101I82J493D01*
G37*
G36*
G01X26585Y83109D02*
G02X26524Y82870I-500J0D01*
G01X26500Y82825D01*
Y82793D01*
X25707Y82000D01*
X2793D01*
X2374Y82419D01*
X2338Y82434D01*
G02X1300Y84000I662J1566D01*
G02X1500Y84800I1700J0D01*
G01Y93707D01*
X2293Y94500D01*
X5700D01*
G02X6500Y94700I800J-1500D01*
G02X7300Y94500I0J-1700D01*
G01X22207D01*
X26500Y90207D01*
Y90183D01*
X26524Y90138D01*
G02X26585Y89899I-439J-239D01*
G01Y83109D01*
G37*
G36*
G01X254440Y95635D02*
Y97801D01*
G02X254940Y98301I500J0D01*
G01X258779D01*
G02X259279Y97801I0J-500D01*
G01Y95635D01*
G02X258956Y95168I-500J0D01*
G01X258827Y95119D01*
Y92480D01*
G03X259021Y92280I200J0D01*
G02X259507Y91780I-15J-500D01*
G01Y89220D01*
G02X259007Y88720I-500J0D01*
G01X256647D01*
G02X256147Y89220I0J500D01*
G01Y91780D01*
G02X256632Y92280I500J0D01*
G03X256827Y92480I-6J200D01*
G01Y95135D01*
X254940D01*
G02X254440Y95635I0J500D01*
G37*
G36*
G01X114044Y80034D02*
G02X114152Y80345I500J0D01*
G03Y80593I-157J124D01*
G02X114044Y80903I392J310D01*
G01Y82003D01*
G02X114152Y82313I500J0D01*
G03Y82561I-157J124D01*
G02X114044Y82871I392J310D01*
G01Y83971D01*
G02X114152Y84282I500J0D01*
G03Y84530I-157J124D01*
G02X114044Y84840I392J310D01*
G01Y86044D01*
X102997D01*
G02X102497Y86544I0J500D01*
G01Y89944D01*
G02X102997Y90444I500J0D01*
G01X108453D01*
Y93126D01*
G02X108746Y93833I1000J0D01*
G01X112647Y97734D01*
Y99280D01*
G02X113147Y99780I500J0D01*
G01X118853D01*
G02X119233Y99606I0J-500D01*
G03X119720Y99511I304J260D01*
G02X120500Y99700I780J-1511D01*
G02Y96300I0J-1700D01*
G02X119720Y96489I0J1700D01*
G03X119233Y96394I-184J-355D01*
G02X118853Y96220I-380J326D01*
G01X113961D01*
X110453Y92712D01*
Y90444D01*
X113940D01*
G02X114440Y89944I0J-500D01*
G01Y86440D01*
X117944D01*
G02X118444Y85940I0J-500D01*
G01Y84840D01*
G02X118336Y84530I-500J0D01*
G03Y84282I157J-124D01*
G02X118444Y83971I-392J-310D01*
G01Y82453D01*
X120720D01*
G02X121428Y82160I0J-1000D01*
G01X123234Y80353D01*
X124780D01*
G02X125171Y80165I0J-500D01*
G03X125433Y80119I156J125D01*
G02X126327Y80373I894J-1446D01*
G02Y76973I0J-1700D01*
G02X125433Y77227I0J1700D01*
G03X125171Y77182I-105J-170D01*
G02X125135Y77141I-391J312D01*
G03Y76859I142J-141D01*
G02X125280Y76507I-355J-352D01*
G01Y74147D01*
G02X124780Y73647I-500J0D01*
G01X122220D01*
G02X121720Y74147I0J500D01*
G01Y74547D01*
X118444D01*
Y73029D01*
G02X118336Y72718I-500J0D01*
G03Y72470I157J-124D01*
G02X118444Y72160I-392J-310D01*
G01Y71060D01*
G02X117944Y70560I-500J0D01*
G01X114440D01*
Y67056D01*
G02X113940Y66556I-500J0D01*
G01X108484D01*
Y63131D01*
X108835Y62780D01*
X109853D01*
G02X110353Y62280I0J-500D01*
G01Y59720D01*
G02X110165Y59329I-500J0D01*
G03X110119Y59067I125J-156D01*
G02X110373Y58173I-1446J-894D01*
G02X106973I-1700J0D01*
G02X107227Y59067I1700J0D01*
G03X107182Y59329I-170J105D01*
G02X106993Y59720I312J391D01*
G01Y61793D01*
X106777Y62009D01*
G02X106484Y62717I707J707D01*
G01Y66835D01*
X106470Y66870D01*
G02X106434Y67056I465J186D01*
G01Y70456D01*
G02X106934Y70956I500J0D01*
G01X114044D01*
Y72160D01*
G02X114152Y72470I500J0D01*
G03Y72718I-157J124D01*
G02X114044Y73029I392J310D01*
G01Y74129D01*
G02X114152Y74439I500J0D01*
G03Y74687I-157J124D01*
G02X114044Y74997I392J310D01*
G01Y76097D01*
G02X114152Y76407I500J0D01*
G03Y76656I-157J124D01*
G02X114044Y76966I392J310D01*
G01Y78066D01*
G02X114152Y78376I500J0D01*
G03Y78624I-157J124D01*
G02X114044Y78934I392J310D01*
G01Y80034D01*
G37*
G36*
G01X276922Y102635D02*
Y104801D01*
G02X277422Y105301I500J0D01*
G01X281261D01*
G02X281761Y104801I0J-500D01*
G01Y102713D01*
X282176Y102298D01*
G02X282469Y101591I-707J-707D01*
G01Y99430D01*
X283298D01*
G02X283799Y98930I0J-500D01*
G01Y95070D01*
G02X283298Y94570I-500J0D01*
G01X279639D01*
G02X279138Y95070I0J500D01*
G01Y96000D01*
X276353D01*
Y95720D01*
G02X275853Y95220I-500J0D01*
G01X270147D01*
G02X269647Y95720I0J500D01*
G01Y98280D01*
G02X270147Y98780I500J0D01*
G01X271719D01*
X273388Y100448D01*
X273358Y100560D01*
G02X273300Y101000I1642J440D01*
G02X275000Y99300I1700J0D01*
G02X274560Y99358I0J1700D01*
G01X274448Y99388D01*
X274182Y99122D01*
G03X274324Y98780I141J-141D01*
G01X275853D01*
G02X276353Y98280I0J-500D01*
G01Y98000D01*
X279138D01*
Y98930D01*
G02X279639Y99430I500J0D01*
G01X280468D01*
Y101177D01*
X279510Y102135D01*
X277422D01*
G02X276922Y102635I0J500D01*
G37*
G36*
G01X287256D02*
Y104801D01*
G02X287757Y105301I500J0D01*
G01X291595D01*
G02X292096Y104801I0J-500D01*
G01Y104509D01*
G02X292190Y104425I-613J-790D01*
G01X297335Y99280D01*
X298353D01*
G02X298853Y98780I0J-500D01*
G01Y96220D01*
G02X298353Y95720I-500J0D01*
G01X295993D01*
G02X295493Y96220I0J500D01*
G01Y98293D01*
X291651Y102135D01*
X287757D01*
G02X287256Y102635I0J500D01*
G37*
G36*
G01X237871Y109460D02*
G03X238134Y109513I102J172D01*
G02X239500Y110200I1366J-1013D01*
G02X241047Y109206I0J-1700D01*
G03X241713Y109111I364J166D01*
G02X243000Y109700I1287J-1111D01*
G02X244700Y108000I0J-1700D01*
G02X243141Y106306I-1700J0D01*
G01X243068Y106300D01*
X242900Y106132D01*
G03X243182Y105449I283J-283D01*
G01X244121D01*
X244180Y105544D01*
G02X244606Y105781I426J-263D01*
G01X248444D01*
G02X248944Y105281I0J-500D01*
G01Y103116D01*
G02X248444Y102616I-500J0D01*
G01X244606D01*
G02X244180Y102853I0J500D01*
G01X244121Y102948D01*
X241871D01*
X241811Y102878D01*
G02X241430Y102701I-381J324D01*
G01X237570D01*
G02X237070Y103202I0J500D01*
G01Y106162D01*
X236932Y106300D01*
X236859Y106306D01*
G02X235300Y108000I141J1694D01*
G02X237000Y109700I1700J0D01*
G02X237871Y109460I0J-1700D01*
G37*
G36*
G01X96280Y101993D02*
X93720D01*
G02X93651Y101998I0J500D01*
G01X93637Y102000D01*
X88707D01*
X86707Y100000D01*
X75793D01*
X75000Y100793D01*
Y110707D01*
X77293Y113000D01*
X114707D01*
X117000Y110707D01*
Y103793D01*
X115207Y102000D01*
X96363D01*
X96349Y101998D01*
G02X96280Y101993I-69J495D01*
G37*
G36*
G01X293500Y106800D02*
G02X292741Y106979I0J1700D01*
G01X292699Y107000D01*
X291943D01*
X291894Y106970D01*
G02X291000Y106716I-894J1446D01*
G02X290059Y107000I0J1700D01*
G01X287793D01*
X286500Y108293D01*
Y112707D01*
X287793Y114000D01*
X298207D01*
X300500Y111707D01*
Y108793D01*
X298707Y107000D01*
X294300D01*
G02X293500Y106800I-800J1500D01*
G37*
G36*
G01X341326Y124270D02*
G03X340774I-276J-289D01*
G02X339600Y123800I-1174J1230D01*
G02Y127200I0J1700D01*
G02X340774Y126730I0J-1700D01*
G03X341326I276J289D01*
G02X342500Y127200I1174J-1230D01*
G02Y123800I0J-1700D01*
G02X341326Y124270I0J1700D01*
G37*
G36*
G01X285748Y128177D02*
Y130342D01*
G02X286248Y130843I500J0D01*
G01X290087D01*
G02X290587Y130342I0J-500D01*
G01Y128177D01*
G02X290087Y127677I-500J0D01*
G01X289168D01*
Y125074D01*
X290461Y123780D01*
X292007D01*
G02X292507Y123280I0J-500D01*
G01Y120720D01*
G02X292007Y120220I-500J0D01*
G01X289647D01*
G02X289147Y120720I0J500D01*
G01Y122266D01*
X287460Y123952D01*
G02X287167Y124660I707J707D01*
G01Y127677D01*
X286248D01*
G02X285748Y128177I0J500D01*
G37*
G36*
G01X190103Y145748D02*
G03X190271Y145944I-31J198D01*
G02X190772Y146441I500J-3D01*
G01X195299D01*
G02X195799Y145941I0J-500D01*
G01Y143579D01*
G02X195299Y143079I-500J0D01*
G01X190772D01*
G02X190420Y143223I0J500D01*
G01X190278Y143364D01*
X188827Y141912D01*
Y140780D01*
X192353D01*
G02X192853Y140280I0J-500D01*
G01Y139208D01*
X193948Y138112D01*
X194060Y138142D01*
G02X194500Y138200I440J-1642D01*
G02X192800Y136500I0J-1700D01*
G02X192858Y136940I1700J0D01*
G01X192888Y137052D01*
X192645Y137294D01*
X192525Y137250D01*
G02X192353Y137220I-172J470D01*
G01X186647D01*
G02X186147Y137720I0J500D01*
G01Y140280D01*
G02X186632Y140780I500J0D01*
G03X186827Y140980I-6J200D01*
G01Y142327D01*
G02X187120Y143034I1000J0D01*
G01X189553Y145467D01*
G02X190103Y145748I707J-707D01*
G37*
G36*
G01X275177Y165950D02*
Y167050D01*
G02X275678Y167550I500J0D01*
G01X278378D01*
G02X278788Y167336I0J-500D01*
G01X278848Y167250D01*
X281673D01*
G02X282204Y167031I0J-750D01*
G01X282881Y166353D01*
X284780D01*
G02X285280Y165853I0J-500D01*
G01Y163493D01*
G02X285135Y163141I-500J0D01*
G03Y162859I142J-141D01*
G02X285280Y162507I-355J-352D01*
G01Y160576D01*
G03X285741Y160180I400J0D01*
G02X285999Y160200I259J-1680D01*
G01X286000D01*
G02X287700Y158500I0J-1700D01*
G02X286750Y156974I-1700J0D01*
G02X286530Y156470I-750J26D01*
G01X285030Y154970D01*
G02X284500Y154750I-530J531D01*
G01X280353D01*
Y154220D01*
G02X279853Y153720I-500J0D01*
G01X274147D01*
G02X273647Y154220I0J500D01*
G01Y156780D01*
G02X274147Y157280I500J0D01*
G01X274655D01*
Y160105D01*
X274570Y160165D01*
G02X274355Y160575I286J410D01*
G01Y163275D01*
G02X274856Y163775I500J0D01*
G01X275956D01*
G02X276456Y163275I0J-500D01*
G01Y160575D01*
G02X276241Y160165I-500J0D01*
G01X276156Y160105D01*
Y157280D01*
X279853D01*
G02X280353Y156780I0J-500D01*
G01Y156320D01*
G03X280945Y156812I226J330D01*
G02X280800Y157500I1555J688D01*
G02X282500Y159200I1700J0D01*
G02X282545Y159200I-1J-1700D01*
G03X282750Y159399I5J200D01*
G01Y159647D01*
X282220D01*
G02X281720Y160147I0J500D01*
G01Y162507D01*
G02X281865Y162859I500J0D01*
G03Y163141I-142J141D01*
G02X281720Y163493I355J352D01*
G01Y165392D01*
X281362Y165750D01*
X278848D01*
X278788Y165664D01*
G02X278378Y165450I-410J286D01*
G01X275678D01*
G02X275177Y165950I0J500D01*
G37*
G36*
G01X43961Y166969D02*
Y175631D01*
G02X44461Y176131I500J0D01*
G01X46036D01*
G02X46536Y175631I0J-500D01*
G01Y166969D01*
G02X46331Y166565I-500J0D01*
G01X46249Y166505D01*
Y166248D01*
G02X45956Y165541I-1000J0D01*
G01X44682Y164267D01*
X44691Y164173D01*
G02X44700Y164000I-1691J-173D01*
G02X43000Y162300I-1700J0D01*
G02X41446Y163311I0J1700D01*
G03X40824Y163456I-366J-162D01*
G02X39737Y163063I-1088J1307D01*
G02X38036Y164763I0J1700D01*
G02X38663Y166082I1700J0D01*
G01X38736Y166142D01*
Y166505D01*
X38654Y166565D01*
G02X38449Y166969I295J404D01*
G01Y175631D01*
G02X38949Y176131I500J0D01*
G01X40524D01*
G02X41024Y175631I0J-500D01*
G01Y166969D01*
G02X40819Y166565I-500J0D01*
G01X40737Y166505D01*
Y166142D01*
X40811Y166082D01*
G02X41291Y165452I-1074J-1318D01*
G03X41912Y165307I366J162D01*
G02X43000Y165700I1087J-1307D01*
G02X43173Y165691I0J-1700D01*
G01X43267Y165682D01*
X44138Y166553D01*
X44046Y166690D01*
G02X43961Y166969I415J280D01*
G37*
G36*
G01X29769Y179469D02*
G02X33169I1700J0D01*
G02X32469Y178094I-1700J0D01*
G01Y176095D01*
X32551Y176035D01*
G02X32756Y175631I-295J-404D01*
G01Y166969D01*
G02X32256Y166469I-500J0D01*
G01X29713D01*
Y165813D01*
X30233Y165293D01*
X30327Y165303D01*
G02X30500Y165312I173J-1691D01*
G02Y161911I0J-1700D01*
G02X28981Y162848I0J1700D01*
G03X28314Y162922I-357J-180D01*
G02X27000Y162300I-1314J1078D01*
G02X25300Y164000I0J1700D01*
G02X25309Y164173I1700J0D01*
G01X25318Y164267D01*
X25250Y164336D01*
G02X24957Y165043I707J707D01*
G01Y166469D01*
X24201D01*
Y164701D01*
G02X23908Y163994I-1000J0D01*
G01X23682Y163767D01*
X23691Y163673D01*
G02X23700Y163500I-1691J-173D01*
G02X22000Y165200I-1700J0D01*
G01X22001D01*
G03X22201Y165400I0J200D01*
G01Y166469D01*
X20805D01*
X18604Y164267D01*
X18613Y164173D01*
G02X18622Y164000I-1691J-173D01*
G02X16922Y165700I-1700J0D01*
G02X17094Y165691I0J-1700D01*
G01X17189Y165682D01*
X19158Y167650D01*
Y175631D01*
G02X19658Y176131I500J0D01*
G01X30469D01*
Y178094D01*
G02X29769Y179469I1000J1375D01*
G37*
G36*
G01X84887Y179587D02*
G02X88287I1700J0D01*
G02X87587Y178212I-1700J0D01*
G01Y176131D01*
X92886D01*
G02X93386Y175631I0J-500D01*
G01Y166969D01*
G02X93181Y166565I-500J0D01*
G01X93099Y166505D01*
Y166316D01*
X94233Y165182D01*
X94327Y165191D01*
G02X94500Y165200I173J-1691D01*
G02X92800Y163500I0J-1700D01*
G02X92809Y163673I1700J0D01*
G01X92818Y163767D01*
X91392Y165194D01*
G02X91099Y165901I707J707D01*
G01Y166469D01*
X90343D01*
Y165532D01*
G02X91043Y164157I-1000J-1375D01*
G02X87643I-1700J0D01*
G02X88343Y165532I1700J0D01*
G01Y166469D01*
X85800D01*
G02X85299Y166969I0J500D01*
G01Y175631D01*
G02X85505Y176035I500J0D01*
G01X85587Y176095D01*
Y178212D01*
G02X84887Y179587I1000J1375D01*
G37*
G36*
G01X162800Y211000D02*
G02X166200I1700J0D01*
G02X165500Y209625I-1700J0D01*
G01Y208362D01*
X166430D01*
G02X166930Y207861I0J-500D01*
G01Y207796D01*
G03X167547Y207460I400J0D01*
G02X168468Y207732I922J-1429D01*
G02X168468Y204331I0J-1700D01*
G02X167547Y204603I0J1700D01*
G03X166930Y204267I-217J-336D01*
G01Y204202D01*
G02X166430Y203701I-500J0D01*
G01X162570D01*
G02X162070Y204202I0J500D01*
G01Y204835D01*
G03X161886Y205035I-200J0D01*
G02X161261Y205324I82J997D01*
G01X159767Y206818D01*
X159673Y206809D01*
G02X159500Y206800I-173J1691D01*
G02X161200Y208500I0J1700D01*
G02X161191Y208327I-1700J0D01*
G01X161182Y208233D01*
X161466Y207948D01*
G03X162114Y208067I283J283D01*
G02X162570Y208362I456J-205D01*
G01X163500D01*
Y209625D01*
G02X162800Y211000I1000J1375D01*
G37*
G36*
G01X139389Y147681D02*
X142728D01*
G02X143229Y147181I0J-500D01*
G01Y144819D01*
G02X142728Y144319I-500J0D01*
G01X141465D01*
Y143965D01*
G02X141172Y143257I-1000J0D01*
G01X136673Y138759D01*
Y138480D01*
G03X136868Y138280I200J0D01*
G02X137353Y137780I-15J-500D01*
G01Y135220D01*
G02X136853Y134720I-500J0D01*
G01X133673D01*
Y133173D01*
G02X133380Y132466I-1000J0D01*
G01X132673Y131759D01*
G02X131966Y131466I-707J707D01*
G01X125534D01*
G02X124827Y131759I0J1000D01*
G01X124120Y132466D01*
G02X123827Y133173I707J707D01*
G01Y134520D01*
G03X123632Y134720I-200J0D01*
G02X123147Y135220I15J500D01*
G01Y137310D01*
G03X122509Y137632I-400J0D01*
G02X121500Y137300I-1009J1368D01*
G02X119800Y139000I0J1700D01*
G02X120192Y140086I1700J0D01*
G03X120047Y140707I-308J256D01*
G02X119040Y142260I693J1553D01*
G02X120038Y143808I1700J0D01*
G03X120183Y144425I-165J364D01*
G02X119800Y145500I1317J1075D01*
G02X121500Y147200I1700J0D01*
G02X123194Y145641I0J-1700D01*
G01X123200Y145568D01*
X124827Y143941D01*
X127179D01*
G03X127462Y144624I0J400D01*
G01X125257Y146828D01*
G02X124964Y147535I707J707D01*
G01Y148059D01*
X123701D01*
G02X123201Y148559I0J500D01*
G01Y150921D01*
G02X123701Y151422I500J0D01*
G01X128228D01*
G02X128729Y150921I0J-500D01*
G01Y150591D01*
G03X129390Y150288I400J0D01*
G02X130500Y150700I1110J-1288D01*
G02X131814Y150079I0J-1700D01*
G03X132487Y150168I309J254D01*
G02X134035Y151165I1548J-703D01*
G02X135563Y150211I0J-1700D01*
G03X136223Y150122I359J176D01*
G02X137500Y150700I1277J-1122D01*
G02X139200Y149000I0J-1700D01*
G02X139029Y148256I-1700J0D01*
G03X139389Y147681I360J-175D01*
G37*
G36*
G01X61501Y130000D02*
X67696D01*
X67701Y130195D01*
G02X68201Y130681I500J-14D01*
G01X72728D01*
G02X73229Y130181I0J-500D01*
G01Y127819D01*
G02X72728Y127319I-500J0D01*
G01X68201D01*
G02X67701Y127805I0J500D01*
G01X67696Y128000D01*
X57761D01*
G03X57397Y127435I0J-400D01*
G02X57441Y127228I-456J-206D01*
G01Y122701D01*
G02X56954Y122201I-500J0D01*
G03X56760Y122001I6J-200D01*
G01Y119930D01*
X58298D01*
G02X58799Y119430I0J-500D01*
G01Y115570D01*
G02X58298Y115070I-500J0D01*
G01X54639D01*
G02X54138Y115570I0J500D01*
G01Y116327D01*
X48786D01*
X48780Y116132D01*
G02X48280Y115647I-500J15D01*
G01X45720D01*
G02X45220Y116147I0J500D01*
G01Y118500D01*
X44207D01*
X43500Y117793D01*
Y112707D01*
X44707Y111500D01*
X62707D01*
X64000Y110207D01*
Y105000D01*
X40293D01*
X37793Y107500D01*
X25293D01*
X24000Y108793D01*
Y114207D01*
X25293Y115500D01*
X33293D01*
X34000Y116207D01*
Y128207D01*
X34793Y129000D01*
X45220D01*
Y131353D01*
G02X45720Y131853I500J0D01*
G01X46000D01*
Y140086D01*
X44846Y141240D01*
X34234D01*
X34228Y141046D01*
G02X33728Y140559I-500J14D01*
G01X30473D01*
X28207Y138293D01*
G02X27500Y138000I-707J707D01*
G01X26662D01*
Y135500D01*
G02X26161Y135000I-500J0D01*
G01X21161D01*
G02X20661Y135500I0J500D01*
G01Y142500D01*
G02X21161Y143000I500J0D01*
G01X26161D01*
G02X26662Y142500I0J-500D01*
G01Y140000D01*
X27086D01*
X28701Y141615D01*
Y143421D01*
G02X29201Y143922I500J0D01*
G01X33728D01*
G02X34228Y143435I0J-500D01*
G01X34234Y143240D01*
X45260D01*
G02X45967Y142947I0J-1000D01*
G01X47707Y141207D01*
G02X48000Y140500I-707J-707D01*
G01Y131853D01*
X48280D01*
G02X48780Y131368I0J-500D01*
G01X48786Y131173D01*
X54327D01*
G02X55034Y130880I0J-1000D01*
G01X55914Y130000D01*
X57499D01*
G03X57863Y130565I0J400D01*
G02X57819Y130772I456J206D01*
G01Y135299D01*
G02X58305Y135799I500J0D01*
G03X58500Y135999I-6J200D01*
G01Y141586D01*
X54586Y145500D01*
X20414D01*
X13915Y139000D01*
X18207Y134707D01*
G02X18500Y134000I-707J-707D01*
G01Y125853D01*
X18780D01*
G02X19280Y125353I0J-500D01*
G01Y122500D01*
X21220D01*
Y125353D01*
G02X21720Y125853I500J0D01*
G01X23266D01*
X25360Y127947D01*
G02X26067Y128240I707J-707D01*
G01X26696D01*
X26701Y128435D01*
G02X27201Y128922I500J-14D01*
G01X30507D01*
X37721Y136136D01*
G03X37438Y136819I-283J283D01*
G01X37272D01*
G02X36771Y137319I0J500D01*
G01Y139681D01*
G02X37272Y140181I500J0D01*
G01X41799D01*
G02X42299Y139681I0J-500D01*
G01Y137319D01*
G02X41799Y136819I-500J0D01*
G01X40536D01*
Y136535D01*
G02X40243Y135828I-1000J0D01*
G01X32229Y127814D01*
Y126059D01*
G02X31728Y125559I-500J0D01*
G01X27201D01*
G02X26767Y125811I0J500D01*
G03X26136Y125895I-347J-198D01*
G01X24780Y124539D01*
Y122500D01*
X31707D01*
X32500Y121707D01*
Y117293D01*
X31207Y116000D01*
X14707D01*
X12207Y113500D01*
X4293D01*
X2500Y115293D01*
Y123707D01*
X4293Y125500D01*
X12207D01*
X15180Y122527D01*
G03X15723Y122942I145J373D01*
G02X15720Y122993I497J52D01*
G01Y125353D01*
G02X16220Y125853I500J0D01*
G01X16500D01*
Y133586D01*
X12086Y138000D01*
X9339D01*
Y135500D01*
G02X8839Y135000I-500J0D01*
G01X3839D01*
G02X3338Y135500I0J500D01*
G01Y142500D01*
G02X3839Y143000I500J0D01*
G01X8839D01*
G02X9339Y142500I0J-500D01*
G01Y140000D01*
X12086D01*
X19293Y147207D01*
G02X20000Y147500I707J-707D01*
G01X51558D01*
G03X51928Y148052I0J400D01*
G02X51800Y148700I1572J647D01*
G02X55200Y148700I1700J0D01*
G02X55050Y148002I-1700J0D01*
G03X55296Y147455I365J-164D01*
G02X55707Y147207I-296J-955D01*
G01X60207Y142707D01*
G02X60500Y142000I-707J-707D01*
G01Y135999D01*
G03X60695Y135799I200J0D01*
G02X61181Y135299I-14J-500D01*
G01Y130772D01*
G02X61137Y130565I-500J0D01*
G03X61501Y130000I364J-165D01*
G37*
G36*
G01X326326Y93500D02*
G02X328500Y91326I2174J0D01*
G02X327951Y91397I0J2174D01*
G01X327840Y91426D01*
X327723Y91308D01*
G03X328083Y90633I283J-283D01*
G02X328500Y90674I418J-2133D01*
G02X326326Y88500I0J-2174D01*
G02X326540Y89438I2173J0D01*
G03X326128Y90008I-361J173D01*
G02X326000Y90000I-128J992D01*
G01X322862D01*
Y89070D01*
G02X322361Y88570I-500J0D01*
G01X318702D01*
G02X318201Y89070I0J500D01*
G01Y92930D01*
G02X318702Y93430I500J0D01*
G01X322361D01*
G02X322862Y92930I0J-500D01*
G01Y92000D01*
X325586D01*
X326426Y92840D01*
X326397Y92951D01*
G02X326326Y93500I2103J549D01*
G37*
G36*
G01X98956Y76966D02*
G02X98848Y76656I-500J0D01*
G03Y76407I157J-124D01*
G02X98956Y76097I-392J-310D01*
G01Y74997D01*
G02X98848Y74687I-500J0D01*
G03Y74439I157J-124D01*
G02X98956Y74129I-392J-310D01*
G01Y73029D01*
G02X98848Y72718I-500J0D01*
G03Y72470I157J-124D01*
G02X98956Y72160I-392J-310D01*
G01Y71334D01*
G03X99426Y70940I400J0D01*
G02X99610Y70956I184J-1034D01*
G02X100192Y70780I1J-1050D01*
G03X100687Y70821I222J333D01*
G02X101029Y70956I342J-365D01*
G01X104097D01*
G02X104597Y70456I0J-500D01*
G01Y67056D01*
G02X104097Y66556I-500J0D01*
G01X102579D01*
Y56836D01*
X103914Y55500D01*
X121086D01*
X122500Y56914D01*
Y63500D01*
G02X122793Y64207I1000J0D01*
G01X126793Y68207D01*
G02X127500Y68500I707J-707D01*
G01X166625D01*
G02X168000Y69200I1375J-1000D01*
G02Y65800I0J-1700D01*
G02X166625Y66500I0J1700D01*
G01X127914D01*
X124500Y63086D01*
Y56500D01*
G02X124207Y55793I-1000J0D01*
G01X122207Y53793D01*
G02X121500Y53500I-707J707D01*
G01X103500D01*
G02X102793Y53793I0J1000D01*
G01X100872Y55714D01*
G02X100578Y56421I707J707D01*
G01Y66272D01*
G03X100022Y66640I-400J0D01*
G02X99610Y66556I-412J966D01*
G02X98560Y67606I0J1050D01*
G01Y69906D01*
G02X98576Y70090I1050J0D01*
G03X98182Y70560I-394J70D01*
G01X95056D01*
G02X94556Y71060I0J500D01*
G01Y72160D01*
G02X94664Y72470I500J0D01*
G03Y72718I-157J124D01*
G02X94556Y73029I392J310D01*
G01Y74129D01*
G02X94664Y74439I500J0D01*
G03Y74687I-157J124D01*
G02X94556Y74997I392J310D01*
G01Y76097D01*
G02X94664Y76407I500J0D01*
G03Y76656I-157J124D01*
G02X94556Y76966I392J310D01*
G01Y78484D01*
X92692D01*
X92207Y78000D01*
X73707D01*
X72207Y76500D01*
X65793D01*
X64500Y77793D01*
Y82707D01*
X65793Y84000D01*
X88810D01*
G03X88951Y84342I0J200D01*
G01X88793Y84500D01*
X74293D01*
X73500Y85293D01*
Y92207D01*
X74293Y93000D01*
X86707D01*
X93317Y86390D01*
X94834D01*
X94870Y86404D01*
G02X95056Y86440I186J-465D01*
G01X98456D01*
G02X98956Y85940I0J-500D01*
G01Y84840D01*
G02X98848Y84530I-500J0D01*
G03Y84282I157J-124D01*
G02X98956Y83971I-392J-310D01*
G01Y82871D01*
G02X98848Y82561I-500J0D01*
G03Y82313I157J-124D01*
G02X98956Y82003I-392J-310D01*
G01Y80903D01*
G02X98848Y80593I-500J0D01*
G03Y80345I157J-124D01*
G02X98956Y80034I-392J-310D01*
G01Y78934D01*
G02X98848Y78624I-500J0D01*
G03Y78376I157J-124D01*
G02X98956Y78066I-392J-310D01*
G01Y76966D01*
G37*
G36*
G01X29500Y44293D02*
X23000Y37793D01*
Y33293D01*
X20500Y30793D01*
Y30276D01*
X24398D01*
Y30538D01*
G02X24617Y31068I749J0D01*
G01X24883Y31333D01*
Y38044D01*
G02X25103Y38574I749J0D01*
G01X27057Y40528D01*
G02X27587Y40747I530J-530D01*
G01X32276D01*
X32336Y40806D01*
Y42570D01*
G03X31915Y42970I-400J0D01*
G02X31829Y42968I-86J1698D01*
G01X31828D01*
G02Y46368I0J1700D01*
G02X33249Y45601I0J-1700D01*
G03X33918I334J220D01*
G02X35339Y46368I1421J-933D01*
G02Y42968I0J-1700D01*
G01X35338D01*
G02X35252Y42970I0J1700D01*
G03X34832Y42570I-21J-399D01*
G01Y40083D01*
G02X34612Y39553I-749J0D01*
G01X33530Y38470D01*
G02X33000Y38251I-530J530D01*
G01X28310D01*
X27380Y37320D01*
Y31333D01*
X27646Y31068D01*
G02X27865Y30538I-530J-530D01*
G01Y30276D01*
X28335D01*
Y30538D01*
G02X28555Y31068I749J0D01*
G01X28820Y31333D01*
Y32106D01*
G02X29040Y32636I749J0D01*
G01X30122Y33718D01*
G02X30652Y33938I530J-530D01*
G01X31340D01*
Y34281D01*
X31204Y34327D01*
G02X30045Y35939I541J1612D01*
G02X31745Y37639I1700J0D01*
G02X33167Y36872I0J-1700D01*
G03X33835I334J220D01*
G02X35256Y37639I1421J-933D01*
G02Y34239I0J-1700D01*
G02X35170Y34241I0J1700D01*
G03X34749Y33842I-21J-399D01*
G01Y33273D01*
G02X34530Y32743I-749J0D01*
G01X33447Y31661D01*
G02X32917Y31441I-530J530D01*
G01X32086D01*
G03X31726Y30866I0J-400D01*
G02X31802Y30538I-673J-328D01*
G01Y30276D01*
X35580D01*
G02X35862Y30189I0J-500D01*
G03X36087I113J165D01*
G02X36369Y30276I282J-413D01*
G01X38729D01*
G02X39229Y29776I0J-500D01*
G01Y23866D01*
G02X38922Y23405I-500J0D01*
G01X38799Y23354D01*
Y23049D01*
G02X38790Y22901I-1250J0D01*
G03X39034Y22683I199J-24D01*
G02X39478Y22734I444J-1925D01*
G02Y18783I0J-1975D01*
G02X38166Y19282I0J1975D01*
G03X37500Y18985I-266J-299D01*
G02X36134Y16484I-3000J15D01*
G03X36352Y15748I218J-335D01*
G01X53098D01*
X53157Y15807D01*
Y16561D01*
G02X53376Y17091I749J0D01*
G01X53874Y17589D01*
G02X54404Y17808I530J-530D01*
G01X54653D01*
Y18459D01*
G02X55153Y18959I500J0D01*
G01X59253D01*
G02X59753Y18459I0J-500D01*
G01Y17808D01*
X67441D01*
G02X67971Y17589I0J-749D01*
G01X69812Y15747D01*
X143276D01*
X145251Y17722D01*
Y44500D01*
G02X145470Y45030I749J0D01*
G01X148467Y48027D01*
G02X148997Y48246I530J-530D01*
G01X155589D01*
Y48626D01*
G02X156089Y49126I500J0D01*
G01X161994D01*
G02X162495Y48626I0J-500D01*
G01Y47248D01*
G02X162398Y46953I-500J0D01*
G02X162495Y46658I-404J-295D01*
G01Y45280D01*
G02X161994Y44779I-500J0D01*
G01X156089D01*
G02X155589Y45280I0J500D01*
G01Y45750D01*
X149721D01*
X147747Y43776D01*
Y16998D01*
G02X147528Y16468I-749J0D01*
G01X144530Y13470D01*
G02X144000Y13251I-530J530D01*
G01X69810D01*
X67971Y11411D01*
G02X67441Y11192I-530J530D01*
G01X59753D01*
Y10541D01*
G02X59253Y10041I-500J0D01*
G01X55153D01*
G02X54653Y10541I0J500D01*
G01Y11192D01*
X54404D01*
G02X53874Y11411I0J749D01*
G01X53376Y11909D01*
G02X53157Y12439I530J530D01*
G01Y13193D01*
X53098Y13252D01*
X31588D01*
G02X31058Y13471I0J749D01*
G01X29040Y15489D01*
G02X28820Y16019I530J530D01*
G01Y22309D01*
X28555Y22575D01*
G02X28335Y23104I530J530D01*
G01Y23366D01*
X20868D01*
G03X20585Y22683I0J-400D01*
G01X21454Y21814D01*
X21570Y21852D01*
G02X22500Y22000I930J-2853D01*
G02X19500Y19000I0J-3000D01*
G02X19648Y19930I3000J0D01*
G01X19686Y20046D01*
X19300Y20432D01*
G03X18631Y20251I-283J-283D01*
G02X16722Y18783I-1909J507D01*
G02Y22734I0J1975D01*
G02X16954Y22720I0J-1975D01*
G03X17279Y23405I47J397D01*
G02X16971Y23866I192J462D01*
G01Y29776D01*
G02X16992Y29918I500J0D01*
G01X17000Y29946D01*
Y30293D01*
X15793Y31500D01*
X4293D01*
X2500Y33293D01*
Y42207D01*
X5293Y45000D01*
X20293D01*
X21500Y46207D01*
Y53207D01*
X22500Y54207D01*
Y68207D01*
X23293Y69000D01*
X26207D01*
X27000Y68207D01*
Y59707D01*
X28317Y58390D01*
G03X29000Y58673I283J283D01*
G01Y60580D01*
X28833Y60608D01*
G02X28415Y61101I82J493D01*
G01Y67891D01*
G02X28915Y68391I500J0D01*
G01X31085D01*
G02X31585Y67891I0J-500D01*
G01Y61101D01*
G02X31167Y60608I-500J0D01*
G01X31000Y60580D01*
Y58914D01*
X47414Y42500D01*
X54638D01*
Y43430D01*
G02X55139Y43930I500J0D01*
G01X58798D01*
G02X59299Y43430I0J-500D01*
G01Y39570D01*
G02X58798Y39070I-500J0D01*
G01X57969D01*
Y36930D01*
X58798D01*
G02X59299Y36430I0J-500D01*
G01Y32570D01*
G02X58798Y32070I-500J0D01*
G01X55139D01*
G02X54638Y32570I0J500D01*
G01Y36430D01*
G02X55139Y36930I500J0D01*
G01X55968D01*
Y39070D01*
X55139D01*
G02X54638Y39570I0J500D01*
G01Y40500D01*
X47000D01*
G02X46293Y40793I0J1000D01*
G01X30183Y56902D01*
G03X29500Y56620I-283J-283D01*
G01Y44293D01*
G37*
G54D64*
X309500Y115500D03*
Y120000D03*
X305000Y108000D03*
X309500Y111000D03*
Y129000D03*
Y124500D03*
Y134000D03*
Y138500D03*
Y143000D03*
Y147500D03*
X39468Y154532D03*
X31968Y191468D03*
G54D63*
X8500Y109000D03*
X261000Y220000D03*
X251000D03*
G54D62*
X333500Y88500D03*
X328500Y118500D03*
Y113500D03*
X333500Y118500D03*
X328500Y133500D03*
Y128500D03*
Y123500D03*
X333500Y133500D03*
Y128500D03*
Y123500D03*
X328500Y143500D03*
Y138500D03*
X333500Y143500D03*
Y138500D03*
G54D65*
X218000Y120161D03*
X214161Y124000D03*
X218000Y127839D03*
Y124000D03*
X221839D03*
G54D61*
X45128Y6979D03*
X11072D03*
%LPD*%
G75*
G36*
G01X23000Y54000D02*
Y68000D01*
X23500Y68500D01*
X26000D01*
X26500Y68000D01*
Y59500D01*
X29000Y57000D01*
Y44500D01*
X22500Y38000D01*
Y33500D01*
X20000Y31000D01*
Y24000D01*
X19500Y23500D01*
X18000D01*
X17500Y24000D01*
Y30500D01*
X16000Y32000D01*
X4500D01*
X3000Y33500D01*
Y42000D01*
X5500Y44500D01*
X20500D01*
X22000Y46000D01*
Y53000D01*
X23000Y54000D01*
G37*
G36*
G01X2000Y93500D02*
X2500Y94000D01*
X22000D01*
X26000Y90000D01*
Y83000D01*
X25500Y82500D01*
X3000D01*
X2000Y83500D01*
Y93500D01*
G37*
G36*
G01X15000Y122000D02*
X31500D01*
X32000Y121500D01*
Y117500D01*
X31000Y116500D01*
X14500D01*
X12000Y114000D01*
X4500D01*
X3000Y115500D01*
Y123500D01*
X4500Y125000D01*
X12000D01*
X15000Y122000D01*
G37*
G36*
G01Y66500D02*
X20000D01*
X21000Y65500D01*
Y54500D01*
X20500Y54000D01*
X19453D01*
X19427Y54007D01*
G03X18968Y54070I-458J-1637D01*
G03X18510Y54007I0J-1700D01*
G01X18484Y54000D01*
X17500D01*
X17000Y54500D01*
Y58000D01*
X14000Y61000D01*
Y65500D01*
X15000Y66500D01*
G37*
G36*
G01X25000Y99500D02*
X26000Y100500D01*
X35500D01*
X36000Y100000D01*
Y94000D01*
X31500Y89500D01*
Y83500D01*
X31000Y83000D01*
X29000D01*
X28500Y83500D01*
Y89500D01*
X25000Y93000D01*
Y99500D01*
G37*
G36*
G01X48364Y128500D02*
X49000D01*
X49500Y128000D01*
Y119500D01*
X49000Y119000D01*
X48364D01*
X48350Y119002D01*
G03X48280Y119007I-70J-495D01*
G01X45720D01*
G03X45650Y119002I0J-500D01*
G01X45636Y119000D01*
X44000D01*
X43000Y118000D01*
Y112500D01*
X44500Y111000D01*
X62500D01*
X63500Y110000D01*
Y105500D01*
X40500D01*
X38000Y108000D01*
X25500D01*
X24500Y109000D01*
Y114000D01*
X25500Y115000D01*
X33500D01*
X34500Y116000D01*
Y128000D01*
X35000Y128500D01*
X45636D01*
X45650Y128498D01*
G03X45720Y128493I70J495D01*
G01X48280D01*
G03X48350Y128498I0J500D01*
G01X48364Y128500D01*
G37*
G36*
G01X59753Y16310D02*
X67131D01*
X68941Y14500D01*
X67131Y12690D01*
X59753D01*
Y13341D01*
G03X59253Y13841I-500J0D01*
G01X55153D01*
G03X54975Y13808I0J-500D01*
G02X54510Y13946I-142J374D01*
G03X54436Y14033I-605J-442D01*
G01X53968Y14500D01*
X54436Y14967D01*
G03X54510Y15054I-530J529D01*
G02X54975Y15192I323J-236D01*
G03X55153Y15159I178J467D01*
G01X59253D01*
G03X59753Y15659I0J500D01*
G01Y16310D01*
G37*
G36*
G01X66000Y83500D02*
X89000D01*
X90500Y82000D01*
X92000D01*
X92500Y81500D01*
Y79000D01*
X92000Y78500D01*
X89364D01*
X89350Y78502D01*
G03X89280Y78507I-70J-495D01*
G01X86720D01*
G03X86650Y78502I0J-500D01*
G01X86636Y78500D01*
X73500D01*
X72000Y77000D01*
X66000D01*
X65000Y78000D01*
Y82500D01*
X66000Y83500D01*
G37*
G36*
G01X74000Y92000D02*
X74500Y92500D01*
X86500D01*
X93000Y86000D01*
Y83500D01*
X92500Y83000D01*
X91000D01*
X89000Y85000D01*
X74500D01*
X74000Y85500D01*
Y92000D01*
G37*
G36*
G01X77500Y112500D02*
X114500D01*
X116500Y110500D01*
Y104000D01*
X115000Y102500D01*
X88500D01*
X86500Y100500D01*
X76000D01*
X75500Y101000D01*
Y110500D01*
X77500Y112500D01*
G37*
G36*
G01X287000D02*
X288000Y113500D01*
X298000D01*
X300000Y111500D01*
Y109000D01*
X298500Y107500D01*
X288000D01*
X287000Y108500D01*
Y112500D01*
G37*
G36*
G01X304000Y138500D02*
Y134500D01*
X303000Y133500D01*
X286500D01*
X285500Y134500D01*
Y138500D01*
X286500Y139500D01*
X303000D01*
X304000Y138500D01*
G37*
%LPC*%
G75*
G36*
G01X5045Y116045D02*
Y121955D01*
G02X5545Y122455I500J0D01*
G01X11455D01*
G02X11955Y121955I0J-500D01*
G01Y116045D01*
G02X11455Y115545I-500J0D01*
G01X5545D01*
G02X5045Y116045I0J500D01*
G37*
%LPD*%
G75*
G54D10*
X6521Y6979D03*
X7227Y22727D03*
X2732Y53268D03*
X3000Y47500D03*
X3500Y59000D03*
X6032Y78468D03*
X4000Y89000D03*
Y86000D03*
X6000Y84000D03*
X6500Y88000D03*
X3000Y84000D03*
X4000Y92000D03*
X6500Y90500D03*
Y93000D03*
X15479Y6979D03*
X8500Y17000D03*
X11072Y12928D03*
X12000Y30000D03*
X8500Y28500D03*
Y47000D03*
X15000Y48500D03*
X15500Y52500D03*
X18968Y52370D03*
X8500Y59500D03*
X12500Y59000D03*
X13032Y70032D03*
X20968D03*
X10500Y75000D03*
X17500D03*
X9500Y88000D03*
X12000D03*
X14500D03*
X11000Y101500D03*
X17500Y102000D03*
X16922Y164000D03*
X22000Y163500D03*
X17689Y180811D03*
X35256Y35939D03*
X31745D03*
X35339Y44668D03*
X31828D03*
X31465Y137465D03*
X29500Y132000D03*
X39737Y164763D03*
X39468Y154532D03*
X27000Y164000D03*
X30500Y163611D03*
X36000Y181000D03*
X31469Y179469D03*
X37500Y191500D03*
X31968Y191468D03*
X40000Y7500D03*
X50500Y6500D03*
X45128Y2128D03*
Y11872D03*
X49273Y22727D03*
X45128Y17872D03*
Y28128D03*
X41500Y32000D03*
X44500Y31500D03*
X40032Y101968D03*
X53500Y148700D03*
X49000Y158500D03*
X45532Y155032D03*
X53516Y164016D03*
X43000Y164000D03*
X40000Y180000D03*
X46500Y178000D03*
X49000Y182500D03*
X45000Y181000D03*
X41000Y189500D03*
X71500Y3000D03*
X69000D03*
X60500Y14500D03*
X67000D03*
X66500Y82000D03*
X69000D03*
X71500D03*
Y79500D03*
X69000D03*
X66500D03*
X62500Y94500D03*
X59032Y90532D03*
X65500Y119000D03*
X61000Y113500D03*
X60035Y124965D03*
X66465D03*
X64000Y153000D03*
X68500D03*
X59000Y160000D03*
X63500Y164000D03*
X68500Y163500D03*
X61784Y179784D03*
X71000Y182000D03*
X63000Y185000D03*
X56272Y179772D03*
X71000Y186500D03*
X56500Y191000D03*
X86500Y3000D03*
X84000D03*
X74000D03*
X81500D03*
X79000D03*
X76500D03*
X76000Y72000D03*
X82500D03*
X83500Y108500D03*
X81000D03*
X78500D03*
Y111000D03*
X81000D03*
X83500D03*
X86000Y108500D03*
Y111000D03*
X78535Y135465D03*
X85500Y125000D03*
X85032Y152968D03*
X75500Y162500D03*
X80500Y163000D03*
X81500Y180500D03*
X86587Y179587D03*
X87000Y191000D03*
X84173Y188673D03*
X101500Y3000D03*
X99000D03*
X91500D03*
X89000D03*
X96500D03*
X94000D03*
X102500Y18000D03*
X100000D03*
X97500Y21000D03*
Y23500D03*
Y26000D03*
X100000Y39000D03*
X102500D03*
X97500Y36000D03*
Y31000D03*
Y33500D03*
Y28500D03*
X88000Y74000D03*
X95000Y98000D03*
X92827Y100327D03*
X101000Y95500D03*
X98500Y92500D03*
X101579Y92421D03*
X91000Y108500D03*
X88500D03*
Y111000D03*
X91000D03*
X93500Y108500D03*
Y111000D03*
X98500Y108500D03*
X96000D03*
Y111000D03*
X98500D03*
X88173Y122173D03*
X89500Y149000D03*
X96000D03*
X99968Y152968D03*
X94500Y163500D03*
X89343Y164157D03*
X93000Y181000D03*
X99000Y181500D03*
X89673Y188673D03*
X119000Y3000D03*
X116500D03*
X114000D03*
X106500D03*
X104000D03*
X111500D03*
X109000D03*
X107500Y18000D03*
X105000D03*
X112500D03*
X110000D03*
X117500D03*
X115000D03*
X105000Y39000D03*
X107500D03*
X115000D03*
X117500D03*
X110000D03*
X112500D03*
X104500Y58000D03*
X108673Y58173D03*
X107500Y95000D03*
X103532Y116532D03*
X111468D03*
X134000Y3000D03*
X131500D03*
X129000D03*
X124000D03*
X121500D03*
X126500D03*
X122500Y18000D03*
X120000D03*
X127500D03*
X125000D03*
X130000D03*
X132500D03*
X135000D03*
X120000Y39000D03*
X122500D03*
X125000D03*
X127500D03*
X130000D03*
X132500D03*
X135000D03*
X133500Y81000D03*
Y85500D03*
X126327Y78673D03*
X133500Y90500D03*
X120500Y98000D03*
X121500Y145500D03*
X120740Y142260D03*
X121500Y139000D03*
X134035Y149465D03*
Y143035D03*
X130500Y149000D03*
X132500Y170000D03*
X134500Y207500D03*
X135000Y216000D03*
X149000Y3000D03*
X146500D03*
X144000D03*
X139000D03*
X136500D03*
X141500D03*
X137500Y18000D03*
X140000D03*
X142500D03*
X143000Y21000D03*
Y23500D03*
Y26000D03*
X137500Y39000D03*
X140000D03*
X142500D03*
X143000Y36000D03*
Y31000D03*
Y33500D03*
Y28500D03*
X141500Y73500D03*
X147000Y70500D03*
X148000Y118500D03*
X150500Y110673D03*
Y114000D03*
X139827Y132673D03*
X150500Y122000D03*
X148535Y151965D03*
Y147035D03*
X144760Y149740D03*
X137500Y149000D03*
X146500Y166000D03*
X145000Y155000D03*
X148250Y160250D03*
X138000Y170000D03*
X143500Y201000D03*
X147500Y205000D03*
X166500Y3000D03*
X164000D03*
X161500D03*
X159000D03*
X156500D03*
X154000D03*
X151500D03*
X152500Y44000D03*
X157827Y56827D03*
X164000Y117000D03*
X151500Y126000D03*
X165500Y122000D03*
X151500Y129000D03*
X163500Y142000D03*
X166000Y141500D03*
X160108Y154149D03*
X156500Y206000D03*
X164500Y211000D03*
X159500Y208500D03*
X174000Y3000D03*
X181500D03*
X179000D03*
X176500D03*
X171500D03*
X169000D03*
X173327Y56827D03*
X170000Y54000D03*
X173327Y51827D03*
X176673Y51673D03*
X182000Y56787D03*
X168000Y67500D03*
X182000Y62000D03*
X179500Y60000D03*
X171468Y131968D03*
X169000Y141980D03*
X175000Y142000D03*
X178535Y150965D03*
X175500Y150889D03*
X182000Y151318D03*
X173000Y168500D03*
X168500Y168000D03*
X175500Y173000D03*
X179500Y170000D03*
X176500Y198000D03*
X181500Y188500D03*
X180400Y206958D03*
X168468Y206032D03*
X189000Y3000D03*
X196500D03*
X194000D03*
X191500D03*
X186500D03*
X184000D03*
X198000Y22500D03*
X189500Y24000D03*
X193327Y33020D03*
X196673Y33500D03*
X197500Y42000D03*
X186000Y31500D03*
X187500Y36500D03*
X195000Y40500D03*
X188000Y50500D03*
X186500Y53500D03*
X190500Y48000D03*
X189827Y62327D03*
X196000Y62000D03*
X193500Y72500D03*
X192000Y88500D03*
X193053Y78500D03*
X193000Y75500D03*
Y83500D03*
X194500Y136500D03*
X196760Y152240D03*
X189260D03*
X193035Y154965D03*
X184000Y170000D03*
X186500Y183500D03*
X196500Y200000D03*
X184500Y188000D03*
X186500Y202500D03*
X206500Y3000D03*
X204000D03*
X214000D03*
X211500D03*
X209000D03*
X201500D03*
X199000D03*
X211500Y30500D03*
X208000Y31000D03*
X200500Y41500D03*
X211000Y56000D03*
Y51000D03*
Y60500D03*
X213500Y81947D03*
X204000Y75000D03*
X213500Y78000D03*
X204500Y80000D03*
X206173Y102827D03*
X199500Y112000D03*
Y115500D03*
X211500Y109000D03*
X214500Y138947D03*
X209500Y139500D03*
X204500D03*
X224000Y3000D03*
X221500D03*
X219000D03*
X229000D03*
X226500D03*
X216500D03*
X218232Y14732D03*
X226000Y30000D03*
X223500Y28500D03*
X219500Y56000D03*
X215000Y51000D03*
X219500D03*
X215000Y56000D03*
Y60500D03*
X219500D03*
X226500Y79000D03*
X221500Y79500D03*
X219500Y76500D03*
X216000Y90500D03*
X216980Y102827D03*
X220953Y113047D03*
X228500Y117500D03*
X215047Y109053D03*
X222921Y110000D03*
X228734Y120715D03*
X218984Y110000D03*
X220500Y134500D03*
X229500Y134000D03*
X223500Y137000D03*
X229157Y127115D03*
X219500Y138947D03*
X224161Y174339D03*
X227661Y177339D03*
X223661Y206161D03*
X239000Y3000D03*
X236500D03*
X234000D03*
X244000D03*
X241500D03*
X231500D03*
X232500Y18000D03*
X237000Y30000D03*
X236000Y41500D03*
X239827Y36173D03*
X234500Y46500D03*
X236500Y54500D03*
Y58000D03*
X233500Y56000D03*
X234500Y60500D03*
X236500Y65000D03*
X235500Y68500D03*
X236000Y99500D03*
X239500Y100500D03*
X237500Y96500D03*
X243000Y101000D03*
X233500Y91500D03*
X236000Y94000D03*
X237000Y108000D03*
X239500Y108500D03*
X243000Y108000D03*
X231500Y129500D03*
X245500Y201000D03*
X245000Y197000D03*
X256500Y3000D03*
X254000D03*
X251500D03*
X249000D03*
X261500D03*
X259000D03*
X246500D03*
X260000Y5500D03*
Y8000D03*
Y10500D03*
X257000Y8000D03*
Y5500D03*
X254000D03*
Y8000D03*
X248000D03*
Y5500D03*
X251000D03*
Y8000D03*
X257000Y10500D03*
X254000D03*
X248000D03*
X251000D03*
X260000Y23000D03*
Y20500D03*
Y18000D03*
Y15500D03*
Y13000D03*
Y25500D03*
X257000Y13000D03*
X254000D03*
X248000D03*
X251000D03*
X260000Y41000D03*
Y38500D03*
Y36000D03*
Y33500D03*
Y31000D03*
Y28000D03*
X254500Y42500D03*
X251520Y45326D03*
X258000Y51500D03*
X260500D03*
Y46500D03*
X258000D03*
X260000Y43500D03*
X256000Y60000D03*
X247500Y74000D03*
X256500Y71000D03*
Y67000D03*
X254500Y92500D03*
X256000Y127500D03*
X258500D03*
X261000D03*
X256000Y130000D03*
X261000D03*
X258500D03*
X256000Y132500D03*
Y135000D03*
X258500Y132500D03*
X261000D03*
Y135000D03*
X258500D03*
X261075Y161925D03*
X249965Y196465D03*
X269000Y10500D03*
Y8000D03*
Y5500D03*
Y3000D03*
X266500D03*
X264000D03*
X266000Y8000D03*
Y5500D03*
Y10500D03*
X263000Y8000D03*
Y5500D03*
Y10500D03*
X269000Y26000D03*
Y23500D03*
Y21000D03*
Y18500D03*
Y15500D03*
Y13000D03*
X266000Y15500D03*
Y18000D03*
Y20500D03*
Y23000D03*
Y25500D03*
Y13000D03*
X263000Y23500D03*
Y21000D03*
Y18500D03*
Y15500D03*
Y13000D03*
Y26000D03*
X269000Y41000D03*
Y38500D03*
Y36000D03*
Y33500D03*
Y31000D03*
Y28500D03*
X266000Y31000D03*
Y33500D03*
Y36000D03*
Y38500D03*
Y41000D03*
Y28000D03*
X263000Y41000D03*
Y38500D03*
Y36000D03*
Y33500D03*
Y31000D03*
Y28500D03*
Y51500D03*
X265500D03*
X268000D03*
Y46500D03*
X265500D03*
X263000D03*
X269000Y43500D03*
Y56500D03*
Y54000D03*
X265500D03*
Y56500D03*
X266000Y43500D03*
X263000D03*
X269000Y66500D03*
Y64000D03*
Y61500D03*
X277000Y73000D03*
X269000Y59000D03*
X265500D03*
Y61500D03*
X274500Y72500D03*
X264500Y90500D03*
X268000Y98500D03*
X275000Y101000D03*
X267000Y131500D03*
Y128000D03*
X270000Y127500D03*
X274500Y133000D03*
X263500Y127500D03*
Y130000D03*
Y132500D03*
Y135000D03*
X273147Y152845D03*
X263500Y155500D03*
X262500Y178500D03*
X264827Y176827D03*
X264423Y174102D03*
X271000Y175000D03*
X266000Y186000D03*
X268173Y188827D03*
X276673Y185827D03*
X266000Y195000D03*
X273035Y208965D03*
X268240Y205740D03*
X282000Y73000D03*
X279500D03*
X289500D03*
X287000D03*
X284500D03*
X292000D03*
X287532Y93532D03*
X293827Y94173D03*
X284500Y111000D03*
X291000Y108416D03*
X293500Y108500D03*
X283000Y126000D03*
X286000Y158500D03*
X282500Y157500D03*
X286500Y182000D03*
X282500Y208500D03*
X294500Y73000D03*
X309000Y97000D03*
X300500Y104000D03*
X305000Y100000D03*
X309500Y115500D03*
Y120000D03*
X305000Y108000D03*
X309500Y111000D03*
X298000Y122000D03*
X299500Y131000D03*
X298500Y136500D03*
X301400D03*
X309500Y129000D03*
Y124500D03*
Y134000D03*
Y138500D03*
Y143000D03*
Y147500D03*
X311000Y90000D03*
Y94500D03*
X310000Y108000D03*
X337000Y120500D03*
X339600Y125500D03*
X344000Y88500D03*
Y85500D03*
Y91500D03*
X342500Y125500D03*
G54D11*
X8500Y36732D03*
Y53268D03*
G54D20*
X22500Y19000D03*
X34500D03*
G54D12*
X8500Y109000D03*
X140000Y220000D03*
X178000D03*
X251000D03*
X261000D03*
X271000D03*
G54D21*
X18968Y48500D03*
Y56000D03*
X25032Y48500D03*
Y56000D03*
X52968Y94000D03*
X56468Y117500D03*
X56968Y34500D03*
X63032D03*
Y41500D03*
X56968D03*
Y48500D03*
X63032D03*
Y55500D03*
X56968D03*
X59032Y94000D03*
X62532Y117500D03*
X136968Y212000D03*
X143032D03*
X171468Y109000D03*
X177532D03*
X171468Y115500D03*
X177532D03*
X171468Y122000D03*
X177532D03*
X171468Y128500D03*
X177532D03*
X180398Y210587D03*
X174335D03*
X242469Y48500D03*
X248532D03*
X277968Y122000D03*
X287532Y97000D03*
X281468D03*
X284032Y122000D03*
X314468Y91000D03*
X320532D03*
X314468Y98000D03*
X320532D03*
X314468Y110000D03*
X320532D03*
G54D30*
X54827Y86500D03*
X58173D03*
X79173Y118500D03*
X75827D03*
X105327Y61000D03*
X108673D03*
X117673Y98000D03*
X114327D03*
X128173Y136500D03*
X124827D03*
X132327D03*
X128327Y212000D03*
X131673D03*
X136827Y88500D03*
X140173D03*
X136827Y83500D03*
X140173D03*
X136827Y78500D03*
X140173D03*
X143173Y136500D03*
X139827D03*
X135673D03*
X147327D03*
X150673D03*
X176673Y54000D03*
X173327D03*
X173173Y139000D03*
X169827D03*
X178827D03*
X182173D03*
X179827Y183500D03*
X196673Y36000D03*
X193327D03*
X193173Y65500D03*
X189827D03*
X186827Y73000D03*
X190173D03*
X189673Y88500D03*
X186327D03*
X186827Y83500D03*
X190173D03*
X186827Y78500D03*
X190173D03*
X189173Y118500D03*
X185827D03*
X189173Y113500D03*
X185827D03*
X189173Y108500D03*
X185827D03*
X189173Y123500D03*
X185827D03*
X191173Y139000D03*
X187827D03*
X183173Y183500D03*
X190173Y210500D03*
X186827D03*
X242327Y62500D03*
X245673D03*
Y67000D03*
X242327D03*
X242173Y90500D03*
X238827D03*
X261173D03*
X257827D03*
X248327D03*
X251673D03*
Y192000D03*
X248327D03*
X257327D03*
X260673D03*
X271327Y97000D03*
X274673D03*
X266327Y155500D03*
X269673D03*
X275327D03*
X264827Y178500D03*
X268173D03*
X270827Y192000D03*
X274173D03*
X293827Y97500D03*
X290827Y122000D03*
X278673Y155500D03*
X297173Y97500D03*
X309827Y104000D03*
X294173Y122000D03*
X321173Y104000D03*
X317827D03*
X313173D03*
G54D13*
X8500Y119000D03*
X130000Y220000D03*
X188000D03*
X281000D03*
G54D40*
X159042Y40063D03*
Y42032D03*
Y44000D03*
Y45968D03*
Y47937D03*
X176758Y42032D03*
Y40063D03*
Y47937D03*
Y45968D03*
Y44000D03*
G54D31*
X55760Y124965D03*
X59500Y133035D03*
X63240Y124965D03*
G54D22*
X17000Y70032D03*
Y63968D03*
X10500Y78468D03*
Y84532D03*
X17500Y78468D03*
Y84532D03*
Y98032D03*
Y91968D03*
X10500Y98032D03*
Y91968D03*
X44500Y101968D03*
X52500D03*
X44500Y108032D03*
X52500D03*
X59500Y101968D03*
Y108032D03*
X82500Y74968D03*
Y81032D03*
X76000Y74968D03*
Y81032D03*
X101000Y98468D03*
Y104532D03*
X107500Y98468D03*
Y104532D03*
Y116532D03*
Y110468D03*
X164500Y199968D03*
Y206032D03*
X239500Y98968D03*
Y105032D03*
X251500Y57968D03*
Y69968D03*
Y64032D03*
Y76032D03*
X272000Y104968D03*
X264000Y97468D03*
Y103532D03*
X272000Y111032D03*
X270500Y130968D03*
Y137032D03*
X296500Y104468D03*
Y110532D03*
X295000Y129468D03*
Y135532D03*
X341000Y119532D03*
Y113468D03*
G54D14*
X6339Y139000D03*
X23661D03*
X131339Y60000D03*
X148661D03*
X206839Y169000D03*
X206339Y200500D03*
X224161Y169000D03*
X223661Y200500D03*
X276839Y82000D03*
X294161D03*
G54D41*
X196500Y177339D03*
Y194661D03*
X233500Y177339D03*
Y194661D03*
G54D50*
X261972Y166500D03*
X277028D03*
G54D32*
X99610Y68756D03*
G54D23*
X23000Y120827D03*
X17500D03*
X23000Y124173D03*
X17500D03*
X47000Y120673D03*
Y117327D03*
Y126827D03*
Y130173D03*
X85500Y118827D03*
Y122173D03*
X88000Y76827D03*
Y80173D03*
X95000Y100327D03*
Y103673D03*
X123500Y78673D03*
Y75327D03*
X132500Y175673D03*
Y172327D03*
X137000Y175673D03*
Y172327D03*
X154500Y56827D03*
Y60173D03*
X159000Y200327D03*
Y203673D03*
X179500Y175673D03*
Y172327D03*
X184000Y175673D03*
Y172327D03*
X202500Y20327D03*
Y23673D03*
X213000Y36173D03*
Y32827D03*
Y88173D03*
Y84827D03*
X208500Y88173D03*
Y84827D03*
X199500Y88173D03*
Y84827D03*
X204000Y88173D03*
Y84827D03*
X209000Y102827D03*
X214000D03*
X202500Y117673D03*
Y114327D03*
X209000Y106173D03*
X214000D03*
X214500Y145173D03*
Y141827D03*
X209500Y145173D03*
Y141827D03*
X204500Y145173D03*
Y141827D03*
X225500Y24173D03*
Y20827D03*
X223500Y36173D03*
Y32827D03*
X219000Y36173D03*
Y32827D03*
X228000D03*
Y36173D03*
X217500Y84827D03*
Y88173D03*
X226500D03*
Y84827D03*
X222000Y88173D03*
Y84827D03*
X220500Y102827D03*
X225000D03*
X220500Y106173D03*
X225000D03*
X219500Y145173D03*
Y141827D03*
X232500Y24173D03*
Y20827D03*
Y32827D03*
Y36173D03*
X237000D03*
Y32827D03*
X237500Y48673D03*
Y45327D03*
X246000Y54827D03*
Y58173D03*
X241500Y54827D03*
Y58173D03*
X254500Y48673D03*
Y45327D03*
X271000Y120827D03*
Y124173D03*
X266000Y192173D03*
Y188827D03*
X283500Y161327D03*
Y164673D03*
X286000Y189173D03*
Y185827D03*
X280000Y189173D03*
Y185827D03*
X341000Y105673D03*
Y102327D03*
Y93327D03*
Y96673D03*
G54D60*
G01X22500Y19000D02*
X18651Y22849D01*
Y26821D01*
G01X34500Y19000D02*
X35500Y20000D01*
Y21000D01*
X37549Y23049D01*
Y26821D01*
G01X124740Y142260D02*
X121500Y145500D01*
G01X124740Y142260D02*
X120740D01*
G01X124760D02*
X124740D01*
G01X124760D02*
X121500Y139000D01*
G01X125965Y142260D02*
X124760D01*
G01X239500Y105500D02*
X237000Y108000D01*
G01X239500Y105032D02*
Y105500D01*
G01Y105032D02*
X240032D01*
X243000Y108000D01*
G01X246525Y104198D02*
X240333D01*
X239500Y105032D01*
G01Y105500D02*
Y108500D01*
G01X248240Y198260D02*
X246260D01*
X245000Y197000D01*
G01X248240Y198260D02*
X245500Y201000D01*
G01X249965Y198260D02*
X248240D01*
G01X249965D02*
Y196465D01*
G01X251673Y192000D02*
Y194756D01*
X249965Y196465D01*
G01X270500Y137032D02*
Y146500D01*
G01D02*
Y154673D01*
X269673Y155500D01*
G01X270500Y146500D02*
X285500D01*
X289500Y150500D01*
Y175500D01*
X286500Y178500D01*
X275405D01*
G01D02*
X268173D01*
G01X344000Y94500D02*
X342827Y93327D01*
X341000D01*
G01Y113468D02*
X344000Y110468D01*
Y105500D01*
G01X341000Y105673D02*
X343827D01*
X344000Y105500D01*
G01X341000Y113468D02*
X333532D01*
X333500Y113500D01*
G01X344000Y88500D02*
Y85500D01*
G01Y88500D02*
Y91500D01*
G01Y105500D02*
Y94500D01*
G01D02*
Y91500D01*
G54D24*
X23201Y171300D03*
X20445D03*
X17689D03*
X36981D03*
X34225D03*
X31469D03*
X28713D03*
X25957D03*
X53516D03*
X50760D03*
X48004D03*
X45248D03*
X42492D03*
X39737D03*
X70052D03*
X67296D03*
X64540D03*
X61784D03*
X59028D03*
X56272D03*
X86587D03*
X83831D03*
X81075D03*
X78319D03*
X75563D03*
X72808D03*
X97611D03*
X94855D03*
X92099D03*
X89343D03*
G54D42*
X209768Y18809D03*
Y26191D03*
X218232Y18809D03*
Y26191D03*
G54D15*
X11072Y6979D03*
X45128D03*
G54D51*
X272091Y48961D03*
Y57760D03*
G54D33*
X101579Y68756D03*
Y88244D03*
X99610D03*
X103547Y68756D03*
X105516D03*
X107484D03*
X109453D03*
X111421D03*
X113390D03*
Y88244D03*
X111421D03*
X109453D03*
X107484D03*
X105516D03*
X103547D03*
G54D16*
X16722Y20758D03*
X39478D03*
G54D52*
X263595Y161925D03*
X265563D03*
X267532D03*
X269500D03*
X271468D03*
X273437D03*
X275405D03*
Y171075D03*
X273437D03*
X271468D03*
X269500D03*
X267532D03*
X265563D03*
X263595D03*
G54D34*
X96756Y73579D03*
Y71610D03*
Y85390D03*
Y83421D03*
Y81453D03*
Y79484D03*
Y77516D03*
Y75547D03*
X116244Y71610D03*
Y73579D03*
Y75547D03*
Y77516D03*
Y79484D03*
Y81453D03*
Y83421D03*
Y85390D03*
G54D25*
X32500Y75500D03*
G54D43*
X215000Y56000D03*
G54D26*
X40000Y64496D03*
X35000D03*
X30000D03*
X25000D03*
Y86504D03*
X30000D03*
X35000D03*
X40000D03*
G54D17*
X11072Y22727D03*
X45128D03*
G54D35*
X106500Y78500D03*
G54D53*
X279941Y197203D03*
X285059D03*
X282500Y203797D03*
G54D44*
X212638Y44191D03*
X211063D03*
X209488D03*
X207913D03*
X206339D03*
Y67809D03*
X207913D03*
X209488D03*
X211063D03*
X212638D03*
X223661Y44191D03*
X222087D03*
X220512D03*
X218937D03*
X217362D03*
X215787D03*
X214213D03*
Y67809D03*
X215787D03*
X217362D03*
X218937D03*
X220512D03*
X222087D03*
X223661D03*
G54D27*
X30500Y96716D03*
Y111284D03*
X81000Y89216D03*
Y103784D03*
G54D54*
X328500Y88500D03*
X333500D03*
X328500Y103500D03*
Y98500D03*
Y93500D03*
X333500Y103500D03*
Y98500D03*
Y93500D03*
X328500Y118500D03*
Y113500D03*
Y108500D03*
X333500Y118500D03*
Y113500D03*
Y108500D03*
X328500Y133500D03*
Y128500D03*
Y123500D03*
X333500Y133500D03*
Y128500D03*
Y123500D03*
X328500Y143500D03*
Y138500D03*
X333500Y143500D03*
Y138500D03*
G54D36*
X102563Y78500D03*
X106500Y82437D03*
Y74563D03*
X110437Y78500D03*
X106500D03*
G54D45*
X203191Y47339D03*
Y48913D03*
Y50488D03*
Y52063D03*
Y53638D03*
Y55213D03*
Y56787D03*
Y58362D03*
Y59937D03*
Y61512D03*
Y63087D03*
Y64661D03*
X226809Y56787D03*
Y55213D03*
Y53638D03*
Y52063D03*
Y50488D03*
Y48913D03*
Y47339D03*
Y64661D03*
Y63087D03*
Y61512D03*
Y59937D03*
Y58362D03*
G54D18*
X15502Y26821D03*
X18651D03*
X37549D03*
X40698D03*
G54D55*
G01X40000Y86504D02*
Y90500D01*
X41000Y91500D01*
X46000D01*
X47500Y90000D01*
Y88000D01*
X49000Y86500D01*
X54827D01*
G01X151500Y126000D02*
X149000Y123500D01*
X130500D01*
X107500Y146500D01*
X74500D01*
X72000Y149000D01*
Y155500D01*
X70000Y157500D01*
X56000D01*
X53516Y159984D01*
Y164016D01*
G01X150500Y110673D02*
X148827D01*
X144000Y115500D01*
X125500D01*
X118500Y122500D01*
X98998D01*
X91498Y115000D01*
X70500D01*
X67500Y112000D01*
Y89500D01*
X64500Y86500D01*
X58173D01*
G01X64000Y153000D02*
X65500Y151500D01*
Y149500D01*
X72500Y142500D01*
X105136D01*
X128136Y119500D01*
X147000D01*
X148000Y118500D01*
G01X150500Y122000D02*
X150000Y121500D01*
X129000D01*
X106000Y144500D01*
X73500D01*
X67104Y150896D01*
Y151604D01*
X68500Y153000D01*
G01X150500Y114000D02*
X148500D01*
X145000Y117500D01*
X127000D01*
X119500Y125000D01*
X97500D01*
X91327Y118827D01*
X85500D01*
G01X133500Y81000D02*
Y83000D01*
X134000Y83500D01*
X136827D01*
G01X133500Y85500D02*
Y87000D01*
X135000Y88500D01*
X136827D01*
G01X133500Y90500D02*
X132500D01*
X130500Y88500D01*
Y80500D01*
X132500Y78500D01*
X136827D01*
G01X145000Y155000D02*
X144500D01*
X129000Y170500D01*
Y178500D01*
X131720Y181220D01*
X145900D01*
G01Y178661D02*
X135488D01*
X132500Y175673D01*
G01D02*
X132827D01*
X134500Y174000D01*
Y173847D01*
X134530Y173817D01*
Y170470D01*
X154000Y151000D01*
Y101000D01*
X163500Y91500D01*
X198500D01*
X199500Y90500D01*
Y88173D01*
G01X154500Y60173D02*
X148835D01*
X148661Y60000D01*
G01X140173Y88500D02*
X148006D01*
G01Y83500D02*
X140173D01*
G01Y78500D02*
X148006D01*
G01X151500Y129000D02*
X148500D01*
X147327Y130173D01*
Y136500D01*
G01X146500Y166000D02*
X151000Y161500D01*
Y156500D01*
X155500Y152000D01*
Y102000D01*
X164500Y93000D01*
X202500D01*
X204000Y91500D01*
Y88173D01*
G01X148250Y160250D02*
X140500Y168000D01*
Y172500D01*
X137327Y175673D01*
X137000D01*
G01X145900Y176102D02*
X137429D01*
X137000Y175673D01*
G01X154500Y56827D02*
X157827D01*
G01X193500Y72500D02*
X193306D01*
X189806Y69000D01*
X181000D01*
X172173Y60173D01*
X154500D01*
G01X164000Y117000D02*
X163500Y116500D01*
Y106500D01*
X169500Y100500D01*
X210500D01*
X211500Y101500D01*
Y105000D01*
X212673Y106173D01*
X214000D01*
G01X160108Y154149D02*
Y104892D01*
X167500Y97500D01*
X216000D01*
X222000Y91500D01*
Y88173D01*
G01X170100Y176102D02*
X162102D01*
X154500Y168500D01*
Y157000D01*
X158500Y153000D01*
Y104000D01*
X166500Y96000D01*
X209500D01*
X213000Y92500D01*
Y88173D01*
G01X170100Y178661D02*
X161162D01*
X153000Y170500D01*
Y156586D01*
X157000Y152586D01*
Y103000D01*
X165500Y94500D01*
X206000D01*
X208500Y92000D01*
Y88173D01*
G01X226500D02*
Y92500D01*
X220000Y99000D01*
X168500D01*
X161500Y106000D01*
Y151500D01*
X168500Y158500D01*
Y168000D01*
G01X165500Y122000D02*
Y120500D01*
X166500Y119500D01*
Y108000D01*
X169500Y105000D01*
X207827D01*
X209000Y106173D01*
G01X176758Y44000D02*
X172061D01*
X170561Y42500D01*
Y31939D01*
X175439Y27061D01*
X196561D01*
X211063Y41563D01*
Y44191D01*
G01X176758Y45968D02*
X171468D01*
X169000Y43500D01*
Y31000D01*
X174000Y26000D01*
X197000D01*
X212638Y41638D01*
Y44191D01*
G01X179500Y60000D02*
X180563Y58937D01*
X183563D01*
X184138Y58362D01*
X203191D01*
G01X179994Y88500D02*
X186327D01*
G01X179994Y83500D02*
X186827D01*
G01X179994Y78500D02*
X186827D01*
G01X179994Y73500D02*
X186327D01*
X186827Y73000D01*
G01X185827Y108500D02*
X178032D01*
X177532Y109000D01*
G01X185827Y113500D02*
X179532D01*
X177532Y115500D01*
G01X185827Y118500D02*
X181032D01*
X177532Y122000D01*
G01X185827Y123500D02*
X182532D01*
X177532Y128500D01*
G01X173000Y168500D02*
X174000Y167500D01*
X186500D01*
X187500Y168500D01*
Y177500D01*
X184500Y180500D01*
X177000D01*
X176280Y181220D01*
X170100D01*
G01Y176102D02*
X179071D01*
X179500Y175673D01*
G01X170100Y178661D02*
X181012D01*
X184000Y175673D01*
G01X189500Y24000D02*
X189950Y24450D01*
X197450D01*
X214213Y41213D01*
Y44191D01*
G01X196673Y36000D02*
X200839D01*
X206339Y41500D01*
Y44191D01*
G01X186000Y31500D02*
X189439Y28061D01*
X196061D01*
X209488Y41488D01*
Y44191D01*
G01X187500Y36500D02*
Y33500D01*
X191500Y29500D01*
X196000D01*
X207913Y41413D01*
Y44191D01*
G01X203191Y50488D02*
X195988D01*
X193500Y48000D01*
Y42000D01*
X195000Y40500D01*
G01X203191Y48913D02*
X196913D01*
X195500Y47500D01*
Y44000D01*
X197500Y42000D01*
G01X203191Y47339D02*
X198000D01*
X197500Y46839D01*
Y45500D01*
X200500Y42500D01*
Y41500D01*
G01X188000Y50500D02*
X191138Y53638D01*
X203191D01*
G01X182000Y56787D02*
X203191D01*
G01X186500Y53500D02*
X188213Y55213D01*
X203191D01*
G01X190500Y48000D02*
X194563Y52063D01*
X203191D01*
G01X196000Y62000D02*
X196488Y61512D01*
X203191D01*
G01X190173Y73000D02*
Y74173D01*
X191500Y75500D01*
X193000D01*
G01X182000Y62000D02*
Y60500D01*
X182563Y59937D01*
X203191D01*
G01X190173Y78500D02*
X193053D01*
G01X190173Y83500D02*
X193000D01*
G01X210520Y124984D02*
X195658D01*
X189173Y118500D01*
G01X210520Y123016D02*
X198689D01*
X189173Y113500D01*
G01Y108500D02*
X201720Y121047D01*
X210520D01*
G01Y126953D02*
X192626D01*
X189173Y123500D01*
G01X191173Y139000D02*
X192000D01*
X194500Y136500D01*
G01X204500Y145173D02*
X205000Y145673D01*
Y162500D01*
X202000Y165500D01*
Y171839D01*
X196500Y177339D01*
G01X202500Y23673D02*
X206673D01*
X209191Y26191D01*
X209768D01*
G01X217362Y44191D02*
Y38362D01*
X216000Y37000D01*
Y31000D01*
X214000Y29000D01*
Y23041D01*
X209768Y18809D01*
G01X202500Y20327D02*
X208250D01*
X209768Y18809D01*
G01X215787Y44191D02*
Y38961D01*
X213000Y36173D01*
G01X199500Y84827D02*
Y65500D01*
X200339Y64661D01*
X203191D01*
G01X204000Y75000D02*
Y73500D01*
X206339Y71161D01*
Y67809D01*
G01X211063D02*
Y82890D01*
X213000Y84827D01*
G01X209488Y67809D02*
Y77012D01*
X208500Y78000D01*
Y84827D01*
G01X213500Y78000D02*
Y76000D01*
X212638Y75138D01*
Y67809D01*
G01X204500Y80000D02*
X207913Y76587D01*
Y67809D01*
G01X204000Y84827D02*
Y82500D01*
X204500Y82000D01*
Y80000D01*
G01X210520Y119079D02*
X203906D01*
X202500Y117673D01*
G01X213079Y116520D02*
Y110579D01*
X211500Y109000D01*
G01X209000Y106173D02*
Y108000D01*
X210000Y109000D01*
X211500D01*
G01X209500Y145173D02*
X209674D01*
X212000Y142847D01*
Y138689D01*
X213079Y137610D01*
Y131480D01*
G01X210520Y128921D02*
X210441Y129000D01*
X208000D01*
X207000Y130000D01*
Y142847D01*
X204674Y145173D01*
X204500D01*
G01X206839Y169000D02*
Y147835D01*
X209500Y145173D01*
G01X214500D02*
X217000Y147673D01*
Y193500D01*
X210000Y200500D01*
X206339D01*
G01X218232Y18809D02*
X223482D01*
X225500Y20827D01*
G01X218232Y26191D02*
X223482D01*
X225500Y24173D01*
G01X220512Y44191D02*
Y39161D01*
X223500Y36173D01*
G01Y28500D02*
X221030Y30970D01*
Y33877D01*
X223326Y36173D01*
X223500D01*
G01X228000D02*
X232500D01*
G01X228000D02*
Y39000D01*
X226000Y41000D01*
X224500D01*
X223661Y41839D01*
Y44191D01*
G01X228000Y32827D02*
X227826D01*
X225970Y34683D01*
Y38530D01*
X225000Y39500D01*
X223500D01*
X222087Y40913D01*
Y44191D01*
G01X228000Y32827D02*
X232500D01*
G01X219000Y36173D02*
Y44128D01*
X218937Y44191D01*
G01X218232Y26191D02*
Y32059D01*
X219000Y32827D01*
G01X236500Y54500D02*
X235000D01*
X234138Y53638D01*
X226809D01*
G01Y47339D02*
X229661D01*
X232500Y44500D01*
Y40673D01*
X237000Y36173D01*
G01X230563Y52063D02*
X226809D01*
G01Y50488D02*
X229988D01*
X230709Y51209D01*
Y51917D01*
X230563Y52063D01*
G01X236500Y58000D02*
X233000D01*
X232950Y57950D01*
X232692D01*
X231530Y56787D01*
X226809D01*
G01X233500Y56000D02*
X232156D01*
X231944Y55787D01*
X231787D01*
X231213Y55213D01*
X226809D01*
G01X220512Y67809D02*
Y72012D01*
X224000Y75500D01*
Y82327D01*
X226500Y84827D01*
G01X226809Y58362D02*
X230862D01*
X233000Y60500D01*
X234500D01*
G01X226809Y61512D02*
X230512D01*
X234000Y65000D01*
X236500D01*
G01X286500Y182000D02*
X285500Y181000D01*
X246000D01*
X243000Y178000D01*
Y129500D01*
X234500Y121000D01*
Y113000D01*
X231500Y110000D01*
Y66500D01*
X229661Y64661D01*
X226809D01*
G01X214213Y67809D02*
Y74713D01*
X215500Y76000D01*
Y80500D01*
X217500Y82500D01*
Y84827D01*
G01X226809Y59937D02*
X230937D01*
X233500Y62500D01*
X242327D01*
G01X226500Y79000D02*
Y76000D01*
X222087Y71587D01*
Y67809D01*
G01X222000Y84827D02*
Y83500D01*
X217500Y79000D01*
Y76000D01*
X215787Y74287D01*
Y67809D01*
G01X223661D02*
Y70661D01*
X229500Y76500D01*
Y110500D01*
X233000Y114000D01*
Y122500D01*
X241000Y130500D01*
Y178414D01*
X245586Y183000D01*
X283173D01*
X286000Y185827D01*
G01X235500Y68500D02*
X230087Y63087D01*
X226809D01*
G01X221500Y79500D02*
Y75000D01*
X218937Y72437D01*
Y67809D01*
G01X219500Y76500D02*
X219450Y76450D01*
Y74950D01*
X217362Y72862D01*
Y67809D01*
G01X214174Y102827D02*
X217016Y105668D01*
Y116520D01*
G01X228500Y117500D02*
Y118000D01*
X227421Y119079D01*
X225480D01*
G01X215047Y116520D02*
Y109053D01*
G01X214000Y106173D02*
X213997Y106176D01*
Y108003D01*
X215047Y109053D01*
G01X222921Y116520D02*
Y110000D01*
G01D02*
Y108252D01*
X225000Y106173D01*
G01X228734Y120715D02*
X228402Y121047D01*
X225480D01*
G01X218984Y116520D02*
Y110000D01*
G01D02*
Y107689D01*
X220500Y106173D01*
G01X229500Y134000D02*
Y130000D01*
X228421Y128921D01*
X225480D01*
G01X217016Y131480D02*
Y133516D01*
X218550Y135050D01*
Y136050D01*
X219497Y136997D01*
X220308D01*
X221450Y138139D01*
Y138208D01*
X222000Y138758D01*
Y142847D01*
X219674Y145173D01*
X219500D01*
G01X214500D02*
X214674D01*
X217000Y142847D01*
Y138689D01*
X215047Y136736D01*
Y131480D01*
G01X222921D02*
Y136421D01*
X223500Y137000D01*
G01X266000Y192173D02*
X264673D01*
X257500Y185000D01*
X244500D01*
X239000Y179500D01*
Y131516D01*
X230500Y123016D01*
X225480D01*
G01X229157Y127115D02*
X228615D01*
X228453Y126953D01*
X225480D01*
G01X231500Y129500D02*
Y126000D01*
X230484Y124984D01*
X225480D01*
G01X219500Y145173D02*
X219000Y145673D01*
Y190000D01*
X223661Y194661D01*
X233500D01*
G01X232500Y36173D02*
X232674D01*
X234530Y34317D01*
Y31336D01*
X232500Y29306D01*
Y24173D01*
G01X241500Y54827D02*
X246000D01*
G01X241500D02*
X239827D01*
X237063Y52063D01*
X230563D01*
G01X242327Y67000D02*
Y62500D01*
G01X276839Y82000D02*
X269000D01*
X268500Y81500D01*
X244500D01*
X242327Y79327D01*
Y67000D01*
G01X309827Y104000D02*
X305500D01*
X302000Y100500D01*
Y92000D01*
X299000Y89000D01*
X272500D01*
X268000Y84500D01*
X237000D01*
X233500Y88000D01*
Y91500D01*
G01X242173Y90500D02*
Y89173D01*
X240000Y87000D01*
X237500D01*
X236000Y88500D01*
Y94000D01*
G01X251500Y57968D02*
X248358Y54827D01*
X246000D01*
G01X271327Y97000D02*
Y97327D01*
X275000Y101000D01*
G01X277028Y166500D02*
X281673D01*
X283500Y164673D01*
G01X275405Y161925D02*
Y155579D01*
X275327Y155500D01*
G01X280000Y185827D02*
X276673D01*
G01X266000Y192173D02*
Y195000D01*
G01X286000Y158500D02*
Y157000D01*
X284500Y155500D01*
X278673D01*
G01X282500Y157500D02*
Y158000D01*
X283500Y159000D01*
Y161327D01*
G01X313173Y104000D02*
X317827D01*
G01D02*
Y102673D01*
X320532Y99968D01*
Y98000D01*
G01X321173Y104000D02*
X324000D01*
X326000Y106000D01*
X340673D01*
X341000Y105673D01*
G54D28*
X29465Y119760D03*
X31465Y134760D03*
X37535Y123500D03*
X29465Y127240D03*
X39535Y138500D03*
X31465Y142240D03*
X70465Y129000D03*
X78535Y132740D03*
Y125260D03*
X134035Y146000D03*
X125965Y142260D03*
Y149740D03*
X140465Y146000D03*
X148535Y149740D03*
Y142260D03*
X178535Y148500D03*
X170465Y144760D03*
Y152240D03*
X184965Y148500D03*
X193035Y152240D03*
Y144760D03*
X249965Y198260D03*
X258035Y202000D03*
X249965Y205740D03*
X273035Y198260D03*
X264965Y202000D03*
X273035Y205740D03*
G54D37*
X148006Y73500D03*
Y78500D03*
Y83500D03*
Y88500D03*
X179994Y73500D03*
Y88500D03*
Y83500D03*
Y78500D03*
G54D46*
X213079Y116520D03*
Y131480D03*
X222921Y116520D03*
X220953D03*
X218984D03*
X217016D03*
X215047D03*
Y131480D03*
X217016D03*
X218984D03*
X220953D03*
X222921D03*
G54D19*
X23179Y26821D03*
X21210D03*
X34990D03*
X33021D03*
X31053D03*
X29084D03*
X27116D03*
X25147D03*
G54D56*
G01X4845Y109000D02*
X8500D01*
G01X4845Y119000D02*
X8500D01*
G01X11072Y2733D02*
Y6979D01*
G01Y22727D02*
X13743D01*
G01X8500Y105345D02*
Y109000D01*
G01D02*
Y112655D01*
G01Y109000D02*
X12155D01*
G01X8500Y115345D02*
Y119000D01*
G01D02*
Y122655D01*
G01Y119000D02*
X12155D01*
G01X32500Y71257D02*
Y75500D01*
G01D02*
Y79744D01*
G01X26288Y75500D02*
X32500D01*
G01D02*
X38712D01*
G01X42457Y22727D02*
X45128D01*
G01X186327Y88500D02*
Y87673D01*
X188000Y86000D01*
X194500D01*
X196500Y84000D01*
Y72000D01*
X193173Y68673D01*
Y65500D01*
G01X203191Y63087D02*
X198913D01*
X196500Y65500D01*
X193173D01*
G01X212477Y124000D02*
X214161D01*
G01X218000Y120161D02*
Y121846D01*
G01X216316Y120161D02*
X218000D01*
G01D02*
X219684D01*
G01X218000Y122316D02*
Y124000D01*
G01D02*
Y125684D01*
G01X216316Y124000D02*
X218000D01*
G01D02*
X219684D01*
G01X214161Y122316D02*
Y124000D01*
G01D02*
Y125684D01*
G01Y124000D02*
X215846D01*
G01X218000Y126154D02*
Y127839D01*
G01D02*
Y129523D01*
G01X216316Y127839D02*
X218000D01*
G01D02*
X219684D01*
G01X221839Y122316D02*
Y124000D01*
G01D02*
Y125684D01*
G01X220154Y124000D02*
X221839D01*
G01D02*
X223523D01*
G01X261000Y216345D02*
Y220000D01*
G01D02*
Y223655D01*
G01Y220000D02*
X264655D01*
G01X251000Y216345D02*
Y220000D01*
G01D02*
Y223655D01*
G01X247345Y220000D02*
X251000D01*
G01D02*
X254655D01*
G01X328500Y86126D02*
Y88500D01*
G01D02*
Y90874D01*
G01X326126Y88500D02*
X328500D01*
G01D02*
X330874D01*
G01X333500Y121126D02*
Y123500D01*
G01D02*
Y125874D01*
G01X331126Y123500D02*
X333500D01*
G01D02*
X335874D01*
G54D38*
X145900Y173543D03*
Y176102D03*
Y178661D03*
Y181220D03*
Y183780D03*
Y186339D03*
Y188898D03*
Y191457D03*
X170100Y183780D03*
Y181220D03*
Y178661D03*
Y176102D03*
Y173543D03*
Y191457D03*
Y188898D03*
Y186339D03*
G54D29*
X57203Y17059D03*
Y11941D03*
X63797Y14500D03*
G54D47*
X210520Y119079D03*
Y121047D03*
Y123016D03*
Y124984D03*
Y126953D03*
Y128921D03*
X225480Y121047D03*
Y119079D03*
Y128921D03*
Y126953D03*
Y124984D03*
Y123016D03*
G54D57*
G01X226809Y48913D02*
X237260D01*
X237500Y48673D01*
G01D02*
X242295D01*
X242469Y48500D01*
G01X254500Y48673D02*
X254787Y48961D01*
X272091D01*
G01X248532Y48500D02*
X248705Y48673D01*
X254500D01*
G54D48*
X214161Y124000D03*
X218000Y120161D03*
Y127839D03*
Y124000D03*
X221839D03*
G54D39*
X147075Y200500D03*
X153925D03*
G54D58*
G01X57203Y17059D02*
X54404D01*
X53906Y16561D01*
Y15497D01*
X53408Y14999D01*
X32001D01*
X30568Y16432D01*
Y22619D01*
X31053Y23105D01*
Y26821D01*
G01X57203Y11941D02*
X54404D01*
X53906Y12439D01*
Y13503D01*
X53408Y14001D01*
X31588D01*
X29570Y16019D01*
Y22619D01*
X29084Y23105D01*
Y26821D01*
G01X35339Y44668D02*
X34083Y43411D01*
Y40083D01*
X33000Y39000D01*
X28000D01*
X26630Y37630D01*
Y31023D01*
X27116Y30538D01*
Y26821D01*
G01X35256Y35939D02*
X34000Y34682D01*
Y33273D01*
X32917Y32190D01*
X31065D01*
X30568Y31692D01*
Y31023D01*
X31053Y30538D01*
Y26821D01*
G01X31828Y44668D02*
X33085Y43411D01*
Y40496D01*
X32587Y39998D01*
X27587D01*
X25632Y38044D01*
Y31023D01*
X25147Y30538D01*
Y26821D01*
G01X31745Y35939D02*
X33002Y34682D01*
Y33686D01*
X32504Y33188D01*
X30652D01*
X29570Y32106D01*
Y31023D01*
X29084Y30538D01*
Y26821D01*
G01X159042Y47937D02*
X158602Y47497D01*
X148997D01*
X146000Y44500D01*
Y17411D01*
X143587Y14998D01*
X69502D01*
X67441Y17059D01*
X57203D01*
G01X159042Y45968D02*
X158511Y46499D01*
X149410D01*
X146998Y44087D01*
Y16998D01*
X144000Y14000D01*
X69500D01*
X67441Y11941D01*
X57203D01*
G54D49*
X246525Y96718D03*
Y100458D03*
Y104198D03*
X256859D03*
Y96718D03*
X277833Y129260D03*
Y133000D03*
Y136740D03*
X289676Y103718D03*
X279341D03*
X289676Y111198D03*
X279341Y107458D03*
Y111198D03*
X288167Y136740D03*
Y129260D03*
G54D59*
G01X11072Y6979D02*
X6521D01*
G01X11072Y22727D02*
X7227D01*
G01X8500Y53268D02*
X2732D01*
G01X3000Y47500D02*
X8500Y53000D01*
G01Y54000D02*
X3500Y59000D01*
G01X10500Y78468D02*
X6032D01*
G01X12500Y139000D02*
X6339D01*
G01X11072Y6979D02*
Y12928D01*
G01Y6979D02*
X15479D01*
G01X11072Y22727D02*
Y25928D01*
X8500Y28500D01*
G01X11072Y22727D02*
Y19572D01*
X8500Y17000D01*
G01X15502Y26821D02*
X15179D01*
X12000Y30000D01*
G01X8500Y59500D02*
Y55000D01*
G01X18968Y48500D02*
X15000D01*
G01X18968D02*
Y49032D01*
G01Y52370D02*
Y49032D01*
G01X8500Y55000D02*
Y54000D01*
G01Y47000D02*
Y53000D01*
G01X18968Y49032D02*
X15500Y52500D01*
G01X8500Y55000D02*
X12500Y59000D01*
G01X8500Y54000D02*
Y53268D01*
G01Y53000D02*
Y53268D01*
G01X17000Y70032D02*
X13032D01*
G01X17000D02*
X20968D01*
G01X10500Y78468D02*
Y75000D01*
G01X17500Y78468D02*
Y75000D01*
G01X10500Y98032D02*
Y101000D01*
X11000Y101500D01*
G01X17500Y98032D02*
Y102000D01*
G01X12500Y139000D02*
X17500Y134000D01*
Y124173D01*
G01X29465Y127240D02*
X26067D01*
X23000Y124173D01*
G01X59500Y133035D02*
Y142000D01*
X55000Y146500D01*
X20000D01*
X12500Y139000D01*
G01X20445Y171300D02*
Y167524D01*
X16922Y164000D01*
G01X23201Y171300D02*
Y164701D01*
X22000Y163500D01*
G01X17689Y171300D02*
Y180811D01*
G01X56968Y41500D02*
X47000D01*
X30000Y58500D01*
Y64496D01*
G01X56968Y48500D02*
X45000D01*
X35000Y58500D01*
Y64496D01*
G01X31465Y134760D02*
Y137465D01*
G01Y134760D02*
Y133965D01*
X29500Y132000D01*
G01X29465Y127240D02*
X30240D01*
X39535Y136535D01*
Y138500D01*
G01X47000Y130173D02*
Y140500D01*
X45260Y142240D01*
X31465D01*
G01D02*
X30740D01*
X27500Y139000D01*
X23661D01*
G01X25957Y171300D02*
Y165043D01*
X27000Y164000D01*
G01X28713Y171300D02*
Y165398D01*
X30500Y163611D01*
G01X36981Y171300D02*
Y176981D01*
X40000Y180000D01*
G01X36000Y181000D02*
X34225Y179225D01*
Y171300D01*
G01X31469D02*
Y179469D01*
G01X45128Y6979D02*
Y11872D01*
G01Y6979D02*
Y2128D01*
G01Y6979D02*
X40521D01*
G01X50500Y6500D02*
X50021Y6979D01*
G01X40521D02*
X40000Y7500D01*
G01X50021Y6979D02*
X45128D01*
G01Y22727D02*
X49273D01*
G01X45128D02*
Y28128D01*
G01Y22727D02*
Y17872D01*
G01X40698Y26821D02*
Y27698D01*
G01X45128Y28128D02*
X42005D01*
X40698Y26821D01*
G01Y27698D02*
Y31198D01*
X41500Y32000D01*
G01X40698Y27698D02*
X44500Y31500D01*
G01X63032Y55500D02*
Y57968D01*
X61000Y60000D01*
X52500D01*
X47000Y54500D01*
X44500D01*
X40000Y59000D01*
Y64496D01*
G01X44500Y101968D02*
X40032D01*
G01X47000Y117327D02*
X56295D01*
X56468Y117500D01*
G01X70465Y129000D02*
X55500D01*
X54327Y130173D01*
X47000D01*
G01X53516Y171300D02*
Y164016D01*
G01X39737Y171300D02*
Y164763D01*
G01X45248Y171300D02*
Y166248D01*
X43000Y164000D01*
G01X50760Y171300D02*
Y180740D01*
X49000Y182500D01*
G01X42492Y171300D02*
Y178492D01*
X45000Y181000D01*
G01X48004Y171300D02*
Y176496D01*
X46500Y178000D01*
G01X63797Y14500D02*
X60500D01*
G01X63797D02*
X67000D01*
G01X56968Y41500D02*
Y34500D01*
G01X63032Y41500D02*
Y34500D01*
G01Y48500D02*
Y41500D01*
G01X56968Y48500D02*
Y55500D01*
G01X63032D02*
Y48500D01*
G01X59032Y94000D02*
X62000D01*
X62500Y94500D01*
G01X59032Y94000D02*
Y90532D01*
G01X62532Y117500D02*
X64000D01*
X65500Y119000D01*
G01X62532Y117500D02*
Y115032D01*
X61000Y113500D01*
G01X55760Y124965D02*
Y118209D01*
X56468Y117500D01*
G01X63240Y124965D02*
X60035D01*
G01X63240D02*
X66465D01*
G01X64540Y171300D02*
Y165040D01*
X63500Y164000D01*
G01X67296Y171300D02*
Y164704D01*
X68500Y163500D01*
G01X61784Y171300D02*
Y179784D01*
G01X59028Y171300D02*
Y181028D01*
X63000Y185000D01*
G01X71000Y182000D02*
X72808Y180192D01*
Y171300D01*
G01X56272D02*
Y179772D01*
G01X64540Y171300D02*
X64500Y171340D01*
Y179000D01*
X65500Y180000D01*
X69000D01*
X70052Y178948D01*
Y171300D01*
G01X71000Y186500D02*
X75563Y181937D01*
Y171300D01*
G01X76000Y74968D02*
Y72000D01*
G01X82500Y74968D02*
Y72000D01*
G01X78535Y125260D02*
Y123036D01*
X75827Y120327D01*
Y118500D01*
G01X79173D02*
X85173D01*
X85500Y118827D01*
G01X78535Y132740D02*
Y135465D01*
G01X85500Y122173D02*
Y125000D01*
G01Y122173D02*
X88173D01*
G01X75500Y162500D02*
X78319Y165319D01*
Y171300D01*
G01X81075D02*
Y163575D01*
X80500Y163000D01*
G01X83831Y171300D02*
Y178169D01*
X81500Y180500D01*
G01X86587Y171300D02*
Y179587D01*
G01X168000Y67500D02*
X127500D01*
X123500Y63500D01*
Y56500D01*
X121500Y54500D01*
X103500D01*
X101579Y56421D01*
Y68756D01*
G01X88000Y76827D02*
Y74000D01*
G01X101579Y88244D02*
Y92421D01*
G01X98500Y92500D02*
X99610Y91390D01*
Y88244D01*
G01X91500Y86000D02*
X92110Y85390D01*
G01X91000Y84500D02*
X92079Y83421D01*
G01X92110Y85390D02*
X96756D01*
G01X92079Y83421D02*
X96756D01*
G01Y81453D02*
X89280D01*
G01X96756Y79484D02*
X88689D01*
G01X89280Y81453D02*
X88000Y80173D01*
G01X88689Y79484D02*
X88000Y80173D01*
G01X95000Y100327D02*
Y98000D01*
G01Y100327D02*
X92827D01*
G01X101000Y98468D02*
Y95500D01*
G01X92099Y171300D02*
Y165901D01*
X94500Y163500D01*
G01X89343Y171300D02*
Y164157D01*
G01X93000Y181000D02*
X94855Y179145D01*
Y171300D01*
G01X99000Y181500D02*
X97611Y180111D01*
Y171300D01*
G01X105327Y61000D02*
Y58827D01*
X104500Y58000D01*
G01X105327Y61000D02*
X105516Y61189D01*
Y68756D01*
G01X107484D02*
Y62717D01*
X108673Y61528D01*
Y61000D01*
G01D02*
Y58173D01*
G01X109453Y88244D02*
Y93126D01*
X114327Y98000D01*
G01X116244Y75547D02*
X123280D01*
X123500Y75327D01*
G01X116244Y81453D02*
X120720D01*
X122689Y79484D01*
G01X116244D02*
X122689D01*
G01X107500Y98468D02*
Y95000D01*
G01X117673Y98000D02*
X120500D01*
G01X107500Y116532D02*
X103532D01*
G01X107500D02*
X111468D01*
G01X122689Y79484D02*
X123500Y78673D01*
G01D02*
X126327D01*
G01X128173Y136500D02*
Y138327D01*
X125965Y140535D01*
Y142260D01*
G01X132327Y136500D02*
X132673Y136154D01*
Y133173D01*
X131966Y132466D01*
X125534D01*
X124827Y133173D01*
Y136500D01*
G01X125965Y149740D02*
Y147535D01*
X130000Y143500D01*
Y138827D01*
X132327Y136500D01*
G01X134035Y146000D02*
Y149465D01*
G01Y146000D02*
Y143035D01*
G01Y146000D02*
X133500D01*
X130500Y149000D01*
G01X134035Y146000D02*
X134500D01*
X137500Y149000D01*
G01X132500Y172327D02*
Y170000D01*
G01X128327Y212000D02*
Y207673D01*
X133000Y203000D01*
Y193000D01*
X139661Y186339D01*
X145900D01*
G01X128327Y212000D02*
Y218327D01*
X130000Y220000D01*
G01X131673Y212000D02*
X136968D01*
G01X148006Y73500D02*
Y71506D01*
X147000Y70500D01*
G01X148006Y73500D02*
X141500D01*
G01X139827Y136500D02*
Y132673D01*
G01X143173Y136500D02*
X147327D01*
G01X135673D02*
Y139173D01*
X140465Y143965D01*
Y146000D01*
G01X148535Y149740D02*
Y151965D01*
G01Y149740D02*
Y147035D01*
G01Y149740D02*
X144760D01*
G01X150673Y136500D02*
Y140122D01*
X148535Y142260D01*
G01X137000Y172327D02*
Y171000D01*
X138000Y170000D01*
G01X145900Y183780D02*
X153500D01*
G01D02*
Y175500D01*
X151543Y173543D01*
X145900D01*
G01X147075Y200500D02*
X144000D01*
X143500Y201000D01*
G01X143032Y212000D02*
Y210532D01*
X135500Y203000D01*
Y194119D01*
X140721Y188898D01*
X145900D01*
G01X147075Y200500D02*
Y204575D01*
X147500Y205000D01*
G01X143032Y212000D02*
Y216968D01*
X140000Y220000D01*
G01X159042Y44000D02*
X152500D01*
G01X169260Y144760D02*
X166260D01*
X163500Y142000D01*
G01X169260Y144760D02*
X166000Y141500D01*
G01X153500Y183780D02*
X170100D01*
G01X159000Y203673D02*
X158827D01*
X156500Y206000D01*
G01X164500Y206032D02*
Y211000D01*
G01Y206032D02*
X168468D01*
G01X164500D02*
X161968D01*
X159500Y208500D01*
G01X173327Y54000D02*
Y56827D01*
G01Y54000D02*
X170000D01*
G01X173327D02*
Y51827D01*
G01X176673Y54000D02*
Y51673D01*
G01X182500Y49000D02*
Y53000D01*
X181500Y54000D01*
X176673D01*
G01X176758Y42032D02*
X181032D01*
X182500Y43500D01*
Y49000D01*
G01D02*
X181437Y47937D01*
X176758D01*
G01X171468Y115500D02*
Y122000D01*
G01Y109000D02*
Y115500D01*
G01Y122000D02*
Y128500D01*
G01D02*
Y131968D01*
G01X178827Y139000D02*
Y135827D01*
X177500Y134500D01*
X171500D01*
X169827Y136173D01*
Y139000D01*
G01X173173D02*
Y140327D01*
X170465Y143035D01*
G01Y144760D02*
X169260D01*
G01X170465D02*
Y143035D01*
G01X169000Y141980D02*
Y141500D01*
X170465Y142965D01*
Y143035D01*
G01Y144760D02*
X172240D01*
X175000Y142000D01*
G01X178535Y148500D02*
Y150965D01*
G01Y148500D02*
X177889D01*
X175500Y150889D01*
G01X178535Y148500D02*
X179182D01*
X182000Y151318D01*
G01X170465Y152240D02*
Y150535D01*
X178827Y142173D01*
Y139000D01*
G01X182173D02*
Y142173D01*
X184965Y144965D01*
Y148500D01*
G01X179500Y172327D02*
Y170000D01*
G01X175500Y173000D02*
X174957Y173543D01*
X170100D01*
G01Y183780D02*
X179547D01*
X179827Y183500D01*
G01Y184028D02*
Y186827D01*
X181500Y188500D01*
G01X179827Y184028D02*
X181579Y185780D01*
X182280D01*
X184500Y188000D01*
G01X179827Y183500D02*
Y184028D01*
G01X176500Y198000D02*
Y195000D01*
X172957Y191457D01*
X170100D01*
G01Y186339D02*
X175839D01*
X183500Y194000D01*
Y203299D01*
X190173Y209972D01*
Y210500D01*
G01X174335Y210587D02*
Y209665D01*
X180941Y203059D01*
Y195060D01*
X174779Y188898D01*
X170100D01*
G01X174335Y210587D02*
Y216335D01*
X178000Y220000D01*
G01X180398Y210587D02*
X186739D01*
X186827Y210500D01*
G01X202500Y23673D02*
X199173D01*
X198000Y22500D01*
G01X193327Y36000D02*
Y33020D01*
G01X196673Y36000D02*
Y33500D01*
G01X189827Y65500D02*
Y62327D01*
G01X189673Y88500D02*
X192000D01*
G01X193035Y152240D02*
X196760D01*
G01X193035D02*
Y154965D01*
G01Y152240D02*
X189260D01*
G01X187827Y139000D02*
Y142327D01*
X190260Y144760D01*
X193035D01*
G01X184000Y172327D02*
Y170000D01*
G01X183173Y183500D02*
X186500D01*
G01X196500Y194661D02*
Y200000D01*
G01X190173Y210500D02*
Y217827D01*
X188000Y220000D01*
G01X213000Y32827D02*
Y32000D01*
X211500Y30500D01*
G01X209768Y26191D02*
Y28768D01*
X211500Y30500D01*
G01X208000Y31000D02*
X209000Y32000D01*
Y33000D01*
X212173Y36173D01*
X213000D01*
G01X213500Y81947D02*
Y82000D01*
X214673D01*
X217500Y84827D01*
G01X209000Y102827D02*
X206173D01*
G01X202500Y114327D02*
X201827D01*
X199500Y112000D01*
G01X202500Y117673D02*
X201673D01*
X199500Y115500D01*
G01X209500Y141827D02*
Y139500D01*
G01X204500Y141827D02*
Y139500D01*
G01X218232Y18809D02*
Y14732D01*
G01X223500Y32827D02*
Y32500D01*
X226000Y30000D01*
G01X217500Y88173D02*
Y89000D01*
X216000Y90500D01*
G01X220500Y102827D02*
X216980D01*
G01X225000D02*
X220500D01*
G01X214174D02*
X216980D01*
G01X214000D02*
X214174D01*
G01X220953Y116520D02*
Y113047D01*
G01X218984Y131480D02*
Y132984D01*
X220500Y134500D01*
G01X214500Y141827D02*
Y138947D01*
G01X219500Y141827D02*
Y138947D01*
G01X224161Y169000D02*
Y174339D01*
G01X233500Y177339D02*
X227661D01*
G01X223661Y200500D02*
Y206161D01*
G01X232500Y20827D02*
Y18000D01*
G01X237000Y32827D02*
Y30000D01*
G01X236000Y41500D02*
Y43000D01*
X237500Y44500D01*
Y45327D01*
G01X237000Y36173D02*
X239827D01*
G01X237500Y45327D02*
X235673D01*
X234500Y46500D01*
G01X245673Y62500D02*
Y58500D01*
X246000Y58173D01*
G01X241500D02*
X246000D01*
G01X239500Y98968D02*
X236532D01*
X236000Y99500D01*
G01X239500Y98968D02*
Y100500D01*
G01Y98968D02*
Y98500D01*
X237500Y96500D01*
G01X246525Y100458D02*
X243542D01*
X243000Y101000D01*
G01X242173Y90500D02*
X248327D01*
G01X246525Y96718D02*
X243718D01*
X238827Y91827D01*
Y90500D01*
G01X254500Y45327D02*
Y42500D01*
G01Y45327D02*
X251521D01*
X251520Y45326D01*
G01X256000Y60000D02*
X255000Y61000D01*
X248827D01*
X246000Y58173D01*
G01X264740Y57760D02*
X261500Y61000D01*
X257500D01*
X256500Y60000D01*
X256000D01*
G01X251500Y69968D02*
X255468D01*
X256500Y71000D01*
G01X248532Y67000D02*
X251500Y64032D01*
G01X248532Y67000D02*
X251500Y69968D01*
G01X245673Y67000D02*
X248532D01*
G01X251500Y64032D02*
X254032D01*
X256500Y66500D01*
Y67000D01*
G01X251500Y76032D02*
X249532D01*
X247500Y74000D01*
G01X251673Y90500D02*
X252500D01*
X254500Y92500D01*
G01X261173Y90500D02*
X264500D01*
G01X256859Y96718D02*
X257827Y95751D01*
Y90500D01*
G01X263595Y161925D02*
X261075D01*
G01X260673Y192000D02*
Y195173D01*
X264965Y199465D01*
Y202000D01*
G01X249965Y205740D02*
Y204035D01*
X257327Y196673D01*
Y192000D01*
G01D02*
Y189500D01*
X256327Y188500D01*
X249327D01*
X248327Y189500D01*
Y192000D01*
G01X272091Y57760D02*
X264740D01*
G01X268000Y98500D02*
X266968Y97468D01*
X264000D01*
G01X279341Y107458D02*
X274490D01*
X272000Y104968D01*
G01X274673Y97000D02*
X281468D01*
G01X271000Y120827D02*
X276795D01*
X277968Y122000D01*
G01X270500Y130968D02*
Y128000D01*
X270000Y127500D01*
G01X277833Y133000D02*
X274500D01*
G01X270500Y130968D02*
X269968D01*
G01D02*
X267532D01*
X267000Y131500D01*
G01X269968Y130968D02*
X267000Y128000D01*
G01X264000Y124000D02*
X264173Y124173D01*
G01D02*
X271000D01*
G01X266327Y155500D02*
X263500D01*
G01X273437Y161925D02*
Y157484D01*
X273147Y157194D01*
Y152845D01*
G01X271468Y161925D02*
Y157295D01*
X269673Y155500D01*
G01X264827Y178500D02*
X262500D01*
G01X264827D02*
Y176827D01*
G01X273437Y171075D02*
Y172563D01*
X271000Y175000D01*
G01X264423Y174102D02*
Y173955D01*
X265563Y172815D01*
Y171075D01*
G01X271000Y175000D02*
X269500Y173500D01*
Y171075D01*
G01X267532D02*
Y177858D01*
X268173Y178500D01*
G01X275405D02*
Y171075D01*
G01X266000Y188827D02*
Y186000D01*
G01Y188827D02*
X268173D01*
G01X266000Y192173D02*
X270654D01*
X270827Y192000D01*
G01X274173D02*
Y194827D01*
X273035Y195965D01*
Y198260D01*
G01Y205740D02*
Y208965D01*
G01Y205740D02*
X268240D01*
G01X279941Y197203D02*
Y211059D01*
X271000Y220000D01*
G01X287532Y97000D02*
Y93532D01*
G01X289676Y103718D02*
X291483D01*
X297173Y98028D01*
Y97500D01*
G01X281468Y97000D02*
Y101591D01*
X279341Y103718D01*
G01Y107458D02*
X280958D01*
X284500Y111000D01*
G01X284032Y122000D02*
Y124968D01*
X283000Y126000D01*
G01X288167Y129260D02*
Y124660D01*
X290827Y122000D01*
G01X277833Y129260D02*
Y122136D01*
X277968Y122000D01*
G01X280000Y189173D02*
X282000Y191173D01*
Y195144D01*
X279941Y197203D01*
G01X286000Y189173D02*
X284000Y191173D01*
Y196144D01*
X285059Y197203D01*
G01D02*
Y215941D01*
X281000Y220000D01*
G01X282500Y203797D02*
Y208500D01*
G01X293827Y97500D02*
Y94173D01*
G01X296500Y104468D02*
X300032D01*
X300500Y104000D01*
G01X294173Y122000D02*
X298000D01*
G01X295000Y129468D02*
X297968D01*
X299500Y131000D01*
G01X314468Y98000D02*
Y97968D01*
X311000Y94500D01*
G01X314468Y91000D02*
X312000D01*
X311000Y90000D01*
G01X320532Y98000D02*
X328000D01*
X328500Y98500D01*
G01X320532Y91000D02*
X326000D01*
X328500Y93500D01*
G01X314468Y110000D02*
X312000D01*
X310000Y108000D01*
G01X320532Y110000D02*
X327000D01*
X328500Y108500D01*
G01X333500Y93500D02*
X336500D01*
X339673Y96673D01*
X341000D01*
G01X333500Y98500D02*
X335500D01*
X339327Y102327D01*
X341000D01*
G01Y119532D02*
X337968D01*
X337000Y120500D01*
M02*
