G04 ================== begin FILE IDENTIFICATION RECORD ==================*
G04 Layout Name:  H:/07_Auto_Car/01_HW/Main/Layout/Auto_Car_17_4.brd*
G04 Film Name:    05-GND*
G04 File Format:  Gerber RS274X*
G04 File Origin:  Cadence Allegro 17.4-S027*
G04 Origin Date:  Sun Mar 20 00:14:51 2022*
G04 *
G04 Layer:  BOARD GEOMETRY/DESIGN_OUTLINE*
G04 Layer:  BOARD GEOMETRY/CUTOUT*
G04 Layer:  ETCH/GND*
G04 Layer:  PIN/GND*
G04 Layer:  VIA CLASS/GND*
G04 *
G04 Offset:    (0.000 0.000)*
G04 Mirror:    No*
G04 Mode:      Positive*
G04 Rotation:  0*
G04 FullContactRelief:  Yes*
G04 UndefLineWidth:     0.000*
G04 ================== end FILE IDENTIFICATION RECORD ====================*
%FSLAX25Y25*MOIN*%
%IR0*IPPOS*OFA0.00000B0.00000*MIA0B0*SFA1.00000B1.00000*%
%ADD14R,.110236X.070866*%
%ADD15C,.02*%
%ADD13C,.05*%
%ADD10C,.024*%
%ADD12C,.0295*%
%ADD17C,.033465*%
%ADD16C,.019685*%
%ADD11C,.059098*%
%ADD18C,.008*%
%ADD19C,.00498*%
%ADD22C,.157486*%
%ADD24C,.060004*%
%ADD25C,.034004*%
%ADD21O,.039602X.071102*%
%ADD27C,.069102*%
%ADD26C,.04347*%
%ADD23C,.039504*%
%ADD28C,.02969*%
%ADD20O,.039602X.082906*%
G75*
%LPD*%
G75*
G36*
G01X788Y227563D02*
X294492D01*
Y156692D01*
X345672D01*
Y93171D01*
G02X345030Y92853I-400J0D01*
G03X344000Y93200I-1030J-1353D01*
G03X342300Y91500I0J-1700D01*
G03X342810Y90286I1700J0D01*
G02Y89714I-280J-286D01*
G03Y87286I1190J-1214D01*
G02Y86714I-280J-286D01*
G03X342300Y85500I1190J-1214D01*
G03X344000Y83800I1700J0D01*
G03X345030Y84147I0J1700D01*
G02X345672Y83829I242J-318D01*
G01Y71658D01*
X294492D01*
Y71000D01*
X271000D01*
Y788D01*
X788D01*
Y227563D01*
G37*
%LPC*%
G75*
G36*
G01X26488Y71957D02*
Y79043D01*
G02X26988Y79544I500J0D01*
G01X38012D01*
G02X38512Y79043I0J-500D01*
G01Y71957D01*
G02X38012Y71457I-500J0D01*
G01X26988D01*
G02X26488Y71957I0J500D01*
G37*
G36*
G01X197118Y40343D02*
G03X196642Y40058I-90J-390D01*
G02X195000Y38800I-1642J442D01*
G02Y42200I0J1700D01*
G02X195382Y42157I0J-1700D01*
G03X195858Y42442I90J390D01*
G02X197500Y43700I1642J-442D01*
G02X198907Y42954I0J-1700D01*
G03X199478Y42859I331J225D01*
G02X200500Y43200I1021J-1359D01*
G02Y39800I0J-1700D01*
G02X199093Y40546I0J1700D01*
G03X198522Y40641I-331J-225D01*
G02X197500Y40300I-1021J1359D01*
G02X197118Y40343I0J1700D01*
G37*
G36*
G01X33249Y45601D02*
G03X33918I334J220D01*
G02X35339Y46368I1421J-933D01*
G02Y42968I0J-1700D01*
G02X35185Y42975I0J1700D01*
G03X34749Y42576I-36J-398D01*
G01Y38036D01*
G03X35170Y37637I400J0D01*
G02X35256Y37639I86J-1698D01*
G02Y34239I0J-1700D01*
G02X33835Y35006I0J1700D01*
G03X33167I-334J-220D01*
G02X31745Y34239I-1421J933D01*
G02Y37639I0J1700D01*
G02X31832Y37637I0J-1700D01*
G03X32253Y38036I21J399D01*
G01Y42568D01*
G03X31848Y42968I-400J0D01*
G02X31828Y42968I-18J1700D01*
G02Y46368I0J1700D01*
G02X33249Y45601I0J-1700D01*
G37*
G36*
G01X179824Y61669D02*
G03X180301Y62050I76J393D01*
G02X182000Y63700I1699J-50D01*
G02Y60300I0J-1700D01*
G02X181676Y60331I0J1700D01*
G03X181200Y59950I-76J-393D01*
G02X179500Y58300I-1700J50D01*
G02Y61700I0J1700D01*
G02X179824Y61669I0J-1700D01*
G37*
G36*
G01X191832Y76735D02*
G03X191842Y77307I-275J291D01*
G02X191353Y78500I1211J1193D01*
G02X194753I1700J0D01*
G02X194221Y77265I-1700J0D01*
G03X194211Y76693I275J-291D01*
G02X194700Y75500I-1211J-1193D01*
G02X194359Y74478I-1700J0D01*
G03X194454Y73907I320J-240D01*
G02X195200Y72500I-954J-1407D01*
G02X191800I-1700J0D01*
G02X192141Y73522I1700J0D01*
G03X192046Y74093I-320J240D01*
G02X191300Y75500I954J1407D01*
G02X191832Y76735I1700J0D01*
G37*
G36*
G01X67618Y83280D02*
G03X67882I132J151D01*
G02X69000Y83700I1118J-1280D01*
G02X70118Y83280I0J-1700D01*
G03X70382I132J151D01*
G02X71500Y83700I1118J-1280D01*
G02X73200Y82000I0J-1700D01*
G02X72780Y80882I-1700J0D01*
G03Y80618I151J-132D01*
G02X73200Y79500I-1280J-1118D01*
G02X71500Y77800I-1700J0D01*
G02X70382Y78220I0J1700D01*
G03X70118I-132J-151D01*
G02X69000Y77800I-1118J1280D01*
G02X67882Y78220I0J1700D01*
G03X67618I-132J-151D01*
G02X66500Y77800I-1118J1280D01*
G02X64800Y79500I0J1700D01*
G02X65220Y80618I1700J0D01*
G03Y80882I-151J132D01*
G02X64800Y82000I1280J1118D01*
G02X66500Y83700I1700J0D01*
G02X67618Y83280I0J-1700D01*
G37*
G36*
G01X2810Y90214D02*
G03Y90786I-280J286D01*
G02X2300Y92000I1190J1214D01*
G02X4000Y93700I1700J0D01*
G02X4673Y93561I0J-1700D01*
G03X4936Y93667I79J184D01*
G02X6500Y94700I1564J-667D01*
G02X8200Y93000I0J-1700D01*
G02X7781Y91882I-1700J0D01*
G03Y91618I151J-132D01*
G02X8200Y90500I-1280J-1118D01*
G02X7781Y89382I-1700J0D01*
G03Y89118I151J-132D01*
G02X7842Y89044I-1280J-1119D01*
G03X8158I158J123D01*
G02X9500Y89700I1342J-1044D01*
G02X10618Y89280I0J-1700D01*
G03X10882I132J151D01*
G02X12000Y89700I1118J-1280D01*
G02X13118Y89280I0J-1700D01*
G03X13382I132J151D01*
G02X14500Y89700I1118J-1280D01*
G02Y86300I0J-1700D01*
G02X13382Y86720I0J1700D01*
G03X13118I-132J-151D01*
G02X12000Y86300I-1118J1280D01*
G02X10882Y86720I0J1700D01*
G03X10618I-132J-151D01*
G02X9500Y86300I-1118J1280D01*
G02X8286Y86810I0J1700D01*
G03X7714I-286J-280D01*
G02X6500Y86300I-1214J1190D01*
G02X6176Y86331I0J1700D01*
G03X5788Y85687I-76J-393D01*
G02X6000Y85700I211J-1687D01*
G02Y82300I0J-1700D01*
G02X4786Y82810I0J1700D01*
G03X4214I-286J-280D01*
G02X3000Y82300I-1214J1190D01*
G02X1300Y84000I0J1700D01*
G02X2354Y85573I1700J0D01*
G02X2300Y86000I1646J427D01*
G02X2810Y87214I1700J0D01*
G03Y87786I-280J286D01*
G02Y90214I1190J1214D01*
G37*
G36*
G01X292425Y107183D02*
G03X292161Y107174I-126J-155D01*
G02X291000Y106716I-1161J1242D01*
G02Y110116I0J1700D01*
G02X292075Y109733I0J-1700D01*
G03X292338Y109742I126J155D01*
G02X293500Y110200I1161J-1242D01*
G02Y106800I0J-1700D01*
G02X292425Y107183I0J1700D01*
G37*
G36*
G01X94618Y112280D02*
G03X94882I132J151D01*
G02X96000Y112700I1118J-1280D01*
G02X97118Y112280I0J-1700D01*
G03X97382I132J151D01*
G02X98500Y112700I1118J-1280D01*
G02X100200Y111000I0J-1700D01*
G02X99780Y109882I-1700J0D01*
G03Y109618I151J-132D01*
G02X100200Y108500I-1280J-1118D01*
G02X98500Y106800I-1700J0D01*
G02X97382Y107220I0J1700D01*
G03X97118I-132J-151D01*
G02X96000Y106800I-1118J1280D01*
G02X94882Y107220I0J1700D01*
G03X94618I-132J-151D01*
G02X93500Y106800I-1118J1280D01*
G02X92382Y107220I0J1700D01*
G03X92118I-132J-151D01*
G02X91000Y106800I-1118J1280D01*
G02X89882Y107220I0J1700D01*
G03X89618I-132J-151D01*
G02X88500Y106800I-1118J1280D01*
G02X87382Y107220I0J1700D01*
G03X87118I-132J-151D01*
G02X86000Y106800I-1118J1280D01*
G02X84882Y107220I0J1700D01*
G03X84618I-132J-151D01*
G02X83500Y106800I-1118J1280D01*
G02X82382Y107220I0J1700D01*
G03X82118I-132J-151D01*
G02X81000Y106800I-1118J1280D01*
G02X79882Y107220I0J1700D01*
G03X79618I-132J-151D01*
G02X78500Y106800I-1118J1280D01*
G02X76800Y108500I0J1700D01*
G02X77220Y109618I1700J0D01*
G03Y109882I-151J132D01*
G02X76800Y111000I1280J1118D01*
G02X78500Y112700I1700J0D01*
G02X79618Y112280I0J-1700D01*
G03X79882I132J151D01*
G02X81000Y112700I1118J-1280D01*
G02X82118Y112280I0J-1700D01*
G03X82382I132J151D01*
G02X83500Y112700I1118J-1280D01*
G02X84618Y112280I0J-1700D01*
G03X84882I132J151D01*
G02X86000Y112700I1118J-1280D01*
G02X87118Y112280I0J-1700D01*
G03X87382I132J151D01*
G02X88500Y112700I1118J-1280D01*
G02X89618Y112280I0J-1700D01*
G03X89882I132J151D01*
G02X91000Y112700I1118J-1280D01*
G02X92118Y112280I0J-1700D01*
G03X92382I132J151D01*
G02X93500Y112700I1118J-1280D01*
G02X94618Y112280I0J-1700D01*
G37*
G36*
G01X149462Y112020D02*
G03Y112653I-244J317D01*
G02X148800Y114000I1038J1347D01*
G02X152200I1700J0D01*
G02X151538Y112653I-1700J0D01*
G03Y112020I244J-317D01*
G02X152200Y110673I-1038J-1347D01*
G02X148800I-1700J0D01*
G02X149462Y112020I1700J0D01*
G37*
G36*
G01X227508Y118881D02*
G03X227552Y119493I-233J325D01*
G02X227034Y120715I1182J1222D01*
G02X230434I1700J0D01*
G02X229726Y119335I-1700J0D01*
G03X229682Y118722I233J-325D01*
G02X230200Y117500I-1182J-1222D01*
G02X226800I-1700J0D01*
G02X227508Y118881I1700J0D01*
G37*
G36*
G01X341326Y124270D02*
G03X340774I-276J-289D01*
G02X339600Y123800I-1174J1230D01*
G02Y127200I0J1700D01*
G02X340774Y126730I0J-1700D01*
G03X341326I276J289D01*
G02X342500Y127200I1174J-1230D01*
G02Y123800I0J-1700D01*
G02X341326Y124270I0J1700D01*
G37*
G36*
G01X150310Y127214D02*
G03Y127786I-280J286D01*
G02X149800Y129000I1190J1214D01*
G02X153200I1700J0D01*
G02X152690Y127786I-1700J0D01*
G03Y127214I280J-286D01*
G02X153200Y126000I-1190J-1214D01*
G02X149800I-1700J0D01*
G02X150310Y127214I1700J0D01*
G37*
G36*
G01X229371Y128802D02*
G03X229817Y129256I50J397D01*
G02X229800Y129500I1683J244D01*
G02X231500Y127800I1700J0D01*
G02X231286Y127813I0J1700D01*
G03X230839Y127359I-50J-397D01*
G02X230857Y127115I-1683J-244D01*
G02X229157Y128815I-1700J0D01*
G02X229371Y128802I0J-1700D01*
G37*
G36*
G01X259618Y136280D02*
G03X259882I132J151D01*
G02X261000Y136700I1118J-1280D01*
G02X262118Y136280I0J-1700D01*
G03X262382I132J151D01*
G02X263500Y136700I1118J-1280D01*
G02X265200Y135000I0J-1700D01*
G02X264780Y133882I-1700J0D01*
G03Y133618I151J-132D01*
G02X265200Y132500I-1280J-1118D01*
G02X264780Y131382I-1700J0D01*
G03Y131118I151J-132D01*
G02X265200Y130000I-1280J-1118D01*
G02X264780Y128882I-1700J0D01*
G03Y128618I151J-132D01*
G02X265200Y127500I-1280J-1118D01*
G02X263500Y125800I-1700J0D01*
G02X262382Y126220I0J1700D01*
G03X262118I-132J-151D01*
G02X261000Y125800I-1118J1280D01*
G02X259882Y126220I0J1700D01*
G03X259618I-132J-151D01*
G02X258500Y125800I-1118J1280D01*
G02X257382Y126220I0J1700D01*
G03X257118I-132J-151D01*
G02X256000Y125800I-1118J1280D01*
G02X254300Y127500I0J1700D01*
G02X254720Y128618I1700J0D01*
G03Y128882I-151J132D01*
G02X254300Y130000I1280J1118D01*
G02X254720Y131118I1700J0D01*
G03Y131382I-151J132D01*
G02X254300Y132500I1280J1118D01*
G02X254720Y133618I1700J0D01*
G03Y133882I-151J132D01*
G02X254300Y135000I1280J1118D01*
G02X256000Y136700I1700J0D01*
G02X257118Y136280I0J-1700D01*
G03X257382I132J151D01*
G02X258500Y136700I1118J-1280D01*
G02X259618Y136280I0J-1700D01*
G37*
G36*
G01X300226Y135270D02*
G03X299674I-276J-289D01*
G02X298500Y134800I-1174J1230D01*
G02Y138200I0J1700D01*
G02X299674Y137730I0J-1700D01*
G03X300226I276J289D01*
G02X301400Y138200I1174J-1230D01*
G02Y134800I0J-1700D01*
G02X300226Y135270I0J1700D01*
G37*
G36*
G01X164634Y140487D02*
G03X164371Y140540I-161J-119D01*
G02X163500Y140300I-871J1460D01*
G02Y143700I0J1700D01*
G02X164866Y143013I0J-1700D01*
G03X165129Y142960I161J119D01*
G02X166000Y143200I871J-1460D01*
G02X167029Y142854I0J-1700D01*
G03X167600Y142945I242J318D01*
G02X169000Y143680I1400J-965D01*
G02Y140280I0J-1700D01*
G02X167971Y140626I0J1700D01*
G03X167400Y140535I-242J-318D01*
G02X166000Y139800I-1400J965D01*
G02X164634Y140487I0J1700D01*
G37*
G36*
G01X120038Y143808D02*
G03X120183Y144425I-165J364D01*
G02X119800Y145500I1317J1075D01*
G02X123200I1700J0D01*
G02X122202Y143952I-1700J0D01*
G03X122058Y143334I165J-364D01*
G02X122440Y142260I-1317J-1075D01*
G02X122048Y141174I-1700J0D01*
G03X122193Y140553I308J-256D01*
G02X123200Y139000I-693J-1553D01*
G02X119800I-1700J0D01*
G02X120192Y140086I1700J0D01*
G03X120047Y140707I-308J256D01*
G02X119040Y142260I693J1553D01*
G02X120038Y143808I1700J0D01*
G37*
G36*
G01X41446Y163311D02*
G03X40824Y163456I-366J-162D01*
G02X39737Y163063I-1088J1307D01*
G02Y166464I0J1700D01*
G02X41291Y165452I0J-1700D01*
G03X41912Y165307I366J162D01*
G02X43000Y165700I1087J-1307D01*
G02Y162300I0J-1700D01*
G02X41446Y163311I0J1700D01*
G37*
G36*
G01X158983Y155424D02*
G03X158889Y156085I-265J300D01*
G02X161926Y155538I2528J5333D01*
G03X161608Y154951I34J-399D01*
G02X161809Y154149I-1499J-802D01*
G02X158408I-1700J0D01*
G02X158983Y155424I1700J0D01*
G37*
G36*
G01X183093Y187046D02*
G03X182522Y187141I-331J-225D01*
G02X181500Y186800I-1022J1359D01*
G02Y190200I0J1700D01*
G02X182907Y189454I0J-1700D01*
G03X183478Y189359I331J225D01*
G02X184500Y189700I1021J-1359D01*
G02Y186300I0J-1700D01*
G02X183093Y187046I0J1700D01*
G37*
G36*
G01X37530Y21083D02*
G02X39478Y22734I1948J-325D01*
G02Y18783I0J-1975D01*
G02X38166Y19282I0J1975D01*
G03X37500Y18985I-266J-299D01*
G02X34500Y16000I-3000J15D01*
G02Y22000I0J3000D01*
G02X36825Y20896I0J-3000D01*
G03X37530Y21083I310J253D01*
G37*
G36*
G01X186192Y51828D02*
G02X184800Y53500I308J1672D01*
G02X188200I1700J0D01*
G02X188023Y52743I-1700J0D01*
G03X188308Y52172I358J-178D01*
G02X189700Y50500I-308J-1672D01*
G02X189661Y50137I-1700J0D01*
G03X190137Y49661I391J-85D01*
G02X190500Y49700I363J-1661D01*
G02X188800Y48000I0J-1700D01*
G02X188839Y48363I1700J0D01*
G03X188363Y48839I-391J85D01*
G02X188000Y48800I-363J1661D01*
G02X186300Y50500I0J1700D01*
G02X186477Y51257I1700J0D01*
G03X186192Y51828I-358J178D01*
G37*
G36*
G01X234450Y58800D02*
G02X232800Y60500I50J1699D01*
G02X236200I1700J0D01*
G02X236169Y60176I-1700J0D01*
G03X236550Y59700I393J-76D01*
G02X238200Y58000I-50J-1700D01*
G02X237440Y56583I-1700J0D01*
G03Y55917I221J-333D01*
G02X238200Y54500I-940J-1417D01*
G02X236500Y52800I-1700J0D01*
G02X234828Y54192I0J1700D01*
G03X234257Y54477I-393J-72D01*
G02X233500Y54300I-757J1523D01*
G02Y57700I0J1700D01*
G02X234230Y57535I0J-1700D01*
G03X234802Y57916I172J361D01*
G02X234800Y58000I1698J84D01*
G02X234831Y58324I1700J0D01*
G03X234450Y58800I-393J76D01*
G37*
G36*
G01X235089Y66850D02*
G02X233800Y68500I411J1650D01*
G02X237200I1700J0D01*
G02X236720Y67316I-1700J0D01*
G03X236911Y66650I287J-278D01*
G02X238200Y65000I-411J-1650D01*
G02X234800I-1700J0D01*
G02X235280Y66184I1700J0D01*
G03X235089Y66850I-287J278D01*
G37*
G36*
G01X219965Y78770D02*
G02X219800Y79500I1535J730D01*
G02X221500Y77800I1700J0D01*
G02X221416Y77802I1J1700D01*
G03X221035Y77230I-20J-400D01*
G02X221200Y76500I-1535J-730D01*
G02X219500Y78200I-1700J0D01*
G02X219584Y78198I-1J-1700D01*
G03X219965Y78770I20J400D01*
G37*
G36*
G01X234339Y93637D02*
G02X234300Y94000I1661J363D01*
G02X236000Y92300I1700J0D01*
G02X235637Y92339I0J1700D01*
G03X235161Y91863I-85J-391D01*
G02X235200Y91500I-1661J-363D01*
G02X233500Y93200I-1700J0D01*
G02X233863Y93161I0J-1700D01*
G03X234339Y93637I85J391D01*
G37*
G36*
G01X238366Y106987D02*
G02X237000Y106300I-1366J1013D01*
G02Y109700I0J1700D01*
G02X237871Y109460I0J-1700D01*
G03X238134Y109513I102J172D01*
G02X239500Y110200I1366J-1013D01*
G02X241047Y109206I0J-1700D01*
G03X241713Y109111I364J166D01*
G02X243000Y109700I1287J-1111D01*
G02Y106300I0J-1700D01*
G02X241454Y107294I0J1700D01*
G03X240787Y107389I-364J-166D01*
G02X239500Y106800I-1287J1111D01*
G02X238629Y107040I0J1700D01*
G03X238366Y106987I-102J-172D01*
G37*
G36*
G01X212949Y108111D02*
G02X211500Y107300I-1449J889D01*
G02Y110700I0J1700D01*
G02X212922Y109932I0J-1700D01*
G03X213598Y109942I335J219D01*
G02X215047Y110753I1449J-889D01*
G02Y107353I0J-1700D01*
G02X213625Y108121I0J1700D01*
G03X212949Y108111I-335J-219D01*
G37*
G36*
G01X219436Y112279D02*
G02X219253Y113047I1517J768D01*
G02X222653I1700J0D01*
G02X222470Y112279I-1700J0D01*
G03X222844Y111698I357J-181D01*
G02X222921Y111700I76J-1699D01*
G02X221221Y110000I0J-1700D01*
G02X221405Y110768I1700J0D01*
G03X221030Y111349I-357J181D01*
G02X220953Y111347I-76J1699D01*
G02X220876Y111349I-1J1700D01*
G03X220501Y110768I-18J-400D01*
G02X220684Y110000I-1517J-768D01*
G02X218984Y111700I-1700J0D01*
G02X219061Y111698I1J-1700D01*
G03X219436Y112279I18J400D01*
G37*
G36*
G01X132048Y148297D02*
G02X130500Y147300I-1548J703D01*
G02Y150700I0J1700D01*
G02X131814Y150079I0J-1700D01*
G03X132487Y150168I309J254D01*
G02X134035Y151165I1548J-703D01*
G02X135563Y150211I0J-1700D01*
G03X136223Y150122I359J176D01*
G02X137500Y150700I1277J-1122D01*
G02Y147300I0J-1700D01*
G02X135972Y148254I0J1700D01*
G03X135312Y148342I-359J-176D01*
G02X134035Y147764I-1277J1122D01*
G02X132722Y148386I0J1700D01*
G03X132048Y148297I-309J-254D01*
G37*
G36*
G01X177277Y152108D02*
G02X178535Y152665I1258J-1144D01*
G02X179841Y152053I0J-1700D01*
G03X180501Y152120I307J256D01*
G02X182000Y153018I1499J-803D01*
G02Y149618I0J-1700D01*
G02X180694Y150229I0J1700D01*
G03X180034Y150162I-307J-256D01*
G02X178535Y149264I-1499J803D01*
G02X177336Y149759I0J1700D01*
G03X176758Y149745I-282J-284D01*
G02X175500Y149188I-1258J1144D01*
G02Y152589I0J1700D01*
G02X176699Y152094I0J-1700D01*
G03X177277Y152108I282J284D01*
G37*
G36*
G01X284150Y157089D02*
G02X282500Y155800I-1650J411D01*
G02Y159200I0J1700D01*
G02X283684Y158720I0J-1700D01*
G03X284350Y158911I278J287D01*
G02X286000Y160200I1650J-411D01*
G02Y156800I0J-1700D01*
G02X284816Y157280I0J1700D01*
G03X284150Y157089I-278J-287D01*
G37*
G36*
G01X28314Y162922D02*
G02X27000Y162300I-1314J1078D01*
G02Y165700I0J1700D01*
G02X28519Y164764I0J-1700D01*
G03X29186Y164690I357J180D01*
G02X30500Y165312I1314J-1078D01*
G02Y161911I0J-1700D01*
G02X28981Y162848I0J1700D01*
G03X28314Y162922I-357J-180D01*
G37*
G54D22*
X244094Y118110D03*
G54D24*
X22500Y19000D03*
G54D25*
X189500Y24000D03*
X196673Y33500D03*
X186000Y31500D03*
X187500Y36500D03*
X208000Y31000D03*
X223500Y28500D03*
X239827Y36173D03*
X157827Y56827D03*
X182000Y56787D03*
X176673Y51673D03*
X108673Y58173D03*
X168000Y67500D03*
X196000Y62000D03*
X256500Y71000D03*
Y67000D03*
X133500Y81000D03*
Y85500D03*
X126327Y78673D03*
X193000Y83500D03*
X204500Y80000D03*
X213500Y81947D03*
X204000Y75000D03*
X213500Y78000D03*
X226500Y79000D03*
X133500Y90500D03*
X120500Y98000D03*
X206173Y102827D03*
X216980D03*
X275000Y101000D03*
X305000Y100000D03*
X148000Y118500D03*
X164000Y117000D03*
X199500Y115500D03*
X309500D03*
Y120000D03*
X305000Y108000D03*
X309500Y111000D03*
X150500Y122000D03*
X165500D03*
X171468Y131968D03*
X194500Y136500D03*
X229500Y134000D03*
X223500Y137000D03*
X309500Y129000D03*
Y124500D03*
Y134000D03*
X53500Y148700D03*
X64000Y153000D03*
X68500D03*
X134035Y143035D03*
X175000Y142000D03*
X214500Y138947D03*
X209500Y139500D03*
X204500D03*
X219500Y138947D03*
X309500Y138500D03*
Y143000D03*
Y147500D03*
X16922Y164000D03*
X22000Y163500D03*
X39468Y154532D03*
X53516Y164016D03*
X63500Y164000D03*
X68500Y163500D03*
X94500D03*
X89343Y164157D03*
X148250Y160250D03*
X146500Y166000D03*
X145000Y155000D03*
X173000Y168500D03*
X168500Y168000D03*
X31469Y179469D03*
X56272Y179772D03*
X86587Y179587D03*
X286500Y182000D03*
X31968Y191468D03*
X245500Y201000D03*
X245000Y197000D03*
X249965Y196465D03*
X276673Y185827D03*
X266000Y195000D03*
X164500Y211000D03*
X159500Y208500D03*
X168468Y206032D03*
G54D21*
X45128Y6979D03*
X11072D03*
G54D27*
X8500Y109000D03*
Y119000D03*
X130000Y220000D03*
X140000D03*
X178000D03*
X188000D03*
X251000D03*
X261000D03*
X271000D03*
X281000D03*
G54D26*
X328500Y88500D03*
X333500D03*
X328500Y103500D03*
Y98500D03*
Y93500D03*
X333500Y103500D03*
Y98500D03*
Y93500D03*
X328500Y118500D03*
Y113500D03*
Y108500D03*
X333500Y118500D03*
Y113500D03*
Y108500D03*
X328500Y133500D03*
Y128500D03*
Y123500D03*
X333500Y133500D03*
Y128500D03*
Y123500D03*
X328500Y143500D03*
Y138500D03*
X333500Y143500D03*
Y138500D03*
G54D23*
X16722Y20758D03*
G54D28*
X218000Y120161D03*
X214161Y124000D03*
X218000Y127839D03*
Y124000D03*
X221839D03*
G54D20*
X45128Y22727D03*
X11072D03*
%LPD*%
G75*
G54D10*
X6521Y6979D03*
X7227Y22727D03*
X2732Y53268D03*
X3000Y47500D03*
X3500Y59000D03*
X6032Y78468D03*
X4000Y89000D03*
Y86000D03*
X6000Y84000D03*
X6500Y88000D03*
X3000Y84000D03*
X4000Y92000D03*
X6500Y90500D03*
Y93000D03*
X15479Y6979D03*
X8500Y17000D03*
X11072Y12928D03*
X12000Y30000D03*
X8500Y28500D03*
Y47000D03*
X15000Y48500D03*
X15500Y52500D03*
X18968Y52370D03*
X8500Y59500D03*
X12500Y59000D03*
X13032Y70032D03*
X20968D03*
X10500Y75000D03*
X17500D03*
X9500Y88000D03*
X12000D03*
X14500D03*
X11000Y101500D03*
X17500Y102000D03*
X16922Y164000D03*
X22000Y163500D03*
X17689Y180811D03*
X35256Y35939D03*
X31745D03*
X35339Y44668D03*
X31828D03*
X31465Y137465D03*
X29500Y132000D03*
X39737Y164763D03*
X39468Y154532D03*
X27000Y164000D03*
X30500Y163611D03*
X36000Y181000D03*
X31469Y179469D03*
X37500Y191500D03*
X31968Y191468D03*
X40000Y7500D03*
X50500Y6500D03*
X45128Y2128D03*
Y11872D03*
X49273Y22727D03*
X45128Y17872D03*
Y28128D03*
X41500Y32000D03*
X44500Y31500D03*
X40032Y101968D03*
X53500Y148700D03*
X49000Y158500D03*
X45532Y155032D03*
X53516Y164016D03*
X43000Y164000D03*
X40000Y180000D03*
X46500Y178000D03*
X49000Y182500D03*
X45000Y181000D03*
X41000Y189500D03*
X71500Y3000D03*
X69000D03*
X60500Y14500D03*
X67000D03*
X66500Y82000D03*
X69000D03*
X71500D03*
Y79500D03*
X69000D03*
X66500D03*
X62500Y94500D03*
X59032Y90532D03*
X65500Y119000D03*
X61000Y113500D03*
X60035Y124965D03*
X66465D03*
X64000Y153000D03*
X68500D03*
X59000Y160000D03*
X63500Y164000D03*
X68500Y163500D03*
X61784Y179784D03*
X71000Y182000D03*
X63000Y185000D03*
X56272Y179772D03*
X71000Y186500D03*
X56500Y191000D03*
X86500Y3000D03*
X84000D03*
X74000D03*
X81500D03*
X79000D03*
X76500D03*
X76000Y72000D03*
X82500D03*
X83500Y108500D03*
X81000D03*
X78500D03*
Y111000D03*
X81000D03*
X83500D03*
X86000Y108500D03*
Y111000D03*
X78535Y135465D03*
X85500Y125000D03*
X85032Y152968D03*
X75500Y162500D03*
X80500Y163000D03*
X81500Y180500D03*
X86587Y179587D03*
X87000Y191000D03*
X84173Y188673D03*
X101500Y3000D03*
X99000D03*
X91500D03*
X89000D03*
X96500D03*
X94000D03*
X102500Y18000D03*
X100000D03*
X97500Y21000D03*
Y23500D03*
Y26000D03*
X100000Y39000D03*
X102500D03*
X97500Y36000D03*
Y31000D03*
Y33500D03*
Y28500D03*
X88000Y74000D03*
X95000Y98000D03*
X92827Y100327D03*
X101000Y95500D03*
X98500Y92500D03*
X101579Y92421D03*
X91000Y108500D03*
X88500D03*
Y111000D03*
X91000D03*
X93500Y108500D03*
Y111000D03*
X98500Y108500D03*
X96000D03*
Y111000D03*
X98500D03*
X88173Y122173D03*
X89500Y149000D03*
X96000D03*
X99968Y152968D03*
X94500Y163500D03*
X89343Y164157D03*
X93000Y181000D03*
X99000Y181500D03*
X89673Y188673D03*
X119000Y3000D03*
X116500D03*
X114000D03*
X106500D03*
X104000D03*
X111500D03*
X109000D03*
X107500Y18000D03*
X105000D03*
X112500D03*
X110000D03*
X117500D03*
X115000D03*
X105000Y39000D03*
X107500D03*
X115000D03*
X117500D03*
X110000D03*
X112500D03*
X104500Y58000D03*
X108673Y58173D03*
X107500Y95000D03*
X103532Y116532D03*
X111468D03*
X134000Y3000D03*
X131500D03*
X129000D03*
X124000D03*
X121500D03*
X126500D03*
X122500Y18000D03*
X120000D03*
X127500D03*
X125000D03*
X130000D03*
X132500D03*
X135000D03*
X120000Y39000D03*
X122500D03*
X125000D03*
X127500D03*
X130000D03*
X132500D03*
X135000D03*
X133500Y81000D03*
Y85500D03*
X126327Y78673D03*
X133500Y90500D03*
X120500Y98000D03*
X121500Y145500D03*
X120740Y142260D03*
X121500Y139000D03*
X134035Y149465D03*
Y143035D03*
X130500Y149000D03*
X132500Y170000D03*
X134500Y207500D03*
X135000Y216000D03*
X149000Y3000D03*
X146500D03*
X144000D03*
X139000D03*
X136500D03*
X141500D03*
X137500Y18000D03*
X140000D03*
X142500D03*
X143000Y21000D03*
Y23500D03*
Y26000D03*
X137500Y39000D03*
X140000D03*
X142500D03*
X143000Y36000D03*
Y31000D03*
Y33500D03*
Y28500D03*
X141500Y73500D03*
X147000Y70500D03*
X148000Y118500D03*
X150500Y110673D03*
Y114000D03*
X139827Y132673D03*
X150500Y122000D03*
X148535Y151965D03*
Y147035D03*
X144760Y149740D03*
X137500Y149000D03*
X146500Y166000D03*
X145000Y155000D03*
X148250Y160250D03*
X138000Y170000D03*
X143500Y201000D03*
X147500Y205000D03*
X166500Y3000D03*
X164000D03*
X161500D03*
X159000D03*
X156500D03*
X154000D03*
X151500D03*
X152500Y44000D03*
X157827Y56827D03*
X164000Y117000D03*
X151500Y126000D03*
X165500Y122000D03*
X151500Y129000D03*
X163500Y142000D03*
X166000Y141500D03*
X160108Y154149D03*
X156500Y206000D03*
X164500Y211000D03*
X159500Y208500D03*
X174000Y3000D03*
X181500D03*
X179000D03*
X176500D03*
X171500D03*
X169000D03*
X173327Y56827D03*
X170000Y54000D03*
X173327Y51827D03*
X176673Y51673D03*
X182000Y56787D03*
X168000Y67500D03*
X182000Y62000D03*
X179500Y60000D03*
X171468Y131968D03*
X169000Y141980D03*
X175000Y142000D03*
X178535Y150965D03*
X175500Y150889D03*
X182000Y151318D03*
X173000Y168500D03*
X168500Y168000D03*
X175500Y173000D03*
X179500Y170000D03*
X176500Y198000D03*
X181500Y188500D03*
X180400Y206958D03*
X168468Y206032D03*
X189000Y3000D03*
X196500D03*
X194000D03*
X191500D03*
X186500D03*
X184000D03*
X198000Y22500D03*
X189500Y24000D03*
X193327Y33020D03*
X196673Y33500D03*
X197500Y42000D03*
X186000Y31500D03*
X187500Y36500D03*
X195000Y40500D03*
X188000Y50500D03*
X186500Y53500D03*
X190500Y48000D03*
X189827Y62327D03*
X196000Y62000D03*
X193500Y72500D03*
X192000Y88500D03*
X193053Y78500D03*
X193000Y75500D03*
Y83500D03*
X194500Y136500D03*
X196760Y152240D03*
X189260D03*
X193035Y154965D03*
X184000Y170000D03*
X186500Y183500D03*
X196500Y200000D03*
X184500Y188000D03*
X186500Y202500D03*
X206500Y3000D03*
X204000D03*
X214000D03*
X211500D03*
X209000D03*
X201500D03*
X199000D03*
X211500Y30500D03*
X208000Y31000D03*
X200500Y41500D03*
X211000Y56000D03*
Y51000D03*
Y60500D03*
X213500Y81947D03*
X204000Y75000D03*
X213500Y78000D03*
X204500Y80000D03*
X206173Y102827D03*
X199500Y112000D03*
Y115500D03*
X211500Y109000D03*
X214500Y138947D03*
X209500Y139500D03*
X204500D03*
X224000Y3000D03*
X221500D03*
X219000D03*
X229000D03*
X226500D03*
X216500D03*
X218232Y14732D03*
X226000Y30000D03*
X223500Y28500D03*
X219500Y56000D03*
X215000Y51000D03*
X219500D03*
X215000Y56000D03*
Y60500D03*
X219500D03*
X226500Y79000D03*
X221500Y79500D03*
X219500Y76500D03*
X216000Y90500D03*
X216980Y102827D03*
X220953Y113047D03*
X228500Y117500D03*
X215047Y109053D03*
X222921Y110000D03*
X228734Y120715D03*
X218984Y110000D03*
X220500Y134500D03*
X229500Y134000D03*
X223500Y137000D03*
X229157Y127115D03*
X219500Y138947D03*
X224161Y174339D03*
X227661Y177339D03*
X223661Y206161D03*
X239000Y3000D03*
X236500D03*
X234000D03*
X244000D03*
X241500D03*
X231500D03*
X232500Y18000D03*
X237000Y30000D03*
X236000Y41500D03*
X239827Y36173D03*
X234500Y46500D03*
X236500Y54500D03*
Y58000D03*
X233500Y56000D03*
X234500Y60500D03*
X236500Y65000D03*
X235500Y68500D03*
X236000Y99500D03*
X239500Y100500D03*
X237500Y96500D03*
X243000Y101000D03*
X233500Y91500D03*
X236000Y94000D03*
X237000Y108000D03*
X239500Y108500D03*
X243000Y108000D03*
X231500Y129500D03*
X245500Y201000D03*
X245000Y197000D03*
X256500Y3000D03*
X254000D03*
X251500D03*
X249000D03*
X261500D03*
X259000D03*
X246500D03*
X260000Y5500D03*
Y8000D03*
Y10500D03*
X257000Y8000D03*
Y5500D03*
X254000D03*
Y8000D03*
X248000D03*
Y5500D03*
X251000D03*
Y8000D03*
X257000Y10500D03*
X254000D03*
X248000D03*
X251000D03*
X260000Y23000D03*
Y20500D03*
Y18000D03*
Y15500D03*
Y13000D03*
Y25500D03*
X257000Y13000D03*
X254000D03*
X248000D03*
X251000D03*
X260000Y41000D03*
Y38500D03*
Y36000D03*
Y33500D03*
Y31000D03*
Y28000D03*
X254500Y42500D03*
X251520Y45326D03*
X258000Y51500D03*
X260500D03*
Y46500D03*
X258000D03*
X260000Y43500D03*
X256000Y60000D03*
X247500Y74000D03*
X256500Y71000D03*
Y67000D03*
X254500Y92500D03*
X256000Y127500D03*
X258500D03*
X261000D03*
X256000Y130000D03*
X261000D03*
X258500D03*
X256000Y132500D03*
Y135000D03*
X258500Y132500D03*
X261000D03*
Y135000D03*
X258500D03*
X261075Y161925D03*
X249965Y196465D03*
X269000Y10500D03*
Y8000D03*
Y5500D03*
Y3000D03*
X266500D03*
X264000D03*
X266000Y8000D03*
Y5500D03*
Y10500D03*
X263000Y8000D03*
Y5500D03*
Y10500D03*
X269000Y26000D03*
Y23500D03*
Y21000D03*
Y18500D03*
Y15500D03*
Y13000D03*
X266000Y15500D03*
Y18000D03*
Y20500D03*
Y23000D03*
Y25500D03*
Y13000D03*
X263000Y23500D03*
Y21000D03*
Y18500D03*
Y15500D03*
Y13000D03*
Y26000D03*
X269000Y41000D03*
Y38500D03*
Y36000D03*
Y33500D03*
Y31000D03*
Y28500D03*
X266000Y31000D03*
Y33500D03*
Y36000D03*
Y38500D03*
Y41000D03*
Y28000D03*
X263000Y41000D03*
Y38500D03*
Y36000D03*
Y33500D03*
Y31000D03*
Y28500D03*
Y51500D03*
X265500D03*
X268000D03*
Y46500D03*
X265500D03*
X263000D03*
X269000Y43500D03*
Y56500D03*
Y54000D03*
X265500D03*
Y56500D03*
X266000Y43500D03*
X263000D03*
X269000Y66500D03*
Y64000D03*
Y61500D03*
X277000Y73000D03*
X269000Y59000D03*
X265500D03*
Y61500D03*
X274500Y72500D03*
X264500Y90500D03*
X268000Y98500D03*
X275000Y101000D03*
X267000Y131500D03*
Y128000D03*
X270000Y127500D03*
X274500Y133000D03*
X263500Y127500D03*
Y130000D03*
Y132500D03*
Y135000D03*
X273147Y152845D03*
X263500Y155500D03*
X262500Y178500D03*
X264827Y176827D03*
X264423Y174102D03*
X271000Y175000D03*
X266000Y186000D03*
X268173Y188827D03*
X276673Y185827D03*
X266000Y195000D03*
X273035Y208965D03*
X268240Y205740D03*
X282000Y73000D03*
X279500D03*
X289500D03*
X287000D03*
X284500D03*
X292000D03*
X287532Y93532D03*
X293827Y94173D03*
X284500Y111000D03*
X291000Y108416D03*
X293500Y108500D03*
X283000Y126000D03*
X286000Y158500D03*
X282500Y157500D03*
X286500Y182000D03*
X282500Y208500D03*
X294500Y73000D03*
X309000Y97000D03*
X300500Y104000D03*
X305000Y100000D03*
X309500Y115500D03*
Y120000D03*
X305000Y108000D03*
X309500Y111000D03*
X298000Y122000D03*
X299500Y131000D03*
X298500Y136500D03*
X301400D03*
X309500Y129000D03*
Y124500D03*
Y134000D03*
Y138500D03*
Y143000D03*
Y147500D03*
X311000Y90000D03*
Y94500D03*
X310000Y108000D03*
X337000Y120500D03*
X339600Y125500D03*
X344000Y88500D03*
Y85500D03*
Y91500D03*
X342500Y125500D03*
G54D11*
X8500Y109000D03*
Y119000D03*
X130000Y220000D03*
X140000D03*
X178000D03*
X188000D03*
X251000D03*
X261000D03*
X271000D03*
X281000D03*
G54D12*
X16722Y20758D03*
X39478D03*
G54D13*
X22500Y19000D03*
X34500D03*
G54D14*
X32500Y75500D03*
G54D15*
X102563Y78500D03*
X106500Y82437D03*
Y74563D03*
X110437Y78500D03*
X106500D03*
G54D16*
X214161Y124000D03*
X218000Y120161D03*
Y127839D03*
Y124000D03*
X221839D03*
G54D17*
X328500Y88500D03*
X333500D03*
X328500Y103500D03*
Y98500D03*
Y93500D03*
X333500Y103500D03*
Y98500D03*
Y93500D03*
X328500Y118500D03*
Y113500D03*
Y108500D03*
X333500Y118500D03*
Y113500D03*
Y108500D03*
X328500Y133500D03*
Y128500D03*
Y123500D03*
X333500Y133500D03*
Y128500D03*
Y123500D03*
X328500Y143500D03*
Y138500D03*
X333500Y143500D03*
Y138500D03*
G54D18*
G01X4845Y109000D02*
X8500D01*
G01Y105345D02*
Y109000D01*
G01D02*
Y112655D01*
G01Y109000D02*
X12155D01*
G01X32500Y71257D02*
Y75500D01*
G01D02*
Y79744D01*
G01X26288Y75500D02*
X32500D01*
G01D02*
X38712D01*
G01X212477Y124000D02*
X214161D01*
G01X218000Y118477D02*
Y120161D01*
G01D02*
Y121846D01*
G01X216316Y120161D02*
X218000D01*
G01D02*
X219684D01*
G01X218000Y122316D02*
Y124000D01*
G01D02*
Y125684D01*
G01X216316Y124000D02*
X218000D01*
G01D02*
X219684D01*
G01X214161Y122316D02*
Y124000D01*
G01D02*
Y125684D01*
G01Y124000D02*
X215846D01*
G01X218000Y126154D02*
Y127839D01*
G01D02*
Y129523D01*
G01X216316Y127839D02*
X218000D01*
G01D02*
X219684D01*
G01X221839Y122316D02*
Y124000D01*
G01D02*
Y125684D01*
G01X220154Y124000D02*
X221839D01*
G01D02*
X223523D01*
G01X261000Y216345D02*
Y220000D01*
G01D02*
Y223655D01*
G01X257345Y220000D02*
X261000D01*
G01D02*
X264655D01*
G01X328500Y86126D02*
Y88500D01*
G01D02*
Y90874D01*
G01X326126Y88500D02*
X328500D01*
G01D02*
X330874D01*
G01X333500Y121126D02*
Y123500D01*
G01D02*
Y125874D01*
G01X331126Y123500D02*
X333500D01*
G01D02*
X335874D01*
G54D19*
G01X35339Y44668D02*
X34000Y43329D01*
Y37195D01*
X35256Y35939D01*
G01X31828Y44668D02*
X33002Y43494D01*
Y37196D01*
X31745Y35939D01*
M02*
