G04 ================== begin FILE IDENTIFICATION RECORD ==================*
G04 Layout Name:  H:/07_Auto_Car/01_HW/Main/Layout/Auto_Car_17_4.brd*
G04 Film Name:    10-SILKBOT*
G04 File Format:  Gerber RS274X*
G04 File Origin:  Cadence Allegro 17.4-S027*
G04 Origin Date:  Sun Mar 20 00:14:51 2022*
G04 *
G04 Layer:  BOARD GEOMETRY/DESIGN_OUTLINE*
G04 Layer:  BOARD GEOMETRY/CUTOUT*
G04 Layer:  REF DES/SILKSCREEN_BOTTOM*
G04 Layer:  PACKAGE GEOMETRY/SILKSCREEN_BOTTOM*
G04 Layer:  BOARD GEOMETRY/SILKSCREEN_BOTTOM*
G04 *
G04 Offset:    (0.000 0.000)*
G04 Mirror:    No*
G04 Mode:      Positive*
G04 Rotation:  0*
G04 FullContactRelief:  No*
G04 UndefLineWidth:     6.000*
G04 ================== end FILE IDENTIFICATION RECORD ====================*
%FSLAX25Y25*MOIN*%
%IR0*IPPOS*OFA0.00000B0.00000*MIA0B0*SFA1.00000B1.00000*%
%ADD10C,.005*%
%ADD11C,.006*%
%ADD12C,.007874*%
%ADD13R,.003513X.000811*%
G75*
%LPD*%
G75*
G36*
G01X27999Y20891D02*
X28188D01*
Y20801D01*
X28368D01*
Y20711D01*
X28458D01*
Y20621D01*
X28639D01*
Y20530D01*
X28729D01*
Y20440D01*
X28909D01*
Y20350D01*
X28999D01*
Y20260D01*
X29089D01*
Y20170D01*
X29269D01*
Y20080D01*
X29359D01*
Y19990D01*
X29450D01*
Y19900D01*
X29630D01*
Y19810D01*
X29810D01*
Y19720D01*
X30080D01*
Y19630D01*
X30170D01*
Y19539D01*
X30350D01*
Y19449D01*
X30432D01*
Y19539D01*
X30612D01*
Y19630D01*
X31251D01*
Y19539D01*
X31432D01*
Y19449D01*
X31522D01*
Y19359D01*
X31612D01*
Y19269D01*
X31702D01*
Y19089D01*
X31792D01*
Y18449D01*
X31702D01*
Y18278D01*
X31792D01*
Y18188D01*
X31972D01*
Y18098D01*
X32062D01*
Y18008D01*
X32242D01*
Y17918D01*
X32332D01*
Y17828D01*
X32423D01*
Y17738D01*
X32603D01*
Y17648D01*
X32693D01*
Y17557D01*
X32783D01*
Y17467D01*
X32963D01*
Y17377D01*
X33053D01*
Y17287D01*
X33233D01*
Y17197D01*
X33323D01*
Y17107D01*
X33414D01*
Y17017D01*
X33594D01*
Y16927D01*
X33684D01*
Y16837D01*
X33864D01*
Y16747D01*
X33954D01*
Y16656D01*
X34044D01*
Y16566D01*
X34224D01*
Y16287D01*
X34044D01*
Y16197D01*
X33233D01*
Y16107D01*
X32513D01*
Y15927D01*
X32423D01*
Y15846D01*
X32513D01*
Y15657D01*
X32423D01*
Y15576D01*
X32513D01*
Y15476D01*
X32423D01*
Y14215D01*
X32332D01*
Y13224D01*
X32242D01*
Y12783D01*
X32332D01*
Y12602D01*
X32423D01*
Y12512D01*
X32513D01*
Y12332D01*
X32603D01*
Y11972D01*
X32693D01*
Y11602D01*
X32603D01*
Y11242D01*
X32513D01*
Y10981D01*
X32603D01*
Y10891D01*
X32693D01*
Y10801D01*
X32783D01*
Y10711D01*
X32873D01*
Y10620D01*
X33053D01*
Y10530D01*
X33864D01*
Y10440D01*
X34405D01*
Y10350D01*
X34675D01*
Y10260D01*
X34855D01*
Y10170D01*
X35035D01*
Y10080D01*
X35215D01*
Y9990D01*
X35396D01*
Y9900D01*
X35486D01*
Y9810D01*
X35576D01*
Y9720D01*
X35666D01*
Y9630D01*
X35756D01*
Y8990D01*
X35666D01*
Y8810D01*
X35576D01*
Y8720D01*
X35486D01*
Y8630D01*
X35396D01*
Y8539D01*
X35305D01*
Y8449D01*
X35215D01*
Y8359D01*
X35125D01*
Y8269D01*
X34945D01*
Y8179D01*
X34765D01*
Y8089D01*
X33504D01*
Y7999D01*
X33323D01*
Y7909D01*
X33143D01*
Y7819D01*
X33053D01*
Y7729D01*
X32963D01*
Y7639D01*
X32873D01*
Y7548D01*
X32693D01*
Y7458D01*
X32603D01*
Y7368D01*
X32423D01*
Y7278D01*
X32242D01*
Y7188D01*
X31792D01*
Y7098D01*
X30972D01*
Y7188D01*
X30702D01*
Y7278D01*
X30522D01*
Y7368D01*
X30341D01*
Y7458D01*
X30080D01*
Y7368D01*
X29900D01*
Y7278D01*
X29540D01*
Y7188D01*
X28999D01*
Y7098D01*
X28909D01*
Y7008D01*
X28819D01*
Y6918D01*
X28729D01*
Y6747D01*
X28819D01*
Y6377D01*
X28729D01*
Y6197D01*
X28008D01*
Y5747D01*
X27918D01*
Y5566D01*
X27738D01*
Y5476D01*
X26468D01*
Y5566D01*
X26377D01*
Y6116D01*
X26468D01*
Y6206D01*
X26558D01*
Y6377D01*
X26377D01*
Y6467D01*
X26287D01*
Y6647D01*
X26197D01*
Y6738D01*
X26107D01*
Y6828D01*
X26017D01*
Y6918D01*
X25927D01*
Y7098D01*
X25837D01*
Y7188D01*
X25747D01*
Y7278D01*
X25386D01*
Y7368D01*
X25026D01*
Y7458D01*
X24666D01*
Y7548D01*
X24396D01*
Y7639D01*
X24125D01*
Y7729D01*
X23945D01*
Y7819D01*
X23765D01*
Y7909D01*
X23585D01*
Y7999D01*
X23495D01*
Y8089D01*
X23314D01*
Y8179D01*
X23224D01*
Y8269D01*
X23134D01*
Y8359D01*
X23044D01*
Y8449D01*
X22954D01*
Y8539D01*
X22864D01*
Y8630D01*
X22774D01*
Y8720D01*
X22684D01*
Y8900D01*
X22594D01*
Y8990D01*
X22504D01*
Y9170D01*
X22414D01*
Y9440D01*
X22323D01*
Y9711D01*
X22233D01*
Y10792D01*
X22143D01*
Y10882D01*
X22053D01*
Y11062D01*
X21963D01*
Y11152D01*
X21873D01*
Y11332D01*
X21783D01*
Y11512D01*
X21693D01*
Y12053D01*
X21603D01*
Y12152D01*
X21693D01*
Y12512D01*
X21783D01*
Y12783D01*
X21873D01*
Y12873D01*
X21963D01*
Y12963D01*
X22053D01*
Y13053D01*
X22143D01*
Y13143D01*
X22233D01*
Y13233D01*
X22414D01*
Y13774D01*
X22504D01*
Y14945D01*
X22594D01*
Y16116D01*
X22684D01*
Y16656D01*
X22774D01*
Y17017D01*
X22864D01*
Y17188D01*
X22594D01*
Y17278D01*
X22323D01*
Y17368D01*
X22143D01*
Y17458D01*
X21873D01*
Y17548D01*
X21603D01*
Y17638D01*
X21422D01*
Y17729D01*
X21332D01*
Y17918D01*
X21422D01*
Y18008D01*
X21603D01*
Y18098D01*
X21873D01*
Y18188D01*
X22053D01*
Y18278D01*
X22233D01*
Y18368D01*
X22414D01*
Y18458D01*
X22684D01*
Y18548D01*
X22864D01*
Y18638D01*
X23044D01*
Y18729D01*
X23314D01*
Y18819D01*
X23495D01*
Y18909D01*
X23675D01*
Y18999D01*
X23855D01*
Y19089D01*
X24125D01*
Y19179D01*
X24305D01*
Y19900D01*
X24396D01*
Y19990D01*
X24486D01*
Y20080D01*
X24576D01*
Y20170D01*
X24666D01*
Y20260D01*
X24846D01*
Y20350D01*
X25396D01*
Y20260D01*
X25576D01*
Y20170D01*
X25666D01*
Y19990D01*
X25837D01*
Y20080D01*
X26107D01*
Y20170D01*
X26558D01*
Y20260D01*
X26738D01*
Y20350D01*
X27008D01*
Y20440D01*
X27188D01*
Y20530D01*
X27368D01*
Y20621D01*
X27639D01*
Y20711D01*
X27819D01*
Y20801D01*
X27999D01*
Y20891D01*
G37*
%LPC*%
G75*
G36*
G01X26657Y6206D02*
Y6287D01*
X26828D01*
Y6197D01*
X27008D01*
Y6107D01*
X27098D01*
Y6026D01*
X26837D01*
Y6116D01*
X26747D01*
Y6206D01*
X26657D01*
G37*
G36*
G01X26837Y11422D02*
Y11602D01*
X26918D01*
Y11512D01*
X27008D01*
Y11422D01*
X27278D01*
Y11332D01*
X27458D01*
Y11242D01*
X27549D01*
Y11062D01*
X27639D01*
Y10972D01*
X27729D01*
Y10882D01*
X27909D01*
Y10792D01*
X27999D01*
Y10702D01*
X28089D01*
Y10612D01*
X28269D01*
Y10521D01*
X28359D01*
Y10431D01*
X28540D01*
Y10341D01*
X28720D01*
Y10251D01*
X28900D01*
Y10161D01*
X29080D01*
Y10071D01*
X29350D01*
Y9981D01*
X29621D01*
Y9891D01*
X29981D01*
Y9801D01*
X30981D01*
Y9891D01*
X31251D01*
Y9981D01*
X31432D01*
Y10071D01*
X31603D01*
Y9720D01*
X31513D01*
Y9269D01*
X31423D01*
Y9089D01*
X31332D01*
Y8819D01*
X31242D01*
Y8729D01*
X31152D01*
Y8548D01*
X31062D01*
Y8458D01*
X30972D01*
Y8278D01*
X30882D01*
Y8188D01*
X30702D01*
Y8098D01*
X30612D01*
Y8008D01*
X30432D01*
Y7918D01*
X30341D01*
Y7828D01*
X30071D01*
Y7738D01*
X29891D01*
Y7648D01*
X29531D01*
Y7557D01*
X29179D01*
Y8008D01*
X29089D01*
Y8188D01*
X28999D01*
Y8278D01*
X28909D01*
Y8368D01*
X28819D01*
Y8458D01*
X28639D01*
Y8548D01*
X28179D01*
Y8458D01*
X27999D01*
Y8368D01*
X27909D01*
Y8278D01*
X27819D01*
Y8098D01*
X27729D01*
Y7918D01*
X27639D01*
Y7738D01*
X27549D01*
Y7557D01*
X26657D01*
Y7648D01*
X25846D01*
Y7738D01*
X25396D01*
Y7828D01*
X25035D01*
Y7918D01*
X24675D01*
Y8008D01*
X24495D01*
Y8098D01*
X24224D01*
Y8188D01*
X24044D01*
Y8278D01*
X23864D01*
Y8368D01*
X23774D01*
Y8458D01*
X23594D01*
Y8548D01*
X23504D01*
Y8638D01*
X23414D01*
Y8729D01*
X23323D01*
Y8819D01*
X23233D01*
Y8909D01*
X23143D01*
Y8999D01*
X23053D01*
Y9179D01*
X22963D01*
Y9269D01*
X22873D01*
Y9539D01*
X22783D01*
Y9810D01*
X22693D01*
Y10350D01*
X22603D01*
Y10431D01*
X22774D01*
Y10341D01*
X22954D01*
Y10251D01*
X23134D01*
Y10161D01*
X23314D01*
Y10071D01*
X24314D01*
Y10161D01*
X24675D01*
Y10251D01*
X24945D01*
Y10341D01*
X25215D01*
Y10431D01*
X25396D01*
Y10521D01*
X25576D01*
Y10612D01*
X25756D01*
Y10702D01*
X25936D01*
Y10792D01*
X26026D01*
Y10882D01*
X26206D01*
Y10972D01*
X26296D01*
Y11062D01*
X26386D01*
Y11152D01*
X26567D01*
Y11242D01*
X26657D01*
Y11332D01*
X26747D01*
Y11422D01*
X26837D01*
G37*
G36*
G01X29450Y15927D02*
Y16017D01*
X29531D01*
Y15927D01*
X29621D01*
Y15846D01*
X29531D01*
Y15657D01*
X29621D01*
Y15566D01*
X29990D01*
Y15927D01*
X30161D01*
Y15837D01*
X30251D01*
Y15485D01*
X30161D01*
Y15305D01*
X30071D01*
Y15215D01*
X29720D01*
Y15305D01*
X29540D01*
Y15395D01*
X29450D01*
Y15576D01*
X29359D01*
Y15927D01*
X29450D01*
G37*
G36*
G01X26476Y16116D02*
Y16197D01*
X26648D01*
Y16107D01*
X27368D01*
Y16017D01*
X28179D01*
Y15936D01*
X28089D01*
Y15206D01*
X28179D01*
Y14936D01*
X28269D01*
Y14756D01*
X28359D01*
Y14576D01*
X28450D01*
Y14485D01*
X28540D01*
Y14395D01*
X28630D01*
Y14305D01*
X28720D01*
Y14215D01*
X28810D01*
Y14125D01*
X28990D01*
Y14035D01*
X29080D01*
Y13945D01*
X29350D01*
Y13855D01*
X29801D01*
Y13765D01*
X30260D01*
Y13855D01*
X30621D01*
Y13945D01*
X30891D01*
Y14035D01*
X30981D01*
Y14125D01*
X31161D01*
Y14215D01*
X31251D01*
Y14305D01*
X31341D01*
Y14395D01*
X31432D01*
Y14485D01*
X31522D01*
Y14666D01*
X31612D01*
Y14756D01*
X31702D01*
Y15026D01*
X31792D01*
Y15386D01*
X31882D01*
Y16017D01*
X32053D01*
Y15927D01*
X32143D01*
Y15125D01*
X32053D01*
Y14224D01*
X31963D01*
Y13323D01*
X31873D01*
Y13053D01*
X31513D01*
Y12963D01*
X31332D01*
Y12873D01*
X31152D01*
Y12783D01*
X31062D01*
Y12693D01*
X30882D01*
Y12602D01*
X30792D01*
Y12512D01*
X30702D01*
Y12422D01*
X30522D01*
Y12332D01*
X30432D01*
Y12242D01*
X30251D01*
Y12152D01*
X30071D01*
Y12062D01*
X29269D01*
Y12152D01*
X28458D01*
Y12242D01*
X27738D01*
Y12332D01*
X27558D01*
Y12512D01*
X27468D01*
Y12602D01*
X27377D01*
Y12693D01*
X27287D01*
Y12783D01*
X26648D01*
Y12693D01*
X26558D01*
Y12602D01*
X26468D01*
Y12512D01*
X25747D01*
Y12422D01*
X25125D01*
Y12503D01*
X25215D01*
Y12684D01*
X25305D01*
Y12774D01*
X25396D01*
Y12864D01*
X25486D01*
Y13044D01*
X25576D01*
Y13224D01*
X25666D01*
Y13404D01*
X25756D01*
Y13584D01*
X27278D01*
Y13494D01*
X27458D01*
Y13404D01*
X27639D01*
Y13314D01*
X27909D01*
Y13224D01*
X28089D01*
Y13134D01*
X28359D01*
Y13044D01*
X28540D01*
Y12954D01*
X28810D01*
Y12864D01*
X28900D01*
Y12774D01*
X29080D01*
Y12684D01*
X29359D01*
Y12783D01*
X29269D01*
Y12873D01*
X29089D01*
Y12963D01*
X28909D01*
Y13053D01*
X28729D01*
Y13143D01*
X28549D01*
Y13233D01*
X28368D01*
Y13323D01*
X28098D01*
Y13413D01*
X27828D01*
Y13584D01*
X28008D01*
Y13675D01*
X28188D01*
Y13774D01*
X27999D01*
Y13684D01*
X27729D01*
Y13594D01*
X27287D01*
Y14485D01*
X27377D01*
Y14756D01*
X27558D01*
Y14846D01*
X27738D01*
Y15125D01*
X27648D01*
Y15215D01*
X26918D01*
Y14936D01*
X27008D01*
Y14846D01*
X27188D01*
Y14494D01*
X27098D01*
Y13684D01*
X26747D01*
Y13774D01*
X26567D01*
Y13864D01*
X26476D01*
Y13954D01*
X26287D01*
Y13855D01*
X26377D01*
Y13774D01*
X25386D01*
Y13684D01*
X24846D01*
Y13594D01*
X24585D01*
Y13684D01*
X24495D01*
Y13774D01*
X24404D01*
Y13864D01*
X24314D01*
Y13954D01*
X24224D01*
Y14044D01*
X24044D01*
Y14134D01*
X23954D01*
Y14224D01*
X23864D01*
Y14314D01*
X23684D01*
Y14404D01*
X23504D01*
Y14494D01*
X23323D01*
Y14584D01*
X23224D01*
Y14485D01*
X23314D01*
Y14305D01*
X23404D01*
Y14215D01*
X23495D01*
Y14125D01*
X23585D01*
Y14035D01*
X23765D01*
Y13945D01*
X23855D01*
Y13855D01*
X24035D01*
Y13765D01*
X24215D01*
Y13675D01*
X24396D01*
Y13584D01*
X24486D01*
Y13503D01*
X24305D01*
Y13413D01*
X24035D01*
Y13224D01*
X24224D01*
Y13314D01*
X24495D01*
Y13404D01*
X24765D01*
Y13494D01*
X25215D01*
Y13584D01*
X25567D01*
Y13503D01*
X25477D01*
Y13413D01*
X25386D01*
Y13323D01*
X25296D01*
Y13233D01*
X25206D01*
Y13143D01*
X25116D01*
Y13053D01*
X25026D01*
Y12963D01*
X24936D01*
Y12873D01*
X24846D01*
Y12783D01*
X24756D01*
Y12693D01*
X24666D01*
Y12602D01*
X24576D01*
Y12512D01*
X24486D01*
Y12332D01*
X24224D01*
Y12422D01*
X24044D01*
Y12512D01*
X23864D01*
Y12602D01*
X23774D01*
Y12693D01*
X23594D01*
Y12783D01*
X23504D01*
Y12873D01*
X23323D01*
Y12963D01*
X23233D01*
Y13053D01*
X23143D01*
Y13143D01*
X22963D01*
Y13233D01*
X22873D01*
Y13945D01*
X22963D01*
Y14846D01*
X23053D01*
Y14945D01*
X22963D01*
Y15116D01*
X23053D01*
Y15476D01*
X23134D01*
Y15296D01*
X23224D01*
Y15116D01*
X23314D01*
Y15026D01*
X23404D01*
Y14936D01*
X23495D01*
Y14846D01*
X23585D01*
Y14756D01*
X23675D01*
Y14666D01*
X23855D01*
Y14576D01*
X24035D01*
Y14485D01*
X24305D01*
Y14395D01*
X25486D01*
Y14485D01*
X25756D01*
Y14576D01*
X25936D01*
Y14666D01*
X26116D01*
Y14756D01*
X26206D01*
Y14846D01*
X26386D01*
Y14936D01*
X26476D01*
Y15026D01*
X26567D01*
Y15116D01*
X26657D01*
Y15206D01*
X26747D01*
Y15296D01*
X26837D01*
Y15476D01*
X26927D01*
Y15756D01*
X26837D01*
Y15846D01*
X26747D01*
Y15936D01*
X26657D01*
Y16026D01*
X26567D01*
Y16116D01*
X26476D01*
G37*
G36*
G01X24945Y16467D02*
Y16557D01*
X25116D01*
Y16467D01*
X25206D01*
Y16377D01*
X25296D01*
Y16287D01*
X25386D01*
Y16197D01*
X25477D01*
Y16107D01*
X25567D01*
Y15756D01*
X25477D01*
Y15576D01*
X25386D01*
Y15485D01*
X25296D01*
Y15395D01*
X24765D01*
Y15485D01*
X24675D01*
Y15846D01*
X24585D01*
Y16017D01*
X24675D01*
Y16197D01*
X24765D01*
Y16377D01*
X24855D01*
Y16467D01*
X24945D01*
G37*
G36*
G01X23323Y16918D02*
Y17008D01*
X23404D01*
Y16918D01*
X23585D01*
Y16837D01*
X23495D01*
Y16747D01*
X23404D01*
Y16656D01*
X23314D01*
Y16566D01*
X23224D01*
Y16386D01*
X23143D01*
Y16648D01*
X23233D01*
Y16918D01*
X23323D01*
G37*
G36*
G01X25576Y17458D02*
Y17548D01*
X25657D01*
Y17377D01*
X25567D01*
Y17197D01*
X25477D01*
Y17107D01*
X25305D01*
Y17197D01*
X25125D01*
Y17278D01*
X25215D01*
Y17368D01*
X25396D01*
Y17458D01*
X25576D01*
G37*
G54D13*
X28184Y7238D03*
%LPD*%
G75*
G36*
G01X24936Y16206D02*
X25215D01*
Y16116D01*
X25305D01*
Y15837D01*
X25215D01*
Y15747D01*
X24936D01*
Y15837D01*
X24846D01*
Y16116D01*
X24936D01*
Y16206D01*
G37*
G54D10*
G01X132138Y210158D02*
X130169D01*
Y207106D01*
G01X134894Y204843D02*
X134106D01*
G01X136862Y210158D02*
X138831D01*
Y207106D01*
G01X181138Y205843D02*
X179169D01*
Y208894D01*
G01X185862Y205843D02*
X187831D01*
Y208894D01*
G01X183106Y211157D02*
X183894D01*
G54D11*
G01X21400Y153208D02*
X21700Y153383D01*
X22050Y153500D01*
X22450D01*
X22900Y153325D01*
X23250Y153033D01*
X23500Y152683D01*
X23700Y152100D01*
X23750Y151575D01*
X23650Y151050D01*
X23500Y150700D01*
X23200Y150350D01*
X22850Y150117D01*
X22500Y150000D01*
X22150D01*
X21800Y150117D01*
X21500Y150292D01*
X21250Y150525D01*
G01X20150Y151458D02*
X19800Y151867D01*
X19500Y152100D01*
X19100Y152217D01*
X18750Y152100D01*
X18500Y151867D01*
X18300Y151517D01*
X18250Y151108D01*
X18300Y150758D01*
X18500Y150408D01*
X18800Y150117D01*
X19150Y150000D01*
X19550Y150117D01*
X19900Y150467D01*
X20100Y150992D01*
X20150Y151575D01*
X20050Y152333D01*
X19900Y152742D01*
X19650Y153150D01*
X19300Y153442D01*
X18950Y153500D01*
X18600Y153383D01*
X18350Y153092D01*
G01X17000Y150700D02*
X16700Y150292D01*
X16300Y150058D01*
X15850Y150000D01*
X15450Y150058D01*
X15050Y150350D01*
X14800Y150700D01*
X14750Y151050D01*
X14850Y151458D01*
X15200Y151750D01*
X15550Y151867D01*
X16000D01*
G01X15550D02*
X15250Y152042D01*
X15000Y152333D01*
X14900Y152683D01*
X15000Y153033D01*
X15250Y153325D01*
X15700Y153500D01*
X16150Y153442D01*
X16600Y153208D01*
G01X12000Y150000D02*
Y153500D01*
X13850Y150992D01*
X11350D01*
G01X46400Y152708D02*
X46700Y152883D01*
X47050Y153000D01*
X47450D01*
X47900Y152825D01*
X48250Y152533D01*
X48500Y152183D01*
X48700Y151600D01*
X48750Y151075D01*
X48650Y150550D01*
X48500Y150200D01*
X48200Y149850D01*
X47850Y149617D01*
X47500Y149500D01*
X47150D01*
X46800Y149617D01*
X46500Y149792D01*
X46250Y150025D01*
G01X45150Y150958D02*
X44800Y151367D01*
X44500Y151600D01*
X44100Y151717D01*
X43750Y151600D01*
X43500Y151367D01*
X43300Y151017D01*
X43250Y150608D01*
X43300Y150258D01*
X43500Y149908D01*
X43800Y149617D01*
X44150Y149500D01*
X44550Y149617D01*
X44900Y149967D01*
X45100Y150492D01*
X45150Y151075D01*
X45050Y151833D01*
X44900Y152242D01*
X44650Y152650D01*
X44300Y152942D01*
X43950Y153000D01*
X43600Y152883D01*
X43350Y152592D01*
G01X42000Y150200D02*
X41700Y149792D01*
X41300Y149558D01*
X40850Y149500D01*
X40450Y149558D01*
X40050Y149850D01*
X39800Y150200D01*
X39750Y150550D01*
X39850Y150958D01*
X40200Y151250D01*
X40550Y151367D01*
X41000D01*
G01X40550D02*
X40250Y151542D01*
X40000Y151833D01*
X39900Y152183D01*
X40000Y152533D01*
X40250Y152825D01*
X40700Y153000D01*
X41150Y152942D01*
X41600Y152708D01*
G01X37600Y149500D02*
X37250Y149558D01*
X36850Y149733D01*
X36600Y150025D01*
X36500Y150433D01*
X36600Y150842D01*
X36900Y151192D01*
X37350Y151367D01*
X37850D01*
X38150Y151483D01*
X38400Y151775D01*
X38500Y152183D01*
X38350Y152592D01*
X38000Y152883D01*
X37600Y153000D01*
X37200Y152883D01*
X36850Y152592D01*
X36700Y152183D01*
X36800Y151775D01*
X37050Y151483D01*
X37350Y151367D01*
X37850D01*
X38300Y151192D01*
X38600Y150842D01*
X38700Y150433D01*
X38600Y150025D01*
X38350Y149733D01*
X37950Y149558D01*
X37600Y149500D01*
G01X34400Y169208D02*
X34700Y169383D01*
X35050Y169500D01*
X35450D01*
X35900Y169325D01*
X36250Y169033D01*
X36500Y168683D01*
X36700Y168100D01*
X36750Y167575D01*
X36650Y167050D01*
X36500Y166700D01*
X36200Y166350D01*
X35850Y166117D01*
X35500Y166000D01*
X35150D01*
X34800Y166117D01*
X34500Y166292D01*
X34250Y166525D01*
G01X33150Y167458D02*
X32800Y167867D01*
X32500Y168100D01*
X32100Y168217D01*
X31750Y168100D01*
X31500Y167867D01*
X31300Y167517D01*
X31250Y167108D01*
X31300Y166758D01*
X31500Y166408D01*
X31800Y166117D01*
X32150Y166000D01*
X32550Y166117D01*
X32900Y166467D01*
X33100Y166992D01*
X33150Y167575D01*
X33050Y168333D01*
X32900Y168742D01*
X32650Y169150D01*
X32300Y169442D01*
X31950Y169500D01*
X31600Y169383D01*
X31350Y169092D01*
G01X30000Y166700D02*
X29700Y166292D01*
X29300Y166058D01*
X28850Y166000D01*
X28450Y166058D01*
X28050Y166350D01*
X27800Y166700D01*
X27750Y167050D01*
X27850Y167458D01*
X28200Y167750D01*
X28550Y167867D01*
X29000D01*
G01X28550D02*
X28250Y168042D01*
X28000Y168333D01*
X27900Y168683D01*
X28000Y169033D01*
X28250Y169325D01*
X28700Y169500D01*
X29150Y169442D01*
X29600Y169208D01*
G01X26700Y166525D02*
X26400Y166233D01*
X26050Y166058D01*
X25600Y166000D01*
X25150Y166117D01*
X24800Y166350D01*
X24550Y166758D01*
X24500Y167225D01*
X24600Y167692D01*
X24850Y167983D01*
X25200Y168217D01*
X25550Y168275D01*
X25900Y168217D01*
X26350Y167983D01*
X26200Y169500D01*
X24850D01*
G01X38400Y196708D02*
X38700Y196883D01*
X39050Y197000D01*
X39450D01*
X39900Y196825D01*
X40250Y196533D01*
X40500Y196183D01*
X40700Y195600D01*
X40750Y195075D01*
X40650Y194550D01*
X40500Y194200D01*
X40200Y193850D01*
X39850Y193617D01*
X39500Y193500D01*
X39150D01*
X38800Y193617D01*
X38500Y193792D01*
X38250Y194025D01*
G01X37150Y194958D02*
X36800Y195367D01*
X36500Y195600D01*
X36100Y195717D01*
X35750Y195600D01*
X35500Y195367D01*
X35300Y195017D01*
X35250Y194608D01*
X35300Y194258D01*
X35500Y193908D01*
X35800Y193617D01*
X36150Y193500D01*
X36550Y193617D01*
X36900Y193967D01*
X37100Y194492D01*
X37150Y195075D01*
X37050Y195833D01*
X36900Y196242D01*
X36650Y196650D01*
X36300Y196942D01*
X35950Y197000D01*
X35600Y196883D01*
X35350Y196592D01*
G01X34000Y194200D02*
X33700Y193792D01*
X33300Y193558D01*
X32850Y193500D01*
X32450Y193558D01*
X32050Y193850D01*
X31800Y194200D01*
X31750Y194550D01*
X31850Y194958D01*
X32200Y195250D01*
X32550Y195367D01*
X33000D01*
G01X32550D02*
X32250Y195542D01*
X32000Y195833D01*
X31900Y196183D01*
X32000Y196533D01*
X32250Y196825D01*
X32700Y197000D01*
X33150Y196942D01*
X33600Y196708D01*
G01X30450Y193908D02*
X30100Y193617D01*
X29700Y193500D01*
X29300Y193617D01*
X28950Y193967D01*
X28700Y194492D01*
X28600Y195017D01*
Y195658D01*
X28700Y196183D01*
X28950Y196650D01*
X29250Y196883D01*
X29600Y197000D01*
X30000Y196883D01*
X30300Y196650D01*
X30500Y196300D01*
X30600Y195833D01*
X30500Y195425D01*
X30250Y195017D01*
X29950Y194783D01*
X29600Y194725D01*
X29200Y194842D01*
X28900Y195133D01*
X28600Y195658D01*
G01X52000Y134500D02*
X55500D01*
Y135750D01*
X55325Y136150D01*
X55092Y136400D01*
X54625Y136500D01*
X54158Y136400D01*
X53867Y136100D01*
X53692Y135750D01*
Y134500D01*
G01Y135750D02*
X52000Y136500D01*
G01X53458Y137850D02*
X53867Y138200D01*
X54100Y138500D01*
X54217Y138900D01*
X54100Y139250D01*
X53867Y139500D01*
X53517Y139700D01*
X53108Y139750D01*
X52758Y139700D01*
X52408Y139500D01*
X52117Y139200D01*
X52000Y138850D01*
X52117Y138450D01*
X52467Y138100D01*
X52992Y137900D01*
X53575Y137850D01*
X54333Y137950D01*
X54742Y138100D01*
X55150Y138350D01*
X55442Y138700D01*
X55500Y139050D01*
X55383Y139400D01*
X55092Y139650D01*
G01X52000Y142000D02*
X52758Y142100D01*
X53400Y142250D01*
X53983Y142450D01*
X54625Y142700D01*
X55500Y143100D01*
Y141100D01*
G01X52000Y145400D02*
X55500D01*
X54800Y144800D01*
G01X52000D02*
Y146000D01*
G01X58900Y169708D02*
X59200Y169883D01*
X59550Y170000D01*
X59950D01*
X60400Y169825D01*
X60750Y169533D01*
X61000Y169183D01*
X61200Y168600D01*
X61250Y168075D01*
X61150Y167550D01*
X61000Y167200D01*
X60700Y166850D01*
X60350Y166617D01*
X60000Y166500D01*
X59650D01*
X59300Y166617D01*
X59000Y166792D01*
X58750Y167025D01*
G01X57650Y167958D02*
X57300Y168367D01*
X57000Y168600D01*
X56600Y168717D01*
X56250Y168600D01*
X56000Y168367D01*
X55800Y168017D01*
X55750Y167608D01*
X55800Y167258D01*
X56000Y166908D01*
X56300Y166617D01*
X56650Y166500D01*
X57050Y166617D01*
X57400Y166967D01*
X57600Y167492D01*
X57650Y168075D01*
X57550Y168833D01*
X57400Y169242D01*
X57150Y169650D01*
X56800Y169942D01*
X56450Y170000D01*
X56100Y169883D01*
X55850Y169592D01*
G01X54500Y167200D02*
X54200Y166792D01*
X53800Y166558D01*
X53350Y166500D01*
X52950Y166558D01*
X52550Y166850D01*
X52300Y167200D01*
X52250Y167550D01*
X52350Y167958D01*
X52700Y168250D01*
X53050Y168367D01*
X53500D01*
G01X53050D02*
X52750Y168542D01*
X52500Y168833D01*
X52400Y169183D01*
X52500Y169533D01*
X52750Y169825D01*
X53200Y170000D01*
X53650Y169942D01*
X54100Y169708D01*
G01X51200Y167200D02*
X50900Y166792D01*
X50500Y166558D01*
X50050Y166500D01*
X49650Y166558D01*
X49250Y166850D01*
X49000Y167200D01*
X48950Y167550D01*
X49050Y167958D01*
X49400Y168250D01*
X49750Y168367D01*
X50200D01*
G01X49750D02*
X49450Y168542D01*
X49200Y168833D01*
X49100Y169183D01*
X49200Y169533D01*
X49450Y169825D01*
X49900Y170000D01*
X50350Y169942D01*
X50800Y169708D01*
G01X62400Y137600D02*
X65900D01*
Y138850D01*
X65725Y139250D01*
X65492Y139500D01*
X65025Y139600D01*
X64558Y139500D01*
X64267Y139200D01*
X64092Y138850D01*
Y137600D01*
G01Y138850D02*
X62400Y139600D01*
G01X63858Y140950D02*
X64267Y141300D01*
X64500Y141600D01*
X64617Y142000D01*
X64500Y142350D01*
X64267Y142600D01*
X63917Y142800D01*
X63508Y142850D01*
X63158Y142800D01*
X62808Y142600D01*
X62517Y142300D01*
X62400Y141950D01*
X62517Y141550D01*
X62867Y141200D01*
X63392Y141000D01*
X63975Y140950D01*
X64733Y141050D01*
X65142Y141200D01*
X65550Y141450D01*
X65842Y141800D01*
X65900Y142150D01*
X65783Y142500D01*
X65492Y142750D01*
G01X62400Y145100D02*
X63158Y145200D01*
X63800Y145350D01*
X64383Y145550D01*
X65025Y145800D01*
X65900Y146200D01*
Y144200D01*
G01X65317Y147550D02*
X65667Y147850D01*
X65842Y148200D01*
X65900Y148600D01*
X65783Y149100D01*
X65492Y149450D01*
X65142Y149550D01*
X64792Y149500D01*
X64500Y149300D01*
X63917Y148300D01*
X63508Y147850D01*
X62925Y147550D01*
X62400Y147450D01*
Y149550D01*
G01X66900Y137600D02*
X70400D01*
Y138850D01*
X70225Y139250D01*
X69992Y139500D01*
X69525Y139600D01*
X69058Y139500D01*
X68767Y139200D01*
X68592Y138850D01*
Y137600D01*
G01Y138850D02*
X66900Y139600D01*
G01X68358Y140950D02*
X68767Y141300D01*
X69000Y141600D01*
X69117Y142000D01*
X69000Y142350D01*
X68767Y142600D01*
X68417Y142800D01*
X68008Y142850D01*
X67658Y142800D01*
X67308Y142600D01*
X67017Y142300D01*
X66900Y141950D01*
X67017Y141550D01*
X67367Y141200D01*
X67892Y141000D01*
X68475Y140950D01*
X69233Y141050D01*
X69642Y141200D01*
X70050Y141450D01*
X70342Y141800D01*
X70400Y142150D01*
X70283Y142500D01*
X69992Y142750D01*
G01X66900Y145100D02*
X67658Y145200D01*
X68300Y145350D01*
X68883Y145550D01*
X69525Y145800D01*
X70400Y146200D01*
Y144200D01*
G01X67600Y147400D02*
X67192Y147700D01*
X66958Y148100D01*
X66900Y148550D01*
X66958Y148950D01*
X67250Y149350D01*
X67600Y149600D01*
X67950Y149650D01*
X68358Y149550D01*
X68650Y149200D01*
X68767Y148850D01*
Y148400D01*
G01Y148850D02*
X68942Y149150D01*
X69233Y149400D01*
X69583Y149500D01*
X69933Y149400D01*
X70225Y149150D01*
X70400Y148700D01*
X70342Y148250D01*
X70108Y147800D01*
G01X60500Y188500D02*
X64000D01*
Y189750D01*
X63825Y190150D01*
X63592Y190400D01*
X63125Y190500D01*
X62658Y190400D01*
X62367Y190100D01*
X62192Y189750D01*
Y188500D01*
G01Y189750D02*
X60500Y190500D01*
G01X61958Y191850D02*
X62367Y192200D01*
X62600Y192500D01*
X62717Y192900D01*
X62600Y193250D01*
X62367Y193500D01*
X62017Y193700D01*
X61608Y193750D01*
X61258Y193700D01*
X60908Y193500D01*
X60617Y193200D01*
X60500Y192850D01*
X60617Y192450D01*
X60967Y192100D01*
X61492Y191900D01*
X62075Y191850D01*
X62833Y191950D01*
X63242Y192100D01*
X63650Y192350D01*
X63942Y192700D01*
X64000Y193050D01*
X63883Y193400D01*
X63592Y193650D01*
G01X60500Y196000D02*
X61258Y196100D01*
X61900Y196250D01*
X62483Y196450D01*
X63125Y196700D01*
X64000Y197100D01*
Y195100D01*
G01Y199400D02*
X63883Y199000D01*
X63592Y198700D01*
X63242Y198500D01*
X62775Y198350D01*
X62250Y198300D01*
X61725Y198350D01*
X61258Y198500D01*
X60908Y198700D01*
X60617Y199000D01*
X60500Y199400D01*
X60617Y199800D01*
X60908Y200100D01*
X61258Y200300D01*
X61725Y200450D01*
X62250Y200500D01*
X62775Y200450D01*
X63242Y200300D01*
X63592Y200100D01*
X63883Y199800D01*
X64000Y199400D01*
G01X97908Y136800D02*
X98083Y136500D01*
X98200Y136150D01*
Y135750D01*
X98025Y135300D01*
X97733Y134950D01*
X97383Y134700D01*
X96800Y134500D01*
X96275Y134450D01*
X95750Y134550D01*
X95400Y134700D01*
X95050Y135000D01*
X94817Y135350D01*
X94700Y135700D01*
Y136050D01*
X94817Y136400D01*
X94992Y136700D01*
X95225Y136950D01*
G01X96158Y138050D02*
X96567Y138400D01*
X96800Y138700D01*
X96917Y139100D01*
X96800Y139450D01*
X96567Y139700D01*
X96217Y139900D01*
X95808Y139950D01*
X95458Y139900D01*
X95108Y139700D01*
X94817Y139400D01*
X94700Y139050D01*
X94817Y138650D01*
X95167Y138300D01*
X95692Y138100D01*
X96275Y138050D01*
X97033Y138150D01*
X97442Y138300D01*
X97850Y138550D01*
X98142Y138900D01*
X98200Y139250D01*
X98083Y139600D01*
X97792Y139850D01*
G01X95400Y141200D02*
X94992Y141500D01*
X94758Y141900D01*
X94700Y142350D01*
X94758Y142750D01*
X95050Y143150D01*
X95400Y143400D01*
X95750Y143450D01*
X96158Y143350D01*
X96450Y143000D01*
X96567Y142650D01*
Y142200D01*
G01Y142650D02*
X96742Y142950D01*
X97033Y143200D01*
X97383Y143300D01*
X97733Y143200D01*
X98025Y142950D01*
X98200Y142500D01*
X98142Y142050D01*
X97908Y141600D01*
G01X94700Y145500D02*
X95458Y145600D01*
X96100Y145750D01*
X96683Y145950D01*
X97325Y146200D01*
X98200Y146600D01*
Y144600D01*
G01X91408Y136800D02*
X91583Y136500D01*
X91700Y136150D01*
Y135750D01*
X91525Y135300D01*
X91233Y134950D01*
X90883Y134700D01*
X90300Y134500D01*
X89775Y134450D01*
X89250Y134550D01*
X88900Y134700D01*
X88550Y135000D01*
X88317Y135350D01*
X88200Y135700D01*
Y136050D01*
X88317Y136400D01*
X88492Y136700D01*
X88725Y136950D01*
G01X89658Y138050D02*
X90067Y138400D01*
X90300Y138700D01*
X90417Y139100D01*
X90300Y139450D01*
X90067Y139700D01*
X89717Y139900D01*
X89308Y139950D01*
X88958Y139900D01*
X88608Y139700D01*
X88317Y139400D01*
X88200Y139050D01*
X88317Y138650D01*
X88667Y138300D01*
X89192Y138100D01*
X89775Y138050D01*
X90533Y138150D01*
X90942Y138300D01*
X91350Y138550D01*
X91642Y138900D01*
X91700Y139250D01*
X91583Y139600D01*
X91292Y139850D01*
G01X88900Y141200D02*
X88492Y141500D01*
X88258Y141900D01*
X88200Y142350D01*
X88258Y142750D01*
X88550Y143150D01*
X88900Y143400D01*
X89250Y143450D01*
X89658Y143350D01*
X89950Y143000D01*
X90067Y142650D01*
Y142200D01*
G01Y142650D02*
X90242Y142950D01*
X90533Y143200D01*
X90883Y143300D01*
X91233Y143200D01*
X91525Y142950D01*
X91700Y142500D01*
X91642Y142050D01*
X91408Y141600D01*
G01X89658Y144650D02*
X90067Y145000D01*
X90300Y145300D01*
X90417Y145700D01*
X90300Y146050D01*
X90067Y146300D01*
X89717Y146500D01*
X89308Y146550D01*
X88958Y146500D01*
X88608Y146300D01*
X88317Y146000D01*
X88200Y145650D01*
X88317Y145250D01*
X88667Y144900D01*
X89192Y144700D01*
X89775Y144650D01*
X90533Y144750D01*
X90942Y144900D01*
X91350Y145150D01*
X91642Y145500D01*
X91700Y145850D01*
X91583Y146200D01*
X91292Y146450D01*
G01X92500Y184000D02*
X96000D01*
Y185250D01*
X95825Y185650D01*
X95592Y185900D01*
X95125Y186000D01*
X94658Y185900D01*
X94367Y185600D01*
X94192Y185250D01*
Y184000D01*
G01Y185250D02*
X92500Y186000D01*
G01X93958Y187350D02*
X94367Y187700D01*
X94600Y188000D01*
X94717Y188400D01*
X94600Y188750D01*
X94367Y189000D01*
X94017Y189200D01*
X93608Y189250D01*
X93258Y189200D01*
X92908Y189000D01*
X92617Y188700D01*
X92500Y188350D01*
X92617Y187950D01*
X92967Y187600D01*
X93492Y187400D01*
X94075Y187350D01*
X94833Y187450D01*
X95242Y187600D01*
X95650Y187850D01*
X95942Y188200D01*
X96000Y188550D01*
X95883Y188900D01*
X95592Y189150D01*
G01X93958Y190650D02*
X94367Y191000D01*
X94600Y191300D01*
X94717Y191700D01*
X94600Y192050D01*
X94367Y192300D01*
X94017Y192500D01*
X93608Y192550D01*
X93258Y192500D01*
X92908Y192300D01*
X92617Y192000D01*
X92500Y191650D01*
X92617Y191250D01*
X92967Y190900D01*
X93492Y190700D01*
X94075Y190650D01*
X94833Y190750D01*
X95242Y190900D01*
X95650Y191150D01*
X95942Y191500D01*
X96000Y191850D01*
X95883Y192200D01*
X95592Y192450D01*
G01X92908Y194050D02*
X92617Y194400D01*
X92500Y194800D01*
X92617Y195200D01*
X92967Y195550D01*
X93492Y195800D01*
X94017Y195900D01*
X94658D01*
X95183Y195800D01*
X95650Y195550D01*
X95883Y195250D01*
X96000Y194900D01*
X95883Y194500D01*
X95650Y194200D01*
X95300Y194000D01*
X94833Y193900D01*
X94425Y194000D01*
X94017Y194250D01*
X93783Y194550D01*
X93725Y194900D01*
X93842Y195300D01*
X94133Y195600D01*
X94658Y195900D01*
G01X140600Y197000D02*
Y200500D01*
X139600D01*
X139200Y200325D01*
X138900Y200092D01*
X138650Y199742D01*
X138450Y199333D01*
X138400Y198750D01*
X138450Y198167D01*
X138650Y197758D01*
X138900Y197408D01*
X139200Y197175D01*
X139600Y197000D01*
X140600D01*
G01X136200D02*
Y200500D01*
X136800Y199800D01*
G01Y197000D02*
X135600D01*
G01X132900D02*
Y200500D01*
X133500Y199800D01*
G01Y197000D02*
X132300D01*
G01X130700Y197525D02*
X130400Y197233D01*
X130050Y197058D01*
X129600Y197000D01*
X129150Y197117D01*
X128800Y197350D01*
X128550Y197758D01*
X128500Y198225D01*
X128600Y198692D01*
X128850Y198983D01*
X129200Y199217D01*
X129550Y199275D01*
X129900Y199217D01*
X130350Y198983D01*
X130200Y200500D01*
X128850D01*
G01X192100Y197500D02*
Y201000D01*
X191100D01*
X190700Y200825D01*
X190400Y200592D01*
X190150Y200242D01*
X189950Y199833D01*
X189900Y199250D01*
X189950Y198667D01*
X190150Y198258D01*
X190400Y197908D01*
X190700Y197675D01*
X191100Y197500D01*
X192100D01*
G01X187700D02*
Y201000D01*
X188300Y200300D01*
G01Y197500D02*
X187100D01*
G01X184400D02*
Y201000D01*
X185000Y200300D01*
G01Y197500D02*
X183800D01*
G01X180500D02*
Y201000D01*
X182350Y198492D01*
X179850D01*
G01X306600Y105100D02*
Y108600D01*
X305350D01*
X304950Y108425D01*
X304700Y108192D01*
X304600Y107725D01*
X304700Y107258D01*
X305000Y106967D01*
X305350Y106792D01*
X306600D01*
G01X305350D02*
X304600Y105100D01*
G01X303250Y106558D02*
X302900Y106967D01*
X302600Y107200D01*
X302200Y107317D01*
X301850Y107200D01*
X301600Y106967D01*
X301400Y106617D01*
X301350Y106208D01*
X301400Y105858D01*
X301600Y105508D01*
X301900Y105217D01*
X302250Y105100D01*
X302650Y105217D01*
X303000Y105567D01*
X303200Y106092D01*
X303250Y106675D01*
X303150Y107433D01*
X303000Y107842D01*
X302750Y108250D01*
X302400Y108542D01*
X302050Y108600D01*
X301700Y108483D01*
X301450Y108192D01*
G01X300100Y105800D02*
X299800Y105392D01*
X299400Y105158D01*
X298950Y105100D01*
X298550Y105158D01*
X298150Y105450D01*
X297900Y105800D01*
X297850Y106150D01*
X297950Y106558D01*
X298300Y106850D01*
X298650Y106967D01*
X299100D01*
G01X298650D02*
X298350Y107142D01*
X298100Y107433D01*
X298000Y107783D01*
X298100Y108133D01*
X298350Y108425D01*
X298800Y108600D01*
X299250Y108542D01*
X299700Y108308D01*
G01X295700Y108600D02*
X296100Y108483D01*
X296400Y108192D01*
X296600Y107842D01*
X296750Y107375D01*
X296800Y106850D01*
X296750Y106325D01*
X296600Y105858D01*
X296400Y105508D01*
X296100Y105217D01*
X295700Y105100D01*
X295300Y105217D01*
X295000Y105508D01*
X294800Y105858D01*
X294650Y106325D01*
X294600Y106850D01*
X294650Y107375D01*
X294800Y107842D01*
X295000Y108192D01*
X295300Y108483D01*
X295700Y108600D01*
G01X306600Y100600D02*
Y104100D01*
X305350D01*
X304950Y103925D01*
X304700Y103692D01*
X304600Y103225D01*
X304700Y102758D01*
X305000Y102467D01*
X305350Y102292D01*
X306600D01*
G01X305350D02*
X304600Y100600D01*
G01X303250Y102058D02*
X302900Y102467D01*
X302600Y102700D01*
X302200Y102817D01*
X301850Y102700D01*
X301600Y102467D01*
X301400Y102117D01*
X301350Y101708D01*
X301400Y101358D01*
X301600Y101008D01*
X301900Y100717D01*
X302250Y100600D01*
X302650Y100717D01*
X303000Y101067D01*
X303200Y101592D01*
X303250Y102175D01*
X303150Y102933D01*
X303000Y103342D01*
X302750Y103750D01*
X302400Y104042D01*
X302050Y104100D01*
X301700Y103983D01*
X301450Y103692D01*
G01X300100Y101300D02*
X299800Y100892D01*
X299400Y100658D01*
X298950Y100600D01*
X298550Y100658D01*
X298150Y100950D01*
X297900Y101300D01*
X297850Y101650D01*
X297950Y102058D01*
X298300Y102350D01*
X298650Y102467D01*
X299100D01*
G01X298650D02*
X298350Y102642D01*
X298100Y102933D01*
X298000Y103283D01*
X298100Y103633D01*
X298350Y103925D01*
X298800Y104100D01*
X299250Y104042D01*
X299700Y103808D01*
G01X296650Y103517D02*
X296350Y103867D01*
X296000Y104042D01*
X295600Y104100D01*
X295100Y103983D01*
X294750Y103692D01*
X294650Y103342D01*
X294700Y102992D01*
X294900Y102700D01*
X295900Y102117D01*
X296350Y101708D01*
X296650Y101125D01*
X296750Y100600D01*
X294650D01*
G01X306500Y95000D02*
Y98500D01*
X305250D01*
X304850Y98325D01*
X304600Y98092D01*
X304500Y97625D01*
X304600Y97158D01*
X304900Y96867D01*
X305250Y96692D01*
X306500D01*
G01X305250D02*
X304500Y95000D01*
G01X303150Y96458D02*
X302800Y96867D01*
X302500Y97100D01*
X302100Y97217D01*
X301750Y97100D01*
X301500Y96867D01*
X301300Y96517D01*
X301250Y96108D01*
X301300Y95758D01*
X301500Y95408D01*
X301800Y95117D01*
X302150Y95000D01*
X302550Y95117D01*
X302900Y95467D01*
X303100Y95992D01*
X303150Y96575D01*
X303050Y97333D01*
X302900Y97742D01*
X302650Y98150D01*
X302300Y98442D01*
X301950Y98500D01*
X301600Y98383D01*
X301350Y98092D01*
G01X298900Y95000D02*
X298550Y95058D01*
X298150Y95233D01*
X297900Y95525D01*
X297800Y95933D01*
X297900Y96342D01*
X298200Y96692D01*
X298650Y96867D01*
X299150D01*
X299450Y96983D01*
X299700Y97275D01*
X299800Y97683D01*
X299650Y98092D01*
X299300Y98383D01*
X298900Y98500D01*
X298500Y98383D01*
X298150Y98092D01*
X298000Y97683D01*
X298100Y97275D01*
X298350Y96983D01*
X298650Y96867D01*
X299150D01*
X299600Y96692D01*
X299900Y96342D01*
X300000Y95933D01*
X299900Y95525D01*
X299650Y95233D01*
X299250Y95058D01*
X298900Y95000D01*
G01X296700Y95700D02*
X296400Y95292D01*
X296000Y95058D01*
X295550Y95000D01*
X295150Y95058D01*
X294750Y95350D01*
X294500Y95700D01*
X294450Y96050D01*
X294550Y96458D01*
X294900Y96750D01*
X295250Y96867D01*
X295700D01*
G01X295250D02*
X294950Y97042D01*
X294700Y97333D01*
X294600Y97683D01*
X294700Y98033D01*
X294950Y98325D01*
X295400Y98500D01*
X295850Y98442D01*
X296300Y98208D01*
G01X306600Y118600D02*
Y122100D01*
X305350D01*
X304950Y121925D01*
X304700Y121692D01*
X304600Y121225D01*
X304700Y120758D01*
X305000Y120467D01*
X305350Y120292D01*
X306600D01*
G01X305350D02*
X304600Y118600D01*
G01X303250Y120058D02*
X302900Y120467D01*
X302600Y120700D01*
X302200Y120817D01*
X301850Y120700D01*
X301600Y120467D01*
X301400Y120117D01*
X301350Y119708D01*
X301400Y119358D01*
X301600Y119008D01*
X301900Y118717D01*
X302250Y118600D01*
X302650Y118717D01*
X303000Y119067D01*
X303200Y119592D01*
X303250Y120175D01*
X303150Y120933D01*
X303000Y121342D01*
X302750Y121750D01*
X302400Y122042D01*
X302050Y122100D01*
X301700Y121983D01*
X301450Y121692D01*
G01X299950Y121517D02*
X299650Y121867D01*
X299300Y122042D01*
X298900Y122100D01*
X298400Y121983D01*
X298050Y121692D01*
X297950Y121342D01*
X298000Y120992D01*
X298200Y120700D01*
X299200Y120117D01*
X299650Y119708D01*
X299950Y119125D01*
X300050Y118600D01*
X297950D01*
G01X295700D02*
X295350Y118658D01*
X294950Y118833D01*
X294700Y119125D01*
X294600Y119533D01*
X294700Y119942D01*
X295000Y120292D01*
X295450Y120467D01*
X295950D01*
X296250Y120583D01*
X296500Y120875D01*
X296600Y121283D01*
X296450Y121692D01*
X296100Y121983D01*
X295700Y122100D01*
X295300Y121983D01*
X294950Y121692D01*
X294800Y121283D01*
X294900Y120875D01*
X295150Y120583D01*
X295450Y120467D01*
X295950D01*
X296400Y120292D01*
X296700Y119942D01*
X296800Y119533D01*
X296700Y119125D01*
X296450Y118833D01*
X296050Y118658D01*
X295700Y118600D01*
G01X306600Y114100D02*
Y117600D01*
X305350D01*
X304950Y117425D01*
X304700Y117192D01*
X304600Y116725D01*
X304700Y116258D01*
X305000Y115967D01*
X305350Y115792D01*
X306600D01*
G01X305350D02*
X304600Y114100D01*
G01X303250Y115558D02*
X302900Y115967D01*
X302600Y116200D01*
X302200Y116317D01*
X301850Y116200D01*
X301600Y115967D01*
X301400Y115617D01*
X301350Y115208D01*
X301400Y114858D01*
X301600Y114508D01*
X301900Y114217D01*
X302250Y114100D01*
X302650Y114217D01*
X303000Y114567D01*
X303200Y115092D01*
X303250Y115675D01*
X303150Y116433D01*
X303000Y116842D01*
X302750Y117250D01*
X302400Y117542D01*
X302050Y117600D01*
X301700Y117483D01*
X301450Y117192D01*
G01X299950Y117017D02*
X299650Y117367D01*
X299300Y117542D01*
X298900Y117600D01*
X298400Y117483D01*
X298050Y117192D01*
X297950Y116842D01*
X298000Y116492D01*
X298200Y116200D01*
X299200Y115617D01*
X299650Y115208D01*
X299950Y114625D01*
X300050Y114100D01*
X297950D01*
G01X296550Y114508D02*
X296200Y114217D01*
X295800Y114100D01*
X295400Y114217D01*
X295050Y114567D01*
X294800Y115092D01*
X294700Y115617D01*
Y116258D01*
X294800Y116783D01*
X295050Y117250D01*
X295350Y117483D01*
X295700Y117600D01*
X296100Y117483D01*
X296400Y117250D01*
X296600Y116900D01*
X296700Y116433D01*
X296600Y116025D01*
X296350Y115617D01*
X296050Y115383D01*
X295700Y115325D01*
X295300Y115442D01*
X295000Y115733D01*
X294700Y116258D01*
G01X306600Y109600D02*
Y113100D01*
X305350D01*
X304950Y112925D01*
X304700Y112692D01*
X304600Y112225D01*
X304700Y111758D01*
X305000Y111467D01*
X305350Y111292D01*
X306600D01*
G01X305350D02*
X304600Y109600D01*
G01X303250Y111058D02*
X302900Y111467D01*
X302600Y111700D01*
X302200Y111817D01*
X301850Y111700D01*
X301600Y111467D01*
X301400Y111117D01*
X301350Y110708D01*
X301400Y110358D01*
X301600Y110008D01*
X301900Y109717D01*
X302250Y109600D01*
X302650Y109717D01*
X303000Y110067D01*
X303200Y110592D01*
X303250Y111175D01*
X303150Y111933D01*
X303000Y112342D01*
X302750Y112750D01*
X302400Y113042D01*
X302050Y113100D01*
X301700Y112983D01*
X301450Y112692D01*
G01X300100Y110300D02*
X299800Y109892D01*
X299400Y109658D01*
X298950Y109600D01*
X298550Y109658D01*
X298150Y109950D01*
X297900Y110300D01*
X297850Y110650D01*
X297950Y111058D01*
X298300Y111350D01*
X298650Y111467D01*
X299100D01*
G01X298650D02*
X298350Y111642D01*
X298100Y111933D01*
X298000Y112283D01*
X298100Y112633D01*
X298350Y112925D01*
X298800Y113100D01*
X299250Y113042D01*
X299700Y112808D01*
G01X296800Y110300D02*
X296500Y109892D01*
X296100Y109658D01*
X295650Y109600D01*
X295250Y109658D01*
X294850Y109950D01*
X294600Y110300D01*
X294550Y110650D01*
X294650Y111058D01*
X295000Y111350D01*
X295350Y111467D01*
X295800D01*
G01X295350D02*
X295050Y111642D01*
X294800Y111933D01*
X294700Y112283D01*
X294800Y112633D01*
X295050Y112925D01*
X295500Y113100D01*
X295950Y113042D01*
X296400Y112808D01*
G01X306600Y137100D02*
Y140600D01*
X305350D01*
X304950Y140425D01*
X304700Y140192D01*
X304600Y139725D01*
X304700Y139258D01*
X305000Y138967D01*
X305350Y138792D01*
X306600D01*
G01X305350D02*
X304600Y137100D01*
G01X303250Y138558D02*
X302900Y138967D01*
X302600Y139200D01*
X302200Y139317D01*
X301850Y139200D01*
X301600Y138967D01*
X301400Y138617D01*
X301350Y138208D01*
X301400Y137858D01*
X301600Y137508D01*
X301900Y137217D01*
X302250Y137100D01*
X302650Y137217D01*
X303000Y137567D01*
X303200Y138092D01*
X303250Y138675D01*
X303150Y139433D01*
X303000Y139842D01*
X302750Y140250D01*
X302400Y140542D01*
X302050Y140600D01*
X301700Y140483D01*
X301450Y140192D01*
G01X299950Y140017D02*
X299650Y140367D01*
X299300Y140542D01*
X298900Y140600D01*
X298400Y140483D01*
X298050Y140192D01*
X297950Y139842D01*
X298000Y139492D01*
X298200Y139200D01*
X299200Y138617D01*
X299650Y138208D01*
X299950Y137625D01*
X300050Y137100D01*
X297950D01*
G01X296800Y137800D02*
X296500Y137392D01*
X296100Y137158D01*
X295650Y137100D01*
X295250Y137158D01*
X294850Y137450D01*
X294600Y137800D01*
X294550Y138150D01*
X294650Y138558D01*
X295000Y138850D01*
X295350Y138967D01*
X295800D01*
G01X295350D02*
X295050Y139142D01*
X294800Y139433D01*
X294700Y139783D01*
X294800Y140133D01*
X295050Y140425D01*
X295500Y140600D01*
X295950Y140542D01*
X296400Y140308D01*
G01X306600Y132600D02*
Y136100D01*
X305350D01*
X304950Y135925D01*
X304700Y135692D01*
X304600Y135225D01*
X304700Y134758D01*
X305000Y134467D01*
X305350Y134292D01*
X306600D01*
G01X305350D02*
X304600Y132600D01*
G01X303250Y134058D02*
X302900Y134467D01*
X302600Y134700D01*
X302200Y134817D01*
X301850Y134700D01*
X301600Y134467D01*
X301400Y134117D01*
X301350Y133708D01*
X301400Y133358D01*
X301600Y133008D01*
X301900Y132717D01*
X302250Y132600D01*
X302650Y132717D01*
X303000Y133067D01*
X303200Y133592D01*
X303250Y134175D01*
X303150Y134933D01*
X303000Y135342D01*
X302750Y135750D01*
X302400Y136042D01*
X302050Y136100D01*
X301700Y135983D01*
X301450Y135692D01*
G01X299950Y135517D02*
X299650Y135867D01*
X299300Y136042D01*
X298900Y136100D01*
X298400Y135983D01*
X298050Y135692D01*
X297950Y135342D01*
X298000Y134992D01*
X298200Y134700D01*
X299200Y134117D01*
X299650Y133708D01*
X299950Y133125D01*
X300050Y132600D01*
X297950D01*
G01X296650Y134058D02*
X296300Y134467D01*
X296000Y134700D01*
X295600Y134817D01*
X295250Y134700D01*
X295000Y134467D01*
X294800Y134117D01*
X294750Y133708D01*
X294800Y133358D01*
X295000Y133008D01*
X295300Y132717D01*
X295650Y132600D01*
X296050Y132717D01*
X296400Y133067D01*
X296600Y133592D01*
X296650Y134175D01*
X296550Y134933D01*
X296400Y135342D01*
X296150Y135750D01*
X295800Y136042D01*
X295450Y136100D01*
X295100Y135983D01*
X294850Y135692D01*
G01X306600Y123100D02*
Y126600D01*
X305350D01*
X304950Y126425D01*
X304700Y126192D01*
X304600Y125725D01*
X304700Y125258D01*
X305000Y124967D01*
X305350Y124792D01*
X306600D01*
G01X305350D02*
X304600Y123100D01*
G01X303250Y124558D02*
X302900Y124967D01*
X302600Y125200D01*
X302200Y125317D01*
X301850Y125200D01*
X301600Y124967D01*
X301400Y124617D01*
X301350Y124208D01*
X301400Y123858D01*
X301600Y123508D01*
X301900Y123217D01*
X302250Y123100D01*
X302650Y123217D01*
X303000Y123567D01*
X303200Y124092D01*
X303250Y124675D01*
X303150Y125433D01*
X303000Y125842D01*
X302750Y126250D01*
X302400Y126542D01*
X302050Y126600D01*
X301700Y126483D01*
X301450Y126192D01*
G01X299950Y126017D02*
X299650Y126367D01*
X299300Y126542D01*
X298900Y126600D01*
X298400Y126483D01*
X298050Y126192D01*
X297950Y125842D01*
X298000Y125492D01*
X298200Y125200D01*
X299200Y124617D01*
X299650Y124208D01*
X299950Y123625D01*
X300050Y123100D01*
X297950D01*
G01X295800D02*
X295700Y123858D01*
X295550Y124500D01*
X295350Y125083D01*
X295100Y125725D01*
X294700Y126600D01*
X296700D01*
G01X306600Y127600D02*
Y131100D01*
X305350D01*
X304950Y130925D01*
X304700Y130692D01*
X304600Y130225D01*
X304700Y129758D01*
X305000Y129467D01*
X305350Y129292D01*
X306600D01*
G01X305350D02*
X304600Y127600D01*
G01X303250Y129058D02*
X302900Y129467D01*
X302600Y129700D01*
X302200Y129817D01*
X301850Y129700D01*
X301600Y129467D01*
X301400Y129117D01*
X301350Y128708D01*
X301400Y128358D01*
X301600Y128008D01*
X301900Y127717D01*
X302250Y127600D01*
X302650Y127717D01*
X303000Y128067D01*
X303200Y128592D01*
X303250Y129175D01*
X303150Y129933D01*
X303000Y130342D01*
X302750Y130750D01*
X302400Y131042D01*
X302050Y131100D01*
X301700Y130983D01*
X301450Y130692D01*
G01X300100Y128300D02*
X299800Y127892D01*
X299400Y127658D01*
X298950Y127600D01*
X298550Y127658D01*
X298150Y127950D01*
X297900Y128300D01*
X297850Y128650D01*
X297950Y129058D01*
X298300Y129350D01*
X298650Y129467D01*
X299100D01*
G01X298650D02*
X298350Y129642D01*
X298100Y129933D01*
X298000Y130283D01*
X298100Y130633D01*
X298350Y130925D01*
X298800Y131100D01*
X299250Y131042D01*
X299700Y130808D01*
G01X295700Y127600D02*
Y131100D01*
X296300Y130400D01*
G01Y127600D02*
X295100D01*
G01X306600Y146100D02*
Y149600D01*
X305350D01*
X304950Y149425D01*
X304700Y149192D01*
X304600Y148725D01*
X304700Y148258D01*
X305000Y147967D01*
X305350Y147792D01*
X306600D01*
G01X305350D02*
X304600Y146100D01*
G01X303250Y147558D02*
X302900Y147967D01*
X302600Y148200D01*
X302200Y148317D01*
X301850Y148200D01*
X301600Y147967D01*
X301400Y147617D01*
X301350Y147208D01*
X301400Y146858D01*
X301600Y146508D01*
X301900Y146217D01*
X302250Y146100D01*
X302650Y146217D01*
X303000Y146567D01*
X303200Y147092D01*
X303250Y147675D01*
X303150Y148433D01*
X303000Y148842D01*
X302750Y149250D01*
X302400Y149542D01*
X302050Y149600D01*
X301700Y149483D01*
X301450Y149192D01*
G01X299950Y149017D02*
X299650Y149367D01*
X299300Y149542D01*
X298900Y149600D01*
X298400Y149483D01*
X298050Y149192D01*
X297950Y148842D01*
X298000Y148492D01*
X298200Y148200D01*
X299200Y147617D01*
X299650Y147208D01*
X299950Y146625D01*
X300050Y146100D01*
X297950D01*
G01X295100D02*
Y149600D01*
X296950Y147092D01*
X294450D01*
G01X306600Y141600D02*
Y145100D01*
X305350D01*
X304950Y144925D01*
X304700Y144692D01*
X304600Y144225D01*
X304700Y143758D01*
X305000Y143467D01*
X305350Y143292D01*
X306600D01*
G01X305350D02*
X304600Y141600D01*
G01X303250Y143058D02*
X302900Y143467D01*
X302600Y143700D01*
X302200Y143817D01*
X301850Y143700D01*
X301600Y143467D01*
X301400Y143117D01*
X301350Y142708D01*
X301400Y142358D01*
X301600Y142008D01*
X301900Y141717D01*
X302250Y141600D01*
X302650Y141717D01*
X303000Y142067D01*
X303200Y142592D01*
X303250Y143175D01*
X303150Y143933D01*
X303000Y144342D01*
X302750Y144750D01*
X302400Y145042D01*
X302050Y145100D01*
X301700Y144983D01*
X301450Y144692D01*
G01X299950Y144517D02*
X299650Y144867D01*
X299300Y145042D01*
X298900Y145100D01*
X298400Y144983D01*
X298050Y144692D01*
X297950Y144342D01*
X298000Y143992D01*
X298200Y143700D01*
X299200Y143117D01*
X299650Y142708D01*
X299950Y142125D01*
X300050Y141600D01*
X297950D01*
G01X296800Y142125D02*
X296500Y141833D01*
X296150Y141658D01*
X295700Y141600D01*
X295250Y141717D01*
X294900Y141950D01*
X294650Y142358D01*
X294600Y142825D01*
X294700Y143292D01*
X294950Y143583D01*
X295300Y143817D01*
X295650Y143875D01*
X296000Y143817D01*
X296450Y143583D01*
X296300Y145100D01*
X294950D01*
G01X0Y228350D02*
X295280D01*
Y157480D01*
X346460D01*
Y70870D01*
X295280D01*
Y0D01*
X0D01*
Y228350D01*
G01X165350Y161420D02*
G03I-3933J-3D01*
G01X250000Y118110D02*
G03I-5906J0D01*
G54D12*
G01X20075Y155350D02*
X22968D01*
G03X24543Y156925I0J1575D01*
G01Y160035D01*
G03X22929Y161650I-1614J0D01*
G01X20075D01*
G01X16925Y155350D02*
X14032D01*
G02X12457Y156925I0J1575D01*
G01Y160035D01*
G02X14071Y161650I1614J0D01*
G01X16925D01*
G01X32075Y155350D02*
X34968D01*
G03X36543Y156925I0J1575D01*
G01Y160035D01*
G03X34929Y161650I-1614J0D01*
G01X32075D01*
G01X28925Y155350D02*
X26032D01*
G02X24457Y156925I0J1575D01*
G01Y160035D01*
G02X26071Y161650I1614J0D01*
G01X28925D01*
G01X40925D02*
X38032D01*
G03X36457Y160075I0J-1575D01*
G01Y156965D01*
G03X38071Y155350I1614J0D01*
G01X40925D01*
G01X33425Y189650D02*
X30532D01*
G03X28957Y188075I0J-1575D01*
G01Y184965D01*
G03X30571Y183350I1614J0D01*
G01X33425D01*
G01X36575Y189650D02*
X39468D01*
G02X41043Y188075I0J-1575D01*
G01Y184965D01*
G02X39429Y183350I-1614J0D01*
G01X36575D01*
G01X51138Y152319D02*
Y149563D01*
X55862D01*
Y152319D01*
G01X44075Y161650D02*
X46968D01*
G02X48543Y160075I0J-1575D01*
G01Y156965D01*
G02X46929Y155350I-1614J0D01*
G01X44075D01*
G01X53819Y162362D02*
X52244D01*
G03X51100Y161218I0J-1144D01*
G01Y159000D01*
G03X52462Y157638I1362J0D01*
G01X53819D01*
G01X51138Y154681D02*
Y157437D01*
X55862D01*
Y154681D01*
G01X58862Y185819D02*
Y183063D01*
X54138D01*
Y185819D01*
G01X58862Y188181D02*
Y190937D01*
X54138D01*
Y188181D01*
G01X56181Y162362D02*
X57756D01*
G02X58900Y161218I0J-1144D01*
G01Y159000D01*
G02X57538Y157638I-1362J0D01*
G01X56181D01*
G01X61638Y158681D02*
Y161437D01*
X66362D01*
Y158681D01*
G01X61638Y156319D02*
Y153563D01*
X66362D01*
Y156319D01*
G01X66138Y158681D02*
Y161437D01*
X70862D01*
Y158681D01*
G01X66138Y156319D02*
Y153563D01*
X70862D01*
Y156319D01*
G01X92650Y154425D02*
Y151532D01*
G02X91075Y149957I-1575J0D01*
G01X87965D01*
G02X86350Y151571I0J1614D01*
G01Y154425D01*
G01X92650Y157575D02*
Y160468D01*
G03X91075Y162043I-1575J0D01*
G01X87965D01*
G03X86350Y160429I0J-1614D01*
G01Y157575D01*
G01X89362Y185819D02*
Y183063D01*
X84638D01*
Y185819D01*
G01X89362Y188181D02*
Y190937D01*
X84638D01*
Y188181D01*
G01X99150Y154425D02*
Y151532D01*
G02X97575Y149957I-1575J0D01*
G01X94465D01*
G02X92850Y151571I0J1614D01*
G01Y154425D01*
G01X99150Y157575D02*
Y160468D01*
G03X97575Y162043I-1575J0D01*
G01X94465D01*
G03X92850Y160429I0J-1614D01*
G01Y157575D01*
G01X316181Y108862D02*
X318937D01*
Y104138D01*
X316181D01*
G01X313819Y108862D02*
X311063D01*
Y104138D01*
X313819D01*
G01X316181Y104362D02*
X318937D01*
Y99638D01*
X316181D01*
G01X313819Y104362D02*
X311063D01*
Y99638D01*
X313819D01*
G01X316181Y99362D02*
X318937D01*
Y94638D01*
X316181D01*
G01X313819Y99362D02*
X311063D01*
Y94638D01*
X313819D01*
G01X316181Y122362D02*
X318937D01*
Y117638D01*
X316181D01*
G01X313819Y122362D02*
X311063D01*
Y117638D01*
X313819D01*
G01X316181Y117862D02*
X318937D01*
Y113138D01*
X316181D01*
G01X313819Y117862D02*
X311063D01*
Y113138D01*
X313819D01*
G01X316181Y113362D02*
X318937D01*
Y108638D01*
X316181D01*
G01X313819Y113362D02*
X311063D01*
Y108638D01*
X313819D01*
G01X316181Y140862D02*
X318937D01*
Y136138D01*
X316181D01*
G01X313819Y140862D02*
X311063D01*
Y136138D01*
X313819D01*
G01X316181Y136362D02*
X318937D01*
Y131638D01*
X316181D01*
G01X313819Y136362D02*
X311063D01*
Y131638D01*
X313819D01*
G01X316181Y126862D02*
X318937D01*
Y122138D01*
X316181D01*
G01X313819Y126862D02*
X311063D01*
Y122138D01*
X313819D01*
G01X316181Y131362D02*
X318937D01*
Y126638D01*
X316181D01*
G01X313819Y131362D02*
X311063D01*
Y126638D01*
X313819D01*
G01X316181Y149862D02*
X318937D01*
Y145138D01*
X316181D01*
G01X313819Y149862D02*
X311063D01*
Y145138D01*
X313819D01*
G01X316181Y145362D02*
X318937D01*
Y140638D01*
X316181D01*
G01X313819Y145362D02*
X311063D01*
Y140638D01*
X313819D01*
M02*
