G04 ================== begin FILE IDENTIFICATION RECORD ==================*
G04 Layout Name:  H:/07_Auto_Car/01_HW/Main/Layout/Auto_Car_17_4.brd*
G04 Film Name:    11-DRILL*
G04 File Format:  Gerber RS274X*
G04 File Origin:  Cadence Allegro 17.4-S027*
G04 Origin Date:  Sun Mar 20 00:14:51 2022*
G04 *
G04 Layer:  MANUFACTURING/NCLEGEND-1-4*
G04 Layer:  BOARD GEOMETRY/CUTOUT*
G04 Layer:  MANUFACTURING/NCDRILL_LEGEND*
G04 Layer:  MANUFACTURING/NCDRILL_FIGURE*
G04 *
G04 Offset:    (0.000 0.000)*
G04 Mirror:    No*
G04 Mode:      Positive*
G04 Rotation:  0*
G04 FullContactRelief:  No*
G04 UndefLineWidth:     6.000*
G04 ================== end FILE IDENTIFICATION RECORD ====================*
%FSLAX25Y25*MOIN*%
%IR0*IPPOS*OFA0.00000B0.00000*MIA0B0*SFA1.00000B1.00000*%
%AMMACRO14*
1,1,.006,-.011799,-.021652*
20,1,.006,-.011799,-.021652,-.011799,.021652,0.0*
1,1,.006,-.011799,.021652*
20,1,.006,-.011799,.021652,-.01162,.023701,0.0*
1,1,.006,-.01162,.023701*
20,1,.006,-.01162,.023701,-.011087,.025687,0.0*
1,1,.006,-.011087,.025687*
20,1,.006,-.011087,.025687,-.010218,.027551,0.0*
1,1,.006,-.010218,.027551*
20,1,.006,-.010218,.027551,-.009039,.029236,0.0*
1,1,.006,-.009039,.029236*
20,1,.006,-.009039,.029236,-.007584,.030691,0.0*
1,1,.006,-.007584,.030691*
20,1,.006,-.007584,.030691,-.0059,.03187,0.0*
1,1,.006,-.0059,.03187*
20,1,.006,-.0059,.03187,-.004035,.032739,0.0*
1,1,.006,-.004035,.032739*
20,1,.006,-.004035,.032739,-.002049,.033272,0.0*
1,1,.006,-.002049,.033272*
20,1,.006,-.002049,.033272,0.0,.033451,0.0*
1,1,.006,0.0,.033451*
20,1,.006,0.0,.033451,.002049,.033272,0.0*
1,1,.006,.002049,.033272*
20,1,.006,.002049,.033272,.004035,.032739,0.0*
1,1,.006,.004035,.032739*
20,1,.006,.004035,.032739,.005899,.03187,0.0*
1,1,.006,.005899,.03187*
20,1,.006,.005899,.03187,.007584,.030691,0.0*
1,1,.006,.007584,.030691*
20,1,.006,.007584,.030691,.009039,.029236,0.0*
1,1,.006,.009039,.029236*
20,1,.006,.009039,.029236,.010218,.027552,0.0*
1,1,.006,.010218,.027552*
20,1,.006,.010218,.027552,.011087,.025687,0.0*
1,1,.006,.011087,.025687*
20,1,.006,.011087,.025687,.01162,.023701,0.0*
1,1,.006,.01162,.023701*
20,1,.006,.01162,.023701,.011799,.021652,0.0*
1,1,.006,.011799,.021652*
20,1,.006,.011799,.021652,.011799,-.021652,0.0*
1,1,.006,.011799,-.021652*
20,1,.006,.011799,-.021652,.01162,-.023701,0.0*
1,1,.006,.01162,-.023701*
20,1,.006,.01162,-.023701,.011087,-.025687,0.0*
1,1,.006,.011087,-.025687*
20,1,.006,.011087,-.025687,.010218,-.027551,0.0*
1,1,.006,.010218,-.027551*
20,1,.006,.010218,-.027551,.009039,-.029236,0.0*
1,1,.006,.009039,-.029236*
20,1,.006,.009039,-.029236,.007584,-.030691,0.0*
1,1,.006,.007584,-.030691*
20,1,.006,.007584,-.030691,.0059,-.03187,0.0*
1,1,.006,.0059,-.03187*
20,1,.006,.0059,-.03187,.004035,-.032739,0.0*
1,1,.006,.004035,-.032739*
20,1,.006,.004035,-.032739,.002049,-.033272,0.0*
1,1,.006,.002049,-.033272*
20,1,.006,.002049,-.033272,0.0,-.033451,0.0*
1,1,.006,0.0,-.033451*
20,1,.006,0.0,-.033451,-.002049,-.033272,0.0*
1,1,.006,-.002049,-.033272*
20,1,.006,-.002049,-.033272,-.004035,-.032739,0.0*
1,1,.006,-.004035,-.032739*
20,1,.006,-.004035,-.032739,-.005899,-.03187,0.0*
1,1,.006,-.005899,-.03187*
20,1,.006,-.005899,-.03187,-.007584,-.030691,0.0*
1,1,.006,-.007584,-.030691*
20,1,.006,-.007584,-.030691,-.009039,-.029236,0.0*
1,1,.006,-.009039,-.029236*
20,1,.006,-.009039,-.029236,-.010218,-.027552,0.0*
1,1,.006,-.010218,-.027552*
20,1,.006,-.010218,-.027552,-.011087,-.025687,0.0*
1,1,.006,-.011087,-.025687*
20,1,.006,-.011087,-.025687,-.01162,-.023701,0.0*
1,1,.006,-.01162,-.023701*
20,1,.006,-.01162,-.023701,-.011799,-.021652,0.0*
1,1,.006,-.011799,-.021652*
1,1,.006,-.0059,-.005899*
20,1,.006,-.0059,-.005899,-.007473,-.005702,0.0*
1,1,.006,-.007473,-.005702*
20,1,.006,-.007473,-.005702,-.008849,-.004916,0.0*
1,1,.006,-.008849,-.004916*
20,1,.006,-.008849,-.004916,-.010029,-.003736,0.0*
1,1,.006,-.010029,-.003736*
20,1,.006,-.010029,-.003736,-.010816,-.002359,0.0*
1,1,.006,-.010816,-.002359*
20,1,.006,-.010816,-.002359,-.011209,-.000786,0.0*
1,1,.006,-.011209,-.000786*
20,1,.006,-.011209,-.000786,-.011209,.000787,0.0*
1,1,.006,-.011209,.000787*
20,1,.006,-.011209,.000787,-.010816,.00236,0.0*
1,1,.006,-.010816,.00236*
20,1,.006,-.010816,.00236,-.010029,.003737,0.0*
1,1,.006,-.010029,.003737*
20,1,.006,-.010029,.003737,-.008849,.004917,0.0*
1,1,.006,-.008849,.004917*
20,1,.006,-.008849,.004917,-.007473,.005703,0.0*
1,1,.006,-.007473,.005703*
20,1,.006,-.007473,.005703,-.0059,.0059,0.0*
1,1,.006,-.0059,.0059*
20,1,.006,-.0059,.0059,-.004326,.005703,0.0*
1,1,.006,-.004326,.005703*
20,1,.006,-.004326,.005703,-.00295,.004917,0.0*
1,1,.006,-.00295,.004917*
20,1,.006,-.00295,.004917,-.00177,.003737,0.0*
1,1,.006,-.00177,.003737*
20,1,.006,-.00177,.003737,-.000983,.00236,0.0*
1,1,.006,-.000983,.00236*
20,1,.006,-.000983,.00236,-.00059,.000787,0.0*
1,1,.006,-.00059,.000787*
20,1,.006,-.00059,.000787,-.00059,-.000786,0.0*
1,1,.006,-.00059,-.000786*
20,1,.006,-.00059,-.000786,-.000983,-.002359,0.0*
1,1,.006,-.000983,-.002359*
20,1,.006,-.000983,-.002359,-.00177,-.003736,0.0*
1,1,.006,-.00177,-.003736*
20,1,.006,-.00177,-.003736,-.00295,-.004916,0.0*
1,1,.006,-.00295,-.004916*
20,1,.006,-.00295,-.004916,-.004326,-.005702,0.0*
1,1,.006,-.004326,-.005702*
20,1,.006,-.004326,-.005702,-.0059,-.005899,0.0*
1,1,.006,-.0059,-.005899*
1,1,.006,.007474,.000394*
20,1,.006,.007474,.000394,.00826,.000984,0.0*
1,1,.006,.00826,.000984*
20,1,.006,.00826,.000984,.00885,.001967,0.0*
1,1,.006,.00885,.001967*
20,1,.006,.00885,.001967,.009244,.003344,0.0*
1,1,.006,.009244,.003344*
20,1,.006,.009244,.003344,.00885,.004523,0.0*
1,1,.006,.00885,.004523*
20,1,.006,.00885,.004523,.008064,.00531,0.0*
1,1,.006,.008064,.00531*
20,1,.006,.008064,.00531,.006687,.0059,0.0*
1,1,.006,.006687,.0059*
20,1,.006,.006687,.0059,.001378,.0059,0.0*
1,1,.006,.001378,.0059*
20,1,.006,.001378,.0059,.001378,-.005899,0.0*
1,1,.006,.001378,-.005899*
20,1,.006,.001378,-.005899,.007867,-.005899,0.0*
1,1,.006,.007867,-.005899*
20,1,.006,.007867,-.005899,.009244,-.005113,0.0*
1,1,.006,.009244,-.005113*
20,1,.006,.009244,-.005113,.01003,-.003933,0.0*
1,1,.006,.01003,-.003933*
20,1,.006,.01003,-.003933,.010423,-.002556,0.0*
1,1,.006,.010423,-.002556*
20,1,.006,.010423,-.002556,.01003,-.00118,0.0*
1,1,.006,.01003,-.00118*
20,1,.006,.01003,-.00118,.00885,0.0,0.0*
1,1,.006,.00885,0.0*
20,1,.006,.00885,0.0,.007474,.000394,0.0*
1,1,.006,.007474,.000394*
20,1,.006,.007474,.000394,.001378,.000394,0.0*
1,1,.006,.001378,.000394*
%
%ADD14MACRO14*%
%AMMACRO10*
1,1,.006,.006,.006*
20,1,.006,.006,.006,.006,-.006,0.0*
1,1,.006,.006,-.006*
20,1,.006,.006,-.006,-.006,-.006,0.0*
1,1,.006,-.006,-.006*
20,1,.006,-.006,-.006,-.006,.006,0.0*
1,1,.006,-.006,.006*
20,1,.006,-.006,.006,.006,.006,0.0*
1,1,.006,.006,.006*
%
%ADD10MACRO10*%
%AMMACRO12*
1,1,.006,-.011799,-.01575*
20,1,.006,-.011799,-.01575,-.011799,.01575,0.0*
1,1,.006,-.011799,.01575*
20,1,.006,-.011799,.01575,-.01162,.017799,0.0*
1,1,.006,-.01162,.017799*
20,1,.006,-.01162,.017799,-.011087,.019785,0.0*
1,1,.006,-.011087,.019785*
20,1,.006,-.011087,.019785,-.010218,.021649,0.0*
1,1,.006,-.010218,.021649*
20,1,.006,-.010218,.021649,-.009039,.023334,0.0*
1,1,.006,-.009039,.023334*
20,1,.006,-.009039,.023334,-.007584,.024789,0.0*
1,1,.006,-.007584,.024789*
20,1,.006,-.007584,.024789,-.0059,.025968,0.0*
1,1,.006,-.0059,.025968*
20,1,.006,-.0059,.025968,-.004035,.026837,0.0*
1,1,.006,-.004035,.026837*
20,1,.006,-.004035,.026837,-.002049,.02737,0.0*
1,1,.006,-.002049,.02737*
20,1,.006,-.002049,.02737,0.0,.027549,0.0*
1,1,.006,0.0,.027549*
20,1,.006,0.0,.027549,.002049,.02737,0.0*
1,1,.006,.002049,.02737*
20,1,.006,.002049,.02737,.004035,.026837,0.0*
1,1,.006,.004035,.026837*
20,1,.006,.004035,.026837,.005899,.025968,0.0*
1,1,.006,.005899,.025968*
20,1,.006,.005899,.025968,.007584,.024789,0.0*
1,1,.006,.007584,.024789*
20,1,.006,.007584,.024789,.009039,.023334,0.0*
1,1,.006,.009039,.023334*
20,1,.006,.009039,.023334,.010218,.02165,0.0*
1,1,.006,.010218,.02165*
20,1,.006,.010218,.02165,.011087,.019785,0.0*
1,1,.006,.011087,.019785*
20,1,.006,.011087,.019785,.01162,.017799,0.0*
1,1,.006,.01162,.017799*
20,1,.006,.01162,.017799,.011799,.01575,0.0*
1,1,.006,.011799,.01575*
20,1,.006,.011799,.01575,.011799,-.01575,0.0*
1,1,.006,.011799,-.01575*
20,1,.006,.011799,-.01575,.01162,-.017799,0.0*
1,1,.006,.01162,-.017799*
20,1,.006,.01162,-.017799,.011087,-.019785,0.0*
1,1,.006,.011087,-.019785*
20,1,.006,.011087,-.019785,.010218,-.021649,0.0*
1,1,.006,.010218,-.021649*
20,1,.006,.010218,-.021649,.009039,-.023334,0.0*
1,1,.006,.009039,-.023334*
20,1,.006,.009039,-.023334,.007584,-.024789,0.0*
1,1,.006,.007584,-.024789*
20,1,.006,.007584,-.024789,.0059,-.025968,0.0*
1,1,.006,.0059,-.025968*
20,1,.006,.0059,-.025968,.004035,-.026837,0.0*
1,1,.006,.004035,-.026837*
20,1,.006,.004035,-.026837,.002049,-.02737,0.0*
1,1,.006,.002049,-.02737*
20,1,.006,.002049,-.02737,0.0,-.027549,0.0*
1,1,.006,0.0,-.027549*
20,1,.006,0.0,-.027549,-.002049,-.02737,0.0*
1,1,.006,-.002049,-.02737*
20,1,.006,-.002049,-.02737,-.004035,-.026837,0.0*
1,1,.006,-.004035,-.026837*
20,1,.006,-.004035,-.026837,-.005899,-.025968,0.0*
1,1,.006,-.005899,-.025968*
20,1,.006,-.005899,-.025968,-.007584,-.024789,0.0*
1,1,.006,-.007584,-.024789*
20,1,.006,-.007584,-.024789,-.009039,-.023334,0.0*
1,1,.006,-.009039,-.023334*
20,1,.006,-.009039,-.023334,-.010218,-.02165,0.0*
1,1,.006,-.010218,-.02165*
20,1,.006,-.010218,-.02165,-.011087,-.019785,0.0*
1,1,.006,-.011087,-.019785*
20,1,.006,-.011087,-.019785,-.01162,-.017799,0.0*
1,1,.006,-.01162,-.017799*
20,1,.006,-.01162,-.017799,-.011799,-.01575,0.0*
1,1,.006,-.011799,-.01575*
1,1,.006,-.0059,-.005899*
20,1,.006,-.0059,-.005899,-.007473,-.005702,0.0*
1,1,.006,-.007473,-.005702*
20,1,.006,-.007473,-.005702,-.008849,-.004916,0.0*
1,1,.006,-.008849,-.004916*
20,1,.006,-.008849,-.004916,-.010029,-.003736,0.0*
1,1,.006,-.010029,-.003736*
20,1,.006,-.010029,-.003736,-.010816,-.002359,0.0*
1,1,.006,-.010816,-.002359*
20,1,.006,-.010816,-.002359,-.011209,-.000786,0.0*
1,1,.006,-.011209,-.000786*
20,1,.006,-.011209,-.000786,-.011209,.000787,0.0*
1,1,.006,-.011209,.000787*
20,1,.006,-.011209,.000787,-.010816,.00236,0.0*
1,1,.006,-.010816,.00236*
20,1,.006,-.010816,.00236,-.010029,.003737,0.0*
1,1,.006,-.010029,.003737*
20,1,.006,-.010029,.003737,-.008849,.004917,0.0*
1,1,.006,-.008849,.004917*
20,1,.006,-.008849,.004917,-.007473,.005703,0.0*
1,1,.006,-.007473,.005703*
20,1,.006,-.007473,.005703,-.0059,.0059,0.0*
1,1,.006,-.0059,.0059*
20,1,.006,-.0059,.0059,-.004326,.005703,0.0*
1,1,.006,-.004326,.005703*
20,1,.006,-.004326,.005703,-.00295,.004917,0.0*
1,1,.006,-.00295,.004917*
20,1,.006,-.00295,.004917,-.00177,.003737,0.0*
1,1,.006,-.00177,.003737*
20,1,.006,-.00177,.003737,-.000983,.00236,0.0*
1,1,.006,-.000983,.00236*
20,1,.006,-.000983,.00236,-.00059,.000787,0.0*
1,1,.006,-.00059,.000787*
20,1,.006,-.00059,.000787,-.00059,-.000786,0.0*
1,1,.006,-.00059,-.000786*
20,1,.006,-.00059,-.000786,-.000983,-.002359,0.0*
1,1,.006,-.000983,-.002359*
20,1,.006,-.000983,-.002359,-.00177,-.003736,0.0*
1,1,.006,-.00177,-.003736*
20,1,.006,-.00177,-.003736,-.00295,-.004916,0.0*
1,1,.006,-.00295,-.004916*
20,1,.006,-.00295,-.004916,-.004326,-.005702,0.0*
1,1,.006,-.004326,-.005702*
20,1,.006,-.004326,-.005702,-.0059,-.005899,0.0*
1,1,.006,-.0059,-.005899*
1,1,.006,.000984,-.005899*
20,1,.006,.000984,-.005899,.0059,.0059,0.0*
1,1,.006,.0059,.0059*
20,1,.006,.0059,.0059,.010817,-.005899,0.0*
1,1,.006,.010817,-.005899*
1,1,.006,.009047,-.00177*
20,1,.006,.009047,-.00177,.002754,-.00177,0.0*
1,1,.006,.002754,-.00177*
%
%ADD12MACRO12*%
%AMMACRO15*
1,1,.006,.0125,0.0*
20,1,.006,.0125,0.0,0.0,-.0125,0.0*
1,1,.006,0.0,-.0125*
20,1,.006,0.0,-.0125,-.0125,0.0,0.0*
1,1,.006,-.0125,0.0*
20,1,.006,-.0125,0.0,0.0,.0125,0.0*
1,1,.006,0.0,.0125*
20,1,.006,0.0,.0125,.0125,0.0,0.0*
1,1,.006,.0125,0.0*
%
%ADD15MACRO15*%
%AMMACRO19*
1,1,.006,.004,0.0*
20,1,.006,.004,0.0,-.004,0.0,0.0*
1,1,.006,-.004,0.0*
1,1,.006,0.0,.004*
20,1,.006,0.0,.004,0.0,-.004,0.0*
1,1,.006,0.0,-.004*
%
%ADD19MACRO19*%
%AMMACRO17*
1,1,.006,.004485,-.010827*
20,1,.006,.004485,-.010827,-.004485,-.010827,0.0*
1,1,.006,-.004485,-.010827*
20,1,.006,-.004485,-.010827,-.010827,-.004485,0.0*
1,1,.006,-.010827,-.004485*
20,1,.006,-.010827,-.004485,-.010827,.004485,0.0*
1,1,.006,-.010827,.004485*
20,1,.006,-.010827,.004485,-.004485,.010827,0.0*
1,1,.006,-.004485,.010827*
20,1,.006,-.004485,.010827,.004485,.010827,0.0*
1,1,.006,.004485,.010827*
20,1,.006,.004485,.010827,.010827,.004485,0.0*
1,1,.006,.010827,.004485*
20,1,.006,.010827,.004485,.010827,-.004485,0.0*
1,1,.006,.010827,-.004485*
20,1,.006,.010827,-.004485,.004485,-.010827,0.0*
1,1,.006,.004485,-.010827*
%
%ADD17MACRO17*%
%AMMACRO18*
1,1,.006,.006,0.0*
20,1,.006,.006,0.0,.003,.005196,0.0*
1,1,.006,.003,.005196*
20,1,.006,.003,.005196,-.003,.005196,0.0*
1,1,.006,-.003,.005196*
20,1,.006,-.003,.005196,-.006,0.0,0.0*
1,1,.006,-.006,0.0*
20,1,.006,-.006,0.0,-.003,-.005196,0.0*
1,1,.006,-.003,-.005196*
20,1,.006,-.003,-.005196,.003,-.005196,0.0*
1,1,.006,.003,-.005196*
20,1,.006,.003,-.005196,.006,0.0,0.0*
1,1,.006,.006,0.0*
%
%ADD18MACRO18*%
%AMMACRO16*
1,1,.006,0.0,.00689*
20,1,.006,0.0,.00689,-.005967,.003445,0.0*
1,1,.006,-.005967,.003445*
20,1,.006,-.005967,.003445,-.005967,-.003445,0.0*
1,1,.006,-.005967,-.003445*
20,1,.006,-.005967,-.003445,0.0,-.00689,0.0*
1,1,.006,0.0,-.00689*
20,1,.006,0.0,-.00689,.005967,-.003445,0.0*
1,1,.006,.005967,-.003445*
20,1,.006,.005967,-.003445,.005967,.003445,0.0*
1,1,.006,.005967,.003445*
20,1,.006,.005967,.003445,0.0,.00689,0.0*
1,1,.006,0.0,.00689*
%
%ADD16MACRO16*%
%AMMACRO11*
1,1,.006,0.0,.019701*
20,1,.006,0.0,.019701,.017062,-.00985,0.0*
1,1,.006,.017062,-.00985*
20,1,.006,.017062,-.00985,-.017062,-.00985,0.0*
1,1,.006,-.017062,-.00985*
20,1,.006,-.017062,-.00985,0.0,.019701,0.0*
1,1,.006,0.0,.019701*
%
%ADD11MACRO11*%
%AMMACRO13*
1,1,.006,-.00345,.010349*
20,1,.006,-.00345,.010349,.00345,.010349,0.0*
1,1,.006,.00345,.010349*
20,1,.006,.00345,.010349,.005247,.010192,0.0*
1,1,.006,.005247,.010192*
20,1,.006,.005247,.010192,.00699,.009725,0.0*
1,1,.006,.00699,.009725*
20,1,.006,.00699,.009725,.008624,.008962,0.0*
1,1,.006,.008624,.008962*
20,1,.006,.008624,.008962,.010102,.007928,0.0*
1,1,.006,.010102,.007928*
20,1,.006,.010102,.007928,.011378,.006652,0.0*
1,1,.006,.011378,.006652*
20,1,.006,.011378,.006652,.012412,.005175,0.0*
1,1,.006,.012412,.005175*
20,1,.006,.012412,.005175,.013175,.00354,0.0*
1,1,.006,.013175,.00354*
20,1,.006,.013175,.00354,.013642,.001797,0.0*
1,1,.006,.013642,.001797*
20,1,.006,.013642,.001797,.013799,0.0,0.0*
1,1,.006,.013799,0.0*
20,1,.006,.013799,0.0,.013642,-.001797,0.0*
1,1,.006,.013642,-.001797*
20,1,.006,.013642,-.001797,.013175,-.00354,0.0*
1,1,.006,.013175,-.00354*
20,1,.006,.013175,-.00354,.012412,-.005174,0.0*
1,1,.006,.012412,-.005174*
20,1,.006,.012412,-.005174,.011378,-.006652,0.0*
1,1,.006,.011378,-.006652*
20,1,.006,.011378,-.006652,.010102,-.007928,0.0*
1,1,.006,.010102,-.007928*
20,1,.006,.010102,-.007928,.008625,-.008962,0.0*
1,1,.006,.008625,-.008962*
20,1,.006,.008625,-.008962,.00699,-.009725,0.0*
1,1,.006,.00699,-.009725*
20,1,.006,.00699,-.009725,.005247,-.010192,0.0*
1,1,.006,.005247,-.010192*
20,1,.006,.005247,-.010192,.00345,-.010349,0.0*
1,1,.006,.00345,-.010349*
20,1,.006,.00345,-.010349,-.00345,-.010349,0.0*
1,1,.006,-.00345,-.010349*
20,1,.006,-.00345,-.010349,-.005247,-.010192,0.0*
1,1,.006,-.005247,-.010192*
20,1,.006,-.005247,-.010192,-.00699,-.009725,0.0*
1,1,.006,-.00699,-.009725*
20,1,.006,-.00699,-.009725,-.008624,-.008962,0.0*
1,1,.006,-.008624,-.008962*
20,1,.006,-.008624,-.008962,-.010102,-.007928,0.0*
1,1,.006,-.010102,-.007928*
20,1,.006,-.010102,-.007928,-.011378,-.006652,0.0*
1,1,.006,-.011378,-.006652*
20,1,.006,-.011378,-.006652,-.012412,-.005175,0.0*
1,1,.006,-.012412,-.005175*
20,1,.006,-.012412,-.005175,-.013175,-.00354,0.0*
1,1,.006,-.013175,-.00354*
20,1,.006,-.013175,-.00354,-.013642,-.001797,0.0*
1,1,.006,-.013642,-.001797*
20,1,.006,-.013642,-.001797,-.013799,0.0,0.0*
1,1,.006,-.013799,0.0*
20,1,.006,-.013799,0.0,-.013642,.001797,0.0*
1,1,.006,-.013642,.001797*
20,1,.006,-.013642,.001797,-.013175,.00354,0.0*
1,1,.006,-.013175,.00354*
20,1,.006,-.013175,.00354,-.012412,.005174,0.0*
1,1,.006,-.012412,.005174*
20,1,.006,-.012412,.005174,-.011378,.006652,0.0*
1,1,.006,-.011378,.006652*
20,1,.006,-.011378,.006652,-.010102,.007928,0.0*
1,1,.006,-.010102,.007928*
20,1,.006,-.010102,.007928,-.008625,.008962,0.0*
1,1,.006,-.008625,.008962*
20,1,.006,-.008625,.008962,-.00699,.009725,0.0*
1,1,.006,-.00699,.009725*
20,1,.006,-.00699,.009725,-.005247,.010192,0.0*
1,1,.006,-.005247,.010192*
20,1,.006,-.005247,.010192,-.00345,.010349,0.0*
1,1,.006,-.00345,.010349*
%
%ADD13MACRO13*%
%ADD20C,.004*%
%ADD21C,.006*%
G75*
%LPD*%
G75*
G54D10*
X6521Y6979D03*
X7227Y22727D03*
X2732Y53268D03*
X3000Y47500D03*
X3500Y59000D03*
X6032Y78468D03*
X4000Y89000D03*
Y86000D03*
X6000Y84000D03*
X6500Y88000D03*
X3000Y84000D03*
X4000Y92000D03*
X6500Y90500D03*
Y93000D03*
X15479Y6979D03*
X8500Y17000D03*
X11072Y12928D03*
X12000Y30000D03*
X8500Y28500D03*
Y47000D03*
X15000Y48500D03*
X15500Y52500D03*
X18968Y52370D03*
X8500Y59500D03*
X12500Y59000D03*
X13032Y70032D03*
X20968D03*
X10500Y75000D03*
X17500D03*
X9500Y88000D03*
X12000D03*
X14500D03*
X11000Y101500D03*
X17500Y102000D03*
X16922Y164000D03*
X22000Y163500D03*
X17689Y180811D03*
X35256Y35939D03*
X31745D03*
X35339Y44668D03*
X31828D03*
X31465Y137465D03*
X29500Y132000D03*
X39737Y164763D03*
X39468Y154532D03*
X27000Y164000D03*
X30500Y163611D03*
X36000Y181000D03*
X31469Y179469D03*
X37500Y191500D03*
X31968Y191468D03*
X43000Y-71553D03*
X40000Y7500D03*
X50500Y6500D03*
X45128Y2128D03*
Y11872D03*
X49273Y22727D03*
X45128Y17872D03*
Y28128D03*
X41500Y32000D03*
X44500Y31500D03*
X40032Y101968D03*
X53500Y148700D03*
X49000Y158500D03*
X45532Y155032D03*
X53516Y164016D03*
X43000Y164000D03*
X40000Y180000D03*
X46500Y178000D03*
X49000Y182500D03*
X45000Y181000D03*
X41000Y189500D03*
X71500Y3000D03*
X69000D03*
X60500Y14500D03*
X67000D03*
X66500Y82000D03*
X69000D03*
X71500D03*
Y79500D03*
X69000D03*
X66500D03*
X62500Y94500D03*
X59032Y90532D03*
X65500Y119000D03*
X61000Y113500D03*
X60035Y124965D03*
X66465D03*
X64000Y153000D03*
X68500D03*
X59000Y160000D03*
X63500Y164000D03*
X68500Y163500D03*
X61784Y179784D03*
X71000Y182000D03*
X63000Y185000D03*
X56272Y179772D03*
X71000Y186500D03*
X56500Y191000D03*
X86500Y3000D03*
X84000D03*
X74000D03*
X81500D03*
X79000D03*
X76500D03*
X76000Y72000D03*
X82500D03*
X83500Y108500D03*
X81000D03*
X78500D03*
Y111000D03*
X81000D03*
X83500D03*
X86000Y108500D03*
Y111000D03*
X78535Y135465D03*
X85500Y125000D03*
X85032Y152968D03*
X75500Y162500D03*
X80500Y163000D03*
X81500Y180500D03*
X86587Y179587D03*
X87000Y191000D03*
X84173Y188673D03*
X101500Y3000D03*
X99000D03*
X91500D03*
X89000D03*
X96500D03*
X94000D03*
X102500Y18000D03*
X100000D03*
X97500Y21000D03*
Y23500D03*
Y26000D03*
X100000Y39000D03*
X102500D03*
X97500Y36000D03*
Y31000D03*
Y33500D03*
Y28500D03*
X88000Y74000D03*
X95000Y98000D03*
X92827Y100327D03*
X101000Y95500D03*
X98500Y92500D03*
X101579Y92421D03*
X91000Y108500D03*
X88500D03*
Y111000D03*
X91000D03*
X93500Y108500D03*
Y111000D03*
X98500Y108500D03*
X96000D03*
Y111000D03*
X98500D03*
X88173Y122173D03*
X89500Y149000D03*
X96000D03*
X99968Y152968D03*
X94500Y163500D03*
X89343Y164157D03*
X93000Y181000D03*
X99000Y181500D03*
X89673Y188673D03*
X119000Y3000D03*
X116500D03*
X114000D03*
X106500D03*
X104000D03*
X111500D03*
X109000D03*
X107500Y18000D03*
X105000D03*
X112500D03*
X110000D03*
X117500D03*
X115000D03*
X105000Y39000D03*
X107500D03*
X115000D03*
X117500D03*
X110000D03*
X112500D03*
X104500Y58000D03*
X108673Y58173D03*
X107500Y95000D03*
X103532Y116532D03*
X111468D03*
X134000Y3000D03*
X131500D03*
X129000D03*
X124000D03*
X121500D03*
X126500D03*
X122500Y18000D03*
X120000D03*
X127500D03*
X125000D03*
X130000D03*
X132500D03*
X135000D03*
X120000Y39000D03*
X122500D03*
X125000D03*
X127500D03*
X130000D03*
X132500D03*
X135000D03*
X133500Y81000D03*
Y85500D03*
X126327Y78673D03*
X133500Y90500D03*
X120500Y98000D03*
X121500Y145500D03*
X120740Y142260D03*
X121500Y139000D03*
X134035Y149465D03*
Y143035D03*
X130500Y149000D03*
X132500Y170000D03*
X134500Y207500D03*
X135000Y216000D03*
X149000Y3000D03*
X146500D03*
X144000D03*
X139000D03*
X136500D03*
X141500D03*
X137500Y18000D03*
X140000D03*
X142500D03*
X143000Y21000D03*
Y23500D03*
Y26000D03*
X137500Y39000D03*
X140000D03*
X142500D03*
X143000Y36000D03*
Y31000D03*
Y33500D03*
Y28500D03*
X141500Y73500D03*
X147000Y70500D03*
X148000Y118500D03*
X150500Y110673D03*
Y114000D03*
X139827Y132673D03*
X150500Y122000D03*
X148535Y151965D03*
Y147035D03*
X144760Y149740D03*
X137500Y149000D03*
X146500Y166000D03*
X145000Y155000D03*
X148250Y160250D03*
X138000Y170000D03*
X143500Y201000D03*
X147500Y205000D03*
X166500Y3000D03*
X164000D03*
X161500D03*
X159000D03*
X156500D03*
X154000D03*
X151500D03*
X152500Y44000D03*
X157827Y56827D03*
X164000Y117000D03*
X151500Y126000D03*
X165500Y122000D03*
X151500Y129000D03*
X163500Y142000D03*
X166000Y141500D03*
X160108Y154149D03*
X156500Y206000D03*
X164500Y211000D03*
X159500Y208500D03*
X174000Y3000D03*
X181500D03*
X179000D03*
X176500D03*
X171500D03*
X169000D03*
X173327Y56827D03*
X170000Y54000D03*
X173327Y51827D03*
X176673Y51673D03*
X182000Y56787D03*
X168000Y67500D03*
X182000Y62000D03*
X179500Y60000D03*
X171468Y131968D03*
X169000Y141980D03*
X175000Y142000D03*
X178535Y150965D03*
X175500Y150889D03*
X182000Y151318D03*
X173000Y168500D03*
X168500Y168000D03*
X175500Y173000D03*
X179500Y170000D03*
X176500Y198000D03*
X181500Y188500D03*
X180400Y206958D03*
X168468Y206032D03*
X189000Y3000D03*
X196500D03*
X194000D03*
X191500D03*
X186500D03*
X184000D03*
X198000Y22500D03*
X189500Y24000D03*
X193327Y33020D03*
X196673Y33500D03*
X197500Y42000D03*
X186000Y31500D03*
X187500Y36500D03*
X195000Y40500D03*
X188000Y50500D03*
X186500Y53500D03*
X190500Y48000D03*
X189827Y62327D03*
X196000Y62000D03*
X193500Y72500D03*
X192000Y88500D03*
X193053Y78500D03*
X193000Y75500D03*
Y83500D03*
X194500Y136500D03*
X196760Y152240D03*
X189260D03*
X193035Y154965D03*
X184000Y170000D03*
X186500Y183500D03*
X196500Y200000D03*
X184500Y188000D03*
X186500Y202500D03*
X206500Y3000D03*
X204000D03*
X214000D03*
X211500D03*
X209000D03*
X201500D03*
X199000D03*
X211500Y30500D03*
X208000Y31000D03*
X200500Y41500D03*
X211000Y56000D03*
Y51000D03*
Y60500D03*
X213500Y81947D03*
X204000Y75000D03*
X213500Y78000D03*
X204500Y80000D03*
X206173Y102827D03*
X199500Y112000D03*
Y115500D03*
X211500Y109000D03*
X214500Y138947D03*
X209500Y139500D03*
X204500D03*
X224000Y3000D03*
X221500D03*
X219000D03*
X229000D03*
X226500D03*
X216500D03*
X218232Y14732D03*
X226000Y30000D03*
X223500Y28500D03*
X219500Y56000D03*
X215000Y51000D03*
X219500D03*
X215000Y56000D03*
Y60500D03*
X219500D03*
X226500Y79000D03*
X221500Y79500D03*
X219500Y76500D03*
X216000Y90500D03*
X216980Y102827D03*
X220953Y113047D03*
X228500Y117500D03*
X215047Y109053D03*
X222921Y110000D03*
X228734Y120715D03*
X218984Y110000D03*
X220500Y134500D03*
X229500Y134000D03*
X223500Y137000D03*
X229157Y127115D03*
X219500Y138947D03*
X224161Y174339D03*
X227661Y177339D03*
X223661Y206161D03*
X239000Y3000D03*
X236500D03*
X234000D03*
X244000D03*
X241500D03*
X231500D03*
X232500Y18000D03*
X237000Y30000D03*
X236000Y41500D03*
X239827Y36173D03*
X234500Y46500D03*
X236500Y54500D03*
Y58000D03*
X233500Y56000D03*
X234500Y60500D03*
X236500Y65000D03*
X235500Y68500D03*
X236000Y99500D03*
X239500Y100500D03*
X237500Y96500D03*
X243000Y101000D03*
X233500Y91500D03*
X236000Y94000D03*
X237000Y108000D03*
X239500Y108500D03*
X243000Y108000D03*
X231500Y129500D03*
X245500Y201000D03*
X245000Y197000D03*
X256500Y3000D03*
X254000D03*
X251500D03*
X249000D03*
X261500D03*
X259000D03*
X246500D03*
X260000Y5500D03*
Y8000D03*
Y10500D03*
X257000Y8000D03*
Y5500D03*
X254000D03*
Y8000D03*
X248000D03*
Y5500D03*
X251000D03*
Y8000D03*
X257000Y10500D03*
X254000D03*
X248000D03*
X251000D03*
X260000Y23000D03*
Y20500D03*
Y18000D03*
Y15500D03*
Y13000D03*
Y25500D03*
X257000Y13000D03*
X254000D03*
X248000D03*
X251000D03*
X260000Y41000D03*
Y38500D03*
Y36000D03*
Y33500D03*
Y31000D03*
Y28000D03*
X254500Y42500D03*
X251520Y45326D03*
X258000Y51500D03*
X260500D03*
Y46500D03*
X258000D03*
X260000Y43500D03*
X256000Y60000D03*
X247500Y74000D03*
X256500Y71000D03*
Y67000D03*
X254500Y92500D03*
X256000Y127500D03*
X258500D03*
X261000D03*
X256000Y130000D03*
X261000D03*
X258500D03*
X256000Y132500D03*
Y135000D03*
X258500Y132500D03*
X261000D03*
Y135000D03*
X258500D03*
X261075Y161925D03*
X249965Y196465D03*
X269000Y10500D03*
Y8000D03*
Y5500D03*
Y3000D03*
X266500D03*
X264000D03*
X266000Y8000D03*
Y5500D03*
Y10500D03*
X263000Y8000D03*
Y5500D03*
Y10500D03*
X269000Y26000D03*
Y23500D03*
Y21000D03*
Y18500D03*
Y15500D03*
Y13000D03*
X266000Y15500D03*
Y18000D03*
Y20500D03*
Y23000D03*
Y25500D03*
Y13000D03*
X263000Y23500D03*
Y21000D03*
Y18500D03*
Y15500D03*
Y13000D03*
Y26000D03*
X269000Y41000D03*
Y38500D03*
Y36000D03*
Y33500D03*
Y31000D03*
Y28500D03*
X266000Y31000D03*
Y33500D03*
Y36000D03*
Y38500D03*
Y41000D03*
Y28000D03*
X263000Y41000D03*
Y38500D03*
Y36000D03*
Y33500D03*
Y31000D03*
Y28500D03*
Y51500D03*
X265500D03*
X268000D03*
Y46500D03*
X265500D03*
X263000D03*
X269000Y43500D03*
Y56500D03*
Y54000D03*
X265500D03*
Y56500D03*
X266000Y43500D03*
X263000D03*
X269000Y66500D03*
Y64000D03*
Y61500D03*
X277000Y73000D03*
X269000Y59000D03*
X265500D03*
Y61500D03*
X274500Y72500D03*
X264500Y90500D03*
X268000Y98500D03*
X275000Y101000D03*
X267000Y131500D03*
Y128000D03*
X270000Y127500D03*
X274500Y133000D03*
X263500Y127500D03*
Y130000D03*
Y132500D03*
Y135000D03*
X273147Y152845D03*
X263500Y155500D03*
X262500Y178500D03*
X264827Y176827D03*
X264423Y174102D03*
X271000Y175000D03*
X266000Y186000D03*
X268173Y188827D03*
X276673Y185827D03*
X266000Y195000D03*
X273035Y208965D03*
X268240Y205740D03*
X282000Y73000D03*
X279500D03*
X289500D03*
X287000D03*
X284500D03*
X292000D03*
X287532Y93532D03*
X293827Y94173D03*
X284500Y111000D03*
X291000Y108416D03*
X293500Y108500D03*
X283000Y126000D03*
X286000Y158500D03*
X282500Y157500D03*
X286500Y182000D03*
X282500Y208500D03*
X294500Y73000D03*
X309000Y97000D03*
X300500Y104000D03*
X305000Y100000D03*
X309500Y115500D03*
Y120000D03*
X305000Y108000D03*
X309500Y111000D03*
X298000Y122000D03*
X299500Y131000D03*
X298500Y136500D03*
X301400D03*
X309500Y129000D03*
Y124500D03*
Y134000D03*
Y138500D03*
Y143000D03*
Y147500D03*
X311000Y90000D03*
Y94500D03*
X310000Y108000D03*
X337000Y120500D03*
X339600Y125500D03*
X344000Y88500D03*
Y85500D03*
Y91500D03*
X342500Y125500D03*
G54D20*
G01X36117Y-55000D02*
Y-52000D01*
X37383D01*
G01X36917Y-53450D02*
X36117D01*
G01X38850Y-52000D02*
X39650D01*
G01X39250D02*
Y-55000D01*
G01X38850D02*
X39650D01*
G01X41950Y-53500D02*
X42617D01*
Y-54400D01*
X42417Y-54700D01*
X42183Y-54900D01*
X41850Y-55000D01*
X41517Y-54900D01*
X41283Y-54700D01*
X41083Y-54400D01*
X40950Y-54050D01*
X40883Y-53650D01*
Y-53300D01*
X40950Y-53000D01*
X41083Y-52650D01*
X41283Y-52350D01*
X41483Y-52150D01*
X41750Y-52000D01*
X41983D01*
X42250Y-52100D01*
X42450Y-52300D01*
G01X43517Y-52000D02*
Y-54150D01*
X43650Y-54600D01*
X43917Y-54900D01*
X44250Y-55000D01*
X44583Y-54900D01*
X44850Y-54600D01*
X44983Y-54150D01*
Y-52000D01*
G01X46083Y-55000D02*
Y-52000D01*
X46917D01*
X47183Y-52150D01*
X47350Y-52350D01*
X47417Y-52750D01*
X47350Y-53150D01*
X47150Y-53400D01*
X46917Y-53550D01*
X46083D01*
G01X46917D02*
X47417Y-55000D01*
G01X49917D02*
X48583D01*
Y-52000D01*
X49917D01*
G01X49383Y-53450D02*
X48583D01*
G01X56617Y-152086D02*
X56850Y-151735D01*
X57050Y-151535D01*
X57317Y-151435D01*
X57550Y-151535D01*
X57717Y-151735D01*
X57850Y-152035D01*
X57883Y-152385D01*
X57850Y-152685D01*
X57717Y-152986D01*
X57517Y-153235D01*
X57283Y-153335D01*
X57017Y-153235D01*
X56783Y-152936D01*
X56650Y-152485D01*
X56617Y-151985D01*
X56683Y-151336D01*
X56783Y-150985D01*
X56950Y-150635D01*
X57183Y-150385D01*
X57417Y-150335D01*
X57650Y-150435D01*
X57817Y-150685D01*
G01X59117Y-152086D02*
X59350Y-151735D01*
X59550Y-151535D01*
X59817Y-151435D01*
X60050Y-151535D01*
X60217Y-151735D01*
X60350Y-152035D01*
X60383Y-152385D01*
X60350Y-152685D01*
X60217Y-152986D01*
X60017Y-153235D01*
X59783Y-153335D01*
X59517Y-153235D01*
X59283Y-152936D01*
X59150Y-152485D01*
X59117Y-151985D01*
X59183Y-151336D01*
X59283Y-150985D01*
X59450Y-150635D01*
X59683Y-150385D01*
X59917Y-150335D01*
X60150Y-150435D01*
X60317Y-150685D01*
G01X62250Y-153435D02*
X62183Y-153385D01*
Y-153285D01*
X62250Y-153235D01*
X62317Y-153285D01*
Y-153385D01*
X62250Y-153435D01*
G01X64183Y-152986D02*
X64417Y-153235D01*
X64683Y-153335D01*
X64950Y-153235D01*
X65183Y-152936D01*
X65350Y-152485D01*
X65417Y-152035D01*
Y-151485D01*
X65350Y-151035D01*
X65183Y-150635D01*
X64983Y-150435D01*
X64750Y-150335D01*
X64483Y-150435D01*
X64283Y-150635D01*
X64150Y-150935D01*
X64083Y-151336D01*
X64150Y-151685D01*
X64317Y-152035D01*
X64517Y-152236D01*
X64750Y-152285D01*
X65017Y-152186D01*
X65217Y-151935D01*
X65417Y-151485D01*
G01X67250Y-150335D02*
X66983Y-150435D01*
X66783Y-150685D01*
X66650Y-150985D01*
X66550Y-151386D01*
X66517Y-151835D01*
X66550Y-152285D01*
X66650Y-152685D01*
X66783Y-152986D01*
X66983Y-153235D01*
X67250Y-153335D01*
X67517Y-153235D01*
X67717Y-152986D01*
X67850Y-152685D01*
X67950Y-152285D01*
X67983Y-151835D01*
X67950Y-151386D01*
X67850Y-150985D01*
X67717Y-150685D01*
X67517Y-150435D01*
X67250Y-150335D01*
G01X69117Y-150835D02*
X69317Y-150535D01*
X69550Y-150385D01*
X69817Y-150335D01*
X70150Y-150435D01*
X70383Y-150685D01*
X70450Y-150985D01*
X70417Y-151286D01*
X70283Y-151535D01*
X69617Y-152035D01*
X69317Y-152385D01*
X69117Y-152886D01*
X69050Y-153335D01*
X70450D01*
G01X71750Y-151336D02*
X72750Y-153335D01*
G01Y-151336D02*
X71750Y-153335D01*
G01X74117Y-150835D02*
X74317Y-150535D01*
X74550Y-150385D01*
X74817Y-150335D01*
X75150Y-150435D01*
X75383Y-150685D01*
X75450Y-150985D01*
X75417Y-151286D01*
X75283Y-151535D01*
X74617Y-152035D01*
X74317Y-152385D01*
X74117Y-152886D01*
X74050Y-153335D01*
X75450D01*
G01X76517Y-152735D02*
X76717Y-153086D01*
X76983Y-153285D01*
X77283Y-153335D01*
X77550Y-153285D01*
X77817Y-153036D01*
X77983Y-152735D01*
X78017Y-152435D01*
X77950Y-152086D01*
X77717Y-151835D01*
X77483Y-151735D01*
X77183D01*
G01X77483D02*
X77683Y-151585D01*
X77850Y-151336D01*
X77917Y-151035D01*
X77850Y-150735D01*
X77683Y-150486D01*
X77383Y-150335D01*
X77083Y-150385D01*
X76783Y-150585D01*
G01X79750Y-153435D02*
X79683Y-153385D01*
Y-153285D01*
X79750Y-153235D01*
X79817Y-153285D01*
Y-153385D01*
X79750Y-153435D01*
G01X81517Y-152886D02*
X81717Y-153135D01*
X81950Y-153285D01*
X82250Y-153335D01*
X82550Y-153235D01*
X82783Y-153036D01*
X82950Y-152685D01*
X82983Y-152285D01*
X82917Y-151885D01*
X82750Y-151635D01*
X82517Y-151435D01*
X82283Y-151386D01*
X82050Y-151435D01*
X81750Y-151635D01*
X81850Y-150335D01*
X82750D01*
G01X84183Y-152986D02*
X84417Y-153235D01*
X84683Y-153335D01*
X84950Y-153235D01*
X85183Y-152936D01*
X85350Y-152485D01*
X85417Y-152035D01*
Y-151485D01*
X85350Y-151035D01*
X85183Y-150635D01*
X84983Y-150435D01*
X84750Y-150335D01*
X84483Y-150435D01*
X84283Y-150635D01*
X84150Y-150935D01*
X84083Y-151336D01*
X84150Y-151685D01*
X84317Y-152035D01*
X84517Y-152236D01*
X84750Y-152285D01*
X85017Y-152186D01*
X85217Y-151935D01*
X85417Y-151485D01*
G01X87250Y-153335D02*
X87483Y-153285D01*
X87750Y-153135D01*
X87917Y-152886D01*
X87983Y-152535D01*
X87917Y-152186D01*
X87717Y-151885D01*
X87417Y-151735D01*
X87083D01*
X86883Y-151635D01*
X86717Y-151386D01*
X86650Y-151035D01*
X86750Y-150685D01*
X86983Y-150435D01*
X87250Y-150335D01*
X87517Y-150435D01*
X87750Y-150685D01*
X87850Y-151035D01*
X87783Y-151386D01*
X87617Y-151635D01*
X87417Y-151735D01*
X87083D01*
X86783Y-151885D01*
X86583Y-152186D01*
X86517Y-152535D01*
X86583Y-152886D01*
X86750Y-153135D01*
X87017Y-153285D01*
X87250Y-153335D01*
G01X65367Y-130765D02*
X65567Y-130465D01*
X65800Y-130315D01*
X66067Y-130265D01*
X66400Y-130365D01*
X66633Y-130615D01*
X66700Y-130915D01*
X66667Y-131215D01*
X66533Y-131465D01*
X65867Y-131965D01*
X65567Y-132315D01*
X65367Y-132815D01*
X65300Y-133265D01*
X66700D01*
G01X68433D02*
X68500Y-132615D01*
X68600Y-132065D01*
X68733Y-131565D01*
X68900Y-131015D01*
X69167Y-130265D01*
X67833D01*
G01X71000Y-133365D02*
X70933Y-133315D01*
Y-133215D01*
X71000Y-133165D01*
X71067Y-133215D01*
Y-133315D01*
X71000Y-133365D01*
G01X72767Y-132815D02*
X72967Y-133065D01*
X73200Y-133215D01*
X73500Y-133265D01*
X73800Y-133165D01*
X74033Y-132965D01*
X74200Y-132615D01*
X74233Y-132215D01*
X74167Y-131815D01*
X74000Y-131565D01*
X73767Y-131365D01*
X73533Y-131315D01*
X73300Y-131365D01*
X73000Y-131565D01*
X73100Y-130265D01*
X74000D01*
G01X75433Y-132915D02*
X75667Y-133165D01*
X75933Y-133265D01*
X76200Y-133165D01*
X76433Y-132865D01*
X76600Y-132415D01*
X76667Y-131965D01*
Y-131415D01*
X76600Y-130965D01*
X76433Y-130565D01*
X76233Y-130365D01*
X76000Y-130265D01*
X75733Y-130365D01*
X75533Y-130565D01*
X75400Y-130865D01*
X75333Y-131265D01*
X75400Y-131615D01*
X75567Y-131965D01*
X75767Y-132165D01*
X76000Y-132215D01*
X76267Y-132115D01*
X76467Y-131865D01*
X76667Y-131415D01*
G01X78500Y-133265D02*
X78733Y-133215D01*
X79000Y-133065D01*
X79167Y-132815D01*
X79233Y-132465D01*
X79167Y-132115D01*
X78967Y-131815D01*
X78667Y-131665D01*
X78333D01*
X78133Y-131565D01*
X77967Y-131315D01*
X77900Y-130965D01*
X78000Y-130615D01*
X78233Y-130365D01*
X78500Y-130265D01*
X78767Y-130365D01*
X79000Y-130615D01*
X79100Y-130965D01*
X79033Y-131315D01*
X78867Y-131565D01*
X78667Y-131665D01*
X78333D01*
X78033Y-131815D01*
X77833Y-132115D01*
X77767Y-132465D01*
X77833Y-132815D01*
X78000Y-133065D01*
X78267Y-133215D01*
X78500Y-133265D01*
G01X56517Y-142850D02*
X56717Y-143100D01*
X56950Y-143250D01*
X57250Y-143300D01*
X57550Y-143200D01*
X57783Y-143000D01*
X57950Y-142650D01*
X57983Y-142250D01*
X57917Y-141850D01*
X57750Y-141600D01*
X57517Y-141400D01*
X57283Y-141350D01*
X57050Y-141400D01*
X56750Y-141600D01*
X56850Y-140300D01*
X57750D01*
G01X59017Y-142850D02*
X59217Y-143100D01*
X59450Y-143250D01*
X59750Y-143300D01*
X60050Y-143200D01*
X60283Y-143000D01*
X60450Y-142650D01*
X60483Y-142250D01*
X60417Y-141850D01*
X60250Y-141600D01*
X60017Y-141400D01*
X59783Y-141350D01*
X59550Y-141400D01*
X59250Y-141600D01*
X59350Y-140300D01*
X60250D01*
G01X62250Y-143400D02*
X62183Y-143350D01*
Y-143250D01*
X62250Y-143200D01*
X62317Y-143250D01*
Y-143350D01*
X62250Y-143400D01*
G01X64750Y-140300D02*
X64483Y-140400D01*
X64283Y-140650D01*
X64150Y-140950D01*
X64050Y-141350D01*
X64017Y-141800D01*
X64050Y-142250D01*
X64150Y-142650D01*
X64283Y-142950D01*
X64483Y-143200D01*
X64750Y-143300D01*
X65017Y-143200D01*
X65217Y-142950D01*
X65350Y-142650D01*
X65450Y-142250D01*
X65483Y-141800D01*
X65450Y-141350D01*
X65350Y-140950D01*
X65217Y-140650D01*
X65017Y-140400D01*
X64750Y-140300D01*
G01X66683Y-142950D02*
X66917Y-143200D01*
X67183Y-143300D01*
X67450Y-143200D01*
X67683Y-142900D01*
X67850Y-142450D01*
X67917Y-142000D01*
Y-141450D01*
X67850Y-141000D01*
X67683Y-140600D01*
X67483Y-140400D01*
X67250Y-140300D01*
X66983Y-140400D01*
X66783Y-140600D01*
X66650Y-140900D01*
X66583Y-141300D01*
X66650Y-141650D01*
X66817Y-142000D01*
X67017Y-142200D01*
X67250Y-142250D01*
X67517Y-142150D01*
X67717Y-141900D01*
X67917Y-141450D01*
G01X69750Y-143300D02*
X69983Y-143250D01*
X70250Y-143100D01*
X70417Y-142850D01*
X70483Y-142500D01*
X70417Y-142150D01*
X70217Y-141850D01*
X69917Y-141700D01*
X69583D01*
X69383Y-141600D01*
X69217Y-141350D01*
X69150Y-141000D01*
X69250Y-140650D01*
X69483Y-140400D01*
X69750Y-140300D01*
X70017Y-140400D01*
X70250Y-140650D01*
X70350Y-141000D01*
X70283Y-141350D01*
X70117Y-141600D01*
X69917Y-141700D01*
X69583D01*
X69283Y-141850D01*
X69083Y-142150D01*
X69017Y-142500D01*
X69083Y-142850D01*
X69250Y-143100D01*
X69517Y-143250D01*
X69750Y-143300D01*
G01X71750Y-141300D02*
X72750Y-143300D01*
G01Y-141300D02*
X71750Y-143300D01*
G01X74117Y-140800D02*
X74317Y-140500D01*
X74550Y-140350D01*
X74817Y-140300D01*
X75150Y-140400D01*
X75383Y-140650D01*
X75450Y-140950D01*
X75417Y-141250D01*
X75283Y-141500D01*
X74617Y-142000D01*
X74317Y-142350D01*
X74117Y-142850D01*
X74050Y-143300D01*
X75450D01*
G01X76517Y-142700D02*
X76717Y-143050D01*
X76983Y-143250D01*
X77283Y-143300D01*
X77550Y-143250D01*
X77817Y-143000D01*
X77983Y-142700D01*
X78017Y-142400D01*
X77950Y-142050D01*
X77717Y-141800D01*
X77483Y-141700D01*
X77183D01*
G01X77483D02*
X77683Y-141550D01*
X77850Y-141300D01*
X77917Y-141000D01*
X77850Y-140700D01*
X77683Y-140450D01*
X77383Y-140300D01*
X77083Y-140350D01*
X76783Y-140550D01*
G01X79750Y-143400D02*
X79683Y-143350D01*
Y-143250D01*
X79750Y-143200D01*
X79817Y-143250D01*
Y-143350D01*
X79750Y-143400D01*
G01X81517Y-142850D02*
X81717Y-143100D01*
X81950Y-143250D01*
X82250Y-143300D01*
X82550Y-143200D01*
X82783Y-143000D01*
X82950Y-142650D01*
X82983Y-142250D01*
X82917Y-141850D01*
X82750Y-141600D01*
X82517Y-141400D01*
X82283Y-141350D01*
X82050Y-141400D01*
X81750Y-141600D01*
X81850Y-140300D01*
X82750D01*
G01X84183Y-142950D02*
X84417Y-143200D01*
X84683Y-143300D01*
X84950Y-143200D01*
X85183Y-142900D01*
X85350Y-142450D01*
X85417Y-142000D01*
Y-141450D01*
X85350Y-141000D01*
X85183Y-140600D01*
X84983Y-140400D01*
X84750Y-140300D01*
X84483Y-140400D01*
X84283Y-140600D01*
X84150Y-140900D01*
X84083Y-141300D01*
X84150Y-141650D01*
X84317Y-142000D01*
X84517Y-142200D01*
X84750Y-142250D01*
X85017Y-142150D01*
X85217Y-141900D01*
X85417Y-141450D01*
G01X87250Y-143300D02*
X87483Y-143250D01*
X87750Y-143100D01*
X87917Y-142850D01*
X87983Y-142500D01*
X87917Y-142150D01*
X87717Y-141850D01*
X87417Y-141700D01*
X87083D01*
X86883Y-141600D01*
X86717Y-141350D01*
X86650Y-141000D01*
X86750Y-140650D01*
X86983Y-140400D01*
X87250Y-140300D01*
X87517Y-140400D01*
X87750Y-140650D01*
X87850Y-141000D01*
X87783Y-141350D01*
X87617Y-141600D01*
X87417Y-141700D01*
X87083D01*
X86783Y-141850D01*
X86583Y-142150D01*
X86517Y-142500D01*
X86583Y-142850D01*
X86750Y-143100D01*
X87017Y-143250D01*
X87250Y-143300D01*
G01X65267Y-122630D02*
X65467Y-122980D01*
X65733Y-123180D01*
X66033Y-123230D01*
X66300Y-123180D01*
X66567Y-122930D01*
X66733Y-122630D01*
X66767Y-122330D01*
X66700Y-121980D01*
X66467Y-121730D01*
X66233Y-121630D01*
X65933D01*
G01X66233D02*
X66433Y-121480D01*
X66600Y-121230D01*
X66667Y-120930D01*
X66600Y-120630D01*
X66433Y-120380D01*
X66133Y-120230D01*
X65833Y-120280D01*
X65533Y-120480D01*
G01X67933Y-122880D02*
X68167Y-123130D01*
X68433Y-123230D01*
X68700Y-123130D01*
X68933Y-122830D01*
X69100Y-122380D01*
X69167Y-121930D01*
Y-121380D01*
X69100Y-120930D01*
X68933Y-120530D01*
X68733Y-120330D01*
X68500Y-120230D01*
X68233Y-120330D01*
X68033Y-120530D01*
X67900Y-120830D01*
X67833Y-121230D01*
X67900Y-121580D01*
X68067Y-121930D01*
X68267Y-122130D01*
X68500Y-122180D01*
X68767Y-122080D01*
X68967Y-121830D01*
X69167Y-121380D01*
G01X71000Y-123330D02*
X70933Y-123280D01*
Y-123180D01*
X71000Y-123130D01*
X71067Y-123180D01*
Y-123280D01*
X71000Y-123330D01*
G01X73900Y-123230D02*
Y-120230D01*
X72667Y-122380D01*
X74333D01*
G01X76000Y-120230D02*
X75733Y-120330D01*
X75533Y-120580D01*
X75400Y-120880D01*
X75300Y-121280D01*
X75267Y-121730D01*
X75300Y-122180D01*
X75400Y-122580D01*
X75533Y-122880D01*
X75733Y-123130D01*
X76000Y-123230D01*
X76267Y-123130D01*
X76467Y-122880D01*
X76600Y-122580D01*
X76700Y-122180D01*
X76733Y-121730D01*
X76700Y-121280D01*
X76600Y-120880D01*
X76467Y-120580D01*
X76267Y-120330D01*
X76000Y-120230D01*
G01X77867Y-120730D02*
X78067Y-120430D01*
X78300Y-120280D01*
X78567Y-120230D01*
X78900Y-120330D01*
X79133Y-120580D01*
X79200Y-120880D01*
X79167Y-121180D01*
X79033Y-121430D01*
X78367Y-121930D01*
X78067Y-122280D01*
X77867Y-122780D01*
X77800Y-123230D01*
X79200D01*
G01X65367Y-100659D02*
X65567Y-100359D01*
X65800Y-100209D01*
X66067Y-100159D01*
X66400Y-100259D01*
X66633Y-100509D01*
X66700Y-100809D01*
X66667Y-101109D01*
X66533Y-101359D01*
X65867Y-101859D01*
X65567Y-102209D01*
X65367Y-102709D01*
X65300Y-103159D01*
X66700D01*
G01X68500D02*
Y-100159D01*
X68100Y-100759D01*
G01Y-103159D02*
X68900D01*
G01X71000Y-103259D02*
X70933Y-103209D01*
Y-103109D01*
X71000Y-103059D01*
X71067Y-103109D01*
Y-103209D01*
X71000Y-103259D01*
G01X72867Y-101909D02*
X73100Y-101559D01*
X73300Y-101359D01*
X73567Y-101259D01*
X73800Y-101359D01*
X73967Y-101559D01*
X74100Y-101859D01*
X74133Y-102209D01*
X74100Y-102509D01*
X73967Y-102809D01*
X73767Y-103059D01*
X73533Y-103159D01*
X73267Y-103059D01*
X73033Y-102759D01*
X72900Y-102309D01*
X72867Y-101809D01*
X72933Y-101159D01*
X73033Y-100809D01*
X73200Y-100459D01*
X73433Y-100209D01*
X73667Y-100159D01*
X73900Y-100259D01*
X74067Y-100509D01*
G01X75267Y-102709D02*
X75467Y-102959D01*
X75700Y-103109D01*
X76000Y-103159D01*
X76300Y-103059D01*
X76533Y-102859D01*
X76700Y-102509D01*
X76733Y-102109D01*
X76667Y-101709D01*
X76500Y-101459D01*
X76267Y-101259D01*
X76033Y-101209D01*
X75800Y-101259D01*
X75500Y-101459D01*
X75600Y-100159D01*
X76500D01*
G01X78900Y-103159D02*
Y-100159D01*
X77667Y-102309D01*
X79333D01*
G01X67867Y-110694D02*
X68067Y-110394D01*
X68300Y-110244D01*
X68567Y-110194D01*
X68900Y-110294D01*
X69133Y-110544D01*
X69200Y-110844D01*
X69167Y-111144D01*
X69033Y-111394D01*
X68367Y-111894D01*
X68067Y-112244D01*
X67867Y-112744D01*
X67800Y-113194D01*
X69200D01*
G01X70267Y-112744D02*
X70467Y-112994D01*
X70700Y-113144D01*
X71000Y-113194D01*
X71300Y-113094D01*
X71533Y-112894D01*
X71700Y-112544D01*
X71733Y-112144D01*
X71667Y-111744D01*
X71500Y-111494D01*
X71267Y-111294D01*
X71033Y-111244D01*
X70800Y-111294D01*
X70500Y-111494D01*
X70600Y-110194D01*
X71500D01*
G01X73500Y-113294D02*
X73433Y-113244D01*
Y-113144D01*
X73500Y-113094D01*
X73567Y-113144D01*
Y-113244D01*
X73500Y-113294D01*
G01X76000Y-110194D02*
X75733Y-110294D01*
X75533Y-110544D01*
X75400Y-110844D01*
X75300Y-111244D01*
X75267Y-111694D01*
X75300Y-112144D01*
X75400Y-112544D01*
X75533Y-112844D01*
X75733Y-113094D01*
X76000Y-113194D01*
X76267Y-113094D01*
X76467Y-112844D01*
X76600Y-112544D01*
X76700Y-112144D01*
X76733Y-111694D01*
X76700Y-111244D01*
X76600Y-110844D01*
X76467Y-110544D01*
X76267Y-110294D01*
X76000Y-110194D01*
G01X67250Y-93124D02*
Y-90124D01*
X66850Y-90724D01*
G01Y-93124D02*
X67650D01*
G01X69017Y-92524D02*
X69217Y-92874D01*
X69483Y-93074D01*
X69783Y-93124D01*
X70050Y-93074D01*
X70317Y-92824D01*
X70483Y-92524D01*
X70517Y-92224D01*
X70450Y-91874D01*
X70217Y-91624D01*
X69983Y-91524D01*
X69683D01*
G01X69983D02*
X70183Y-91374D01*
X70350Y-91124D01*
X70417Y-90824D01*
X70350Y-90524D01*
X70183Y-90274D01*
X69883Y-90124D01*
X69583Y-90174D01*
X69283Y-90374D01*
G01X72250Y-93224D02*
X72183Y-93174D01*
Y-93074D01*
X72250Y-93024D01*
X72317Y-93074D01*
Y-93174D01*
X72250Y-93224D01*
G01X74683Y-93124D02*
X74750Y-92474D01*
X74850Y-91924D01*
X74983Y-91424D01*
X75150Y-90874D01*
X75417Y-90124D01*
X74083D01*
G01X77250Y-93124D02*
X77483Y-93074D01*
X77750Y-92924D01*
X77917Y-92674D01*
X77983Y-92324D01*
X77917Y-91974D01*
X77717Y-91674D01*
X77417Y-91524D01*
X77083D01*
X76883Y-91424D01*
X76717Y-91174D01*
X76650Y-90824D01*
X76750Y-90474D01*
X76983Y-90224D01*
X77250Y-90124D01*
X77517Y-90224D01*
X77750Y-90474D01*
X77850Y-90824D01*
X77783Y-91174D01*
X77617Y-91424D01*
X77417Y-91524D01*
X77083D01*
X76783Y-91674D01*
X76583Y-91974D01*
X76517Y-92324D01*
X76583Y-92674D01*
X76750Y-92924D01*
X77017Y-93074D01*
X77250Y-93124D01*
G01X68500Y-73053D02*
Y-70053D01*
X68100Y-70653D01*
G01Y-73053D02*
X68900D01*
G01X70367Y-70553D02*
X70567Y-70253D01*
X70800Y-70103D01*
X71067Y-70053D01*
X71400Y-70153D01*
X71633Y-70403D01*
X71700Y-70703D01*
X71667Y-71003D01*
X71533Y-71253D01*
X70867Y-71753D01*
X70567Y-72103D01*
X70367Y-72603D01*
X70300Y-73053D01*
X71700D01*
G01X73500Y-73153D02*
X73433Y-73103D01*
Y-73003D01*
X73500Y-72953D01*
X73567Y-73003D01*
Y-73103D01*
X73500Y-73153D01*
G01X76000Y-70053D02*
X75733Y-70153D01*
X75533Y-70403D01*
X75400Y-70703D01*
X75300Y-71103D01*
X75267Y-71553D01*
X75300Y-72003D01*
X75400Y-72403D01*
X75533Y-72703D01*
X75733Y-72953D01*
X76000Y-73053D01*
X76267Y-72953D01*
X76467Y-72703D01*
X76600Y-72403D01*
X76700Y-72003D01*
X76733Y-71553D01*
X76700Y-71103D01*
X76600Y-70703D01*
X76467Y-70403D01*
X76267Y-70153D01*
X76000Y-70053D01*
G01X68500Y-83088D02*
Y-80088D01*
X68100Y-80688D01*
G01Y-83088D02*
X68900D01*
G01X70367Y-80588D02*
X70567Y-80288D01*
X70800Y-80138D01*
X71067Y-80088D01*
X71400Y-80188D01*
X71633Y-80438D01*
X71700Y-80738D01*
X71667Y-81038D01*
X71533Y-81288D01*
X70867Y-81788D01*
X70567Y-82138D01*
X70367Y-82638D01*
X70300Y-83088D01*
X71700D01*
G01X73500Y-83188D02*
X73433Y-83138D01*
Y-83038D01*
X73500Y-82988D01*
X73567Y-83038D01*
Y-83138D01*
X73500Y-83188D01*
G01X76000Y-80088D02*
X75733Y-80188D01*
X75533Y-80438D01*
X75400Y-80738D01*
X75300Y-81138D01*
X75267Y-81588D01*
X75300Y-82038D01*
X75400Y-82438D01*
X75533Y-82738D01*
X75733Y-82988D01*
X76000Y-83088D01*
X76267Y-82988D01*
X76467Y-82738D01*
X76600Y-82438D01*
X76700Y-82038D01*
X76733Y-81588D01*
X76700Y-81138D01*
X76600Y-80738D01*
X76467Y-80438D01*
X76267Y-80188D01*
X76000Y-80088D01*
G01X56617Y-55000D02*
Y-52000D01*
X57883D01*
G01X57417Y-53450D02*
X56617D01*
G01X59350Y-52000D02*
X60150D01*
G01X59750D02*
Y-55000D01*
G01X59350D02*
X60150D01*
G01X61483D02*
Y-52000D01*
X63017Y-55000D01*
Y-52000D01*
G01X64350D02*
X65150D01*
G01X64750D02*
Y-55000D01*
G01X64350D02*
X65150D01*
G01X66550Y-54600D02*
X66817Y-54850D01*
X67117Y-55000D01*
X67383D01*
X67650Y-54850D01*
X67850Y-54600D01*
X67950Y-54250D01*
X67883Y-53900D01*
X67717Y-53600D01*
X67417Y-53400D01*
X67017Y-53300D01*
X66783Y-53100D01*
X66683Y-52750D01*
X66750Y-52400D01*
X66917Y-52150D01*
X67150Y-52000D01*
X67383D01*
X67617Y-52100D01*
X67817Y-52350D01*
G01X69050Y-55000D02*
Y-52000D01*
G01X70450D02*
Y-55000D01*
G01Y-53500D02*
X69050D01*
G01X72917Y-55000D02*
X71583D01*
Y-52000D01*
X72917D01*
G01X72383Y-53450D02*
X71583D01*
G01X74017Y-55000D02*
Y-52000D01*
X74683D01*
X74950Y-52150D01*
X75150Y-52350D01*
X75317Y-52650D01*
X75450Y-53000D01*
X75483Y-53500D01*
X75450Y-54000D01*
X75317Y-54350D01*
X75150Y-54650D01*
X74950Y-54850D01*
X74683Y-55000D01*
X74017D01*
G01X76250Y-56000D02*
X78250D01*
G01X79050Y-54600D02*
X79317Y-54850D01*
X79617Y-55000D01*
X79883D01*
X80150Y-54850D01*
X80350Y-54600D01*
X80450Y-54250D01*
X80383Y-53900D01*
X80217Y-53600D01*
X79917Y-53400D01*
X79517Y-53300D01*
X79283Y-53100D01*
X79183Y-52750D01*
X79250Y-52400D01*
X79417Y-52150D01*
X79650Y-52000D01*
X79883D01*
X80117Y-52100D01*
X80317Y-52350D01*
G01X81850Y-52000D02*
X82650D01*
G01X82250D02*
Y-55000D01*
G01X81850D02*
X82650D01*
G01X84117Y-52000D02*
X85383D01*
X84117Y-55000D01*
X85383D01*
G01X87917D02*
X86583D01*
Y-52000D01*
X87917D01*
G01X87383Y-53450D02*
X86583D01*
G01X69750Y-63018D02*
X69983Y-62968D01*
X70250Y-62818D01*
X70417Y-62568D01*
X70483Y-62218D01*
X70417Y-61868D01*
X70217Y-61568D01*
X69917Y-61418D01*
X69583D01*
X69383Y-61318D01*
X69217Y-61068D01*
X69150Y-60718D01*
X69250Y-60368D01*
X69483Y-60118D01*
X69750Y-60018D01*
X70017Y-60118D01*
X70250Y-60368D01*
X70350Y-60718D01*
X70283Y-61068D01*
X70117Y-61318D01*
X69917Y-61418D01*
X69583D01*
X69283Y-61568D01*
X69083Y-61868D01*
X69017Y-62218D01*
X69083Y-62568D01*
X69250Y-62818D01*
X69517Y-62968D01*
X69750Y-63018D01*
G01X72250Y-63118D02*
X72183Y-63068D01*
Y-62968D01*
X72250Y-62918D01*
X72317Y-62968D01*
Y-63068D01*
X72250Y-63118D01*
G01X74750Y-60018D02*
X74483Y-60118D01*
X74283Y-60368D01*
X74150Y-60668D01*
X74050Y-61068D01*
X74017Y-61518D01*
X74050Y-61968D01*
X74150Y-62368D01*
X74283Y-62668D01*
X74483Y-62918D01*
X74750Y-63018D01*
X75017Y-62918D01*
X75217Y-62668D01*
X75350Y-62368D01*
X75450Y-61968D01*
X75483Y-61518D01*
X75450Y-61068D01*
X75350Y-60668D01*
X75217Y-60368D01*
X75017Y-60118D01*
X74750Y-60018D01*
G01X84767Y-24000D02*
Y-21000D01*
X85433D01*
X85700Y-21150D01*
X85900Y-21350D01*
X86067Y-21650D01*
X86200Y-22000D01*
X86233Y-22500D01*
X86200Y-23000D01*
X86067Y-23350D01*
X85900Y-23650D01*
X85700Y-23850D01*
X85433Y-24000D01*
X84767D01*
G01X87333D02*
Y-21000D01*
X88167D01*
X88433Y-21150D01*
X88600Y-21350D01*
X88667Y-21750D01*
X88600Y-22150D01*
X88400Y-22400D01*
X88167Y-22550D01*
X87333D01*
G01X88167D02*
X88667Y-24000D01*
G01X90100Y-21000D02*
X90900D01*
G01X90500D02*
Y-24000D01*
G01X90100D02*
X90900D01*
G01X92333Y-21000D02*
Y-24000D01*
X93667D01*
G01X94833Y-21000D02*
Y-24000D01*
X96167D01*
G01X101233Y-21250D02*
X101033Y-21100D01*
X100800Y-21000D01*
X100533D01*
X100233Y-21150D01*
X100000Y-21400D01*
X99833Y-21700D01*
X99700Y-22200D01*
X99667Y-22650D01*
X99733Y-23100D01*
X99833Y-23400D01*
X100033Y-23700D01*
X100267Y-23900D01*
X100500Y-24000D01*
X100733D01*
X100967Y-23900D01*
X101167Y-23750D01*
X101333Y-23550D01*
G01X102300Y-24000D02*
Y-21000D01*
G01X103700D02*
Y-24000D01*
G01Y-22500D02*
X102300D01*
G01X104667Y-24000D02*
X105500Y-21000D01*
X106333Y-24000D01*
G01X106033Y-22950D02*
X104967D01*
G01X107333Y-24000D02*
Y-21000D01*
X108167D01*
X108433Y-21150D01*
X108600Y-21350D01*
X108667Y-21750D01*
X108600Y-22150D01*
X108400Y-22400D01*
X108167Y-22550D01*
X107333D01*
G01X108167D02*
X108667Y-24000D01*
G01X110500Y-21000D02*
Y-24000D01*
G01X109733Y-21000D02*
X111267D01*
G01X113000Y-24100D02*
X112933Y-24050D01*
Y-23950D01*
X113000Y-23900D01*
X113067Y-23950D01*
Y-24050D01*
X113000Y-24100D01*
G01Y-22750D02*
X112933Y-22700D01*
Y-22600D01*
X113000Y-22550D01*
X113067Y-22600D01*
Y-22700D01*
X113000Y-22750D01*
G01X118000Y-21000D02*
Y-24000D01*
G01X117233Y-21000D02*
X118767D01*
G01X120500Y-24000D02*
X120233Y-23950D01*
X120000Y-23750D01*
X119800Y-23450D01*
X119667Y-23100D01*
X119600Y-22700D01*
Y-22300D01*
X119667Y-21900D01*
X119800Y-21550D01*
X120000Y-21250D01*
X120233Y-21050D01*
X120500Y-21000D01*
X120767Y-21050D01*
X121000Y-21250D01*
X121200Y-21550D01*
X121333Y-21900D01*
X121400Y-22300D01*
Y-22700D01*
X121333Y-23100D01*
X121200Y-23450D01*
X121000Y-23750D01*
X120767Y-23950D01*
X120500Y-24000D01*
G01X122333D02*
Y-21000D01*
X123133D01*
X123400Y-21150D01*
X123600Y-21500D01*
X123667Y-21900D01*
X123600Y-22300D01*
X123433Y-22600D01*
X123133Y-22750D01*
X122333D01*
G01X128000Y-21000D02*
Y-24000D01*
G01X127533Y-22000D02*
X128467D01*
G01X130500Y-24000D02*
X130300Y-23950D01*
X130100Y-23750D01*
X129967Y-23400D01*
X129900Y-23000D01*
X129967Y-22600D01*
X130100Y-22250D01*
X130300Y-22050D01*
X130500Y-22000D01*
X130700Y-22050D01*
X130900Y-22250D01*
X131033Y-22600D01*
X131067Y-23000D01*
X131033Y-23400D01*
X130900Y-23750D01*
X130700Y-23950D01*
X130500Y-24000D01*
G01X135767Y-22400D02*
X135900Y-22250D01*
X136000Y-22000D01*
X136067Y-21650D01*
X136000Y-21350D01*
X135867Y-21150D01*
X135633Y-21000D01*
X134733D01*
Y-24000D01*
X135833D01*
X136067Y-23800D01*
X136200Y-23500D01*
X136267Y-23150D01*
X136200Y-22800D01*
X136000Y-22500D01*
X135767Y-22400D01*
X134733D01*
G01X138000Y-24000D02*
X137733Y-23950D01*
X137500Y-23750D01*
X137300Y-23450D01*
X137167Y-23100D01*
X137100Y-22700D01*
Y-22300D01*
X137167Y-21900D01*
X137300Y-21550D01*
X137500Y-21250D01*
X137733Y-21050D01*
X138000Y-21000D01*
X138267Y-21050D01*
X138500Y-21250D01*
X138700Y-21550D01*
X138833Y-21900D01*
X138900Y-22300D01*
Y-22700D01*
X138833Y-23100D01*
X138700Y-23450D01*
X138500Y-23750D01*
X138267Y-23950D01*
X138000Y-24000D01*
G01X140500Y-21000D02*
Y-24000D01*
G01X139733Y-21000D02*
X141267D01*
G01X143000D02*
Y-24000D01*
G01X142233Y-21000D02*
X143767D01*
G01X145500Y-24000D02*
X145233Y-23950D01*
X145000Y-23750D01*
X144800Y-23450D01*
X144667Y-23100D01*
X144600Y-22700D01*
Y-22300D01*
X144667Y-21900D01*
X144800Y-21550D01*
X145000Y-21250D01*
X145233Y-21050D01*
X145500Y-21000D01*
X145767Y-21050D01*
X146000Y-21250D01*
X146200Y-21550D01*
X146333Y-21900D01*
X146400Y-22300D01*
Y-22700D01*
X146333Y-23100D01*
X146200Y-23450D01*
X146000Y-23750D01*
X145767Y-23950D01*
X145500Y-24000D01*
G01X147133D02*
Y-21000D01*
X148000Y-23500D01*
X148867Y-21000D01*
Y-24000D01*
G01X98433Y-152986D02*
X98667Y-153235D01*
X98933Y-153335D01*
X99200Y-153235D01*
X99433Y-152936D01*
X99600Y-152485D01*
X99667Y-152035D01*
Y-151485D01*
X99600Y-151035D01*
X99433Y-150635D01*
X99233Y-150435D01*
X99000Y-150335D01*
X98733Y-150435D01*
X98533Y-150635D01*
X98400Y-150935D01*
X98333Y-151336D01*
X98400Y-151685D01*
X98567Y-152035D01*
X98767Y-152236D01*
X99000Y-152285D01*
X99267Y-152186D01*
X99467Y-151935D01*
X99667Y-151485D01*
G01X101500Y-150335D02*
X101233Y-150435D01*
X101033Y-150685D01*
X100900Y-150985D01*
X100800Y-151386D01*
X100767Y-151835D01*
X100800Y-152285D01*
X100900Y-152685D01*
X101033Y-152986D01*
X101233Y-153235D01*
X101500Y-153335D01*
X101767Y-153235D01*
X101967Y-152986D01*
X102100Y-152685D01*
X102200Y-152285D01*
X102233Y-151835D01*
X102200Y-151386D01*
X102100Y-150985D01*
X101967Y-150685D01*
X101767Y-150435D01*
X101500Y-150335D01*
G01X104000Y-153435D02*
X103933Y-153385D01*
Y-153285D01*
X104000Y-153235D01*
X104067Y-153285D01*
Y-153385D01*
X104000Y-153435D01*
G01X106500Y-150335D02*
X106233Y-150435D01*
X106033Y-150685D01*
X105900Y-150985D01*
X105800Y-151386D01*
X105767Y-151835D01*
X105800Y-152285D01*
X105900Y-152685D01*
X106033Y-152986D01*
X106233Y-153235D01*
X106500Y-153335D01*
X106767Y-153235D01*
X106967Y-152986D01*
X107100Y-152685D01*
X107200Y-152285D01*
X107233Y-151835D01*
X107200Y-151386D01*
X107100Y-150985D01*
X106967Y-150685D01*
X106767Y-150435D01*
X106500Y-150335D01*
G01X109000D02*
X108733Y-150435D01*
X108533Y-150685D01*
X108400Y-150985D01*
X108300Y-151386D01*
X108267Y-151835D01*
X108300Y-152285D01*
X108400Y-152685D01*
X108533Y-152986D01*
X108733Y-153235D01*
X109000Y-153335D01*
X109267Y-153235D01*
X109467Y-152986D01*
X109600Y-152685D01*
X109700Y-152285D01*
X109733Y-151835D01*
X109700Y-151386D01*
X109600Y-150985D01*
X109467Y-150685D01*
X109267Y-150435D01*
X109000Y-150335D01*
G01X111500D02*
X111233Y-150435D01*
X111033Y-150685D01*
X110900Y-150985D01*
X110800Y-151386D01*
X110767Y-151835D01*
X110800Y-152285D01*
X110900Y-152685D01*
X111033Y-152986D01*
X111233Y-153235D01*
X111500Y-153335D01*
X111767Y-153235D01*
X111967Y-152986D01*
X112100Y-152685D01*
X112200Y-152285D01*
X112233Y-151835D01*
X112200Y-151386D01*
X112100Y-150985D01*
X111967Y-150685D01*
X111767Y-150435D01*
X111500Y-150335D01*
G01X98433Y-142950D02*
X98667Y-143200D01*
X98933Y-143300D01*
X99200Y-143200D01*
X99433Y-142900D01*
X99600Y-142450D01*
X99667Y-142000D01*
Y-141450D01*
X99600Y-141000D01*
X99433Y-140600D01*
X99233Y-140400D01*
X99000Y-140300D01*
X98733Y-140400D01*
X98533Y-140600D01*
X98400Y-140900D01*
X98333Y-141300D01*
X98400Y-141650D01*
X98567Y-142000D01*
X98767Y-142200D01*
X99000Y-142250D01*
X99267Y-142150D01*
X99467Y-141900D01*
X99667Y-141450D01*
G01X101500Y-140300D02*
X101233Y-140400D01*
X101033Y-140650D01*
X100900Y-140950D01*
X100800Y-141350D01*
X100767Y-141800D01*
X100800Y-142250D01*
X100900Y-142650D01*
X101033Y-142950D01*
X101233Y-143200D01*
X101500Y-143300D01*
X101767Y-143200D01*
X101967Y-142950D01*
X102100Y-142650D01*
X102200Y-142250D01*
X102233Y-141800D01*
X102200Y-141350D01*
X102100Y-140950D01*
X101967Y-140650D01*
X101767Y-140400D01*
X101500Y-140300D01*
G01X104000Y-143400D02*
X103933Y-143350D01*
Y-143250D01*
X104000Y-143200D01*
X104067Y-143250D01*
Y-143350D01*
X104000Y-143400D01*
G01X106500Y-140300D02*
X106233Y-140400D01*
X106033Y-140650D01*
X105900Y-140950D01*
X105800Y-141350D01*
X105767Y-141800D01*
X105800Y-142250D01*
X105900Y-142650D01*
X106033Y-142950D01*
X106233Y-143200D01*
X106500Y-143300D01*
X106767Y-143200D01*
X106967Y-142950D01*
X107100Y-142650D01*
X107200Y-142250D01*
X107233Y-141800D01*
X107200Y-141350D01*
X107100Y-140950D01*
X106967Y-140650D01*
X106767Y-140400D01*
X106500Y-140300D01*
G01X109000D02*
X108733Y-140400D01*
X108533Y-140650D01*
X108400Y-140950D01*
X108300Y-141350D01*
X108267Y-141800D01*
X108300Y-142250D01*
X108400Y-142650D01*
X108533Y-142950D01*
X108733Y-143200D01*
X109000Y-143300D01*
X109267Y-143200D01*
X109467Y-142950D01*
X109600Y-142650D01*
X109700Y-142250D01*
X109733Y-141800D01*
X109700Y-141350D01*
X109600Y-140950D01*
X109467Y-140650D01*
X109267Y-140400D01*
X109000Y-140300D01*
G01X111500D02*
X111233Y-140400D01*
X111033Y-140650D01*
X110900Y-140950D01*
X110800Y-141350D01*
X110767Y-141800D01*
X110800Y-142250D01*
X110900Y-142650D01*
X111033Y-142950D01*
X111233Y-143200D01*
X111500Y-143300D01*
X111767Y-143200D01*
X111967Y-142950D01*
X112100Y-142650D01*
X112200Y-142250D01*
X112233Y-141800D01*
X112200Y-141350D01*
X112100Y-140950D01*
X111967Y-140650D01*
X111767Y-140400D01*
X111500Y-140300D01*
G01X95833Y-55000D02*
Y-52000D01*
X96667D01*
X96933Y-52150D01*
X97100Y-52350D01*
X97167Y-52750D01*
X97100Y-53150D01*
X96900Y-53400D01*
X96667Y-53550D01*
X95833D01*
G01X96667D02*
X97167Y-55000D01*
G01X99000D02*
X98733Y-54950D01*
X98500Y-54750D01*
X98300Y-54450D01*
X98167Y-54100D01*
X98100Y-53700D01*
Y-53300D01*
X98167Y-52900D01*
X98300Y-52550D01*
X98500Y-52250D01*
X98733Y-52050D01*
X99000Y-52000D01*
X99267Y-52050D01*
X99500Y-52250D01*
X99700Y-52550D01*
X99833Y-52900D01*
X99900Y-53300D01*
Y-53700D01*
X99833Y-54100D01*
X99700Y-54450D01*
X99500Y-54750D01*
X99267Y-54950D01*
X99000Y-55000D01*
G01X101500Y-52000D02*
Y-55000D01*
G01X100733Y-52000D02*
X102267D01*
G01X103167Y-55000D02*
X104000Y-52000D01*
X104833Y-55000D01*
G01X104533Y-53950D02*
X103467D01*
G01X106500Y-52000D02*
Y-55000D01*
G01X105733Y-52000D02*
X107267D01*
G01X108600D02*
X109400D01*
G01X109000D02*
Y-55000D01*
G01X108600D02*
X109400D01*
G01X111500D02*
X111233Y-54950D01*
X111000Y-54750D01*
X110800Y-54450D01*
X110667Y-54100D01*
X110600Y-53700D01*
Y-53300D01*
X110667Y-52900D01*
X110800Y-52550D01*
X111000Y-52250D01*
X111233Y-52050D01*
X111500Y-52000D01*
X111767Y-52050D01*
X112000Y-52250D01*
X112200Y-52550D01*
X112333Y-52900D01*
X112400Y-53300D01*
Y-53700D01*
X112333Y-54100D01*
X112200Y-54450D01*
X112000Y-54750D01*
X111767Y-54950D01*
X111500Y-55000D01*
G01X113233D02*
Y-52000D01*
X114767Y-55000D01*
Y-52000D01*
G01X90917Y-49000D02*
X91750Y-46000D01*
X92583Y-49000D01*
G01X92283Y-47950D02*
X91217D01*
G01X93583Y-46000D02*
Y-49000D01*
X94917D01*
G01X96083Y-46000D02*
Y-49000D01*
X97417D01*
G01X101017Y-46000D02*
Y-48150D01*
X101150Y-48600D01*
X101417Y-48900D01*
X101750Y-49000D01*
X102083Y-48900D01*
X102350Y-48600D01*
X102483Y-48150D01*
Y-46000D01*
G01X103483Y-49000D02*
Y-46000D01*
X105017Y-49000D01*
Y-46000D01*
G01X106350D02*
X107150D01*
G01X106750D02*
Y-49000D01*
G01X106350D02*
X107150D01*
G01X109250Y-46000D02*
Y-49000D01*
G01X108483Y-46000D02*
X110017D01*
G01X111050Y-48600D02*
X111317Y-48850D01*
X111617Y-49000D01*
X111883D01*
X112150Y-48850D01*
X112350Y-48600D01*
X112450Y-48250D01*
X112383Y-47900D01*
X112217Y-47600D01*
X111917Y-47400D01*
X111517Y-47300D01*
X111283Y-47100D01*
X111183Y-46750D01*
X111250Y-46400D01*
X111417Y-46150D01*
X111650Y-46000D01*
X111883D01*
X112117Y-46100D01*
X112317Y-46350D01*
G01X115917Y-49000D02*
X116750Y-46000D01*
X117583Y-49000D01*
G01X117283Y-47950D02*
X116217D01*
G01X118583Y-49000D02*
Y-46000D01*
X119417D01*
X119683Y-46150D01*
X119850Y-46350D01*
X119917Y-46750D01*
X119850Y-47150D01*
X119650Y-47400D01*
X119417Y-47550D01*
X118583D01*
G01X119417D02*
X119917Y-49000D01*
G01X122417D02*
X121083D01*
Y-46000D01*
X122417D01*
G01X121883Y-47450D02*
X121083D01*
G01X126350Y-46000D02*
X127150D01*
G01X126750D02*
Y-49000D01*
G01X126350D02*
X127150D01*
G01X128483D02*
Y-46000D01*
X130017Y-49000D01*
Y-46000D01*
G01X133383Y-49000D02*
Y-46000D01*
X134250Y-48500D01*
X135117Y-46000D01*
Y-49000D01*
G01X136350Y-46000D02*
X137150D01*
G01X136750D02*
Y-49000D01*
G01X136350D02*
X137150D01*
G01X138583Y-46000D02*
Y-49000D01*
X139917D01*
G01X141050Y-48600D02*
X141317Y-48850D01*
X141617Y-49000D01*
X141883D01*
X142150Y-48850D01*
X142350Y-48600D01*
X142450Y-48250D01*
X142383Y-47900D01*
X142217Y-47600D01*
X141917Y-47400D01*
X141517Y-47300D01*
X141283Y-47100D01*
X141183Y-46750D01*
X141250Y-46400D01*
X141417Y-46150D01*
X141650Y-46000D01*
X141883D01*
X142117Y-46100D01*
X142317Y-46350D01*
G01X104817Y-132265D02*
X105683D01*
G01X104817Y-122230D02*
X105683D01*
G01X104817Y-102159D02*
X105683D01*
G01X104817Y-112194D02*
X105683D01*
G01X104817Y-92124D02*
X105683D01*
G01X104817Y-72053D02*
X105683D01*
G01X104817Y-82088D02*
X105683D01*
G01X104817Y-62018D02*
X105683D01*
G01X127883Y-152335D02*
X128683D01*
G01X128250Y-151685D02*
Y-152986D01*
G01X130750Y-150335D02*
X130483Y-150435D01*
X130283Y-150685D01*
X130150Y-150985D01*
X130050Y-151386D01*
X130017Y-151835D01*
X130050Y-152285D01*
X130150Y-152685D01*
X130283Y-152986D01*
X130483Y-153235D01*
X130750Y-153335D01*
X131017Y-153235D01*
X131217Y-152986D01*
X131350Y-152685D01*
X131450Y-152285D01*
X131483Y-151835D01*
X131450Y-151386D01*
X131350Y-150985D01*
X131217Y-150685D01*
X131017Y-150435D01*
X130750Y-150335D01*
G01X133250Y-153435D02*
X133183Y-153385D01*
Y-153285D01*
X133250Y-153235D01*
X133317Y-153285D01*
Y-153385D01*
X133250Y-153435D01*
G01X135750Y-150335D02*
X135483Y-150435D01*
X135283Y-150685D01*
X135150Y-150985D01*
X135050Y-151386D01*
X135017Y-151835D01*
X135050Y-152285D01*
X135150Y-152685D01*
X135283Y-152986D01*
X135483Y-153235D01*
X135750Y-153335D01*
X136017Y-153235D01*
X136217Y-152986D01*
X136350Y-152685D01*
X136450Y-152285D01*
X136483Y-151835D01*
X136450Y-151386D01*
X136350Y-150985D01*
X136217Y-150685D01*
X136017Y-150435D01*
X135750Y-150335D01*
G01X137650Y-153435D02*
X138850Y-150335D01*
G01X140317Y-152335D02*
X141183D01*
G01X143250Y-150335D02*
X142983Y-150435D01*
X142783Y-150685D01*
X142650Y-150985D01*
X142550Y-151386D01*
X142517Y-151835D01*
X142550Y-152285D01*
X142650Y-152685D01*
X142783Y-152986D01*
X142983Y-153235D01*
X143250Y-153335D01*
X143517Y-153235D01*
X143717Y-152986D01*
X143850Y-152685D01*
X143950Y-152285D01*
X143983Y-151835D01*
X143950Y-151386D01*
X143850Y-150985D01*
X143717Y-150685D01*
X143517Y-150435D01*
X143250Y-150335D01*
G01X145750Y-153435D02*
X145683Y-153385D01*
Y-153285D01*
X145750Y-153235D01*
X145817Y-153285D01*
Y-153385D01*
X145750Y-153435D01*
G01X148250Y-150335D02*
X147983Y-150435D01*
X147783Y-150685D01*
X147650Y-150985D01*
X147550Y-151386D01*
X147517Y-151835D01*
X147550Y-152285D01*
X147650Y-152685D01*
X147783Y-152986D01*
X147983Y-153235D01*
X148250Y-153335D01*
X148517Y-153235D01*
X148717Y-152986D01*
X148850Y-152685D01*
X148950Y-152285D01*
X148983Y-151835D01*
X148950Y-151386D01*
X148850Y-150985D01*
X148717Y-150685D01*
X148517Y-150435D01*
X148250Y-150335D01*
G01X127883Y-132265D02*
X128683D01*
G01X128250Y-131615D02*
Y-132915D01*
G01X130750Y-130265D02*
X130483Y-130365D01*
X130283Y-130615D01*
X130150Y-130915D01*
X130050Y-131315D01*
X130017Y-131765D01*
X130050Y-132215D01*
X130150Y-132615D01*
X130283Y-132915D01*
X130483Y-133165D01*
X130750Y-133265D01*
X131017Y-133165D01*
X131217Y-132915D01*
X131350Y-132615D01*
X131450Y-132215D01*
X131483Y-131765D01*
X131450Y-131315D01*
X131350Y-130915D01*
X131217Y-130615D01*
X131017Y-130365D01*
X130750Y-130265D01*
G01X133250Y-133365D02*
X133183Y-133315D01*
Y-133215D01*
X133250Y-133165D01*
X133317Y-133215D01*
Y-133315D01*
X133250Y-133365D01*
G01X135750Y-130265D02*
X135483Y-130365D01*
X135283Y-130615D01*
X135150Y-130915D01*
X135050Y-131315D01*
X135017Y-131765D01*
X135050Y-132215D01*
X135150Y-132615D01*
X135283Y-132915D01*
X135483Y-133165D01*
X135750Y-133265D01*
X136017Y-133165D01*
X136217Y-132915D01*
X136350Y-132615D01*
X136450Y-132215D01*
X136483Y-131765D01*
X136450Y-131315D01*
X136350Y-130915D01*
X136217Y-130615D01*
X136017Y-130365D01*
X135750Y-130265D01*
G01X137650Y-133365D02*
X138850Y-130265D01*
G01X140317Y-132265D02*
X141183D01*
G01X143250Y-130265D02*
X142983Y-130365D01*
X142783Y-130615D01*
X142650Y-130915D01*
X142550Y-131315D01*
X142517Y-131765D01*
X142550Y-132215D01*
X142650Y-132615D01*
X142783Y-132915D01*
X142983Y-133165D01*
X143250Y-133265D01*
X143517Y-133165D01*
X143717Y-132915D01*
X143850Y-132615D01*
X143950Y-132215D01*
X143983Y-131765D01*
X143950Y-131315D01*
X143850Y-130915D01*
X143717Y-130615D01*
X143517Y-130365D01*
X143250Y-130265D01*
G01X145750Y-133365D02*
X145683Y-133315D01*
Y-133215D01*
X145750Y-133165D01*
X145817Y-133215D01*
Y-133315D01*
X145750Y-133365D01*
G01X148250Y-130265D02*
X147983Y-130365D01*
X147783Y-130615D01*
X147650Y-130915D01*
X147550Y-131315D01*
X147517Y-131765D01*
X147550Y-132215D01*
X147650Y-132615D01*
X147783Y-132915D01*
X147983Y-133165D01*
X148250Y-133265D01*
X148517Y-133165D01*
X148717Y-132915D01*
X148850Y-132615D01*
X148950Y-132215D01*
X148983Y-131765D01*
X148950Y-131315D01*
X148850Y-130915D01*
X148717Y-130615D01*
X148517Y-130365D01*
X148250Y-130265D01*
G01X127883Y-142300D02*
X128683D01*
G01X128250Y-141650D02*
Y-142950D01*
G01X130750Y-140300D02*
X130483Y-140400D01*
X130283Y-140650D01*
X130150Y-140950D01*
X130050Y-141350D01*
X130017Y-141800D01*
X130050Y-142250D01*
X130150Y-142650D01*
X130283Y-142950D01*
X130483Y-143200D01*
X130750Y-143300D01*
X131017Y-143200D01*
X131217Y-142950D01*
X131350Y-142650D01*
X131450Y-142250D01*
X131483Y-141800D01*
X131450Y-141350D01*
X131350Y-140950D01*
X131217Y-140650D01*
X131017Y-140400D01*
X130750Y-140300D01*
G01X133250Y-143400D02*
X133183Y-143350D01*
Y-143250D01*
X133250Y-143200D01*
X133317Y-143250D01*
Y-143350D01*
X133250Y-143400D01*
G01X135750Y-140300D02*
X135483Y-140400D01*
X135283Y-140650D01*
X135150Y-140950D01*
X135050Y-141350D01*
X135017Y-141800D01*
X135050Y-142250D01*
X135150Y-142650D01*
X135283Y-142950D01*
X135483Y-143200D01*
X135750Y-143300D01*
X136017Y-143200D01*
X136217Y-142950D01*
X136350Y-142650D01*
X136450Y-142250D01*
X136483Y-141800D01*
X136450Y-141350D01*
X136350Y-140950D01*
X136217Y-140650D01*
X136017Y-140400D01*
X135750Y-140300D01*
G01X137650Y-143400D02*
X138850Y-140300D01*
G01X140317Y-142300D02*
X141183D01*
G01X143250Y-140300D02*
X142983Y-140400D01*
X142783Y-140650D01*
X142650Y-140950D01*
X142550Y-141350D01*
X142517Y-141800D01*
X142550Y-142250D01*
X142650Y-142650D01*
X142783Y-142950D01*
X142983Y-143200D01*
X143250Y-143300D01*
X143517Y-143200D01*
X143717Y-142950D01*
X143850Y-142650D01*
X143950Y-142250D01*
X143983Y-141800D01*
X143950Y-141350D01*
X143850Y-140950D01*
X143717Y-140650D01*
X143517Y-140400D01*
X143250Y-140300D01*
G01X145750Y-143400D02*
X145683Y-143350D01*
Y-143250D01*
X145750Y-143200D01*
X145817Y-143250D01*
Y-143350D01*
X145750Y-143400D01*
G01X148250Y-140300D02*
X147983Y-140400D01*
X147783Y-140650D01*
X147650Y-140950D01*
X147550Y-141350D01*
X147517Y-141800D01*
X147550Y-142250D01*
X147650Y-142650D01*
X147783Y-142950D01*
X147983Y-143200D01*
X148250Y-143300D01*
X148517Y-143200D01*
X148717Y-142950D01*
X148850Y-142650D01*
X148950Y-142250D01*
X148983Y-141800D01*
X148950Y-141350D01*
X148850Y-140950D01*
X148717Y-140650D01*
X148517Y-140400D01*
X148250Y-140300D01*
G01X127883Y-122230D02*
X128683D01*
G01X128250Y-121580D02*
Y-122880D01*
G01X130750Y-120230D02*
X130483Y-120330D01*
X130283Y-120580D01*
X130150Y-120880D01*
X130050Y-121280D01*
X130017Y-121730D01*
X130050Y-122180D01*
X130150Y-122580D01*
X130283Y-122880D01*
X130483Y-123130D01*
X130750Y-123230D01*
X131017Y-123130D01*
X131217Y-122880D01*
X131350Y-122580D01*
X131450Y-122180D01*
X131483Y-121730D01*
X131450Y-121280D01*
X131350Y-120880D01*
X131217Y-120580D01*
X131017Y-120330D01*
X130750Y-120230D01*
G01X133250Y-123330D02*
X133183Y-123280D01*
Y-123180D01*
X133250Y-123130D01*
X133317Y-123180D01*
Y-123280D01*
X133250Y-123330D01*
G01X135750Y-120230D02*
X135483Y-120330D01*
X135283Y-120580D01*
X135150Y-120880D01*
X135050Y-121280D01*
X135017Y-121730D01*
X135050Y-122180D01*
X135150Y-122580D01*
X135283Y-122880D01*
X135483Y-123130D01*
X135750Y-123230D01*
X136017Y-123130D01*
X136217Y-122880D01*
X136350Y-122580D01*
X136450Y-122180D01*
X136483Y-121730D01*
X136450Y-121280D01*
X136350Y-120880D01*
X136217Y-120580D01*
X136017Y-120330D01*
X135750Y-120230D01*
G01X137650Y-123330D02*
X138850Y-120230D01*
G01X140317Y-122230D02*
X141183D01*
G01X143250Y-120230D02*
X142983Y-120330D01*
X142783Y-120580D01*
X142650Y-120880D01*
X142550Y-121280D01*
X142517Y-121730D01*
X142550Y-122180D01*
X142650Y-122580D01*
X142783Y-122880D01*
X142983Y-123130D01*
X143250Y-123230D01*
X143517Y-123130D01*
X143717Y-122880D01*
X143850Y-122580D01*
X143950Y-122180D01*
X143983Y-121730D01*
X143950Y-121280D01*
X143850Y-120880D01*
X143717Y-120580D01*
X143517Y-120330D01*
X143250Y-120230D01*
G01X145750Y-123330D02*
X145683Y-123280D01*
Y-123180D01*
X145750Y-123130D01*
X145817Y-123180D01*
Y-123280D01*
X145750Y-123330D01*
G01X148250Y-120230D02*
X147983Y-120330D01*
X147783Y-120580D01*
X147650Y-120880D01*
X147550Y-121280D01*
X147517Y-121730D01*
X147550Y-122180D01*
X147650Y-122580D01*
X147783Y-122880D01*
X147983Y-123130D01*
X148250Y-123230D01*
X148517Y-123130D01*
X148717Y-122880D01*
X148850Y-122580D01*
X148950Y-122180D01*
X148983Y-121730D01*
X148950Y-121280D01*
X148850Y-120880D01*
X148717Y-120580D01*
X148517Y-120330D01*
X148250Y-120230D01*
G01X127883Y-102159D02*
X128683D01*
G01X128250Y-101509D02*
Y-102809D01*
G01X130750Y-100159D02*
X130483Y-100259D01*
X130283Y-100509D01*
X130150Y-100809D01*
X130050Y-101209D01*
X130017Y-101659D01*
X130050Y-102109D01*
X130150Y-102509D01*
X130283Y-102809D01*
X130483Y-103059D01*
X130750Y-103159D01*
X131017Y-103059D01*
X131217Y-102809D01*
X131350Y-102509D01*
X131450Y-102109D01*
X131483Y-101659D01*
X131450Y-101209D01*
X131350Y-100809D01*
X131217Y-100509D01*
X131017Y-100259D01*
X130750Y-100159D01*
G01X133250Y-103259D02*
X133183Y-103209D01*
Y-103109D01*
X133250Y-103059D01*
X133317Y-103109D01*
Y-103209D01*
X133250Y-103259D01*
G01X135750Y-100159D02*
X135483Y-100259D01*
X135283Y-100509D01*
X135150Y-100809D01*
X135050Y-101209D01*
X135017Y-101659D01*
X135050Y-102109D01*
X135150Y-102509D01*
X135283Y-102809D01*
X135483Y-103059D01*
X135750Y-103159D01*
X136017Y-103059D01*
X136217Y-102809D01*
X136350Y-102509D01*
X136450Y-102109D01*
X136483Y-101659D01*
X136450Y-101209D01*
X136350Y-100809D01*
X136217Y-100509D01*
X136017Y-100259D01*
X135750Y-100159D01*
G01X137650Y-103259D02*
X138850Y-100159D01*
G01X140317Y-102159D02*
X141183D01*
G01X143250Y-100159D02*
X142983Y-100259D01*
X142783Y-100509D01*
X142650Y-100809D01*
X142550Y-101209D01*
X142517Y-101659D01*
X142550Y-102109D01*
X142650Y-102509D01*
X142783Y-102809D01*
X142983Y-103059D01*
X143250Y-103159D01*
X143517Y-103059D01*
X143717Y-102809D01*
X143850Y-102509D01*
X143950Y-102109D01*
X143983Y-101659D01*
X143950Y-101209D01*
X143850Y-100809D01*
X143717Y-100509D01*
X143517Y-100259D01*
X143250Y-100159D01*
G01X145750Y-103259D02*
X145683Y-103209D01*
Y-103109D01*
X145750Y-103059D01*
X145817Y-103109D01*
Y-103209D01*
X145750Y-103259D01*
G01X148250Y-100159D02*
X147983Y-100259D01*
X147783Y-100509D01*
X147650Y-100809D01*
X147550Y-101209D01*
X147517Y-101659D01*
X147550Y-102109D01*
X147650Y-102509D01*
X147783Y-102809D01*
X147983Y-103059D01*
X148250Y-103159D01*
X148517Y-103059D01*
X148717Y-102809D01*
X148850Y-102509D01*
X148950Y-102109D01*
X148983Y-101659D01*
X148950Y-101209D01*
X148850Y-100809D01*
X148717Y-100509D01*
X148517Y-100259D01*
X148250Y-100159D01*
G01X127883Y-112194D02*
X128683D01*
G01X128250Y-111544D02*
Y-112844D01*
G01X130750Y-110194D02*
X130483Y-110294D01*
X130283Y-110544D01*
X130150Y-110844D01*
X130050Y-111244D01*
X130017Y-111694D01*
X130050Y-112144D01*
X130150Y-112544D01*
X130283Y-112844D01*
X130483Y-113094D01*
X130750Y-113194D01*
X131017Y-113094D01*
X131217Y-112844D01*
X131350Y-112544D01*
X131450Y-112144D01*
X131483Y-111694D01*
X131450Y-111244D01*
X131350Y-110844D01*
X131217Y-110544D01*
X131017Y-110294D01*
X130750Y-110194D01*
G01X133250Y-113294D02*
X133183Y-113244D01*
Y-113144D01*
X133250Y-113094D01*
X133317Y-113144D01*
Y-113244D01*
X133250Y-113294D01*
G01X135750Y-110194D02*
X135483Y-110294D01*
X135283Y-110544D01*
X135150Y-110844D01*
X135050Y-111244D01*
X135017Y-111694D01*
X135050Y-112144D01*
X135150Y-112544D01*
X135283Y-112844D01*
X135483Y-113094D01*
X135750Y-113194D01*
X136017Y-113094D01*
X136217Y-112844D01*
X136350Y-112544D01*
X136450Y-112144D01*
X136483Y-111694D01*
X136450Y-111244D01*
X136350Y-110844D01*
X136217Y-110544D01*
X136017Y-110294D01*
X135750Y-110194D01*
G01X137650Y-113294D02*
X138850Y-110194D01*
G01X140317Y-112194D02*
X141183D01*
G01X143250Y-110194D02*
X142983Y-110294D01*
X142783Y-110544D01*
X142650Y-110844D01*
X142550Y-111244D01*
X142517Y-111694D01*
X142550Y-112144D01*
X142650Y-112544D01*
X142783Y-112844D01*
X142983Y-113094D01*
X143250Y-113194D01*
X143517Y-113094D01*
X143717Y-112844D01*
X143850Y-112544D01*
X143950Y-112144D01*
X143983Y-111694D01*
X143950Y-111244D01*
X143850Y-110844D01*
X143717Y-110544D01*
X143517Y-110294D01*
X143250Y-110194D01*
G01X145750Y-113294D02*
X145683Y-113244D01*
Y-113144D01*
X145750Y-113094D01*
X145817Y-113144D01*
Y-113244D01*
X145750Y-113294D01*
G01X148250Y-110194D02*
X147983Y-110294D01*
X147783Y-110544D01*
X147650Y-110844D01*
X147550Y-111244D01*
X147517Y-111694D01*
X147550Y-112144D01*
X147650Y-112544D01*
X147783Y-112844D01*
X147983Y-113094D01*
X148250Y-113194D01*
X148517Y-113094D01*
X148717Y-112844D01*
X148850Y-112544D01*
X148950Y-112144D01*
X148983Y-111694D01*
X148950Y-111244D01*
X148850Y-110844D01*
X148717Y-110544D01*
X148517Y-110294D01*
X148250Y-110194D01*
G01X127883Y-92124D02*
X128683D01*
G01X128250Y-91474D02*
Y-92774D01*
G01X130750Y-90124D02*
X130483Y-90224D01*
X130283Y-90474D01*
X130150Y-90774D01*
X130050Y-91174D01*
X130017Y-91624D01*
X130050Y-92074D01*
X130150Y-92474D01*
X130283Y-92774D01*
X130483Y-93024D01*
X130750Y-93124D01*
X131017Y-93024D01*
X131217Y-92774D01*
X131350Y-92474D01*
X131450Y-92074D01*
X131483Y-91624D01*
X131450Y-91174D01*
X131350Y-90774D01*
X131217Y-90474D01*
X131017Y-90224D01*
X130750Y-90124D01*
G01X133250Y-93224D02*
X133183Y-93174D01*
Y-93074D01*
X133250Y-93024D01*
X133317Y-93074D01*
Y-93174D01*
X133250Y-93224D01*
G01X135750Y-90124D02*
X135483Y-90224D01*
X135283Y-90474D01*
X135150Y-90774D01*
X135050Y-91174D01*
X135017Y-91624D01*
X135050Y-92074D01*
X135150Y-92474D01*
X135283Y-92774D01*
X135483Y-93024D01*
X135750Y-93124D01*
X136017Y-93024D01*
X136217Y-92774D01*
X136350Y-92474D01*
X136450Y-92074D01*
X136483Y-91624D01*
X136450Y-91174D01*
X136350Y-90774D01*
X136217Y-90474D01*
X136017Y-90224D01*
X135750Y-90124D01*
G01X137650Y-93224D02*
X138850Y-90124D01*
G01X140317Y-92124D02*
X141183D01*
G01X143250Y-90124D02*
X142983Y-90224D01*
X142783Y-90474D01*
X142650Y-90774D01*
X142550Y-91174D01*
X142517Y-91624D01*
X142550Y-92074D01*
X142650Y-92474D01*
X142783Y-92774D01*
X142983Y-93024D01*
X143250Y-93124D01*
X143517Y-93024D01*
X143717Y-92774D01*
X143850Y-92474D01*
X143950Y-92074D01*
X143983Y-91624D01*
X143950Y-91174D01*
X143850Y-90774D01*
X143717Y-90474D01*
X143517Y-90224D01*
X143250Y-90124D01*
G01X145750Y-93224D02*
X145683Y-93174D01*
Y-93074D01*
X145750Y-93024D01*
X145817Y-93074D01*
Y-93174D01*
X145750Y-93224D01*
G01X148250Y-90124D02*
X147983Y-90224D01*
X147783Y-90474D01*
X147650Y-90774D01*
X147550Y-91174D01*
X147517Y-91624D01*
X147550Y-92074D01*
X147650Y-92474D01*
X147783Y-92774D01*
X147983Y-93024D01*
X148250Y-93124D01*
X148517Y-93024D01*
X148717Y-92774D01*
X148850Y-92474D01*
X148950Y-92074D01*
X148983Y-91624D01*
X148950Y-91174D01*
X148850Y-90774D01*
X148717Y-90474D01*
X148517Y-90224D01*
X148250Y-90124D01*
G01X127883Y-72053D02*
X128683D01*
G01X128250Y-71403D02*
Y-72703D01*
G01X130750Y-70053D02*
X130483Y-70153D01*
X130283Y-70403D01*
X130150Y-70703D01*
X130050Y-71103D01*
X130017Y-71553D01*
X130050Y-72003D01*
X130150Y-72403D01*
X130283Y-72703D01*
X130483Y-72953D01*
X130750Y-73053D01*
X131017Y-72953D01*
X131217Y-72703D01*
X131350Y-72403D01*
X131450Y-72003D01*
X131483Y-71553D01*
X131450Y-71103D01*
X131350Y-70703D01*
X131217Y-70403D01*
X131017Y-70153D01*
X130750Y-70053D01*
G01X133250Y-73153D02*
X133183Y-73103D01*
Y-73003D01*
X133250Y-72953D01*
X133317Y-73003D01*
Y-73103D01*
X133250Y-73153D01*
G01X135750Y-70053D02*
X135483Y-70153D01*
X135283Y-70403D01*
X135150Y-70703D01*
X135050Y-71103D01*
X135017Y-71553D01*
X135050Y-72003D01*
X135150Y-72403D01*
X135283Y-72703D01*
X135483Y-72953D01*
X135750Y-73053D01*
X136017Y-72953D01*
X136217Y-72703D01*
X136350Y-72403D01*
X136450Y-72003D01*
X136483Y-71553D01*
X136450Y-71103D01*
X136350Y-70703D01*
X136217Y-70403D01*
X136017Y-70153D01*
X135750Y-70053D01*
G01X137650Y-73153D02*
X138850Y-70053D01*
G01X140317Y-72053D02*
X141183D01*
G01X143250Y-70053D02*
X142983Y-70153D01*
X142783Y-70403D01*
X142650Y-70703D01*
X142550Y-71103D01*
X142517Y-71553D01*
X142550Y-72003D01*
X142650Y-72403D01*
X142783Y-72703D01*
X142983Y-72953D01*
X143250Y-73053D01*
X143517Y-72953D01*
X143717Y-72703D01*
X143850Y-72403D01*
X143950Y-72003D01*
X143983Y-71553D01*
X143950Y-71103D01*
X143850Y-70703D01*
X143717Y-70403D01*
X143517Y-70153D01*
X143250Y-70053D01*
G01X145750Y-73153D02*
X145683Y-73103D01*
Y-73003D01*
X145750Y-72953D01*
X145817Y-73003D01*
Y-73103D01*
X145750Y-73153D01*
G01X148250Y-70053D02*
X147983Y-70153D01*
X147783Y-70403D01*
X147650Y-70703D01*
X147550Y-71103D01*
X147517Y-71553D01*
X147550Y-72003D01*
X147650Y-72403D01*
X147783Y-72703D01*
X147983Y-72953D01*
X148250Y-73053D01*
X148517Y-72953D01*
X148717Y-72703D01*
X148850Y-72403D01*
X148950Y-72003D01*
X148983Y-71553D01*
X148950Y-71103D01*
X148850Y-70703D01*
X148717Y-70403D01*
X148517Y-70153D01*
X148250Y-70053D01*
G01X127883Y-82088D02*
X128683D01*
G01X128250Y-81438D02*
Y-82738D01*
G01X130017Y-82488D02*
X130217Y-82838D01*
X130483Y-83038D01*
X130783Y-83088D01*
X131050Y-83038D01*
X131317Y-82788D01*
X131483Y-82488D01*
X131517Y-82188D01*
X131450Y-81838D01*
X131217Y-81588D01*
X130983Y-81488D01*
X130683D01*
G01X130983D02*
X131183Y-81338D01*
X131350Y-81088D01*
X131417Y-80788D01*
X131350Y-80488D01*
X131183Y-80238D01*
X130883Y-80088D01*
X130583Y-80138D01*
X130283Y-80338D01*
G01X133250Y-83188D02*
X133183Y-83138D01*
Y-83038D01*
X133250Y-82988D01*
X133317Y-83038D01*
Y-83138D01*
X133250Y-83188D01*
G01X135750Y-80088D02*
X135483Y-80188D01*
X135283Y-80438D01*
X135150Y-80738D01*
X135050Y-81138D01*
X135017Y-81588D01*
X135050Y-82038D01*
X135150Y-82438D01*
X135283Y-82738D01*
X135483Y-82988D01*
X135750Y-83088D01*
X136017Y-82988D01*
X136217Y-82738D01*
X136350Y-82438D01*
X136450Y-82038D01*
X136483Y-81588D01*
X136450Y-81138D01*
X136350Y-80738D01*
X136217Y-80438D01*
X136017Y-80188D01*
X135750Y-80088D01*
G01X137650Y-83188D02*
X138850Y-80088D01*
G01X140317Y-82088D02*
X141183D01*
G01X142517Y-82488D02*
X142717Y-82838D01*
X142983Y-83038D01*
X143283Y-83088D01*
X143550Y-83038D01*
X143817Y-82788D01*
X143983Y-82488D01*
X144017Y-82188D01*
X143950Y-81838D01*
X143717Y-81588D01*
X143483Y-81488D01*
X143183D01*
G01X143483D02*
X143683Y-81338D01*
X143850Y-81088D01*
X143917Y-80788D01*
X143850Y-80488D01*
X143683Y-80238D01*
X143383Y-80088D01*
X143083Y-80138D01*
X142783Y-80338D01*
G01X145750Y-83188D02*
X145683Y-83138D01*
Y-83038D01*
X145750Y-82988D01*
X145817Y-83038D01*
Y-83138D01*
X145750Y-83188D01*
G01X148250Y-80088D02*
X147983Y-80188D01*
X147783Y-80438D01*
X147650Y-80738D01*
X147550Y-81138D01*
X147517Y-81588D01*
X147550Y-82038D01*
X147650Y-82438D01*
X147783Y-82738D01*
X147983Y-82988D01*
X148250Y-83088D01*
X148517Y-82988D01*
X148717Y-82738D01*
X148850Y-82438D01*
X148950Y-82038D01*
X148983Y-81588D01*
X148950Y-81138D01*
X148850Y-80738D01*
X148717Y-80438D01*
X148517Y-80188D01*
X148250Y-80088D01*
G01X120750Y-52000D02*
Y-55000D01*
G01X119983Y-52000D02*
X121517D01*
G01X123250Y-55000D02*
X122983Y-54950D01*
X122750Y-54750D01*
X122550Y-54450D01*
X122417Y-54100D01*
X122350Y-53700D01*
Y-53300D01*
X122417Y-52900D01*
X122550Y-52550D01*
X122750Y-52250D01*
X122983Y-52050D01*
X123250Y-52000D01*
X123517Y-52050D01*
X123750Y-52250D01*
X123950Y-52550D01*
X124083Y-52900D01*
X124150Y-53300D01*
Y-53700D01*
X124083Y-54100D01*
X123950Y-54450D01*
X123750Y-54750D01*
X123517Y-54950D01*
X123250Y-55000D01*
G01X125083Y-52000D02*
Y-55000D01*
X126417D01*
G01X128917D02*
X127583D01*
Y-52000D01*
X128917D01*
G01X128383Y-53450D02*
X127583D01*
G01X130083Y-55000D02*
Y-52000D01*
X130917D01*
X131183Y-52150D01*
X131350Y-52350D01*
X131417Y-52750D01*
X131350Y-53150D01*
X131150Y-53400D01*
X130917Y-53550D01*
X130083D01*
G01X130917D02*
X131417Y-55000D01*
G01X132417D02*
X133250Y-52000D01*
X134083Y-55000D01*
G01X133783Y-53950D02*
X132717D01*
G01X134983Y-55000D02*
Y-52000D01*
X136517Y-55000D01*
Y-52000D01*
G01X138983Y-52250D02*
X138783Y-52100D01*
X138550Y-52000D01*
X138283D01*
X137983Y-52150D01*
X137750Y-52400D01*
X137583Y-52700D01*
X137450Y-53200D01*
X137417Y-53650D01*
X137483Y-54100D01*
X137583Y-54400D01*
X137783Y-54700D01*
X138017Y-54900D01*
X138250Y-55000D01*
X138483D01*
X138717Y-54900D01*
X138917Y-54750D01*
X139083Y-54550D01*
G01X141417Y-55000D02*
X140083D01*
Y-52000D01*
X141417D01*
G01X140883Y-53450D02*
X140083D01*
G01X142250Y-56000D02*
X144250D01*
G01X145017Y-55000D02*
Y-52000D01*
X145683D01*
X145950Y-52150D01*
X146150Y-52350D01*
X146317Y-52650D01*
X146450Y-53000D01*
X146483Y-53500D01*
X146450Y-54000D01*
X146317Y-54350D01*
X146150Y-54650D01*
X145950Y-54850D01*
X145683Y-55000D01*
X145017D01*
G01X147583D02*
Y-52000D01*
X148417D01*
X148683Y-52150D01*
X148850Y-52350D01*
X148917Y-52750D01*
X148850Y-53150D01*
X148650Y-53400D01*
X148417Y-53550D01*
X147583D01*
G01X148417D02*
X148917Y-55000D01*
G01X150350Y-52000D02*
X151150D01*
G01X150750D02*
Y-55000D01*
G01X150350D02*
X151150D01*
G01X152583Y-52000D02*
Y-55000D01*
X153917D01*
G01X155083Y-52000D02*
Y-55000D01*
X156417D01*
G01X127883Y-62018D02*
X128683D01*
G01X128250Y-61368D02*
Y-62668D01*
G01X130750Y-60018D02*
X130483Y-60118D01*
X130283Y-60368D01*
X130150Y-60668D01*
X130050Y-61068D01*
X130017Y-61518D01*
X130050Y-61968D01*
X130150Y-62368D01*
X130283Y-62668D01*
X130483Y-62918D01*
X130750Y-63018D01*
X131017Y-62918D01*
X131217Y-62668D01*
X131350Y-62368D01*
X131450Y-61968D01*
X131483Y-61518D01*
X131450Y-61068D01*
X131350Y-60668D01*
X131217Y-60368D01*
X131017Y-60118D01*
X130750Y-60018D01*
G01X133250Y-63118D02*
X133183Y-63068D01*
Y-62968D01*
X133250Y-62918D01*
X133317Y-62968D01*
Y-63068D01*
X133250Y-63118D01*
G01X135750Y-60018D02*
X135483Y-60118D01*
X135283Y-60368D01*
X135150Y-60668D01*
X135050Y-61068D01*
X135017Y-61518D01*
X135050Y-61968D01*
X135150Y-62368D01*
X135283Y-62668D01*
X135483Y-62918D01*
X135750Y-63018D01*
X136017Y-62918D01*
X136217Y-62668D01*
X136350Y-62368D01*
X136450Y-61968D01*
X136483Y-61518D01*
X136450Y-61068D01*
X136350Y-60668D01*
X136217Y-60368D01*
X136017Y-60118D01*
X135750Y-60018D01*
G01X137650Y-63118D02*
X138850Y-60018D01*
G01X140317Y-62018D02*
X141183D01*
G01X143250Y-60018D02*
X142983Y-60118D01*
X142783Y-60368D01*
X142650Y-60668D01*
X142550Y-61068D01*
X142517Y-61518D01*
X142550Y-61968D01*
X142650Y-62368D01*
X142783Y-62668D01*
X142983Y-62918D01*
X143250Y-63018D01*
X143517Y-62918D01*
X143717Y-62668D01*
X143850Y-62368D01*
X143950Y-61968D01*
X143983Y-61518D01*
X143950Y-61068D01*
X143850Y-60668D01*
X143717Y-60368D01*
X143517Y-60118D01*
X143250Y-60018D01*
G01X145750Y-63118D02*
X145683Y-63068D01*
Y-62968D01*
X145750Y-62918D01*
X145817Y-62968D01*
Y-63068D01*
X145750Y-63118D01*
G01X148250Y-60018D02*
X147983Y-60118D01*
X147783Y-60368D01*
X147650Y-60668D01*
X147550Y-61068D01*
X147517Y-61518D01*
X147550Y-61968D01*
X147650Y-62368D01*
X147783Y-62668D01*
X147983Y-62918D01*
X148250Y-63018D01*
X148517Y-62918D01*
X148717Y-62668D01*
X148850Y-62368D01*
X148950Y-61968D01*
X148983Y-61518D01*
X148950Y-61068D01*
X148850Y-60668D01*
X148717Y-60368D01*
X148517Y-60118D01*
X148250Y-60018D01*
G01X164333Y-153335D02*
Y-150335D01*
X165133D01*
X165400Y-150486D01*
X165600Y-150835D01*
X165667Y-151235D01*
X165600Y-151635D01*
X165433Y-151935D01*
X165133Y-152086D01*
X164333D01*
G01X166833Y-150335D02*
Y-153335D01*
X168167D01*
G01X169167D02*
X170000Y-150335D01*
X170833Y-153335D01*
G01X170533Y-152285D02*
X169467D01*
G01X172500Y-150335D02*
Y-153335D01*
G01X171733Y-150335D02*
X173267D01*
G01X175667Y-153335D02*
X174333D01*
Y-150335D01*
X175667D01*
G01X175133Y-151785D02*
X174333D01*
G01X176767Y-153335D02*
Y-150335D01*
X177433D01*
X177700Y-150486D01*
X177900Y-150685D01*
X178067Y-150985D01*
X178200Y-151336D01*
X178233Y-151835D01*
X178200Y-152335D01*
X178067Y-152685D01*
X177900Y-152986D01*
X177700Y-153185D01*
X177433Y-153335D01*
X176767D01*
G01X159233Y-133265D02*
Y-130265D01*
X160767Y-133265D01*
Y-130265D01*
G01X162500Y-133265D02*
X162233Y-133215D01*
X162000Y-133015D01*
X161800Y-132715D01*
X161667Y-132365D01*
X161600Y-131965D01*
Y-131565D01*
X161667Y-131165D01*
X161800Y-130815D01*
X162000Y-130515D01*
X162233Y-130315D01*
X162500Y-130265D01*
X162767Y-130315D01*
X163000Y-130515D01*
X163200Y-130815D01*
X163333Y-131165D01*
X163400Y-131565D01*
Y-131965D01*
X163333Y-132365D01*
X163200Y-132715D01*
X163000Y-133015D01*
X162767Y-133215D01*
X162500Y-133265D01*
G01X164233D02*
Y-130265D01*
X165767Y-133265D01*
Y-130265D01*
G01X167067Y-132265D02*
X167933D01*
G01X169333Y-133265D02*
Y-130265D01*
X170133D01*
X170400Y-130415D01*
X170600Y-130765D01*
X170667Y-131165D01*
X170600Y-131565D01*
X170433Y-131865D01*
X170133Y-132015D01*
X169333D01*
G01X171833Y-130265D02*
Y-133265D01*
X173167D01*
G01X174167D02*
X175000Y-130265D01*
X175833Y-133265D01*
G01X175533Y-132215D02*
X174467D01*
G01X177500Y-130265D02*
Y-133265D01*
G01X176733Y-130265D02*
X178267D01*
G01X180667Y-133265D02*
X179333D01*
Y-130265D01*
X180667D01*
G01X180133Y-131715D02*
X179333D01*
G01X181767Y-133265D02*
Y-130265D01*
X182433D01*
X182700Y-130415D01*
X182900Y-130615D01*
X183067Y-130915D01*
X183200Y-131265D01*
X183233Y-131765D01*
X183200Y-132265D01*
X183067Y-132615D01*
X182900Y-132915D01*
X182700Y-133115D01*
X182433Y-133265D01*
X181767D01*
G01X164333Y-143300D02*
Y-140300D01*
X165133D01*
X165400Y-140450D01*
X165600Y-140800D01*
X165667Y-141200D01*
X165600Y-141600D01*
X165433Y-141900D01*
X165133Y-142050D01*
X164333D01*
G01X166833Y-140300D02*
Y-143300D01*
X168167D01*
G01X169167D02*
X170000Y-140300D01*
X170833Y-143300D01*
G01X170533Y-142250D02*
X169467D01*
G01X172500Y-140300D02*
Y-143300D01*
G01X171733Y-140300D02*
X173267D01*
G01X175667Y-143300D02*
X174333D01*
Y-140300D01*
X175667D01*
G01X175133Y-141750D02*
X174333D01*
G01X176767Y-143300D02*
Y-140300D01*
X177433D01*
X177700Y-140450D01*
X177900Y-140650D01*
X178067Y-140950D01*
X178200Y-141300D01*
X178233Y-141800D01*
X178200Y-142300D01*
X178067Y-142650D01*
X177900Y-142950D01*
X177700Y-143150D01*
X177433Y-143300D01*
X176767D01*
G01X164333Y-123230D02*
Y-120230D01*
X165133D01*
X165400Y-120380D01*
X165600Y-120730D01*
X165667Y-121130D01*
X165600Y-121530D01*
X165433Y-121830D01*
X165133Y-121980D01*
X164333D01*
G01X166833Y-120230D02*
Y-123230D01*
X168167D01*
G01X169167D02*
X170000Y-120230D01*
X170833Y-123230D01*
G01X170533Y-122180D02*
X169467D01*
G01X172500Y-120230D02*
Y-123230D01*
G01X171733Y-120230D02*
X173267D01*
G01X175667Y-123230D02*
X174333D01*
Y-120230D01*
X175667D01*
G01X175133Y-121680D02*
X174333D01*
G01X176767Y-123230D02*
Y-120230D01*
X177433D01*
X177700Y-120380D01*
X177900Y-120580D01*
X178067Y-120880D01*
X178200Y-121230D01*
X178233Y-121730D01*
X178200Y-122230D01*
X178067Y-122580D01*
X177900Y-122880D01*
X177700Y-123080D01*
X177433Y-123230D01*
X176767D01*
G01X164333Y-103159D02*
Y-100159D01*
X165133D01*
X165400Y-100309D01*
X165600Y-100659D01*
X165667Y-101059D01*
X165600Y-101459D01*
X165433Y-101759D01*
X165133Y-101909D01*
X164333D01*
G01X166833Y-100159D02*
Y-103159D01*
X168167D01*
G01X169167D02*
X170000Y-100159D01*
X170833Y-103159D01*
G01X170533Y-102109D02*
X169467D01*
G01X172500Y-100159D02*
Y-103159D01*
G01X171733Y-100159D02*
X173267D01*
G01X175667Y-103159D02*
X174333D01*
Y-100159D01*
X175667D01*
G01X175133Y-101609D02*
X174333D01*
G01X176767Y-103159D02*
Y-100159D01*
X177433D01*
X177700Y-100309D01*
X177900Y-100509D01*
X178067Y-100809D01*
X178200Y-101159D01*
X178233Y-101659D01*
X178200Y-102159D01*
X178067Y-102509D01*
X177900Y-102809D01*
X177700Y-103009D01*
X177433Y-103159D01*
X176767D01*
G01X164333Y-113194D02*
Y-110194D01*
X165133D01*
X165400Y-110344D01*
X165600Y-110694D01*
X165667Y-111094D01*
X165600Y-111494D01*
X165433Y-111794D01*
X165133Y-111944D01*
X164333D01*
G01X166833Y-110194D02*
Y-113194D01*
X168167D01*
G01X169167D02*
X170000Y-110194D01*
X170833Y-113194D01*
G01X170533Y-112144D02*
X169467D01*
G01X172500Y-110194D02*
Y-113194D01*
G01X171733Y-110194D02*
X173267D01*
G01X175667Y-113194D02*
X174333D01*
Y-110194D01*
X175667D01*
G01X175133Y-111644D02*
X174333D01*
G01X176767Y-113194D02*
Y-110194D01*
X177433D01*
X177700Y-110344D01*
X177900Y-110544D01*
X178067Y-110844D01*
X178200Y-111194D01*
X178233Y-111694D01*
X178200Y-112194D01*
X178067Y-112544D01*
X177900Y-112844D01*
X177700Y-113044D01*
X177433Y-113194D01*
X176767D01*
G01X164333Y-93124D02*
Y-90124D01*
X165133D01*
X165400Y-90274D01*
X165600Y-90624D01*
X165667Y-91024D01*
X165600Y-91424D01*
X165433Y-91724D01*
X165133Y-91874D01*
X164333D01*
G01X166833Y-90124D02*
Y-93124D01*
X168167D01*
G01X169167D02*
X170000Y-90124D01*
X170833Y-93124D01*
G01X170533Y-92074D02*
X169467D01*
G01X172500Y-90124D02*
Y-93124D01*
G01X171733Y-90124D02*
X173267D01*
G01X175667Y-93124D02*
X174333D01*
Y-90124D01*
X175667D01*
G01X175133Y-91574D02*
X174333D01*
G01X176767Y-93124D02*
Y-90124D01*
X177433D01*
X177700Y-90274D01*
X177900Y-90474D01*
X178067Y-90774D01*
X178200Y-91124D01*
X178233Y-91624D01*
X178200Y-92124D01*
X178067Y-92474D01*
X177900Y-92774D01*
X177700Y-92974D01*
X177433Y-93124D01*
X176767D01*
G01X164333Y-73053D02*
Y-70053D01*
X165133D01*
X165400Y-70203D01*
X165600Y-70553D01*
X165667Y-70953D01*
X165600Y-71353D01*
X165433Y-71653D01*
X165133Y-71803D01*
X164333D01*
G01X166833Y-70053D02*
Y-73053D01*
X168167D01*
G01X169167D02*
X170000Y-70053D01*
X170833Y-73053D01*
G01X170533Y-72003D02*
X169467D01*
G01X172500Y-70053D02*
Y-73053D01*
G01X171733Y-70053D02*
X173267D01*
G01X175667Y-73053D02*
X174333D01*
Y-70053D01*
X175667D01*
G01X175133Y-71503D02*
X174333D01*
G01X176767Y-73053D02*
Y-70053D01*
X177433D01*
X177700Y-70203D01*
X177900Y-70403D01*
X178067Y-70703D01*
X178200Y-71053D01*
X178233Y-71553D01*
X178200Y-72053D01*
X178067Y-72403D01*
X177900Y-72703D01*
X177700Y-72903D01*
X177433Y-73053D01*
X176767D01*
G01X164333Y-83088D02*
Y-80088D01*
X165133D01*
X165400Y-80238D01*
X165600Y-80588D01*
X165667Y-80988D01*
X165600Y-81388D01*
X165433Y-81688D01*
X165133Y-81838D01*
X164333D01*
G01X166833Y-80088D02*
Y-83088D01*
X168167D01*
G01X169167D02*
X170000Y-80088D01*
X170833Y-83088D01*
G01X170533Y-82038D02*
X169467D01*
G01X172500Y-80088D02*
Y-83088D01*
G01X171733Y-80088D02*
X173267D01*
G01X175667Y-83088D02*
X174333D01*
Y-80088D01*
X175667D01*
G01X175133Y-81538D02*
X174333D01*
G01X176767Y-83088D02*
Y-80088D01*
X177433D01*
X177700Y-80238D01*
X177900Y-80438D01*
X178067Y-80738D01*
X178200Y-81088D01*
X178233Y-81588D01*
X178200Y-82088D01*
X178067Y-82438D01*
X177900Y-82738D01*
X177700Y-82938D01*
X177433Y-83088D01*
X176767D01*
G01X164333Y-55000D02*
Y-52000D01*
X165133D01*
X165400Y-52150D01*
X165600Y-52500D01*
X165667Y-52900D01*
X165600Y-53300D01*
X165433Y-53600D01*
X165133Y-53750D01*
X164333D01*
G01X166833Y-52000D02*
Y-55000D01*
X168167D01*
G01X169167D02*
X170000Y-52000D01*
X170833Y-55000D01*
G01X170533Y-53950D02*
X169467D01*
G01X172500Y-52000D02*
Y-55000D01*
G01X171733Y-52000D02*
X173267D01*
G01X175667Y-55000D02*
X174333D01*
Y-52000D01*
X175667D01*
G01X175133Y-53450D02*
X174333D01*
G01X176767Y-55000D02*
Y-52000D01*
X177433D01*
X177700Y-52150D01*
X177900Y-52350D01*
X178067Y-52650D01*
X178200Y-53000D01*
X178233Y-53500D01*
X178200Y-54000D01*
X178067Y-54350D01*
X177900Y-54650D01*
X177700Y-54850D01*
X177433Y-55000D01*
X176767D01*
G01X164333Y-63018D02*
Y-60018D01*
X165133D01*
X165400Y-60168D01*
X165600Y-60518D01*
X165667Y-60918D01*
X165600Y-61318D01*
X165433Y-61618D01*
X165133Y-61768D01*
X164333D01*
G01X166833Y-60018D02*
Y-63018D01*
X168167D01*
G01X169167D02*
X170000Y-60018D01*
X170833Y-63018D01*
G01X170533Y-61968D02*
X169467D01*
G01X172500Y-60018D02*
Y-63018D01*
G01X171733Y-60018D02*
X173267D01*
G01X175667Y-63018D02*
X174333D01*
Y-60018D01*
X175667D01*
G01X175133Y-61468D02*
X174333D01*
G01X176767Y-63018D02*
Y-60018D01*
X177433D01*
X177700Y-60168D01*
X177900Y-60368D01*
X178067Y-60668D01*
X178200Y-61018D01*
X178233Y-61518D01*
X178200Y-62018D01*
X178067Y-62368D01*
X177900Y-62668D01*
X177700Y-62868D01*
X177433Y-63018D01*
X176767D01*
G01X191117Y-150835D02*
X191317Y-150535D01*
X191550Y-150385D01*
X191817Y-150335D01*
X192150Y-150435D01*
X192383Y-150685D01*
X192450Y-150985D01*
X192417Y-151286D01*
X192283Y-151535D01*
X191617Y-152035D01*
X191317Y-152385D01*
X191117Y-152886D01*
X191050Y-153335D01*
X192450D01*
G01X191117Y-130765D02*
X191317Y-130465D01*
X191550Y-130315D01*
X191817Y-130265D01*
X192150Y-130365D01*
X192383Y-130615D01*
X192450Y-130915D01*
X192417Y-131215D01*
X192283Y-131465D01*
X191617Y-131965D01*
X191317Y-132315D01*
X191117Y-132815D01*
X191050Y-133265D01*
X192450D01*
G01X191117Y-140800D02*
X191317Y-140500D01*
X191550Y-140350D01*
X191817Y-140300D01*
X192150Y-140400D01*
X192383Y-140650D01*
X192450Y-140950D01*
X192417Y-141250D01*
X192283Y-141500D01*
X191617Y-142000D01*
X191317Y-142350D01*
X191117Y-142850D01*
X191050Y-143300D01*
X192450D01*
G01X190500Y-123230D02*
Y-120230D01*
X190100Y-120830D01*
G01Y-123230D02*
X190900D01*
G01X193000Y-120230D02*
X192733Y-120330D01*
X192533Y-120580D01*
X192400Y-120880D01*
X192300Y-121280D01*
X192267Y-121730D01*
X192300Y-122180D01*
X192400Y-122580D01*
X192533Y-122880D01*
X192733Y-123130D01*
X193000Y-123230D01*
X193267Y-123130D01*
X193467Y-122880D01*
X193600Y-122580D01*
X193700Y-122180D01*
X193733Y-121730D01*
X193700Y-121280D01*
X193600Y-120880D01*
X193467Y-120580D01*
X193267Y-120330D01*
X193000Y-120230D01*
G01X189867Y-100659D02*
X190067Y-100359D01*
X190300Y-100209D01*
X190567Y-100159D01*
X190900Y-100259D01*
X191133Y-100509D01*
X191200Y-100809D01*
X191167Y-101109D01*
X191033Y-101359D01*
X190367Y-101859D01*
X190067Y-102209D01*
X189867Y-102709D01*
X189800Y-103159D01*
X191200D01*
G01X193400D02*
Y-100159D01*
X192167Y-102309D01*
X193833D01*
G01X191117Y-110694D02*
X191317Y-110394D01*
X191550Y-110244D01*
X191817Y-110194D01*
X192150Y-110294D01*
X192383Y-110544D01*
X192450Y-110844D01*
X192417Y-111144D01*
X192283Y-111394D01*
X191617Y-111894D01*
X191317Y-112244D01*
X191117Y-112744D01*
X191050Y-113194D01*
X192450D01*
G01X190500Y-93124D02*
Y-90124D01*
X190100Y-90724D01*
G01Y-93124D02*
X190900D01*
G01X192367Y-90624D02*
X192567Y-90324D01*
X192800Y-90174D01*
X193067Y-90124D01*
X193400Y-90224D01*
X193633Y-90474D01*
X193700Y-90774D01*
X193667Y-91074D01*
X193533Y-91324D01*
X192867Y-91824D01*
X192567Y-92174D01*
X192367Y-92674D01*
X192300Y-93124D01*
X193700D01*
G01X188617Y-71803D02*
X188850Y-71453D01*
X189050Y-71253D01*
X189317Y-71153D01*
X189550Y-71253D01*
X189717Y-71453D01*
X189850Y-71753D01*
X189883Y-72103D01*
X189850Y-72403D01*
X189717Y-72703D01*
X189517Y-72953D01*
X189283Y-73053D01*
X189017Y-72953D01*
X188783Y-72653D01*
X188650Y-72203D01*
X188617Y-71703D01*
X188683Y-71053D01*
X188783Y-70703D01*
X188950Y-70353D01*
X189183Y-70103D01*
X189417Y-70053D01*
X189650Y-70153D01*
X189817Y-70403D01*
G01X191117Y-70553D02*
X191317Y-70253D01*
X191550Y-70103D01*
X191817Y-70053D01*
X192150Y-70153D01*
X192383Y-70403D01*
X192450Y-70703D01*
X192417Y-71003D01*
X192283Y-71253D01*
X191617Y-71753D01*
X191317Y-72103D01*
X191117Y-72603D01*
X191050Y-73053D01*
X192450D01*
G01X193517Y-72603D02*
X193717Y-72853D01*
X193950Y-73003D01*
X194250Y-73053D01*
X194550Y-72953D01*
X194783Y-72753D01*
X194950Y-72403D01*
X194983Y-72003D01*
X194917Y-71603D01*
X194750Y-71353D01*
X194517Y-71153D01*
X194283Y-71103D01*
X194050Y-71153D01*
X193750Y-71353D01*
X193850Y-70053D01*
X194750D01*
G01X191017Y-82638D02*
X191217Y-82888D01*
X191450Y-83038D01*
X191750Y-83088D01*
X192050Y-82988D01*
X192283Y-82788D01*
X192450Y-82438D01*
X192483Y-82038D01*
X192417Y-81638D01*
X192250Y-81388D01*
X192017Y-81188D01*
X191783Y-81138D01*
X191550Y-81188D01*
X191250Y-81388D01*
X191350Y-80088D01*
X192250D01*
G01X189250Y-55000D02*
X188983Y-54950D01*
X188750Y-54750D01*
X188550Y-54450D01*
X188417Y-54100D01*
X188350Y-53700D01*
Y-53300D01*
X188417Y-52900D01*
X188550Y-52550D01*
X188750Y-52250D01*
X188983Y-52050D01*
X189250Y-52000D01*
X189517Y-52050D01*
X189750Y-52250D01*
X189950Y-52550D01*
X190083Y-52900D01*
X190150Y-53300D01*
Y-53700D01*
X190083Y-54100D01*
X189950Y-54450D01*
X189750Y-54750D01*
X189517Y-54950D01*
X189250Y-55000D01*
G01X189517Y-54200D02*
X189917Y-55000D01*
G01X191750Y-52000D02*
Y-55000D01*
G01X190983Y-52000D02*
X192517D01*
G01X194250Y-55000D02*
Y-53650D01*
X193583Y-52000D01*
G01X194917D02*
X194250Y-53650D01*
G01X191017Y-62568D02*
X191217Y-62818D01*
X191450Y-62968D01*
X191750Y-63018D01*
X192050Y-62918D01*
X192283Y-62718D01*
X192450Y-62368D01*
X192483Y-61968D01*
X192417Y-61568D01*
X192250Y-61318D01*
X192017Y-61118D01*
X191783Y-61068D01*
X191550Y-61118D01*
X191250Y-61318D01*
X191350Y-60018D01*
X192250D01*
G54D11*
X8500Y109000D03*
Y119000D03*
X43000Y-121730D03*
X130000Y220000D03*
X140000D03*
X178000D03*
X188000D03*
X251000D03*
X261000D03*
X271000D03*
X281000D03*
G54D21*
G01X34000Y-156853D02*
Y-19500D01*
X199500D01*
Y-156853D01*
X34000D01*
G01Y-136782D02*
X199500D01*
G01X34000Y-146818D02*
X199500D01*
G01X34000Y-126747D02*
X199500D01*
G01X34000Y-106677D02*
X199500D01*
G01X34000Y-116712D02*
X199500D01*
G01X34000Y-86606D02*
X199500D01*
G01X34000Y-96641D02*
X199500D01*
G01X34000Y-76571D02*
X199500D01*
G01X34000Y-56500D02*
X199500D01*
G01X34000Y-66535D02*
X199500D01*
G01X34000Y-44500D02*
X199500D01*
G01X34000Y-50500D02*
X199500D01*
G01X52000D02*
Y-156853D01*
G01X92500Y-50500D02*
Y-156853D01*
G01X118000Y-50500D02*
Y-156853D01*
G01X158500Y-50500D02*
Y-156853D01*
G01X165350Y161420D02*
G03I-3933J-3D01*
G01X184000Y-50500D02*
Y-156853D01*
G01X250000Y118110D02*
G03I-5906J0D01*
G54D12*
X11072Y6979D03*
X43000Y-141800D03*
X45128Y6979D03*
G54D13*
X16722Y20758D03*
X39478D03*
X43000Y-131765D03*
G54D14*
X11072Y22727D03*
X43000Y-151835D03*
X45128Y22727D03*
G54D15*
X22500Y19000D03*
X34500D03*
X43000Y-111694D03*
G54D16*
X35748Y77665D03*
X33583D03*
X31417D03*
X29252D03*
X35748Y75500D03*
X33583D03*
X31417D03*
X29252D03*
X35748Y73335D03*
X33583D03*
X31417D03*
X29252D03*
X43000Y-91624D03*
G54D17*
Y-101659D03*
X328500Y88500D03*
X333500D03*
X328500Y103500D03*
Y98500D03*
Y93500D03*
X333500Y103500D03*
Y98500D03*
Y93500D03*
X328500Y118500D03*
Y113500D03*
Y108500D03*
X333500Y118500D03*
Y113500D03*
Y108500D03*
X328500Y133500D03*
Y128500D03*
Y123500D03*
X333500Y133500D03*
Y128500D03*
Y123500D03*
X328500Y143500D03*
Y138500D03*
X333500Y143500D03*
Y138500D03*
G54D18*
X43000Y-81588D03*
X102563Y78500D03*
X106500Y82437D03*
Y74563D03*
X110437Y78500D03*
X106500D03*
G54D19*
X43000Y-61518D03*
X214161Y124000D03*
X218000Y120161D03*
Y127839D03*
Y124000D03*
X221839D03*
M02*
