M48
INCH,TZ
T01C.008
T02C.012
T03C.012
T04C.01378
T05C.021654
T06C.025
T07C.039402
T08C.027598
;LEADER: 12 
;HEADER: 
;CODE  : ASCII 
;FILE  : Auto_Car_17_4-1-4.drl for board H:/07_Auto_Car/01_HW/Main/Layout/#Taaaaan10040.tmp ... layers TOP and BOTTOM
;T01 Holesize 1. = 8.000000 Tolerance = +0.000000/-0.000000 PLATED MILS Quantity = 5
;T02 Holesize 2. = 12.000000 Tolerance = +0.000000/-0.000000 PLATED MILS Quantity = 625
;T03 Holesize 3. = 12.000000 Tolerance = +3.000000/-3.000000 PLATED MILS Quantity = 5
;T04 Holesize 4. = 13.780000 Tolerance = +0.000000/-0.000000 PLATED MILS Quantity = 12
;T05 Holesize 5. = 21.654000 Tolerance = +0.000000/-0.000000 PLATED MILS Quantity = 24
;T06 Holesize 6. = 25.000000 Tolerance = +0.000000/-0.000000 PLATED MILS Quantity = 2
;T07 Holesize 7. = 39.402000 Tolerance = +0.000000/-0.000000 PLATED MILS Quantity = 10
;T08 Holesize 8. = 27.598000 Tolerance = +0.000000/-0.000000 NON_PLATED MILS Quantity = 2
%
G90
T01
X214161Y124000
X218000Y120161
X218000Y124000
X218000Y127839
X221839Y124000
T02
X6521Y6979
X15479Y6979
X11072Y12928
X8500Y17000
X7227Y22727
X8500Y28500
X12000Y30000
X8500Y47000
X3000Y47500
X15000Y48500
X18968Y52370
X15500Y52500
X2732Y53268
X3500Y59000
X12500Y59000
X8500Y59500
X13032Y70032
X20968Y70032
X10500Y75000
X17500Y75000
X6032Y78468
X3000Y84000
X6000Y84000
X4000Y86000
X6500Y88000
X9500Y88000
X12000Y88000
X14500Y88000
X4000Y89000
X6500Y90500
X4000Y92000
X6500Y93000
X11000Y101500
X17500Y102000
X29500Y132000
X22000Y163500
X16922Y164000
X27000Y164000
X17689Y180811
X37500Y191500
X31968Y191468
X56500Y191000
X41000Y189500
X49000Y182500
X45000Y181000
X36000Y181000
X40000Y180000
X56272Y179772
X31469Y179469
X46500Y178000
X39737Y164763
X53516Y164016
X43000Y164000
X30500Y163611
X59000Y160000
X49000Y158500
X45532Y155032
X39468Y154532
X53500Y148700
X31465Y137465
X40032Y101968
X59032Y90532
X35339Y44668
X31828Y44668
X35257Y35939
X31745Y35939
X41500Y32000
X44500Y31500
X45128Y28128
X49273Y22727
X45128Y17872
X45128Y11872
X40000Y7500
X50500Y6500
X45128Y2128
X69000Y3000
X71500Y3000
X74000Y3000
X76500Y3000
X79000Y3000
X81500Y3000
X84000Y3000
X86500Y3000
X89000Y3000
X60500Y14500
X67000Y14500
X76000Y72000
X82500Y72000
X88000Y74000
X66500Y79500
X69000Y79500
X71500Y79500
X66500Y82000
X69000Y82000
X71500Y82000
X62500Y94500
X78500Y108500
X81000Y108500
X83500Y108500
X86000Y108500
X88500Y108500
X78500Y111000
X81000Y111000
X83500Y111000
X86000Y111000
X88500Y111000
X61000Y113500
X65500Y119000
X88173Y122173
X60035Y124965
X66465Y124965
X85500Y125000
X78535Y135465
X89500Y149000
X64000Y153000
X68500Y153000
X85032Y152968
X75500Y162500
X80500Y163000
X68500Y163500
X63500Y164000
X89343Y164157
X86587Y179587
X61784Y179784
X81500Y180500
X71000Y182000
X63000Y185000
X71000Y186500
X84173Y188673
X89673Y188673
X87000Y191000
X99000Y181500
X93000Y181000
X94500Y163500
X99968Y152968
X96000Y149000
X111468Y116532
X103532Y116532
X98500Y111000
X96000Y111000
X93500Y111000
X91000Y111000
X98500Y108500
X96000Y108500
X93500Y108500
X91000Y108500
X92827Y100327
X95000Y98000
X101000Y95500
X107500Y95000
X98500Y92500
X101579Y92421
X108673Y58173
X104500Y58000
X117500Y39000
X115000Y39000
X112500Y39000
X110000Y39000
X107500Y39000
X105000Y39000
X102500Y39000
X100000Y39000
X97500Y36000
X97500Y33500
X97500Y31000
X97500Y28500
X97500Y26000
X97500Y23500
X97500Y21000
X117500Y18000
X115000Y18000
X112500Y18000
X110000Y18000
X107500Y18000
X105000Y18000
X102500Y18000
X100000Y18000
X119000Y3000
X116500Y3000
X114000Y3000
X111500Y3000
X109000Y3000
X106500Y3000
X104000Y3000
X101500Y3000
X99000Y3000
X96500Y3000
X94000Y3000
X91500Y3000
X121500Y3000
X124000Y3000
X126500Y3000
X129000Y3000
X131500Y3000
X134000Y3000
X136500Y3000
X139000Y3000
X141500Y3000
X144000Y3000
X146500Y3000
X149000Y3000
X120000Y18000
X122500Y18000
X125000Y18000
X127500Y18000
X130000Y18000
X132500Y18000
X135000Y18000
X137500Y18000
X140000Y18000
X142500Y18000
X143000Y21000
X143000Y23500
X143000Y26000
X143000Y28500
X143000Y31000
X143000Y33500
X143000Y36000
X120000Y39000
X122500Y39000
X125000Y39000
X127500Y39000
X130000Y39000
X132500Y39000
X135000Y39000
X137500Y39000
X140000Y39000
X142500Y39000
X147000Y70500
X141500Y73500
X126327Y78673
X133500Y81000
X133500Y85500
X133500Y90500
X120500Y98000
X148000Y118500
X139827Y132673
X121500Y139000
X120740Y142260
X134035Y143035
X121500Y145500
X148535Y147035
X130500Y149000
X137500Y149000
X134035Y149465
X144760Y149740
X148535Y151965
X145000Y155000
X148250Y160250
X146500Y166000
X132500Y170000
X138000Y170000
X143500Y201000
X147500Y205000
X134500Y207500
X135000Y216000
X164500Y211000
X159500Y208500
X168468Y206032
X156500Y206000
X176500Y198000
X175500Y173000
X179500Y170000
X173000Y168500
X168500Y168000
X160109Y154149
X178535Y150965
X175500Y150889
X175000Y142000
X169000Y141980
X163500Y142000
X166000Y141500
X171468Y131968
X151500Y129000
X151500Y126000
X165500Y122000
X150500Y122000
X164000Y117000
X150500Y114000
X150500Y110673
X168000Y67500
X179500Y60000
X173327Y56827
X157827Y56827
X170000Y54000
X173327Y51827
X176673Y51673
X152500Y44000
X179000Y3000
X176500Y3000
X174000Y3000
X171500Y3000
X169000Y3000
X166500Y3000
X164000Y3000
X161500Y3000
X159000Y3000
X156500Y3000
X154000Y3000
X151500Y3000
X181500Y3000
X184000Y3000
X186500Y3000
X189000Y3000
X191500Y3000
X194000Y3000
X196500Y3000
X199000Y3000
X201500Y3000
X204000Y3000
X206500Y3000
X209000Y3000
X198000Y22500
X189500Y24000
X208000Y31000
X186000Y31500
X193327Y33020
X196673Y33500
X187500Y36500
X195000Y40500
X200500Y41500
X197500Y42000
X190500Y48000
X188000Y50500
X186500Y53500
X182000Y56787
X182000Y62000
X196000Y62000
X189827Y62327
X193500Y72500
X204000Y75000
X193000Y75500
X193053Y78500
X204500Y80000
X193000Y83500
X192000Y88500
X206173Y102827
X199500Y112000
X199500Y115500
X194500Y136500
X204500Y139500
X209500Y139500
X182000Y151318
X189260Y152240
X196760Y152240
X193035Y154965
X184000Y170000
X186500Y183500
X184500Y188000
X181500Y188500
X196500Y200000
X186500Y202500
X180400Y206958
X223661Y206161
X227661Y177339
X224161Y174339
X219500Y138947
X214500Y138947
X223500Y137000
X220500Y134500
X229500Y134000
X231500Y129500
X229157Y127115
X228734Y120715
X228500Y117500
X220953Y113047
X222921Y110000
X218984Y110000
X215047Y109053
X211500Y109000
X239500Y108500
X237000Y108000
X216980Y102827
X239500Y100500
X236000Y99500
X237500Y96500
X236000Y94000
X233500Y91500
X216000Y90500
X213500Y81947
X221500Y79500
X226500Y79000
X213500Y78000
X219500Y76500
X235500Y68500
X236500Y65000
X234500Y60500
X219500Y60500
X215000Y60500
X211000Y60500
X236500Y58000
X233500Y56000
X219500Y56000
X215000Y56000
X211000Y56000
X236500Y54500
X219500Y51000
X215000Y51000
X211000Y51000
X234500Y46500
X236000Y41500
X239827Y36173
X211500Y30500
X237000Y30000
X226000Y30000
X223500Y28500
X232500Y18000
X218232Y14732
X239000Y3000
X236500Y3000
X234000Y3000
X231500Y3000
X229000Y3000
X226500Y3000
X224000Y3000
X221500Y3000
X219000Y3000
X216500Y3000
X214000Y3000
X211500Y3000
X241500Y3000
X244000Y3000
X246500Y3000
X249000Y3000
X251500Y3000
X254000Y3000
X256500Y3000
X259000Y3000
X261500Y3000
X264000Y3000
X266500Y3000
X269000Y3000
X248000Y5500
X251000Y5500
X254000Y5500
X257000Y5500
X260000Y5500
X263000Y5500
X266000Y5500
X269000Y5500
X248000Y8000
X251000Y8000
X254000Y8000
X257000Y8000
X260000Y8000
X263000Y8000
X266000Y8000
X269000Y8000
X248000Y10500
X251000Y10500
X254000Y10500
X257000Y10500
X260000Y10500
X263000Y10500
X266000Y10500
X269000Y10500
X248000Y13000
X251000Y13000
X254000Y13000
X257000Y13000
X260000Y13000
X263000Y13000
X266000Y13000
X269000Y13000
X260000Y15500
X263000Y15500
X266000Y15500
X269000Y15500
X260000Y18000
X266000Y18000
X263000Y18500
X269000Y18500
X260000Y20500
X266000Y20500
X263000Y21000
X269000Y21000
X260000Y23000
X266000Y23000
X263000Y23500
X269000Y23500
X260000Y25500
X266000Y25500
X263000Y26000
X269000Y26000
X260000Y28000
X266000Y28000
X263000Y28500
X269000Y28500
X260000Y31000
X263000Y31000
X266000Y31000
X269000Y31000
X260000Y33500
X263000Y33500
X266000Y33500
X269000Y33500
X260000Y36000
X263000Y36000
X266000Y36000
X269000Y36000
X260000Y38500
X263000Y38500
X266000Y38500
X269000Y38500
X260000Y41000
X263000Y41000
X266000Y41000
X269000Y41000
X254500Y42500
X260000Y43500
X263000Y43500
X266000Y43500
X269000Y43500
X251520Y45326
X258000Y46500
X260500Y46500
X263000Y46500
X265500Y46500
X268000Y46500
X258000Y51500
X260500Y51500
X263000Y51500
X265500Y51500
X268000Y51500
X265500Y54000
X269000Y54000
X265500Y56500
X269000Y56500
X265500Y59000
X269000Y59000
X256000Y60000
X265500Y61500
X269000Y61500
X269000Y64000
X269000Y66500
X256500Y67000
X256500Y71000
X247500Y74000
X264500Y90500
X254500Y92500
X268000Y98500
X243000Y101000
X243000Y108000
X256000Y127500
X258500Y127500
X261000Y127500
X263500Y127500
X267000Y128000
X256000Y130000
X258500Y130000
X261000Y130000
X263500Y130000
X267000Y131500
X256000Y132500
X258500Y132500
X261000Y132500
X263500Y132500
X256000Y135000
X258500Y135000
X261000Y135000
X263500Y135000
X263500Y155500
X261075Y161925
X264423Y174102
X264827Y176827
X262500Y178500
X266000Y186000
X268173Y188827
X266000Y195000
X249965Y196465
X245000Y197000
X245500Y201000
X268240Y205740
X273035Y208965
X282500Y208500
X276673Y185827
X286500Y182000
X271000Y175000
X286000Y158500
X282500Y157500
X273147Y152845
X298500Y136500
X274500Y133000
X299500Y131000
X270000Y127500
X283000Y126000
X298000Y122000
X284500Y111000
X293500Y108500
X291000Y108416
X275000Y101000
X293827Y94173
X287532Y93532
X294500Y73000
X292000Y73000
X289500Y73000
X287000Y73000
X284500Y73000
X282000Y73000
X279500Y73000
X277000Y73000
X274500Y72500
X311000Y90000
X311000Y94500
X309000Y97000
X305000Y100000
X300500Y104000
X305000Y108000
X310000Y108000
X309500Y111000
X309500Y115500
X309500Y120000
X309500Y124500
X309500Y129000
X309500Y134000
X301400Y136500
X309500Y138500
X309500Y143000
X309500Y147500
X342500Y125500
X339600Y125500
X337000Y120500
X344000Y91500
X344000Y88500
X344000Y85500
T03
X102563Y78500
X106500Y74563
X106500Y78500
X110437Y78500
X106500Y82437
T04
X29252Y73335
X29252Y75500
X29252Y77665
X31417Y73335
X33583Y73335
X35748Y73335
X31417Y75500
X33583Y75500
X35748Y75500
X31417Y77665
X33583Y77665
X35748Y77665
T05
X328500Y88500
X328500Y93500
X328500Y98500
X328500Y103500
X328500Y108500
X328500Y113500
X328500Y118500
X328500Y123500
X328500Y128500
X328500Y133500
X328500Y138500
X328500Y143500
X333500Y143500
X333500Y138500
X333500Y133500
X333500Y128500
X333500Y123500
X333500Y118500
X333500Y113500
X333500Y108500
X333500Y103500
X333500Y98500
X333500Y93500
X333500Y88500
T06
X22500Y19000
X34500Y19000
T07
X8500Y109000
X8500Y119000
X130000Y220000
X140000Y220000
X178000Y220000
X188000Y220000
X251000Y220000
X261000Y220000
X271000Y220000
X281000Y220000
T08
X16722Y20758
X39478Y20758
M30
